<svg width="19" height="23" viewBox="0 0 19 23" fill="none" xmlns="http://www.w3.org/2000/svg">
<path d="M11.5 1.39844H3.5C2.96957 1.39844 2.46086 1.60915 2.08579 1.98422C1.71071 2.3593 1.5 2.868 1.5 3.39844V19.3984C1.5 19.9289 1.71071 20.4376 2.08579 20.8127C2.46086 21.1877 2.96957 21.3984 3.5 21.3984H15.5C16.0304 21.3984 16.5391 21.1877 16.9142 20.8127C17.2893 20.4376 17.5 19.9289 17.5 19.3984V7.39844M11.5 1.39844L17.5 7.39844M11.5 1.39844V7.39844H17.5M13.5 12.3984H5.5M13.5 16.3984H5.5M7.5 8.39844H5.5" stroke-width="2" stroke-linecap="round" stroke-linejoin="round"/>
</svg>
