<svg width="28" height="28" viewBox="0 0 28 28"  xmlns="http://www.w3.org/2000/svg">
<path d="M25.7687 11.6667H19.0262C17.539 11.6667 16.3333 10.461 16.3333 8.97382V2.23125C16.3333 0.998958 15.2906 0 14 0C12.7094 0 11.6667 0.998958 11.6667 2.23125V8.97382C11.6667 10.461 10.461 11.6667 8.97382 11.6667H2.23125C0.998958 11.6667 0 12.7094 0 14C0 15.2906 0.998958 16.3333 2.23125 16.3333H8.97382C10.461 16.3333 11.6667 17.539 11.6667 19.0262V25.7687C11.6667 27.001 12.7094 28 14 28C15.2906 28 16.3333 27.001 16.3333 25.7687V19.0262C16.3333 17.539 17.539 16.3333 19.0262 16.3333H25.7687C27.001 16.3333 28 15.2906 28 14C28 12.7094 27.001 11.6667 25.7687 11.6667Z"/>
<path d="M25.7687 11.6667H19.0262C17.539 11.6667 16.3333 10.461 16.3333 8.97382V2.23125C16.3333 0.998958 15.2906 0 14 0C12.7094 0 11.6667 0.998958 11.6667 2.23125V8.97382C11.6667 10.461 10.461 11.6667 8.97382 11.6667H2.23125C0.998958 11.6667 0 12.7094 0 14C0 15.2906 0.998958 16.3333 2.23125 16.3333H8.97382C10.461 16.3333 11.6667 17.539 11.6667 19.0262V25.7687C11.6667 27.001 12.7094 28 14 28C15.2906 28 16.3333 27.001 16.3333 25.7687V19.0262C16.3333 17.539 17.539 16.3333 19.0262 16.3333H25.7687C27.001 16.3333 28 15.2906 28 14C28 12.7094 27.001 11.6667 25.7687 11.6667Z"/>
</svg>
