<svg width="22" height="24" viewBox="0 0 22 24" fill="none" xmlns="http://www.w3.org/2000/svg">
<path d="M17.5336 7.64622C17.5336 5.91341 16.8452 4.25158 15.6199 3.0263C14.3947 1.80102 12.7328 1.11267 11 1.11267C9.26722 1.11267 7.60539 1.80102 6.38011 3.0263C5.15483 4.25158 4.46648 5.91341 4.46648 7.64622C4.46648 15.2687 1.19971 17.4465 1.19971 17.4465H20.8003C20.8003 17.4465 17.5336 15.2687 17.5336 7.64622Z" fill="#2D2D2D"/>
<path d="M12.8839 21.8022C12.6924 22.1323 12.4176 22.4062 12.087 22.5966C11.7564 22.7871 11.3816 22.8873 11 22.8873C10.6185 22.8873 10.2436 22.7871 9.91303 22.5966C9.58242 22.4062 9.30763 22.1323 9.11619 21.8022" fill="#2D2D2D"/>
<path d="M12.8839 21.8022C12.6924 22.1323 12.4176 22.4062 12.087 22.5966C11.7564 22.7871 11.3816 22.8873 11 22.8873C10.6185 22.8873 10.2436 22.7871 9.91303 22.5966C9.58242 22.4062 9.30763 22.1323 9.11619 21.8022M17.5336 7.64622C17.5336 5.91341 16.8452 4.25158 15.6199 3.0263C14.3947 1.80102 12.7328 1.11267 11 1.11267C9.26722 1.11267 7.60539 1.80102 6.38011 3.0263C5.15483 4.25158 4.46648 5.91341 4.46648 7.64622C4.46648 15.2687 1.19971 17.4465 1.19971 17.4465H20.8003C20.8003 17.4465 17.5336 15.2687 17.5336 7.64622Z" stroke="#2D2D2D" stroke-width="2.17785" stroke-linecap="round" stroke-linejoin="round"/>
</svg>
