<svg width="21" height="22" viewBox="0 0 21 22" fill="none" xmlns="http://www.w3.org/2000/svg">
<path fill-rule="evenodd" clip-rule="evenodd" d="M3.99075 17.7297C3.25284 18.1461 2.314 17.8696 1.89559 17.1152L1.10536 15.6904C0.686194 14.9347 0.924478 13.9538 1.64556 13.4946L2.14369 13.1773C2.45622 12.9782 2.70961 12.5074 2.70935 12.1258L2.70824 9.87934C2.70799 9.49778 2.45485 9.02735 2.14169 8.82788L1.64369 8.51062C0.926086 8.05356 0.685302 7.06926 1.10425 6.31511L1.89537 4.89083C2.31504 4.1353 3.25116 3.85919 3.99426 4.27868L4.50759 4.56842C4.8299 4.75026 5.34891 4.74319 5.66701 4.5526L7.53921 3.43042C7.85731 3.2397 8.12296 2.77698 8.13246 2.39542L8.1478 1.7884C8.1697 0.91402 8.86949 0.204681 9.70722 0.204154L11.2895 0.203125C12.1289 0.202611 12.827 0.906967 12.849 1.78184L12.8643 2.3932C12.874 2.77437 13.1395 3.23798 13.4576 3.42896L15.3295 4.5523C15.6476 4.74314 16.1662 4.75073 16.4891 4.5685L17.0061 4.27658C17.744 3.86018 18.6829 4.13666 19.1013 4.89103L19.8915 6.3158C20.3107 7.0716 20.0724 8.05244 19.3513 8.51167L18.8532 8.82893C18.5407 9.02801 18.2873 9.49883 18.2875 9.8805L18.2886 12.1269C18.2889 12.5085 18.542 12.9789 18.8552 13.1784L19.3532 13.4956C20.0708 13.9527 20.3116 14.937 19.8926 15.6911L19.1015 17.1154C18.6818 17.8709 17.7457 18.1471 17.0026 17.7276L16.4893 17.4378C16.167 17.256 15.648 17.2631 15.3299 17.4536L13.4577 18.5758C13.1396 18.7665 12.8739 19.2293 12.8644 19.6108L12.8491 20.2179C12.8272 21.0922 12.1274 21.8016 11.2896 21.8021L9.70733 21.8031C8.86797 21.8036 8.16991 21.0993 8.1479 20.2244L8.13256 19.613C8.12291 19.2319 7.85739 18.7683 7.53931 18.5773L5.66733 17.454C5.34923 17.2631 4.8307 17.2555 4.50779 17.4377L3.99075 17.7297ZM8.21792 15.1088C10.3994 16.418 13.1888 15.6411 14.4485 13.3736C15.7081 11.106 14.9606 8.20676 12.779 6.89745C10.5975 5.58814 7.80816 6.36516 6.54849 8.63267C5.28883 10.9002 6.03639 13.7995 8.21792 15.1088Z" fill="#2D2D2D"/>
</svg>
