<svg width="24" height="28" viewBox="0 0 24 28" fill="none" xmlns="http://www.w3.org/2000/svg">
<path fill-rule="evenodd" clip-rule="evenodd" d="M3.86539 22.4082C2.94301 22.9287 1.76945 22.5831 1.24644 21.6401L0.258658 19.8592C-0.265305 18.9144 0.0325507 17.6884 0.933902 17.1143L1.55657 16.7177C1.94723 16.4689 2.26396 15.8804 2.26364 15.4033L2.26225 12.5953C2.26194 12.1183 1.94551 11.5303 1.55407 11.2809L0.93156 10.8844C0.0345602 10.313 -0.26642 9.08266 0.257266 8.13998L1.24616 6.35964C1.77076 5.41523 2.9409 5.07008 3.86977 5.59444L4.51144 5.95662C4.91433 6.18392 5.56309 6.17508 5.96071 5.93685L8.30097 4.53412C8.69859 4.29572 9.03065 3.71732 9.04253 3.24036L9.0617 2.48159C9.08908 1.38862 9.96381 0.501945 11.011 0.501286L12.9889 0.5C14.0381 0.499357 14.9107 1.3798 14.9382 2.47339L14.9573 3.2376C14.9694 3.71406 15.3013 4.29357 15.6989 4.5323L18.0389 5.93647C18.4365 6.17502 19.0847 6.18451 19.4883 5.95672L20.1346 5.59181C21.057 5.07132 22.2305 5.41692 22.7536 6.35989L23.7413 8.14085C24.2653 9.08559 23.9675 10.3117 23.0661 10.8857L22.4434 11.2823C22.0528 11.5311 21.736 12.1196 21.7364 12.5967L21.7377 15.4047C21.7381 15.8817 22.0545 16.4697 22.4459 16.7191L23.0684 17.1156C23.9654 17.687 24.2664 18.9173 23.7427 19.86L22.7538 21.6404C22.2292 22.5848 21.0591 22.9299 20.1302 22.4056L19.4886 22.0434C19.0857 21.8161 18.4369 21.8249 18.0393 22.0632L15.699 23.4659C15.3014 23.7043 14.9693 24.2827 14.9575 24.7596L14.9383 25.5184C14.9109 26.6114 14.0362 27.4981 12.989 27.4987L11.0111 27.5C9.96192 27.5006 9.08935 26.6202 9.06183 25.5266L9.04265 24.7624C9.03059 24.2859 8.6987 23.7064 8.30109 23.4677L5.96112 22.0635C5.56349 21.825 4.91533 21.8155 4.51169 22.0433L3.86539 22.4082ZM9.14935 19.1321C11.8763 20.7685 15.3629 19.7974 16.9375 16.963C18.5121 14.1287 17.5777 10.5045 14.8507 8.86791C12.1238 7.23127 8.63715 8.20255 7.06257 11.0369C5.48799 13.8713 6.42244 17.4954 9.14935 19.1321Z" />
</svg>
