<svg width="8" height="15" viewBox="0 0 8 15" fill="none" xmlns="http://www.w3.org/2000/svg">
<path fill-rule="evenodd" clip-rule="evenodd" d="M3.36734 11.9471L1.49464 9.96321C1.24574 9.69947 0.842657 9.69947 0.593757 9.96321C0.344857 10.2269 0.344857 10.6541 0.593757 10.9178L3.55124 14.052C3.80014 14.3153 4.20366 14.3153 4.45256 14.052C5.90476 12.5128 7.18154 11.1599 7.40708 10.9214C7.65598 10.6577 7.65598 10.2301 7.40708 9.96636C7.15818 9.70307 6.75466 9.70307 6.50576 9.96636L4.64157 11.9421L4.64157 1.42548C4.64157 1.24636 4.57446 1.07443 4.45468 0.947962C4.33533 0.821495 4.1735 0.750386 4.00445 0.750386C3.83541 0.750386 3.67315 0.821495 3.5538 0.947962C3.43445 1.07443 3.36734 1.24636 3.36734 1.42548L3.36734 11.9471Z" fill="#D2D2D7"/>
</svg>
