<svg width="16" height="16" viewBox="0 0 16 16" xmlns="http://www.w3.org/2000/svg">
<path d="M8.00001 0C10.1218 0 12.1566 0.842879 13.6568 2.3432C15.1571 3.84351 16 5.87839 16 7.99999C16 10.1216 15.1571 12.1566 13.6568 13.6568C12.1565 15.157 10.1216 16 8.00001 16C5.87842 16 3.84338 15.1571 2.34322 13.6568C0.842968 12.1565 2.57492e-05 10.1216 2.57492e-05 7.99999C2.57492e-05 6.59567 0.369658 5.21615 1.07183 3.99999C1.77396 2.78387 2.78383 1.77392 3.99999 1.07184C5.21611 0.369647 6.59566 3.19824e-05 7.99998 3.19824e-05L8.00001 0ZM8.00001 14.4C9.69745 14.4 11.3253 13.7257 12.5254 12.5254C13.7256 11.3252 14.4 9.69726 14.4 7.99999C14.4 6.30271 13.7257 4.67471 12.5254 3.47455C11.3252 2.27436 9.69729 1.6 8.00001 1.6C6.30274 1.6 4.67474 2.27432 3.47458 3.47455C2.27439 4.67481 1.60002 6.30271 1.60002 7.99999C1.60002 9.12343 1.89577 10.227 2.45746 11.2C3.01914 12.1729 3.82709 12.9808 4.80002 13.5425C5.77296 14.1042 6.87665 14.4 8.00001 14.4Z" />
<path d="M8.00078 6.40002C8.21297 6.40002 8.41646 6.48434 8.56646 6.63434C8.71646 6.78435 8.80078 6.98785 8.80078 7.20002V11.2C8.80078 11.4858 8.64828 11.75 8.40078 11.8928C8.15328 12.0358 7.84829 12.0358 7.60078 11.8928C7.35328 11.75 7.20078 11.4858 7.20078 11.2V7.20002C7.20078 6.98783 7.2851 6.78434 7.4351 6.63434C7.58511 6.48434 7.78861 6.40002 8.00078 6.40002Z"/>
<path d="M8.56877 4.23199C8.71495 4.3853 8.79782 4.58818 8.80077 4.79998C8.80202 5.01261 8.71852 5.21698 8.56877 5.36798C8.49102 5.43867 8.40171 5.49548 8.30477 5.53598C8.11114 5.62155 7.8904 5.62155 7.69677 5.53598C7.59983 5.49548 7.51051 5.43867 7.43277 5.36798C7.36233 5.29005 7.30558 5.2008 7.26477 5.10398C7.21996 5.00905 7.19808 4.90493 7.20077 4.79998C7.19952 4.58693 7.28333 4.38211 7.43365 4.23104C7.58396 4.07998 7.78834 3.99517 8.00139 3.99536C8.21451 3.99549 8.4187 4.08067 8.56877 4.23199Z"/>
</svg>
