<svg width="73" height="12" viewBox="0 0 73 12" fill="none" xmlns="http://www.w3.org/2000/svg">
<path d="M7.66313 10.4077V11.6505H6.91954C6.16049 11.6505 5.62561 11.4081 5.3999 10.6501C4.84955 11.3448 3.96065 11.8126 2.74865 11.8126C1.18108 11.8126 0 11.07 0 9.48754C0 7.90506 1.16408 7.16245 2.71618 7.01733L5.18966 6.77494V6.37199C5.18966 5.33913 4.60839 4.75708 3.60509 4.75708C2.60178 4.75708 2.10091 5.33758 1.95559 6.17746H0.323097C0.468414 4.57954 1.66496 3.41699 3.60509 3.41699C5.54522 3.41699 6.83761 4.41743 6.83761 6.43529V9.74537C6.83761 10.1977 7.04785 10.4077 7.45134 10.4077H7.66158H7.66313ZM5.18966 7.95447L3.26653 8.14745C2.3127 8.22773 1.6495 8.64767 1.6495 9.4227C1.6495 10.1977 2.26323 10.5204 2.99136 10.5204C3.99311 10.5204 5.18966 10.0032 5.18966 8.55041V7.95292V7.95447Z" fill="#2D2D2D"/>
<path d="M16.0837 11.6505H14.5965L14.4342 10.6825H14.3214C13.8684 11.2954 13.2052 11.8126 11.9608 11.8126C10.1659 11.8126 8.93848 10.6671 8.93848 8.58437V3.5791H10.588V8.22928C10.588 9.7145 11.3965 10.3768 12.4307 10.3768C13.4649 10.3768 14.4358 9.69906 14.4358 8.10114V3.58065H16.0853V11.6536L16.0837 11.6505Z" fill="#2D2D2D"/>
<path d="M19.123 9.6976V4.9023H17.3777V3.57919H17.9435C18.8973 3.57919 19.2529 3.23954 19.2529 2.36879V1.38379H20.7555V3.57919H22.8085V4.9023H20.7555V9.47065C20.7555 10.0033 20.9488 10.4881 21.8067 10.4881C22.0649 10.4881 22.3571 10.4402 22.5983 10.3584V11.6336C22.2906 11.7139 21.8701 11.8112 21.3368 11.8112C19.4461 11.8112 19.1215 10.6162 19.1215 9.69606L19.123 9.6976Z" fill="#2D2D2D"/>
<path d="M23.5674 7.61481C23.5674 5.16158 25.3127 3.41699 27.6904 3.41699C30.068 3.41699 31.8442 5.17702 31.8442 7.61481C31.8442 10.0526 30.0664 11.8126 27.6904 11.8126C25.3143 11.8126 23.5674 10.0372 23.5674 7.61481ZM30.2117 7.61481C30.2117 6.09717 29.193 4.85435 27.6904 4.85435C26.1877 4.85435 25.2014 6.09717 25.2014 7.61481C25.2014 9.13245 26.1877 10.3753 27.6904 10.3753C29.193 10.3753 30.2117 9.11547 30.2117 7.61481Z" fill="#2D2D2D"/>
<path d="M36.8873 6.82409L40.2017 11.6518H38.3745L35.7711 7.92179L34.7694 8.90679V11.6518H33.1199V0.188477H34.7694V6.80711H34.8822L38.2121 3.57885H40.2002L36.8857 6.82409H36.8873Z" fill="#2D2D2D"/>
<path d="M41.2358 1.33364C41.2358 0.753139 41.7213 0.300781 42.3025 0.300781C42.8838 0.300781 43.3367 0.753139 43.3367 1.33364C43.3367 1.91414 42.8683 2.38348 42.3025 2.38348C41.7367 2.38348 41.2358 1.8987 41.2358 1.33364ZM41.4786 3.57845H43.128V11.6514H41.4786V3.57845Z" fill="#2D2D2D"/>
<path d="M46.1333 9.6976V4.9023H44.3879V3.57919H44.9537C45.9076 3.57919 46.2631 3.23954 46.2631 2.36879V1.38379H47.7673V3.57919H49.8203V4.9023H47.7673V9.47065C47.7673 10.0033 47.9606 10.4881 48.8185 10.4881C49.0767 10.4881 49.3673 10.4402 49.6101 10.3584V11.6336C49.3024 11.7139 48.8819 11.8112 48.3486 11.8112C46.4564 11.8112 46.1333 10.6162 46.1333 9.69606V9.6976Z" fill="#2D2D2D"/>
<path d="M52.4546 9.6976V4.9023H50.7092V3.57919H51.275C52.2289 3.57919 52.5844 3.23954 52.5844 2.36879V1.38379H54.0886V3.57919H56.1416V4.9023H54.0886V9.47065C54.0886 10.0033 54.2819 10.4881 55.1398 10.4881C55.398 10.4881 55.6886 10.4402 55.9313 10.3584V11.6336C55.6237 11.7139 55.2032 11.8112 54.6699 11.8112C52.7777 11.8112 52.4546 10.6162 52.4546 9.69606V9.6976Z" fill="#2D2D2D"/>
<path d="M64.4971 8.03475H58.516C58.5963 9.47211 59.4698 10.4725 60.892 10.4725C61.9108 10.4725 62.6544 10.0526 62.9126 9.22972H64.4971C64.157 10.8446 62.7997 11.8126 60.892 11.8126C58.5639 11.8126 56.8989 10.1823 56.8989 7.69509C56.8989 5.06432 58.6288 3.41699 60.8271 3.41699C62.7997 3.41699 64.5296 4.72466 64.5296 7.50211C64.5296 7.66422 64.5126 7.82478 64.4971 8.03475ZM58.5314 6.8722H62.928C62.9126 5.62938 62.0716 4.75708 60.8271 4.75708C59.5826 4.75708 58.6937 5.69422 58.5314 6.8722Z" fill="#2D2D2D"/>
<path d="M73.0001 6.64654V11.6518H71.3506V7.00164C71.3506 5.51642 70.542 4.85409 69.5078 4.85409C68.4736 4.85409 67.5028 5.53186 67.5028 7.12978V11.6503H65.8533V0.188477H67.5028V4.54686H67.6156C68.0686 3.93394 68.7318 3.41674 69.9762 3.41674C71.7711 3.41674 72.9985 4.5623 72.9985 6.645L73.0001 6.64654Z" fill="#2D2D2D"/>
</svg>
