<svg width="36" height="36" viewBox="0 0 36 36" fill="none" xmlns="http://www.w3.org/2000/svg">
<path d="M20.8325 23.8444C20.8325 23.8444 23.4518 20.9696 26.7614 20.7193L27.8579 13.982L35.0051 23.9256C35.6413 22.0722 36 20.0631 36 18C36 8.05637 27.9323 0 17.9898 0C8.04737 0 0 8.06314 0 18C0 27.9369 8.06768 36 18.0102 36C19.1269 36 20.2234 35.8985 21.2657 35.6956L14.0643 20.9763L20.8325 23.8512V23.8444Z" fill="#2D2D2D"/>
<path d="M29.8342 28.4095C30.4556 28.1517 30.6888 27.291 30.3549 26.4871C30.0211 25.6831 29.2466 25.2403 28.6252 25.4981C28.0038 25.7559 27.7706 26.6166 28.1045 27.4205C28.4384 28.2245 29.2128 28.6673 29.8342 28.4095Z" fill="#2D2D2D"/>
<path d="M25.4394 30.888C26.0609 30.6303 26.294 29.7696 25.9602 28.9656C25.6263 28.1616 24.8519 27.7189 24.2304 27.9766C23.609 28.2344 23.3759 29.0951 23.7097 29.8991C24.0436 30.703 24.818 31.1458 25.4394 30.888Z" fill="#2D2D2D"/>
</svg>
