<svg width="101" height="101" viewBox="0 0 101 101" fill="none" xmlns="http://www.w3.org/2000/svg">
<path d="M94.94 51.5527C94.94 48.2702 94.6454 45.114 94.0983 42.084H50.5V60.0115H75.4133C74.3192 65.7769 71.0367 70.6586 66.1129 73.9411V85.5981H81.1367C89.89 77.5182 94.94 65.6506 94.94 51.5527Z" fill="#4285F4"/>
<path d="M50.5001 96.7921C62.9989 96.7921 73.4777 92.6679 81.1368 85.5979L66.1131 73.9408C61.9889 76.7183 56.7285 78.4016 50.5001 78.4016C38.4643 78.4016 28.2381 70.2796 24.5768 59.3379H9.17432V71.2896C16.7914 86.3975 32.4043 96.7921 50.5001 96.7921Z" fill="#34A853"/>
<path d="M24.5768 59.2945C23.651 56.517 23.1039 53.5711 23.1039 50.499C23.1039 47.427 23.651 44.4811 24.5768 41.7036V29.752H9.17433C6.01808 35.9803 4.2085 43.0082 4.2085 50.499C4.2085 57.9899 6.01808 65.0178 9.17433 71.2461L21.1681 61.9036L24.5768 59.2945Z" fill="#FBBC05"/>
<path d="M50.5001 22.6415C57.3176 22.6415 63.3776 24.9982 68.2172 29.5432L81.4735 16.2869C73.4356 8.79607 62.9989 4.20898 50.5001 4.20898C32.4043 4.20898 16.7914 14.6036 9.17432 29.7536L24.5768 41.7052C28.2381 30.7636 38.4643 22.6415 50.5001 22.6415Z" fill="#EA4335"/>
</svg>
