<svg width="73" height="100" viewBox="0 0 73 100" fill="none" xmlns="http://www.w3.org/2000/svg">
<mask id="mask0_4204_44640" style="mask-type:luminance" maskUnits="userSpaceOnUse" x="1" y="1" width="71" height="98">
<path d="M45.3143 1.42969H7.85218C4.21615 1.42969 1.24121 4.4101 1.24121 8.05282V91.9459C1.24121 95.5886 4.21615 98.569 7.85218 98.569H65.1472C68.7833 98.569 71.7582 95.5886 71.7582 91.9459V27.9222L45.3143 1.42969Z" fill="white"/>
</mask>
<g mask="url(#mask0_4204_44640)">
<path d="M45.3143 1.42969H7.85218C4.21615 1.42969 1.24121 4.4101 1.24121 8.05282V91.9459C1.24121 95.5886 4.21615 98.569 7.85218 98.569H65.1472C68.7833 98.569 71.7582 95.5886 71.7582 91.9459V27.9222L56.3326 16.8837L45.3143 1.42969Z" fill="#0F9D58"/>
</g>
<mask id="mask1_4204_44640" style="mask-type:luminance" maskUnits="userSpaceOnUse" x="1" y="1" width="71" height="98">
<path d="M45.3143 1.42969H7.85218C4.21615 1.42969 1.24121 4.4101 1.24121 8.05282V91.9459C1.24121 95.5886 4.21615 98.569 7.85218 98.569H65.1472C68.7833 98.569 71.7582 95.5886 71.7582 91.9459V27.9222L45.3143 1.42969Z" fill="white"/>
</mask>
<g mask="url(#mask1_4204_44640)">
</g>
<mask id="mask2_4204_44640" style="mask-type:luminance" maskUnits="userSpaceOnUse" x="1" y="1" width="71" height="98">
<path d="M45.3143 1.42969H7.85218C4.21615 1.42969 1.24121 4.4101 1.24121 8.05282V91.9459C1.24121 95.5886 4.21615 98.569 7.85218 98.569H65.1472C68.7833 98.569 71.7582 95.5886 71.7582 91.9459V27.9222L45.3143 1.42969Z" fill="white"/>
</mask>
<g mask="url(#mask2_4204_44640)">
<path d="M47.248 25.9844L71.7582 50.5341V27.9216L47.248 25.9844Z" fill="url(#paint0_linear_4204_44640)"/>
</g>
<mask id="mask3_4204_44640" style="mask-type:luminance" maskUnits="userSpaceOnUse" x="1" y="1" width="71" height="98">
<path d="M45.3143 1.42969H7.85218C4.21615 1.42969 1.24121 4.4101 1.24121 8.05282V91.9459C1.24121 95.5886 4.21615 98.569 7.85218 98.569H65.1472C68.7833 98.569 71.7582 95.5886 71.7582 91.9459V27.9222L45.3143 1.42969Z" fill="white"/>
</mask>
<g mask="url(#mask3_4204_44640)">
<path d="M45.3145 1.42969V21.2991C45.3145 24.9584 48.2729 27.9222 51.9254 27.9222H71.7583L45.3145 1.42969Z" fill="#87CEAC"/>
</g>
<mask id="mask4_4204_44640" style="mask-type:luminance" maskUnits="userSpaceOnUse" x="1" y="1" width="71" height="98">
<path d="M45.3143 1.42969H7.85218C4.21615 1.42969 1.24121 4.4101 1.24121 8.05282V91.9459C1.24121 95.5886 4.21615 98.569 7.85218 98.569H65.1472C68.7833 98.569 71.7582 95.5886 71.7582 91.9459V27.9222L45.3143 1.42969Z" fill="white"/>
</mask>
<g mask="url(#mask4_4204_44640)">
<path d="M7.85218 1.42969C4.21615 1.42969 1.24121 4.4101 1.24121 8.05282V8.60475C1.24121 4.96203 4.21615 1.98162 7.85218 1.98162H45.3143V1.42969H7.85218Z" fill="white" fill-opacity="0.2"/>
</g>
<mask id="mask5_4204_44640" style="mask-type:luminance" maskUnits="userSpaceOnUse" x="1" y="1" width="71" height="98">
<path d="M45.3143 1.42969H7.85218C4.21615 1.42969 1.24121 4.4101 1.24121 8.05282V91.9459C1.24121 95.5886 4.21615 98.569 7.85218 98.569H65.1472C68.7833 98.569 71.7582 95.5886 71.7582 91.9459V27.9222L45.3143 1.42969Z" fill="white"/>
</mask>
<g mask="url(#mask5_4204_44640)">
<path d="M65.1472 98.0177H7.85218C4.21615 98.0177 1.24121 95.0373 1.24121 91.3945V91.9465C1.24121 95.5892 4.21615 98.5696 7.85218 98.5696H65.1472C68.7833 98.5696 71.7582 95.5892 71.7582 91.9465V91.3945C71.7582 95.0373 68.7833 98.0177 65.1472 98.0177Z" fill="#263238" fill-opacity="0.2"/>
</g>
<mask id="mask6_4204_44640" style="mask-type:luminance" maskUnits="userSpaceOnUse" x="1" y="1" width="71" height="98">
<path d="M45.3143 1.42969H7.85218C4.21615 1.42969 1.24121 4.4101 1.24121 8.05282V91.9459C1.24121 95.5886 4.21615 98.569 7.85218 98.569H65.1472C68.7833 98.569 71.7582 95.5886 71.7582 91.9459V27.9222L45.3143 1.42969Z" fill="white"/>
</mask>
<g mask="url(#mask6_4204_44640)">
<path d="M51.9254 27.9239C48.2729 27.9239 45.3145 24.9601 45.3145 21.3008V21.8527C45.3145 25.512 48.2729 28.4758 51.9254 28.4758H71.7583V27.9239H51.9254Z" fill="#263238" fill-opacity="0.1"/>
<path d="M45.0731 1H7.61097C3.97494 1 1 3.98041 1 7.62313V91.5162C1 95.1589 3.97494 98.1393 7.61097 98.1393H64.906C68.5421 98.1393 71.517 95.1589 71.517 91.5162V27.4925L45.0731 1Z" fill="url(#paint1_radial_4204_44640)"/>
</g>
<path d="M18.8701 48.8945V80.9063H54.1286V48.8945H18.8701ZM34.2957 76.4909H23.2774V70.9716H34.2957V76.4909ZM34.2957 67.6601H23.2774V62.1408H34.2957V67.6601ZM34.2957 58.8292H23.2774V53.31H34.2957V58.8292ZM49.7213 76.4909H38.703V70.9716H49.7213V76.4909ZM49.7213 67.6601H38.703V62.1408H49.7213V67.6601ZM49.7213 58.8292H38.703V53.31H49.7213V58.8292Z" fill="#F1F1F1"/>
<defs>
<linearGradient id="paint0_linear_4204_44640" x1="1272.89" y1="236.771" x2="1272.89" y2="2481.3" gradientUnits="userSpaceOnUse">
<stop stop-color="#263238" stop-opacity="0.2"/>
<stop offset="1" stop-color="#263238" stop-opacity="0.02"/>
</linearGradient>
<radialGradient id="paint1_radial_4204_44640" cx="0" cy="0" r="1" gradientUnits="userSpaceOnUse" gradientTransform="translate(224.401 192.99) scale(11370.8 11391.7)">
<stop stop-color="white" stop-opacity="0.1"/>
<stop offset="1" stop-color="white" stop-opacity="0"/>
</radialGradient>
</defs>
</svg>
