<svg width="99" height="99" viewBox="0 0 99 99" fill="none" xmlns="http://www.w3.org/2000/svg">
<path d="M90.0049 10.6055H47.4385C47.4385 15.7016 49.4629 20.5891 53.0665 24.1926C56.67 27.7962 61.5575 29.8206 66.6536 29.8206H74.4949V37.3915C74.5018 47.9941 83.095 56.5876 93.6976 56.5945V14.2981C93.6976 12.2593 92.0448 10.6055 90.0049 10.6055Z" fill="#2684FF"/>
<path d="M68.9431 31.8125H26.377C26.3835 42.4151 34.9767 51.0086 45.5796 51.0155H53.4209V58.6106C53.4344 69.2132 62.0335 77.8009 72.636 77.8009V35.5058C72.636 33.4663 70.9826 31.8125 68.9431 31.8125Z" fill="url(#paint0_linear_4201_51708)"/>
<path d="M47.8692 53.0117H5.30273C5.30273 63.624 13.906 72.2269 24.5179 72.2269H32.3837V79.7974C32.3906 90.3903 40.9689 98.98 51.5622 99.0001V56.7047C51.5622 54.6652 49.9087 53.0117 47.8692 53.0117Z" fill="url(#paint1_linear_4201_51708)"/>
<defs>
<linearGradient id="paint0_linear_4201_51708" x1="11604.9" y1="52.9853" x2="7012.82" y2="5419.47" gradientUnits="userSpaceOnUse">
<stop offset="0.18" stop-color="#0052CC"/>
<stop offset="1" stop-color="#2684FF"/>
</linearGradient>
<linearGradient id="paint1_linear_4201_51708" x1="11895" y1="112.847" x2="6583.17" y2="5966" gradientUnits="userSpaceOnUse">
<stop offset="0.18" stop-color="#0052CC"/>
<stop offset="1" stop-color="#2684FF"/>
</linearGradient>
</defs>
</svg>
