<svg width="114" height="114" viewBox="0 0 114 114" fill="none" xmlns="http://www.w3.org/2000/svg">
<path fill-rule="evenodd" clip-rule="evenodd" d="M17.6059 80.6414C20.3826 80.6339 23.0433 79.527 25.0061 77.5629C26.9689 75.5988 28.074 72.9373 28.0796 70.1606V59.6868H17.6059C14.8304 59.6924 12.1699 60.7965 10.206 62.7578C8.24211 64.719 7.13441 67.3779 7.125 70.1534C7.13213 75.9318 11.8204 80.6201 17.5987 80.6272L17.6059 80.6414ZM43.8401 59.6797C41.0634 59.6872 38.4026 60.7941 36.4399 62.7582C34.4771 64.7223 33.372 67.3838 33.3664 70.1606V96.4019C33.3806 102.18 38.0689 106.861 43.8401 106.876C46.6156 106.868 49.2753 105.762 51.2379 103.8C53.2005 101.837 54.3064 99.1774 54.3139 96.4019V70.1534C54.3064 67.3779 53.2005 64.7183 51.2379 62.7557C49.2753 60.7931 46.6156 59.6872 43.8401 59.6797Z" fill="#E01E5A"/>
<path fill-rule="evenodd" clip-rule="evenodd" d="M33.3664 17.6059C33.3735 23.3842 38.0618 28.0725 43.8401 28.0796H54.3139V17.6059C54.3082 14.8304 53.2042 12.1699 51.2429 10.206C49.2817 8.24211 46.6227 7.13441 43.8473 7.125C41.0718 7.13252 38.4121 8.23842 36.4495 10.201C34.4869 12.1636 33.381 14.8233 33.3735 17.5987L33.3664 17.6059ZM54.3139 43.8401C54.3064 41.0646 53.2005 38.405 51.2379 36.4424C49.2753 34.4798 46.6156 33.3739 43.8401 33.3664H17.5988C14.8233 33.3739 12.1636 34.4798 10.201 36.4424C8.23842 38.405 7.13252 41.0646 7.125 43.8401C7.13925 49.6256 11.8275 54.3067 17.5988 54.3139H43.8473C46.6227 54.3064 49.2824 53.2005 51.245 51.2379C53.2076 49.2753 54.3064 46.6156 54.3139 43.8401Z" fill="#36C5F0"/>
<path fill-rule="evenodd" clip-rule="evenodd" d="M70.16 54.321C72.9355 54.3135 75.5952 53.2076 77.5577 51.245C79.5203 49.2824 80.6262 46.6227 80.6337 43.8473V17.5988C80.6262 14.8245 79.5213 12.1659 77.5603 10.2035C75.5992 8.24113 72.9414 7.1344 70.1671 7.125C67.3916 7.13252 64.7319 8.23842 62.7694 10.201C60.8068 12.1636 59.7009 14.8233 59.6934 17.5988V43.8473C59.7076 49.6185 64.3816 54.3068 70.16 54.321ZM96.3942 33.3664C93.6187 33.3739 90.9591 34.4798 88.9965 36.4424C87.0339 38.405 85.928 41.0646 85.9205 43.8401V54.3139H96.3942C99.1697 54.3082 101.83 53.2042 103.794 51.2429C105.758 49.2817 106.866 46.6227 106.875 43.8473C106.868 41.0718 105.762 38.4121 103.799 36.4495C101.837 34.4869 99.1769 33.381 96.4014 33.3735L96.3942 33.3664Z" fill="#2EB67D"/>
<path fill-rule="evenodd" clip-rule="evenodd" d="M59.686 70.158C59.7003 75.9364 64.3814 80.6247 70.1598 80.6318H96.4012C99.1754 80.6243 101.834 79.5193 103.796 77.5583C105.759 75.5973 106.866 72.9394 106.875 70.1652C106.867 67.3897 105.761 64.73 103.799 62.7674C101.836 60.8048 99.1767 59.6989 96.4012 59.6914H70.1598C67.3843 59.6989 64.7246 60.8048 62.762 62.7674C60.7995 64.73 59.6936 67.3825 59.686 70.158ZM80.6335 96.3923C80.626 93.6168 79.5201 90.9571 77.5575 88.9945C75.595 87.0319 72.9353 85.9261 70.1598 85.9185H59.686V96.3923C59.7003 102.178 64.3814 106.859 70.1598 106.866C72.9353 106.859 75.595 105.753 77.5575 103.79C79.5201 101.827 80.626 99.1678 80.6335 96.3923Z" fill="#ECB22E"/>
</svg>
