<svg width="759" height="342" viewBox="0 0 759 342" fill="none" xmlns="http://www.w3.org/2000/svg">
<path d="M7.19011 286.232C3.0274 286.232 0 282.832 0 279.055V247.705L136.234 82.2663C137.369 81.1331 139.261 80 141.91 80H162.346C166.13 80 169.536 83.0217 169.536 87.1766V248.082H199.81C203.973 248.082 207 251.104 207 254.881V278.3C207 282.077 203.973 285.476 199.81 285.476H169.536L169.914 333.823C169.914 337.601 166.508 341 162.724 341H131.314C127.53 341 124.124 337.601 124.124 333.823V286.232H7.19011ZM49.9525 246.949H125.638V156.298L49.9525 246.949Z" fill="#818181"/>
<path d="M559.19 286.232C555.027 286.232 552 282.832 552 279.055V247.705L688.234 82.2663C689.369 81.1331 691.261 80 693.91 80H714.346C718.13 80 721.536 83.0217 721.536 87.1766V248.082H751.81C755.973 248.082 759 251.104 759 254.881V278.3C759 282.077 755.973 285.476 751.81 285.476H721.536L721.914 333.823C721.914 337.601 718.508 341 714.724 341H683.314C679.53 341 676.124 337.601 676.124 333.823V286.232H559.19ZM601.952 246.949H677.638V156.298L601.952 246.949Z" fill="#818181"/>
<path d="M270.101 47.5049C270.183 48.935 269.086 50.1636 267.661 50.2401C266.233 50.3273 265.01 49.2313 264.928 47.8012L264.925 47.8051C264.925 47.8051 264.914 47.5272 264.802 46.8914C264.501 44.9599 263.323 40.7388 260.023 38.2196C257.838 36.5419 254.672 35.3223 249.392 35.8274C247.963 35.9792 246.693 34.9397 246.55 33.5109C246.481 32.8226 246.692 32.1727 247.087 31.6656C247.508 31.1239 248.14 30.7507 248.874 30.673C255.177 30.0189 259.959 31.5719 263.211 34.1288C269.749 39.3479 270.035 47.2426 270.101 47.5045L270.101 47.5049Z" fill="#2D2D2D"/>
<path d="M281.348 42.0997C281.508 43.5277 280.486 44.8058 279.055 44.9619C277.636 45.1188 276.361 44.0971 276.198 42.6752C276.198 42.6752 276.148 42.2068 275.943 41.2646C275.332 38.4075 273.307 32.1055 268.06 28.0677C264.205 25.0928 258.587 23.0392 249.592 24.2691C248.167 24.4669 246.86 23.4757 246.662 22.0636C246.562 21.3389 246.772 20.6408 247.187 20.1075C247.588 19.592 248.18 19.2286 248.875 19.1288C258.94 17.7003 266.305 20.0964 271.245 23.9775C280.209 31.0475 281.277 41.8369 281.348 42.0995L281.348 42.0997Z" fill="#2D2D2D"/>
<path d="M266.857 68.6721L253.434 59.5317L246.934 53.9441L233.445 53.3782C231.3 48.7753 228.566 43.7471 226.919 43.8707C225.82 43.9522 224.765 46.3033 223.866 49.2526C221.8 44.948 219.329 40.6074 217.794 40.7274C215.917 40.8652 214.155 47.6267 213.095 52.7068L195.902 73.8191L179.12 86.5107L179.205 86.5735C172.425 92.5419 122.201 137.956 117.489 177.57C116.852 179.156 116.125 180.896 115.289 182.777C111.697 190.896 106.259 201.338 99.1884 210.414C90.9744 220.998 80.7529 229.399 69.1498 231.454C67.5171 231.751 66.1374 232.637 65.1916 233.852C64.0982 235.257 63.5854 237.102 63.9284 238.991C64.567 242.512 67.9445 244.849 71.4657 244.207C87.7441 241.193 100.151 230.257 109.417 218.378C113.948 212.53 117.774 206.378 120.963 200.544C122.95 204.6 125.782 208.459 129.575 212.055C129.628 212.304 129.665 212.467 129.665 212.467C129.665 212.467 138.293 242.82 141.759 246.807C145.087 250.626 199.535 250.074 204.046 243.484C204.243 243.187 204.384 242.889 204.378 242.576C204.332 239.9 201.488 235.47 196.538 236.094C158.301 240.907 168.941 217.633 170.23 214.843C172.244 210.479 179.393 188.14 161.673 180.938C153.031 177.428 146.598 176.612 141.786 177.504C146.661 173.485 154.853 172.445 168.381 177.946C181.846 183.42 180.951 197.622 178.864 206.048L179.706 205.807C179.706 205.807 228.562 166.199 233.173 133.701C251.804 131.544 295.453 125.549 294.828 116.951C294.278 109.402 261.711 109.824 238.439 110.735C237.244 110.781 236.07 110.83 234.929 110.878L217.812 100.511L242.058 104.921L249.659 93.3802L259.387 90.507L264.14 87.0206L267.819 71.1995L266.857 68.6721ZM252.318 65.3959C253.581 67.3084 253.054 69.8805 251.139 71.1385C249.228 72.4075 246.656 71.8728 245.395 69.9563C244.137 68.0486 244.671 65.4812 246.585 64.2149C248.489 62.9481 251.06 63.4747 252.318 65.3959Z" fill="#2D2D2D"/>
<path d="M381.167 253.515C381.117 253.528 381.083 253.556 381.033 253.573C338.04 269.659 293.416 272.294 251.664 261.769C244.672 247.151 240.091 231.066 238.567 213.975C234.09 164.115 256.455 118.048 293.705 90.002C297.874 154.252 330.67 212.682 381.17 253.516L381.167 253.515Z" fill="#2D2D2D"/>
<path d="M407.696 241.63C402.626 244.251 397.501 246.758 392.254 249.037C339.717 208.586 305.978 148.789 303.715 83.1417C313.383 77.0984 323.877 72.2019 335.015 68.6484C333.418 132.824 360.545 195.145 407.693 241.631L407.696 241.63Z" fill="#2D2D2D"/>
<path d="M418.905 235.432C418.343 235.757 417.777 236.088 417.2 236.417C369.904 190.938 342.902 129.149 345.448 65.7538C351.816 64.2601 358.353 63.1626 365.052 62.566C406.228 58.873 444.806 73.4824 472.804 99.6468C468.317 151.124 448.901 198.324 418.904 235.43L418.905 235.432Z" fill="#2D2D2D"/>
<path d="M322.532 277.533C343.308 275.678 364.153 270.919 384.652 263.245C386.686 262.487 388.661 261.644 390.672 260.832C391.47 261.43 392.327 261.988 393.143 262.571C365 287.63 330.881 305.248 293.043 312.536C279.206 302.002 267.369 288.91 258.241 273.898C279.24 278.239 300.836 279.479 322.532 277.533Z" fill="#2D2D2D"/>
<path d="M418.581 251.704C437.258 268.133 458.624 282.18 482.229 293.181C455.86 286.189 431.41 275.249 409.558 261.22C412.658 258.138 415.658 254.955 418.583 251.703L418.581 251.704Z" fill="#2D2D2D"/>
<path d="M401.844 268.552C423.721 282.907 448.181 294.211 474.518 301.757C452.386 323.193 423.052 337.503 389.974 340.469C358.971 343.251 329.422 335.647 304.761 320.552C341.396 311.688 374.411 293.525 401.84 268.551L401.844 268.552Z" fill="#2D2D2D"/>
<path d="M489.26 285.021C465.486 274.251 443.993 260.32 425.337 243.901C425.462 243.744 425.583 243.58 425.712 243.432C459.568 223.199 488.728 195.121 511.084 161.133C513.773 170.065 515.606 179.399 516.472 189.058C519.67 224.718 509.132 258.44 489.26 285.022L489.26 285.021Z" fill="#2D2D2D"/>
<path d="M443.428 218.99C463.821 186.909 477.423 149.512 482.244 109.373C492.403 120.892 500.724 134.137 506.664 148.687C489.705 176.229 468.293 200.038 443.428 218.99Z" fill="#2D2D2D"/>
<path d="M482.664 293.197C514.901 303.128 559.538 307.084 593.05 298.165C591.049 295.859 589.26 293.41 587.73 290.776C580.778 278.85 581.874 263.982 590.352 255.421C597.514 248.191 607.936 247.371 618.224 253.236C627.932 258.77 633.359 267.288 633.1 276.603C632.833 286.405 626.308 295.435 615.65 300.756C614.905 301.13 614.139 301.5 613.371 301.853C627.926 311.106 647.334 316.671 662.871 321.131L667.393 322.433L664.511 332.359L660.02 331.066C641.656 325.795 618.253 319.084 601.809 306.361C563.833 318.687 511.464 313.941 474.759 301.505C477.499 298.847 480.144 296.083 482.664 293.197L482.664 293.197ZM596.655 285.567C598.586 288.88 601.061 291.882 603.969 294.633C606.412 293.675 608.777 292.644 611.032 291.512C618.217 287.926 622.609 282.249 622.77 276.323C622.921 270.865 619.488 265.853 613.107 262.222C610.029 260.466 607.126 259.635 604.522 259.711C601.9 259.786 599.585 260.785 597.695 262.698C593.306 267.119 591.451 276.648 596.655 285.567Z" fill="#2D2D2D"/>
</svg>
