<svg width="56" height="55" viewBox="0 0 56 55" xmlns="http://www.w3.org/2000/svg">
<path d="M32.2649 36.2862C32.2649 36.2862 36.212 31.9612 41.1932 31.5735L42.8437 21.4222L53.6113 36.3955C54.5658 33.6017 55.1027 30.5693 55.1027 27.4672C55.1027 12.4939 42.963 0.344238 27.9797 0.344238C12.9964 0.344238 0.896484 12.484 0.896484 27.4672C0.896484 42.4505 13.0362 54.5902 28.0195 54.5902C29.7097 54.5902 31.3502 54.4411 32.9211 54.1329L22.0838 31.9513L32.2748 36.2762L32.2649 36.2862Z"/>
<path d="M45.8214 43.1663C46.7596 42.7769 47.1124 41.4786 46.6094 40.2665C46.1063 39.0544 44.9379 38.3875 43.9996 38.7769C43.0614 39.1663 42.7086 40.4645 43.2117 41.6767C43.7147 42.8888 44.8831 43.5557 45.8214 43.1663Z"/>
<path d="M39.1905 46.889C40.1288 46.4996 40.4816 45.2013 39.9785 43.9892C39.4754 42.777 38.307 42.1101 37.3688 42.4995C36.4305 42.8889 36.0777 44.1872 36.5808 45.3993C37.0839 46.6114 38.2523 47.2784 39.1905 46.889Z"/>
</svg>
