<svg width="175" height="88" viewBox="0 0 175 88" fill="none" xmlns="http://www.w3.org/2000/svg">
<path fill-rule="evenodd" clip-rule="evenodd" d="M43.4744 0L43.4747 0.000224806L43.4747 0.000215427L43.4744 0ZM43.4747 0.000224806C43.4642 0.0158289 30.3848 19.4091 37.8631 53.9024C30.4045 63.3661 26.3381 75.0594 26.3156 87.1085H147.687C147.695 79.1345 145.912 71.2599 142.469 64.0675H142.469C157.812 24.1932 138.064 1.53176 138.064 1.53176C125.717 7.75281 116.121 22.4041 109.886 34.6023C95.6519 29.2343 79.9852 29.0374 65.6208 34.0464C60.8093 21.6722 53.2598 6.38405 43.4747 0.000224806ZM118.642 59.798C99.5045 39.9828 93.7578 68.4723 93.7578 68.4723C117.924 82.7306 118.642 59.798 118.642 59.798ZM64.8211 68.4723C64.8211 68.4723 59.5488 40.01 42.2274 59.7843C42.227 59.798 42.8914 82.7304 64.8211 68.4723ZM104.153 62.9547C104.153 66.6673 105.07 69.6772 106.2 69.6772C107.33 69.6772 108.246 66.6674 108.246 62.9547C108.246 59.242 107.33 56.2321 106.2 56.2321C105.07 56.2321 104.153 59.2419 104.153 62.9547ZM53.5185 69.7336C54.7587 67.6918 55.406 65.3454 55.3887 62.9569C55.3891 60.6 54.7424 58.2886 53.5185 56.275C52.303 58.3094 51.6611 60.6345 51.6611 63.0041C51.6611 65.3737 52.303 67.6992 53.5185 69.7336Z"/>
</svg>
