<svg width="215" height="176" viewBox="0 0 215 176" fill="none" xmlns="http://www.w3.org/2000/svg">
<path d="M191.398 132.176L138.522 58.8697C137.847 57.8959 137.105 56.8995 136.386 55.9031C134.587 53.412 132.811 50.9209 131.035 48.4071C128.99 45.5084 126.876 42.655 124.831 39.7336C121.93 35.5667 118.963 31.4451 116.04 27.3008C111.634 21.0504 107.115 14.8906 102.686 8.64024C100.82 5.99063 98.9544 3.34101 97.021 0.714037C96.8411 0.464928 96.8411 -0.0106446 96.324 0.193172C95.9868 0.32905 95.7845 0.600806 95.7845 0.985793C95.7845 1.05373 95.7845 1.09902 95.7845 1.14432C95.8969 3.0919 95.2899 4.97154 94.9527 6.82854C94.6379 8.6176 94.6604 10.4519 94.0759 12.2184C93.6487 13.5545 93.6937 15.0265 93.379 16.4532C92.9743 18.2423 92.9069 20.0993 92.5471 21.8883C92.1425 23.8133 92.0076 25.8061 91.4905 27.7084C91.1533 28.9993 91.0859 30.358 90.9285 31.6715C90.6587 33.5285 90.299 35.3629 90.0067 37.1972C89.7595 38.8957 89.6246 40.6395 89.1525 42.2926C88.9726 42.9041 88.9951 43.5835 88.9052 44.2176C88.8602 44.6479 88.8602 45.1234 88.7253 45.5311C88.3656 46.7766 88.3431 46.686 87.0167 46.8898C85.3531 47.139 83.667 47.3428 82.0483 47.8863C81.1041 48.2033 80.0924 48.2713 79.1032 48.543C75.5287 49.5848 72.0441 50.8982 68.7393 52.5741C63.4112 55.2463 58.6451 58.7791 53.9465 62.3799C51.9232 63.9199 50.1471 65.8448 48.3261 67.6339C47.5842 68.4038 47.0222 68.6756 45.8756 68.1547C42.4809 66.6148 39.0413 65.1201 35.6016 63.716C31.4875 62.0402 27.4409 60.2965 23.3717 58.5753C20.6515 57.4204 17.9762 56.1748 15.2559 55.0425C10.5798 53.1402 6.01604 50.9888 1.29493 49.1771C1.02515 49.0865 0.800338 48.9054 0.553042 48.7468C0.440635 48.8148 0.328228 48.8601 0.21582 48.9054C1.63215 52.4382 3.47563 55.7445 5.11678 59.1641C6.75792 62.6064 8.42155 66.0486 10.0852 69.4909C11.7488 72.9331 13.4124 76.3753 15.0761 79.8176C16.7397 83.2824 18.4258 86.7247 20.0894 90.1669C21.7531 93.5865 23.4167 97.0287 25.1028 100.471C26.7664 103.868 28.3851 107.288 30.0262 110.662C31.7123 114.104 33.4209 117.546 35.107 120.989C36.7931 124.408 38.4793 127.85 40.1429 131.293C41.8065 134.735 43.5601 138.132 45.1113 141.619C45.7632 143.046 46.4827 144.45 47.2021 145.854L80.2048 209.188C95.717 214.782 79.418 223.984 96.8411 223.984C145.176 223.984 188.093 200.568 215.004 164.356C209.271 152.988 202.886 147.371 191.443 132.176H191.398ZM80.9917 116.935C79.1707 118.452 77.1923 119.041 74.7868 118.339C71.1223 117.297 68.8742 114.851 67.323 111.568C66.5136 109.869 66.064 108.103 66.0415 106.268C66.019 105.68 66.0415 105.113 66.1539 104.525C66.7609 100.335 69.2114 96.8023 74.2023 97.1873C75.5737 97.3005 76.8326 97.7761 77.9567 98.5008C78.766 98.999 79.5304 99.6557 80.2048 100.38C81.7785 102.079 82.8127 104.14 83.3972 106.45C83.6895 107.559 84.0042 108.624 83.9143 109.348C83.9143 112.564 83.1949 115.078 80.9917 116.935ZM111.521 99.769C110.083 100.901 108.397 101.535 106.553 101.264C103.945 100.879 101.787 99.5651 100.101 97.5723C98.2125 95.3303 96.5713 91.8427 96.8636 88.3552C96.7737 87.5626 96.8186 86.7926 96.976 86.0453C97.2907 84.4827 98.1001 83.0333 99.3141 81.7878C101 80.0667 103.181 79.274 105.496 79.8402C105.721 79.8855 105.946 79.9534 106.171 80.044C108.442 80.7461 110.397 82.1048 111.814 84.143C113.59 86.702 114.759 89.4875 114.646 92.6354C114.579 95.3756 113.792 97.9573 111.521 99.769Z" fill="white"/>
</svg>
