<svg width="120" height="96" viewBox="0 0 120 96" fill="none" xmlns="http://www.w3.org/2000/svg">
<path d="M0.603644 60C0.0187166 63.2818 -0.256151 67.0208 0.310992 70.7082C1.7314 79.9459 10.0355 85.1764 11.4391 86H30.5609C31.9627 85.1782 40.2688 79.9474 41.689 70.7082C42.2561 67.0204 41.9813 63.2813 41.3964 60H0.603644ZM33.4861 78.4391C32.8896 79.1844 31.9413 79.5877 30.8267 79.5877C30.6157 79.5877 30.3988 79.5732 30.1769 79.5439C28.9359 79.38 27.6219 78.7744 26.4771 77.8393C26.1574 77.5782 25.8593 77.2978 25.5848 77.0007C23.7957 78.5608 21.6605 79.3792 19.3494 79.3792C12.5642 79.3792 8.67953 72.643 8.51722 72.3563C8.34634 72.0542 8.34634 71.6836 8.51722 71.3819C8.6792 71.0949 12.5642 64.359 19.3494 64.359C21.6601 64.359 23.7957 65.1774 25.5848 66.7375C25.8589 66.4404 26.157 66.16 26.4771 65.8989C27.6222 64.9642 28.9359 64.3587 30.1769 64.1943C31.5706 64.0104 32.7768 64.4129 33.4865 65.2992C34.8276 66.9745 34.0389 69.8096 31.7051 71.869C34.0393 73.9284 34.8272 76.7637 33.4861 78.4389L33.4861 78.4391Z" fill="#535353"/>
<path d="M29.3304 71.1331C29.5647 70.9792 29.788 70.8143 29.9937 70.6417C31.7452 69.1723 32.3806 67.2104 31.7786 66.4377C31.5003 66.0806 30.9285 65.9316 30.2123 66.0293C29.3218 66.1503 28.3125 66.6384 27.442 67.368C26.9558 67.7759 26.5355 68.2388 26.1932 68.7436C26.0229 68.9948 25.7529 69.154 25.4574 69.1764C25.1638 69.1996 24.8726 69.0828 24.6685 68.8601C23.0634 67.107 21.1444 66.2182 18.9643 66.2182C14.2134 66.2182 10.9835 70.5016 10 71.9998C10.9831 73.4964 14.2126 77.7814 18.9643 77.7814C21.144 77.7814 23.0635 76.8927 24.6685 75.1396C24.8557 74.9352 25.1152 74.8204 25.3848 74.8204C25.4091 74.8204 25.433 74.8212 25.457 74.8232C25.7525 74.8456 26.0225 75.0048 26.1928 75.256C26.535 75.7608 26.9549 76.2237 27.4416 76.6316C28.3117 77.3616 29.3215 77.8498 30.2119 77.9707C30.9289 78.0684 31.4995 77.919 31.7782 77.5624C32.3806 76.7896 31.7448 74.8277 29.9933 73.3584C29.788 73.1862 29.5651 73.0209 29.3296 72.867C29.0431 72.6793 28.8693 72.352 28.8693 72.0002C28.8697 71.6481 29.0439 71.3211 29.3304 71.1331ZM16.6103 72.7494C15.6771 72.7494 14.9209 71.9648 14.9209 70.9967C14.9209 70.0286 15.6771 69.2441 16.6103 69.2441C17.5436 69.2441 18.2998 70.0286 18.2998 70.9967C18.3002 71.9645 17.5435 72.7494 16.6103 72.7494Z" fill="#BCF870"/>
<path d="M39.4867 51H3.51291C3.00929 52.0531 1.8539 54.6563 1 58H42C41.1457 54.6566 39.9903 52.053 39.4867 51Z" fill="#535353"/>
<path d="M21.0902 39.6231C21.4314 39.758 21.8081 39.884 22.2118 40C22.7127 39.0972 23.2895 37.6445 22.8353 36.6041C22.4056 35.6198 20.5871 35.1528 19.26 35C18.9995 36.2434 18.8623 37.4016 19.2014 38.3747C19.2708 38.5763 19.7561 39.0962 21.0902 39.6231Z" fill="white"/>
<path d="M119.014 67.2183C118.279 64.5549 117.247 62.2575 116.357 60.5674C116.34 61.0853 116.314 61.6014 116.275 62.1134C116.234 62.6301 115.803 63.0227 115.294 63.0227C115.269 63.0227 115.243 63.0215 115.216 63.0196C114.674 62.9769 114.269 62.502 114.312 61.959C115.115 51.6886 111.124 40.0381 103.896 31.555C95.2766 21.4391 81.5306 15.2578 75.7328 12.972C76.0891 13.6012 76.2905 14.0169 76.3229 14.0858C76.5572 14.5775 76.3495 15.1663 75.8587 15.4014C75.7215 15.4668 75.5771 15.4982 75.4348 15.4982C75.0672 15.4982 74.7144 15.2913 74.5455 14.9367C74.5126 14.8682 71.177 7.99938 65.9843 5.86186C62.5079 4.43062 57.5948 4.68026 53.2605 4.90042C50.8944 5.0207 48.6606 5.13431 46.8385 4.96781C44.7212 4.77505 42.8952 3.97111 40.7814 3.0406C37.5432 1.61528 33.8733 0 27.7802 0C19.8577 0 10.439 4.84364 7 6.77395C9.1478 8.16126 11.3406 9.3221 13.5365 10.2322C16.6139 11.5083 19.8067 12.3388 23.0269 12.7008C23.5674 12.7615 23.9561 13.2497 23.8955 13.7911C23.8349 14.3326 23.3448 14.7212 22.8071 14.6613C21.1419 14.474 19.4848 14.1669 17.8454 13.7457C17.4559 15.4201 16.7488 18.9572 17.0492 21.4756C17.2666 23.2982 18.0375 24.7638 18.7821 26.1809C19.4419 27.4354 20.0645 28.6205 20.2878 29.9776C20.4716 31.0942 20.2893 32.2148 20.0347 33.3145C21.4946 33.501 23.7957 34.0656 24.5924 35.778C25.2674 37.2292 24.7812 38.8253 24.2505 39.9145C28.0049 40.4786 33.1078 40.231 36.7041 38.2349C42.7299 34.891 44.5183 25.7088 44.5355 25.6155C44.636 25.0807 45.1495 24.7285 45.6848 24.828C46.2191 24.9283 46.5714 25.4431 46.4709 25.9783C46.424 26.2291 45.7087 29.9134 43.6324 33.6233C44.1596 35.2496 46.257 41.3739 49.0289 44.9779C50.1755 46.469 51.5546 47.9081 52.8881 49.2997C55.4661 51.9901 57.901 54.5312 58.4688 57.2302C59.2834 61.1018 57.6945 71.3209 57.6268 71.7542C57.5838 72.0269 57.4293 72.2686 57.2005 72.4218L52.1192 75.8142C51.4254 76.2773 51.0109 77.0523 51.0109 77.888C51.0109 79.2619 52.1267 80.3801 53.4986 80.3801H62.8776C64.786 80.3801 66.4465 79.023 66.8256 77.1534C67.849 72.1064 69.5049 62.4147 69.0946 54.2125C68.5103 42.5198 64.5151 35.148 64.4747 35.0748C64.2119 34.598 64.3844 33.9982 64.8595 33.7345C65.3351 33.4705 65.9335 33.6425 66.197 34.1189C66.3523 34.3994 69.6397 40.4466 70.7628 50.4532C71.979 51.274 75.6142 53.8598 77.1621 56.4182C78.148 58.0484 78.6052 60.2514 79.0897 62.5837C79.516 64.6363 79.9564 66.7586 80.7761 68.5354C82.1609 71.5372 85.6744 73.3605 86.6842 73.8342L92.317 72.4987C89.5375 69.7319 83.8891 62.86 86.2654 54.5726C89.3135 43.9422 101.599 42.9853 102.12 42.9502C102.672 42.9126 103.132 43.324 103.169 43.8674C103.206 44.4108 102.796 44.8809 102.255 44.9185C102.141 44.9267 90.8214 45.829 88.1583 55.1177C85.4841 64.4445 94.8779 72.1852 94.9729 72.2625C95.265 72.4991 95.3976 72.8819 95.3143 73.2486C95.231 73.6157 94.9471 73.9032 94.581 73.9898L85.3054 76.1893C83.4861 76.6207 82.3085 78.4045 82.6246 80.2506C82.9206 81.9807 84.4103 83.221 86.1506 83.205C92.4725 83.1415 103.944 81.9462 109.75 74.659C111.064 73.0096 112.122 71.066 112.893 68.8825C113.074 68.3689 113.636 68.0993 114.149 68.2815C114.662 68.4633 114.931 69.0267 114.75 69.5403C113.905 71.9318 112.741 74.0682 111.29 75.89C104.976 83.8147 92.842 85.1107 86.1702 85.178C86.1515 85.178 86.1319 85.1784 86.1131 85.1784C85.5476 85.1784 85.002 85.0891 84.4862 84.9304C83.611 85.0287 82.7182 85.1075 81.8245 85.1604C79.06 85.3238 76.8942 87.6047 76.8942 90.3528C76.8942 93.0114 78.882 95.2336 81.5176 95.5216C90.8797 96.5453 107.739 96.796 115.473 86.9815C119.893 81.3751 121.084 74.7252 119.013 67.219L119.014 67.2183ZM26.0473 29.2047C23.2972 29.2047 21.0599 27.1012 21.0599 24.5159C21.0599 22.1871 24.6278 18.413 25.343 17.6804C25.5284 17.4904 25.7822 17.3834 26.047 17.3834C26.3117 17.3834 26.5655 17.4904 26.7509 17.6804C27.4662 18.4134 31.034 22.1872 31.034 24.5159C31.0344 27.1012 28.7974 29.2047 26.0473 29.2047ZM30.6179 34.8206C30.452 34.8206 30.2843 34.7786 30.1302 34.6905C29.6582 34.4202 29.4939 33.8176 29.7641 33.3443L33.1572 27.4001C33.4274 26.9276 34.0289 26.7627 34.501 27.0338C34.973 27.3041 35.1373 27.9067 34.867 28.38L31.4739 34.3242C31.2917 34.6419 30.9597 34.8206 30.6179 34.8206ZM39.5212 31.3784L36.0379 35.2935C35.8435 35.5121 35.5737 35.6234 35.3026 35.6234C35.0696 35.6234 34.8353 35.5411 34.6476 35.3734C34.242 35.011 34.206 34.3873 34.5682 33.9806L38.0516 30.0655C38.4133 29.6588 39.0359 29.6231 39.4419 29.9856C39.8474 30.348 39.8834 30.9717 39.5212 31.3784Z" fill="white"/>
<path d="M23 25.3619C23.3318 26.3003 24.5487 27 26 27C27.451 27 28.6683 26.3007 29 25.3619C28.3565 25.2019 27.2906 25 26 25C24.7102 24.9997 23.6443 25.2016 23 25.3619Z" fill="white"/>
<path d="M28 23C27.3802 22.0541 26.3997 20.9195 25.5 20C24.5999 20.9192 23.6194 22.0538 23 23C23.7034 22.8643 24.5508 22.7587 25.5 22.7587C26.4492 22.7591 27.2966 22.8643 28 23Z" fill="white"/>
<path d="M9.33574 36.7622C9.52644 36.9215 9.76363 37 10 37C10.2757 37 10.5503 36.8931 10.7477 36.6841L12.7473 34.567C13.1144 34.1785 13.0771 33.5838 12.6643 33.2379C12.2515 32.8924 11.619 32.9272 11.2523 33.3164L9.25268 35.4335C8.88558 35.8216 8.92295 36.4167 9.33574 36.7622Z" fill="white"/>
<path d="M10.4245 29.0703L6.69008 30.305C6.1145 30.4953 5.84605 31.0134 6.09022 31.462C6.27323 31.7981 6.69233 32 7.13345 32C7.28094 32 7.43113 31.9772 7.57547 31.9296L11.3099 30.6948C11.8855 30.5045 12.1539 29.9865 11.9098 29.5378C11.6647 29.0895 11.001 28.88 10.4245 29.0703Z" fill="white"/>
<path d="M5.98792 25.2958L10.6729 25.9876C10.7303 25.9959 10.7873 26 10.8439 26C11.4078 26 11.9019 25.5881 11.9874 25.0149C12.0807 24.3849 11.6441 23.7979 11.0121 23.7044L6.32713 23.0125C5.69697 22.9195 5.10682 23.3544 5.01257 23.9848C4.91926 24.6158 5.35547 25.2023 5.98792 25.2958Z" fill="white"/>
</svg>
