<svg width="110" height="35" viewBox="0 0 110 35" fill="none" xmlns="http://www.w3.org/2000/svg">
<path d="M4.42099 31.2546C4.05224 31.3036 3.70636 31.2223 3.38334 31.0106C3.07349 30.7972 2.8809 30.4073 2.80556 29.841C2.76527 29.5381 2.74784 29.1049 2.75328 28.5412C2.77188 27.9759 2.8107 27.3609 2.86972 26.6963C2.92699 26.0185 2.9983 25.3456 3.08366 24.6775C3.1822 24.0077 3.28378 23.4111 3.38841 22.8879C3.49129 22.3515 3.59193 21.9495 3.69034 21.6817C3.82125 21.3561 3.95476 21.1507 4.09087 21.0655C4.23839 20.9655 4.38459 20.9058 4.52945 20.8866C4.79285 20.8515 5.047 20.8981 5.2919 21.0264C5.54998 21.1529 5.71493 21.4861 5.78676 22.0261C5.81479 22.2368 5.82084 22.5845 5.80489 23.0691C5.78719 23.5405 5.76024 24.0936 5.72406 24.7284C5.68787 25.3631 5.64114 26.0193 5.58387 26.6971C5.53977 27.3731 5.4913 28.0162 5.43844 28.6263C5.39699 29.2216 5.36304 29.722 5.33658 30.1276C5.31453 30.4656 5.20866 30.7276 5.01897 30.9137C4.8442 31.1112 4.64488 31.2248 4.42099 31.2546ZM5.07923 18.8231C4.64463 18.8809 4.22631 18.8093 3.82427 18.6081C3.42048 18.3938 3.18268 18.0166 3.11085 17.4767C3.05128 17.0289 3.11504 16.6518 3.30214 16.3455C3.48923 16.0391 3.72634 15.8066 4.01348 15.6477C4.31203 15.474 4.57983 15.3714 4.81689 15.3398C5.05394 15.3083 5.32434 15.3259 5.62809 15.3927C5.93009 15.4464 6.20396 15.5909 6.44971 15.8262C6.70688 16.0467 6.867 16.394 6.93007 16.8681C6.97212 17.1841 6.89872 17.4888 6.70987 17.7819C6.51928 18.0619 6.26899 18.2963 5.95902 18.4849C5.66222 18.6719 5.36896 18.7846 5.07923 18.8231ZM11.362 30.0297C11.0459 30.0717 10.7158 30.0084 10.3717 29.8397C10.0391 29.6561 9.74678 29.3734 9.49493 28.9914C9.24132 28.5962 9.0751 28.1023 8.99626 27.5097C8.89115 26.7195 8.88438 25.8627 8.97596 24.9391C9.08072 24.0138 9.23156 23.0823 9.4285 22.1447C9.62544 21.2072 9.82281 20.3231 10.0206 19.4927C10.1147 19.0915 10.2583 18.811 10.4515 18.6513C10.6429 18.4784 10.9098 18.3692 11.2523 18.3236C12.0293 18.2202 12.4694 18.5571 12.5728 19.3341C12.5903 19.4658 12.5652 19.7305 12.4975 20.1281C12.428 20.5127 12.3304 20.988 12.2047 21.5543C12.0922 22.1188 11.9726 22.7311 11.846 23.3913C11.7308 24.0365 11.6305 24.6932 11.5451 25.3613C11.4712 26.0144 11.4258 26.6303 11.4089 27.2089C11.6505 26.7076 11.9101 26.0901 12.1878 25.3562C12.4769 24.6074 12.7813 23.8231 13.1011 23.0031C13.4341 22.1815 13.7741 21.4125 14.1211 20.6962C14.4663 19.9668 14.8217 19.3633 15.187 18.8858C15.5524 18.4083 15.926 18.1442 16.3079 18.0933C16.6372 18.0495 16.9554 18.0742 17.2627 18.1674C17.5814 18.2456 17.8763 18.4476 18.1475 18.7734C18.4169 19.0861 18.6538 19.5571 18.8582 20.1867C19.0757 20.8145 19.2546 21.6552 19.3947 22.7087C19.4648 23.2355 19.5792 23.743 19.738 24.2312C19.9082 24.7044 20.1337 25.0899 20.4145 25.3876C20.6936 25.6722 21.0505 25.7855 21.4851 25.7277C22.2357 25.6279 22.889 25.4002 23.4448 25.0448C24.0007 24.6894 24.478 24.2976 24.8767 23.8693C25.2754 23.4409 25.6078 23.0684 25.8739 22.7515C26.0338 22.5426 26.1725 22.3767 26.2902 22.2538C26.4211 22.1292 26.5326 22.0608 26.6248 22.0485C26.9013 22.0117 27.1085 22.0579 27.2463 22.187C27.3973 22.3143 27.4894 22.5031 27.5227 22.7533C27.5402 22.885 27.4607 23.1435 27.2841 23.5289C27.1075 23.9143 26.8458 24.3646 26.4988 24.8798C26.1633 25.3801 25.7667 25.8752 25.3092 26.3649C24.8516 26.8547 24.3449 27.2773 23.7891 27.6327C23.2333 27.9881 22.6458 28.2069 22.0269 28.2893C20.9865 28.4277 20.0993 28.3581 19.3655 28.0804C18.643 27.7878 18.0585 27.2223 17.6118 26.3837C17.1635 25.532 16.8368 24.3357 16.6318 22.7948C16.6266 22.7553 16.6178 22.6895 16.6055 22.5973C16.5512 22.189 16.4965 21.8277 16.4412 21.5134C16.3992 21.1973 16.3453 20.9432 16.2795 20.7509C16.1099 21.1889 15.9048 21.7121 15.664 22.3204C15.4365 22.927 15.1878 23.5766 14.9181 24.2692C14.6466 24.9487 14.361 25.6233 14.0615 26.2931C13.7601 26.9497 13.4518 27.5536 13.1365 28.1049C12.8343 28.6544 12.5321 29.1034 12.23 29.4518C11.9279 29.8003 11.6386 29.9929 11.362 30.0297ZM37.1355 13.9355C36.4638 14.0249 35.9819 14.0287 35.6895 13.9469C35.3954 13.852 35.2098 13.7159 35.1326 13.5385C35.0554 13.3612 35.0036 13.1737 34.9774 12.9762L34.9747 12.9564C34.945 12.7325 35.0302 12.4665 35.2305 12.1584C35.4439 11.8486 35.7947 11.6143 36.2829 11.4555C36.9713 11.1897 37.7259 10.9687 38.5468 10.7925C39.366 10.6031 40.1698 10.4492 40.9583 10.331C41.7581 10.1978 42.4609 10.0909 43.0667 10.0103C43.6743 9.94285 44.1484 9.9803 44.489 10.1226C44.8278 10.2518 45.0648 10.4213 45.1999 10.6312C45.3465 10.8261 45.4303 11.0026 45.4513 11.1606C45.4793 11.3714 45.431 11.6123 45.3062 11.8836C45.1797 12.1417 44.8465 12.3066 44.3065 12.3784C44.109 12.4047 43.8342 12.4547 43.4821 12.5283C43.13 12.602 42.7402 12.694 42.3126 12.8045C42.3589 13.4551 42.3811 14.2764 42.379 15.2685C42.377 16.2606 42.3196 17.3404 42.2069 18.508C42.1056 19.6607 41.927 20.8371 41.6711 22.0372C41.4267 23.2224 41.0748 24.3548 40.6153 25.4345C40.1672 26.4993 39.5954 27.4399 38.8998 28.2561C38.2174 29.0707 37.3801 29.678 36.3879 30.078C36.1842 30.1587 36.0051 30.2227 35.8506 30.2701C35.7109 30.3289 35.5358 30.3723 35.3251 30.4003C34.9432 30.4511 34.6166 30.4142 34.3453 30.2894C34.0741 30.1647 33.8845 29.9486 33.7766 29.6413C33.66 29.2682 33.6579 28.8999 33.7704 28.5364C33.8714 28.1879 34.1182 27.9272 34.5107 27.7544C35.43 27.3104 36.1993 26.7457 36.8184 26.0602C37.449 25.3598 37.9536 24.4684 38.3324 23.386C38.7225 22.2887 38.9986 20.9385 39.1606 19.3355C39.334 17.7175 39.4101 15.7707 39.3889 13.495C38.9464 13.5941 38.5293 13.6831 38.1377 13.762C37.7461 13.8409 37.4121 13.8987 37.1355 13.9355ZM54.6468 25.1763C54.3439 25.2165 54.0507 25.1282 53.7672 24.9113C53.4986 24.7058 53.3267 24.3199 53.2513 23.7536C53.1953 23.3321 53.1502 22.7417 53.1162 21.9823C53.0936 21.2079 53.108 20.2075 53.1593 18.9811C52.8245 19.9906 52.4559 20.8974 52.0536 21.7015C51.6512 22.5055 51.2345 23.1507 50.8032 23.6369C50.3834 24.1083 49.9562 24.3728 49.5216 24.4307C48.8237 24.5235 48.2425 24.3864 47.7782 24.0193C47.3121 23.639 47.0002 22.8562 46.8426 21.6709C46.7672 21.1046 46.7284 20.4598 46.7259 19.7363C46.7367 19.0112 46.7738 18.2825 46.8372 17.5503C46.9006 16.8181 46.9746 16.165 47.059 15.5908C47.1549 15.0017 47.2503 14.5602 47.3452 14.2661C47.419 14.015 47.5262 13.8131 47.6667 13.6604C47.8204 13.5059 48.0289 13.4112 48.2923 13.3761C48.7138 13.3201 49.0548 13.4154 49.3155 13.6622C49.5762 13.909 49.7258 14.1772 49.7643 14.467C49.7941 14.6909 49.7843 15.0205 49.735 15.456C49.6989 15.8897 49.6426 16.3729 49.566 16.9058C49.5027 17.437 49.4345 17.9822 49.3614 18.5414C49.2884 19.1006 49.2307 19.6243 49.1884 20.1124C49.1593 20.5988 49.1667 21.0066 49.2105 21.3358C49.2648 21.7441 49.45 21.9272 49.766 21.8851C49.9504 21.8606 50.1638 21.6513 50.4062 21.2572C50.6618 20.8613 50.9148 20.3451 51.1653 19.7087C51.4271 19.0574 51.6819 18.3533 51.9297 17.5966C52.1889 16.825 52.4143 16.0511 52.606 15.2751C52.809 14.4841 52.9738 13.7586 53.1005 13.0984C53.1796 12.6858 53.3206 12.3856 53.5235 12.1977C53.7263 12.0099 53.9726 11.8967 54.2624 11.8582C54.7101 11.7986 55.0692 11.8782 55.3395 12.0969C55.623 12.3138 55.7954 12.6528 55.8568 13.1137C55.8848 13.3244 55.8992 13.6844 55.8999 14.1936C55.9006 14.7028 55.893 15.3002 55.877 15.9859C55.8741 16.6698 55.8568 17.3959 55.825 18.164C55.7931 18.9322 55.7595 19.6873 55.7242 20.4291C55.702 21.1692 55.672 21.85 55.634 22.4716C55.5943 23.08 55.5586 23.5673 55.5269 23.9333C55.4653 24.4777 55.3493 24.8147 55.1789 24.9446C55.0086 25.0745 54.8312 25.1517 54.6468 25.1763ZM62.0934 24.3063C61.5271 24.3816 61.1149 24.356 60.8568 24.2295C60.6119 24.1013 60.4693 23.8857 60.429 23.5828C60.394 23.3194 60.4564 23.0833 60.6162 22.8744C60.7743 22.6523 61.1563 22.4004 61.7622 22.1188C62.4699 21.7968 63.1337 21.4471 63.7537 21.0698C64.385 20.6776 64.8878 20.2756 65.2619 19.864C65.6492 19.4506 65.8165 19.0463 65.764 18.6512C65.7289 18.3878 65.6114 18.2092 65.4112 18.1152C65.2242 18.0194 65.0122 17.9873 64.7752 18.0188C64.5776 18.0451 64.2923 18.1166 63.9191 18.2332C63.5574 18.335 63.1588 18.4617 62.7233 18.6135C62.286 18.752 61.861 18.8823 61.4484 19.0042C61.0471 19.1112 60.7016 19.184 60.4119 19.2225C59.7271 19.3136 59.1999 19.2296 58.8304 18.9705C58.4591 18.6982 58.241 18.3184 58.1762 17.8312C58.1412 17.5678 58.2313 17.1872 58.4465 16.6895C58.6617 16.1918 58.963 15.6357 59.3504 15.0212C59.7378 14.4068 60.1778 13.7853 60.6705 13.1569C61.1632 12.5284 61.6686 11.9452 62.1868 11.4072C62.7164 10.8542 63.2261 10.4044 63.7161 10.0578C64.2044 9.69797 64.6329 9.49354 65.0016 9.44448C65.4231 9.38842 65.7764 9.47544 66.0617 9.70555C66.3601 9.9339 66.5391 10.272 66.5987 10.7197C66.6267 10.9304 66.6376 11.1635 66.6314 11.419C66.6234 11.6613 66.5535 11.8918 66.4218 12.1103C66.2883 12.3157 66.0621 12.4798 65.7434 12.6027C65.4247 12.7255 64.9752 12.7719 64.3949 12.7418C63.9909 13.1307 63.5715 13.555 63.1368 14.0149C62.7135 14.4599 62.3192 14.9212 61.9538 15.3986C61.5867 15.863 61.2911 16.3111 61.0671 16.7429C61.5334 16.5201 62.0699 16.3214 62.6766 16.1469C63.2815 15.9592 63.9001 15.8233 64.5322 15.7392C65.2961 15.6376 65.9334 15.6935 66.4443 15.907C66.9667 16.1056 67.3695 16.4139 67.653 16.8318C67.9496 17.2481 68.1338 17.7262 68.2057 18.2661C68.2862 18.8719 68.1693 19.504 67.8548 20.1624C67.5403 20.8207 67.0871 21.4439 66.4952 22.032C65.9033 22.62 65.2258 23.1189 64.4627 23.5287C63.6997 23.9385 62.9099 24.1977 62.0934 24.3063ZM83.2309 10.3366C83.2519 10.4947 83.2177 10.64 83.1281 10.7725C83.0385 10.9051 82.919 11.0148 82.7698 11.1016C82.5581 11.2236 82.1854 11.3938 81.6516 11.6123C81.1177 11.8307 80.4679 12.0847 79.7023 12.3742C78.9498 12.6619 78.1389 12.9641 77.2697 13.2808C76.3987 13.5843 75.5268 13.8812 74.654 14.1716C74.4798 15.4814 74.3043 16.8316 74.1274 18.2222C73.9487 19.5997 73.7675 20.9573 73.5836 22.2953C73.5132 22.7737 73.4016 23.1437 73.2488 23.4053C73.0977 23.6801 72.7982 23.8472 72.3505 23.9068C71.8632 23.9716 71.5129 23.8574 71.2997 23.5641C71.1013 23.2822 71.0264 22.87 71.0749 22.3274C71.2263 20.8464 71.3646 19.4676 71.4896 18.1911C71.6278 16.9129 71.7383 15.8796 71.8211 15.0912C71.0484 15.328 70.371 15.5254 69.7889 15.6832C69.205 15.8279 68.7871 15.9103 68.5351 15.9304C68.2551 15.9409 68.0097 15.8596 67.7991 15.6866C67.5884 15.5136 67.4704 15.2813 67.445 14.9898C67.4363 14.7229 67.5251 14.4833 67.7112 14.2709C67.8957 14.0453 68.1301 13.8935 68.4146 13.8154C68.8176 13.7216 69.3365 13.5923 69.9713 13.4274C70.6061 13.2625 71.305 13.0758 72.068 12.867C72.1499 12.1726 72.2554 11.4549 72.3847 10.714C72.5122 9.95986 72.6507 9.2378 72.8002 8.54778C72.9611 7.84284 73.1202 7.22526 73.2775 6.69503C73.4348 6.1648 73.5907 5.77548 73.7453 5.52707C73.8674 5.33659 74.0277 5.18125 74.2261 5.06103C74.4378 4.93906 74.6489 4.86406 74.8596 4.83602C75.1362 4.79923 75.3732 4.86822 75.5707 5.04299C75.7682 5.21776 75.8845 5.43684 75.9195 5.70024C75.9335 5.80559 75.9418 5.91841 75.9444 6.03869C75.9453 6.1458 75.9329 6.25466 75.9074 6.36527C75.7448 7.05704 75.5808 7.88972 75.4155 8.86331C75.2633 9.83514 75.1102 10.9009 74.9562 12.0606C75.9247 11.7844 76.8734 11.5107 77.8023 11.2397C78.7427 10.9538 79.5926 10.6933 80.3521 10.4583C81.123 10.2083 81.7385 9.99907 82.1986 9.83064C82.4497 9.70341 82.6762 9.69338 82.8781 9.80055C83.0783 9.89455 83.1959 10.0732 83.2309 10.3366ZM92.8959 19.9473C92.4745 20.0034 92.0768 19.9357 91.7029 19.7442C91.3307 19.5658 91.0213 19.3054 90.7747 18.9629C90.5263 18.6073 90.3733 18.2122 90.3154 17.7776C90.2068 16.9611 90.2786 16.1407 90.5308 15.3163C90.7962 14.4903 91.1788 13.6888 91.6786 12.912C92.1784 12.1352 92.7387 11.4106 93.3596 10.7383C93.9919 10.0511 94.6291 9.4503 95.271 8.93601C95.9261 8.41998 96.5276 8.0049 97.0755 7.69076C97.6366 7.37487 98.0818 7.19502 98.411 7.15122C98.793 7.10042 99.1138 7.14485 99.3737 7.28452C99.6449 7.40927 99.8033 7.64285 99.8489 7.98526C99.8629 8.09062 99.8479 8.17972 99.804 8.25258C99.9805 8.26931 100.132 8.34969 100.258 8.49371C100.385 8.63773 100.469 8.86778 100.511 9.18385C100.528 9.31555 100.541 9.66234 100.549 10.2242C100.557 10.7861 100.573 11.4674 100.6 12.2681C100.639 13.067 100.715 13.8945 100.829 14.7505C100.847 14.8822 100.882 14.9981 100.936 15.0982C100.988 15.1852 101.079 15.2199 101.211 15.2023C101.738 15.1323 102.257 14.956 102.769 14.6734C103.292 14.3759 103.79 14.035 104.261 13.6506C104.744 13.2513 105.176 12.8656 105.555 12.4934C105.946 12.1064 106.272 11.7882 106.534 11.539C106.807 11.2748 106.99 11.1366 107.082 11.1243C107.529 11.0647 107.783 11.2588 107.843 11.7066C107.858 11.8251 107.747 12.0946 107.508 12.5151C107.28 12.9206 106.955 13.3995 106.533 13.9516C106.109 14.4905 105.625 15.0373 105.083 15.592C104.551 16.1318 103.983 16.596 103.378 16.9848C102.786 17.3718 102.194 17.6047 101.601 17.6835C100.877 17.7799 100.301 17.6823 99.8737 17.3907C99.4594 17.0973 99.1347 16.6714 98.8996 16.113C98.6759 15.5396 98.5084 14.885 98.3971 14.1493C97.8533 15.2 97.2692 16.1489 96.6447 16.9959C96.0317 17.828 95.4051 18.5078 94.7649 19.0353C94.1247 19.5627 93.5017 19.8667 92.8959 19.9473ZM98.5724 9.12006C97.3642 9.91072 96.2998 10.776 95.3795 11.716C94.4573 12.6429 93.7512 13.5812 93.261 14.531C92.784 15.479 92.5989 16.3547 92.7058 17.158C92.7356 17.3819 92.8558 17.4799 93.0666 17.4518C93.3168 17.4185 93.6268 17.2299 93.9965 16.8858C94.3794 16.54 94.7829 16.0977 95.2071 15.5587C95.6296 15.0066 96.045 14.4019 96.4535 13.7444C96.8601 13.0738 97.2322 12.3944 97.5695 11.7062C97.9068 11.018 98.1621 10.3675 98.3352 9.75474C98.3994 9.53176 98.4784 9.3202 98.5724 9.12006Z" fill="white"/>
</svg>
