<svg width="105" height="33" viewBox="0 0 105 33" fill="none" xmlns="http://www.w3.org/2000/svg">
<path d="M3.66069 29.411C3.30694 29.458 2.97511 29.38 2.66523 29.1769C2.36798 28.9722 2.18322 28.5982 2.11095 28.0549C2.07229 27.7643 2.05557 27.3487 2.06079 26.8079C2.07864 26.2655 2.11587 25.6755 2.17249 25.038C2.22743 24.3878 2.29585 23.7422 2.37774 23.1013C2.47226 22.4587 2.56972 21.8864 2.67009 21.3845C2.76879 20.8699 2.86534 20.4842 2.95975 20.2273C3.08534 19.9149 3.21342 19.7178 3.34399 19.6362C3.48552 19.5402 3.62577 19.483 3.76475 19.4645C4.01743 19.4309 4.26125 19.4756 4.4962 19.5986C4.74378 19.72 4.90203 20.0397 4.97093 20.5577C4.99783 20.7598 5.00362 21.0933 4.98832 21.5583C4.97134 22.0105 4.94549 22.5411 4.91078 23.1501C4.87606 23.759 4.83124 24.3886 4.7763 25.0388C4.73399 25.6873 4.68748 26.3042 4.63677 26.8896C4.59701 27.4606 4.56444 27.9407 4.53906 28.3298C4.51791 28.654 4.41634 28.9054 4.23436 29.0839C4.0667 29.2734 3.87547 29.3824 3.66069 29.411ZM4.29216 17.4849C3.87524 17.5404 3.47393 17.4716 3.08824 17.2787C2.70087 17.073 2.47273 16.7112 2.40382 16.1932C2.34667 15.7637 2.40784 15.4019 2.58733 15.108C2.76682 14.8141 2.99429 14.591 3.26975 14.4387C3.55616 14.272 3.81308 14.1735 4.04049 14.1433C4.26791 14.113 4.52731 14.1299 4.81871 14.194C5.10843 14.2455 5.37117 14.3841 5.60693 14.6099C5.85364 14.8214 6.00725 15.1545 6.06776 15.6094C6.1081 15.9126 6.03768 16.2048 5.85651 16.4861C5.67367 16.7547 5.43356 16.9795 5.13619 17.1605C4.85146 17.3398 4.57012 17.448 4.29216 17.4849ZM10.3195 28.2358C10.0163 28.2762 9.6996 28.2154 9.36949 28.0536C9.05033 27.8775 8.76995 27.6062 8.52833 27.2398C8.28504 26.8607 8.12557 26.3869 8.04994 25.8183C7.9491 25.0603 7.94261 24.2383 8.03047 23.3522C8.13096 22.4645 8.27567 21.571 8.46461 20.6715C8.65354 19.772 8.84288 18.924 9.03262 18.1272C9.12286 17.7424 9.26065 17.4733 9.44599 17.3201C9.62965 17.1542 9.88572 17.0494 10.2142 17.0057C10.9596 16.9066 11.3819 17.2297 11.4811 17.9751C11.4979 18.1015 11.4738 18.3554 11.4088 18.7369C11.3422 19.1058 11.2486 19.5618 11.128 20.105C11.02 20.6466 10.9053 21.234 10.7838 21.8673C10.6733 22.4864 10.5771 23.1163 10.4952 23.7573C10.4242 24.3839 10.3807 24.9747 10.3645 25.5297C10.5963 25.0489 10.8453 24.4564 11.1117 23.7524C11.389 23.034 11.6811 22.2816 11.9879 21.495C12.3073 20.7068 12.6335 19.9691 12.9664 19.2819C13.2976 18.5821 13.6385 18.0031 13.989 17.5451C14.3395 17.087 14.698 16.8336 15.0643 16.7848C15.3802 16.7428 15.6855 16.7665 15.9803 16.8559C16.286 16.9309 16.5689 17.1247 16.8291 17.4373C17.0876 17.7372 17.3148 18.1891 17.5109 18.7931C17.7196 19.3953 17.8912 20.2018 18.0256 21.2126C18.0928 21.7179 18.2026 22.2048 18.3549 22.6731C18.5182 23.1271 18.7345 23.4969 19.004 23.7825C19.2717 24.0555 19.614 24.1643 20.031 24.1088C20.7511 24.013 21.3778 23.7946 21.9111 23.4537C22.4443 23.1127 22.9022 22.7368 23.2847 22.3259C23.6672 21.915 23.9861 21.5576 24.2414 21.2536C24.3947 21.0532 24.5278 20.894 24.6407 20.7762C24.7663 20.6566 24.8733 20.5909 24.9617 20.5792C25.227 20.5439 25.4258 20.5882 25.558 20.712C25.7028 20.8342 25.7912 21.0153 25.8231 21.2553C25.8399 21.3817 25.7636 21.6297 25.5942 21.9994C25.4248 22.3691 25.1737 22.8011 24.8409 23.2954C24.519 23.7754 24.1386 24.2503 23.6996 24.7201C23.2607 25.19 22.7746 25.5953 22.2413 25.9363C21.7081 26.2772 21.1446 26.4872 20.5507 26.5662C19.5526 26.699 18.7016 26.6322 17.9975 26.3658C17.3045 26.0852 16.7437 25.5426 16.3152 24.7381C15.8851 23.921 15.5717 22.7734 15.375 21.2952C15.37 21.2572 15.3616 21.1941 15.3498 21.1056C15.2977 20.714 15.2452 20.3674 15.1922 20.0658C15.1519 19.7626 15.1002 19.5188 15.037 19.3343C14.8744 19.7545 14.6776 20.2565 14.4466 20.8401C14.2283 21.422 13.9897 22.0452 13.731 22.7096C13.4705 23.3615 13.1966 24.0086 12.9092 24.6512C12.6201 25.2811 12.3243 25.8605 12.0218 26.3893C11.7319 26.9165 11.442 27.3472 11.1522 27.6815C10.8624 28.0158 10.5848 28.2005 10.3195 28.2358ZM35.0451 12.7961C34.4007 12.8818 33.9383 12.8854 33.6579 12.807C33.3758 12.716 33.1977 12.5854 33.1236 12.4152C33.0495 12.245 32.9999 12.0652 32.9747 11.8757L32.9722 11.8568C32.9436 11.642 33.0254 11.3868 33.2175 11.0912C33.4223 10.794 33.7588 10.5692 34.2271 10.4169C34.8875 10.1619 35.6115 9.94986 36.399 9.7808C37.1849 9.59911 37.956 9.45153 38.7124 9.33805C39.4797 9.21026 40.154 9.10771 40.7352 9.0304C41.318 8.96572 41.7728 9.00165 42.0996 9.13819C42.4246 9.2621 42.652 9.42472 42.7816 9.62606C42.9222 9.81308 43.0026 9.98239 43.0228 10.134C43.0497 10.3362 43.0033 10.5673 42.8836 10.8276C42.7622 11.0751 42.4426 11.2334 41.9246 11.3023C41.7351 11.3275 41.4714 11.3754 41.1337 11.4461C40.7959 11.5167 40.4219 11.605 40.0117 11.711C40.0562 12.3352 40.0774 13.1231 40.0754 14.0748C40.0735 15.0266 40.0184 16.0625 39.9103 17.1827C39.8131 18.2885 39.6418 19.4171 39.3963 20.5683C39.1618 21.7053 38.8242 22.7917 38.3834 23.8275C37.9535 24.849 37.405 25.7513 36.7377 26.5344C36.083 27.3158 35.2797 27.8984 34.3279 28.2822C34.1325 28.3596 33.9606 28.4211 33.8124 28.4665C33.6785 28.5229 33.5104 28.5645 33.3083 28.5914C32.9419 28.6402 32.6286 28.6047 32.3683 28.485C32.1081 28.3653 31.9263 28.1581 31.8228 27.8633C31.7108 27.5053 31.7088 27.152 31.8168 26.8033C31.9137 26.469 32.1505 26.2189 32.527 26.0531C33.409 25.6272 34.1469 25.0854 34.7409 24.4278C35.3458 23.7559 35.83 22.9007 36.1933 21.8623C36.5676 20.8096 36.8324 19.5143 36.9878 17.9764C37.1542 16.4242 37.2272 14.5566 37.2068 12.3735C36.7823 12.4685 36.3822 12.5539 36.0066 12.6296C35.6309 12.7053 35.3104 12.7608 35.0451 12.7961ZM51.8444 23.5798C51.5539 23.6184 51.2726 23.5337 51.0006 23.3256C50.7429 23.1284 50.578 22.7582 50.5057 22.2149C50.4519 21.8106 50.4087 21.2442 50.3761 20.5156C50.3544 19.7728 50.3682 18.813 50.4174 17.6364C50.0962 18.6049 49.7426 19.4749 49.3566 20.2462C48.9706 21.0176 48.5708 21.6366 48.1571 22.103C47.7544 22.5552 47.3446 22.809 46.9276 22.8645C46.258 22.9536 45.7005 22.822 45.255 22.4698C44.8079 22.105 44.5087 21.354 44.3575 20.217C44.2852 19.6737 44.2479 19.055 44.2456 18.361C44.2559 17.6653 44.2915 16.9663 44.3523 16.2639C44.4132 15.5615 44.4841 14.9348 44.5651 14.384C44.6571 13.8189 44.7486 13.3953 44.8397 13.1132C44.9105 12.8723 45.0133 12.6786 45.1481 12.5321C45.2956 12.3839 45.4956 12.293 45.7483 12.2594C46.1526 12.2056 46.4798 12.2971 46.7299 12.5339C46.9799 12.7706 47.1235 13.028 47.1604 13.3059C47.189 13.5207 47.1796 13.8369 47.1323 14.2547C47.0977 14.6707 47.0436 15.1344 46.9702 15.6456C46.9094 16.1551 46.844 16.6782 46.7739 17.2147C46.7039 17.7511 46.6485 18.2535 46.608 18.7218C46.58 19.1884 46.5871 19.5796 46.6291 19.8955C46.6812 20.2871 46.8589 20.4628 47.1621 20.4225C47.339 20.3989 47.5437 20.1981 47.7763 19.82C48.0215 19.4402 48.2642 18.9451 48.5044 18.3345C48.7556 17.7096 49 17.0342 49.2378 16.3083C49.4865 15.568 49.7027 14.8257 49.8865 14.0812C50.0813 13.3224 50.2395 12.6263 50.3609 11.993C50.4369 11.5971 50.5721 11.3091 50.7667 11.1289C50.9613 10.9488 51.1976 10.8402 51.4756 10.8032C51.9051 10.7461 52.2496 10.8224 52.5089 11.0322C52.7809 11.2403 52.9463 11.5655 53.0052 12.0077C53.032 12.2098 53.0458 12.5551 53.0465 13.0436C53.0472 13.5321 53.0399 14.1053 53.0245 14.7631C53.0218 15.4192 53.0052 16.1157 52.9746 16.8527C52.9441 17.5896 52.9119 18.3139 52.878 19.0256C52.8567 19.7356 52.8279 20.3888 52.7915 20.9851C52.7534 21.5687 52.7192 22.0362 52.6887 22.3874C52.6296 22.9096 52.5183 23.233 52.3549 23.3576C52.1915 23.4822 52.0213 23.5562 51.8444 23.5798ZM58.9882 22.7452C58.4449 22.8174 58.0495 22.7929 57.8019 22.6715C57.567 22.5485 57.4302 22.3417 57.3915 22.0511C57.3579 21.7984 57.4178 21.5719 57.5711 21.3714C57.7228 21.1584 58.0892 20.9168 58.6705 20.6466C59.3494 20.3377 59.9863 20.0023 60.581 19.6403C61.1867 19.264 61.669 18.8784 62.0279 18.4835C62.3994 18.0869 62.56 17.6991 62.5096 17.32C62.476 17.0674 62.3632 16.8959 62.1712 16.8058C61.9918 16.7139 61.7884 16.6831 61.561 16.7133C61.3715 16.7386 61.0977 16.8071 60.7397 16.919C60.3927 17.0166 60.0103 17.1382 59.5925 17.2838C59.173 17.4167 58.7653 17.5417 58.3694 17.6586C57.9845 17.7613 57.653 17.8311 57.3751 17.8681C56.7181 17.9555 56.2124 17.8749 55.8579 17.6263C55.5017 17.3651 55.2925 17.0008 55.2303 16.5333C55.1967 16.2806 55.2831 15.9155 55.4896 15.438C55.6961 14.9606 55.9852 14.4271 56.3568 13.8376C56.7284 13.2482 57.1505 12.652 57.6232 12.0491C58.0959 11.4462 58.5808 10.8866 59.0778 10.3705C59.5859 9.84003 60.0749 9.40852 60.545 9.07598C61.0134 8.7308 61.4245 8.53468 61.7782 8.48762C62.1825 8.43384 62.5215 8.51732 62.7952 8.73807C63.0814 8.95714 63.2532 9.28146 63.3103 9.71102C63.3372 9.91316 63.3477 10.1368 63.3417 10.3819C63.334 10.6143 63.267 10.8354 63.1406 11.0451C63.0125 11.2421 62.7956 11.3996 62.4898 11.5174C62.1841 11.6352 61.7528 11.6797 61.1961 11.6509C60.8086 12.0239 60.4063 12.431 59.9892 12.8722C59.5831 13.2991 59.2048 13.7416 58.8543 14.1997C58.5021 14.6451 58.2186 15.075 58.0037 15.4893C58.451 15.2755 58.9657 15.0849 59.5477 14.9175C60.1281 14.7374 60.7215 14.6071 61.3279 14.5264C62.0607 14.4289 62.6721 14.4826 63.1623 14.6874C63.6633 14.8779 64.0499 15.1736 64.3218 15.5746C64.6063 15.9739 64.7831 16.4326 64.852 16.9506C64.9293 17.5318 64.8171 18.1381 64.5154 18.7697C64.2137 19.4013 63.7789 19.9992 63.211 20.5633C62.6432 21.1275 61.9933 21.6061 61.2612 21.9992C60.5292 22.3923 59.7715 22.641 58.9882 22.7452ZM79.2663 9.34351C79.2865 9.49512 79.2536 9.6345 79.1677 9.76165C79.0817 9.8888 78.9671 9.99405 78.8239 10.0774C78.6209 10.1944 78.2633 10.3577 77.7512 10.5673C77.239 10.7768 76.6157 11.0205 75.8812 11.2982C75.1593 11.5742 74.3814 11.8641 73.5475 12.1679C72.7119 12.4591 71.8754 12.744 71.0382 13.0225C70.871 14.2791 70.7026 15.5744 70.5329 16.9085C70.3616 18.2299 70.1877 19.5324 70.0112 20.8159C69.9437 21.2749 69.8367 21.6299 69.69 21.8808C69.5451 22.1444 69.2578 22.3048 68.8283 22.3619C68.3608 22.4241 68.0248 22.3145 67.8202 22.0331C67.6299 21.7627 67.558 21.3673 67.6045 20.8468C67.7498 19.4259 67.8824 18.1032 68.0024 16.8786C68.135 15.6524 68.241 14.6611 68.3204 13.9048C67.5792 14.132 66.9293 14.3213 66.3709 14.4727C65.8107 14.6115 65.4098 14.6906 65.1681 14.7099C64.8994 14.7199 64.664 14.6419 64.4619 14.4759C64.2598 14.3099 64.1466 14.0871 64.1223 13.8075C64.1139 13.5515 64.199 13.3215 64.3777 13.1178C64.5546 12.9014 64.7795 12.7557 65.0524 12.6809C65.4391 12.5908 65.9369 12.4668 66.5458 12.3086C67.1548 12.1504 67.8253 11.9712 68.5573 11.771C68.6358 11.1048 68.7371 10.4163 68.8611 9.7055C68.9835 8.98204 69.1163 8.28934 69.2597 7.62738C69.414 6.9511 69.5667 6.35863 69.7176 5.84995C69.8685 5.34128 70.0181 4.96779 70.1664 4.72948C70.2835 4.54675 70.4373 4.39772 70.6277 4.28239C70.8307 4.16538 71.0333 4.09342 71.2354 4.06653C71.5007 4.03124 71.7281 4.09742 71.9176 4.26509C72.107 4.43275 72.2186 4.64292 72.2522 4.89561C72.2656 4.99668 72.2736 5.10491 72.2761 5.2203C72.2769 5.32306 72.2651 5.42749 72.2406 5.53361C72.0846 6.19725 71.9273 6.99607 71.7687 7.93007C71.6227 8.8624 71.4758 9.88484 71.3281 10.9974C72.2572 10.7324 73.1673 10.4699 74.0585 10.2099C74.9606 9.93558 75.776 9.68567 76.5046 9.46017C77.2441 9.22035 77.8346 9.01965 78.276 8.85807C78.5169 8.73602 78.7342 8.7264 78.9279 8.82921C79.1199 8.91939 79.2327 9.09082 79.2663 9.34351ZM88.5384 18.5634C88.1341 18.6172 87.7526 18.5522 87.3938 18.3685C87.0368 18.1974 86.74 17.9476 86.5034 17.6191C86.2651 17.2779 86.1183 16.8988 86.0628 16.4819C85.9586 15.6986 86.0275 14.9115 86.2694 14.1207C86.524 13.3283 86.8911 12.5594 87.3705 11.8142C87.85 11.0689 88.3876 10.3738 88.9832 9.72882C89.5898 9.06953 90.201 8.4932 90.8169 7.99982C91.4453 7.50477 92.0224 7.10656 92.5481 6.8052C93.0863 6.50215 93.5134 6.32962 93.8293 6.2876C94.1957 6.23886 94.5035 6.28149 94.7527 6.41548C95.013 6.53515 95.1649 6.75924 95.2086 7.08773C95.2221 7.1888 95.2077 7.27428 95.1656 7.34418C95.3349 7.36023 95.4801 7.43734 95.6014 7.5755C95.7226 7.71367 95.8034 7.93436 95.8437 8.23758C95.8606 8.36392 95.8727 8.69661 95.8801 9.23565C95.8875 9.77469 95.9037 10.4283 95.9288 11.1964C95.9664 11.9629 96.0399 12.7567 96.1491 13.5779C96.166 13.7043 96.2 13.8155 96.2514 13.9115C96.301 13.9949 96.3891 14.0282 96.5154 14.0114C97.0208 13.9441 97.519 13.775 98.0101 13.5039C98.5122 13.2186 98.9894 12.8915 99.4418 12.5227C99.9052 12.1397 100.319 11.7696 100.683 11.4126C101.058 11.0413 101.371 10.7361 101.622 10.497C101.884 10.2435 102.059 10.1109 102.147 10.0992C102.577 10.042 102.82 10.2282 102.877 10.6578C102.893 10.7715 102.786 11.03 102.556 11.4334C102.338 11.8224 102.026 12.2818 101.621 12.8114C101.214 13.3285 100.75 13.853 100.23 14.3852C99.7199 14.903 99.1748 15.3484 98.5944 15.7213C98.0266 16.0926 97.4584 16.316 96.8899 16.3917C96.195 16.4841 95.6425 16.3905 95.2324 16.1107C94.835 15.8293 94.5235 15.4207 94.2979 14.885C94.0833 14.3349 93.9226 13.707 93.8159 13.0011C93.2942 14.0091 92.7339 14.9194 92.1348 15.732C91.5467 16.5303 90.9455 17.1824 90.3314 17.6884C89.7172 18.1945 89.1196 18.4861 88.5384 18.5634ZM93.9841 8.17638C92.8249 8.9349 91.8039 9.76505 90.9209 10.6668C90.0363 11.556 89.3589 12.4561 88.8886 13.3673C88.431 14.2768 88.2535 15.1169 88.356 15.8876C88.3846 16.1023 88.4999 16.1963 88.7021 16.1694C88.9421 16.1375 89.2395 15.9565 89.5942 15.6264C89.9615 15.2947 90.3486 14.8703 90.7556 14.3533C91.1609 13.8236 91.5594 13.2434 91.9513 12.6127C92.3414 11.9694 92.6983 11.3176 93.0219 10.6573C93.3455 9.99713 93.5904 9.37309 93.7565 8.78526C93.818 8.57135 93.8939 8.36839 93.9841 8.17638Z" fill="white"/>
</svg>
