<svg width="521" height="51" viewBox="0 0 521 51" fill="none" xmlns="http://www.w3.org/2000/svg">
<path d="M29.3484 33.153C29.3484 33.153 33.0413 29.1636 37.7017 28.8059L39.2459 19.4424L49.3201 33.2538C50.2131 30.6768 50.7155 27.8797 50.7155 25.0183C50.7155 11.2069 39.3575 0 25.3391 0C11.3208 0 0 11.1977 0 25.0183C0 38.839 11.358 50.0367 25.3763 50.0367C26.9577 50.0367 28.4926 49.8991 29.9623 49.6148L19.8229 29.1544L29.3577 33.1438L29.3484 33.153Z" fill="#161616"/>
<path d="M42.0317 39.5C42.9095 39.1409 43.2396 37.9433 42.7689 36.8253C42.2982 35.7072 41.2051 35.092 40.3272 35.4512C39.4494 35.8104 39.1193 37.0079 39.59 38.126C40.0607 39.244 41.1539 39.8592 42.0317 39.5Z" fill="#161616"/>
<path d="M35.8291 42.9297C36.7069 42.5705 37.0369 41.373 36.5663 40.2549C36.0956 39.1369 35.0024 38.5217 34.1246 38.8809C33.2468 39.2401 32.9167 40.4376 33.3874 41.5557C33.858 42.6737 34.9512 43.2889 35.8291 42.9297Z" fill="#161616"/>
<mask id="mask0_3209_355" style="mask-type:luminance" maskUnits="userSpaceOnUse" x="66" y="13" width="142" height="24">
<path d="M207.704 13.9518H66.7153V36.085H207.704V13.9518Z" fill="white"/>
</mask>
<g mask="url(#mask0_3209_355)">
<path d="M81.5156 33.4108V35.7773H80.0794C78.6134 35.7773 77.5804 35.3158 77.1445 33.8724C76.0816 35.1952 74.3648 36.086 72.024 36.086C68.9964 36.086 66.7153 34.6719 66.7153 31.6587C66.7153 28.6455 68.9636 27.2315 71.9612 26.9552L76.7384 26.4937V25.7263C76.7384 23.7597 75.6158 22.6515 73.678 22.6515C71.7403 22.6515 70.7729 23.7567 70.4923 25.3559H67.3393C67.62 22.3133 69.931 20.0997 73.678 20.0997C77.4252 20.0997 79.9212 22.0047 79.9212 25.8469V32.1497C79.9212 33.011 80.3272 33.4108 81.1065 33.4108H81.5126H81.5156ZM76.7384 28.7396L73.0242 29.107C71.182 29.2599 69.9011 30.0595 69.9011 31.5353C69.9011 33.011 71.0864 33.6254 72.4927 33.6254C74.4275 33.6254 76.7384 32.6406 76.7384 29.8743V28.7366V28.7396Z" fill="#161616"/>
<path d="M97.7791 35.7743H94.9068L94.5933 33.9311H94.3753C93.5005 35.0982 92.2196 36.083 89.8161 36.083C86.3497 36.083 83.979 33.9017 83.979 29.936V20.4054H87.1648V29.2598C87.1648 32.0879 88.7263 33.349 90.7238 33.349C92.7212 33.349 94.5962 32.0585 94.5962 29.0158V20.4083H97.782V35.7802L97.7791 35.7743Z" fill="#161616"/>
<path d="M103.65 32.0557V22.9248H100.279V20.4055H101.372C103.214 20.4055 103.9 19.7588 103.9 18.1008V16.2252H106.803V20.4055H110.768V22.9248H106.803V31.6235C106.803 32.6377 107.176 33.5607 108.833 33.5607C109.332 33.5607 109.896 33.4696 110.362 33.3138V35.742C109.767 35.8949 108.955 36.0801 107.925 36.0801C104.274 36.0801 103.647 33.8048 103.647 32.0527L103.65 32.0557Z" fill="#161616"/>
<path d="M112.233 28.0929C112.233 23.4216 115.604 20.0997 120.196 20.0997C124.788 20.0997 128.218 23.451 128.218 28.0929C128.218 32.7346 124.785 36.086 120.196 36.086C115.607 36.086 112.233 32.7053 112.233 28.0929ZM125.066 28.0929C125.066 25.2031 123.098 22.8366 120.196 22.8366C117.294 22.8366 115.389 25.2031 115.389 28.0929C115.389 30.9826 117.294 33.3491 120.196 33.3491C123.098 33.3491 125.066 30.9503 125.066 28.0929Z" fill="#161616"/>
<path d="M137.957 26.5867L144.359 35.7793H140.83L135.802 28.6769L133.867 30.5525V35.7793H130.681V13.9518H133.867V26.5544H134.085L140.516 20.4074H144.356L137.954 26.5867H137.957Z" fill="#161616"/>
<path d="M146.356 16.1333C146.356 15.028 147.293 14.1666 148.416 14.1666C149.539 14.1666 150.414 15.028 150.414 16.1333C150.414 17.2386 149.509 18.1323 148.416 18.1323C147.323 18.1323 146.356 17.2092 146.356 16.1333ZM146.825 20.4077H150.01V35.7795H146.825V20.4077Z" fill="#161616"/>
<path d="M155.815 32.0557V22.9248H152.444V20.4055H153.537C155.379 20.4055 156.066 19.7588 156.066 18.1008V16.2252H158.971V20.4055H162.936V22.9248H158.971V31.6235C158.971 32.6377 159.344 33.5607 161.001 33.5607C161.5 33.5607 162.061 33.4696 162.53 33.3138V35.742C161.936 35.8949 161.124 36.0801 160.094 36.0801C156.439 36.0801 155.815 33.8048 155.815 32.0527V32.0557Z" fill="#161616"/>
<path d="M168.023 32.0557V22.9248H164.652V20.4055H165.745C167.587 20.4055 168.274 19.7588 168.274 18.1008V16.2252H171.179V20.4055H175.144V22.9248H171.179V31.6235C171.179 32.6377 171.552 33.5607 173.21 33.5607C173.708 33.5607 174.27 33.4696 174.738 33.3138V35.742C174.144 35.8949 173.332 36.0801 172.302 36.0801C168.648 36.0801 168.023 33.8048 168.023 32.0527V32.0557Z" fill="#161616"/>
<path d="M191.282 28.8924H179.731C179.886 31.6294 181.573 33.5343 184.32 33.5343C186.288 33.5343 187.724 32.7346 188.222 31.1678H191.282C190.626 34.2428 188.004 36.086 184.32 36.086C179.823 36.086 176.608 32.9816 176.608 28.2457C176.608 23.2364 179.949 20.0997 184.195 20.0997C188.004 20.0997 191.345 22.5897 191.345 27.8783C191.345 28.1869 191.312 28.4926 191.282 28.8924ZM179.761 26.6788H188.252C188.222 24.3124 186.598 22.6515 184.195 22.6515C181.791 22.6515 180.074 24.4358 179.761 26.6788Z" fill="#161616"/>
<path d="M207.704 26.2486V35.7793H204.518V26.9248C204.518 24.0968 202.956 22.8356 200.96 22.8356C198.962 22.8356 197.087 24.1262 197.087 27.1688V35.7763H193.901V13.9518H197.087V22.2506H197.305C198.18 21.0836 199.461 20.0988 201.864 20.0988C205.331 20.0988 207.702 22.28 207.702 26.2457L207.704 26.2486Z" fill="#161616"/>
</g>
<path d="M234.998 23.7347C235.724 23.7347 236.342 23.8253 236.854 24.0067C237.366 24.188 237.857 24.4707 238.326 24.8547L237.366 26.0067C236.694 25.4627 235.932 25.1907 235.078 25.1907C234.182 25.1907 233.452 25.5373 232.886 26.2307C232.321 26.9133 232.038 27.9907 232.038 29.4627C232.038 30.9133 232.316 31.9853 232.87 32.6787C233.425 33.3613 234.166 33.7027 235.094 33.7027C235.628 33.7027 236.081 33.6227 236.454 33.4627C236.838 33.292 237.217 33.0573 237.59 32.7587L238.486 33.8947C237.59 34.7693 236.438 35.2067 235.03 35.2067C234.081 35.2067 233.233 34.988 232.486 34.5507C231.74 34.1027 231.153 33.4467 230.726 32.5827C230.31 31.7187 230.102 30.6787 230.102 29.4627C230.102 28.268 230.316 27.2387 230.742 26.3747C231.18 25.5107 231.772 24.8547 232.518 24.4067C233.265 23.9587 234.092 23.7347 234.998 23.7347ZM243.84 26.3267C245.056 26.3267 245.995 26.7267 246.656 27.5267C247.317 28.316 247.648 29.3933 247.648 30.7587C247.648 32.124 247.312 33.2067 246.64 34.0067C245.968 34.8067 245.029 35.2067 243.824 35.2067C242.608 35.2067 241.664 34.8173 240.992 34.0387C240.331 33.2493 240 32.1613 240 30.7747C240 29.4307 240.336 28.3533 241.008 27.5427C241.691 26.732 242.635 26.3267 243.84 26.3267ZM243.84 27.7187C243.189 27.7187 242.699 27.9693 242.368 28.4707C242.048 28.972 241.888 29.74 241.888 30.7747C241.888 31.82 242.048 32.5933 242.368 33.0947C242.688 33.5853 243.173 33.8307 243.824 33.8307C244.475 33.8307 244.96 33.58 245.28 33.0787C245.6 32.5773 245.76 31.804 245.76 30.7587C245.76 29.724 245.6 28.9613 245.28 28.4707C244.96 27.9693 244.48 27.7187 243.84 27.7187ZM256.026 26.3267C256.548 26.3267 256.959 26.508 257.258 26.8707C257.556 27.2333 257.706 27.852 257.706 28.7267V34.9987H256.122V28.9667C256.122 28.4973 256.084 28.172 256.01 27.9907C255.946 27.8093 255.796 27.7187 255.562 27.7187C255.114 27.7187 254.698 28.0013 254.314 28.5667V34.9987H252.858V28.9667C252.858 28.4973 252.82 28.172 252.746 27.9907C252.682 27.8093 252.532 27.7187 252.298 27.7187C251.85 27.7187 251.434 28.0013 251.05 28.5667V34.9987H249.45V26.5507H250.794L250.922 27.4627C251.188 27.0893 251.46 26.8067 251.738 26.6147C252.015 26.4227 252.346 26.3267 252.73 26.3267C253.476 26.3267 253.956 26.684 254.17 27.3987C254.426 27.0573 254.703 26.796 255.002 26.6147C255.3 26.4227 255.642 26.3267 256.026 26.3267ZM264.084 26.3267C266.132 26.3267 267.156 27.804 267.156 30.7587C267.156 32.092 266.873 33.1693 266.308 33.9907C265.742 34.8013 264.937 35.2067 263.892 35.2067C263.006 35.2067 262.292 34.8973 261.748 34.2787V38.2467L259.956 38.4547V26.5507H261.508L261.62 27.6387C261.94 27.212 262.308 26.8867 262.724 26.6627C263.15 26.4387 263.604 26.3267 264.084 26.3267ZM263.588 27.7027C263.214 27.7027 262.873 27.8147 262.564 28.0387C262.254 28.2627 261.982 28.556 261.748 28.9187V32.8707C262.164 33.5 262.718 33.8147 263.412 33.8147C264.03 33.8147 264.494 33.5693 264.804 33.0787C265.113 32.588 265.268 31.82 265.268 30.7747C265.268 29.6973 265.129 28.9187 264.852 28.4387C264.574 27.948 264.153 27.7027 263.588 27.7027ZM273.421 32.6947C273.421 33.4093 273.848 33.7667 274.701 33.7667C275.128 33.7667 275.576 33.6707 276.045 33.4787L276.493 34.7267C275.907 35.0467 275.181 35.2067 274.317 35.2067C273.475 35.2067 272.813 34.972 272.333 34.5027C271.864 34.0227 271.629 33.3667 271.629 32.5347V24.4707H269.085V23.1587H273.421V32.6947ZM280.951 31.3507C281.004 32.172 281.239 32.7907 281.655 33.2067C282.082 33.612 282.615 33.8147 283.255 33.8147C283.65 33.8147 284.023 33.756 284.375 33.6387C284.738 33.5107 285.106 33.324 285.479 33.0787L286.247 34.1667C285.852 34.4973 285.388 34.7533 284.855 34.9347C284.322 35.116 283.762 35.2067 283.175 35.2067C281.884 35.2067 280.882 34.8067 280.167 34.0067C279.452 33.196 279.095 32.1187 279.095 30.7747C279.095 29.932 279.25 29.1747 279.559 28.5027C279.868 27.82 280.316 27.2867 280.903 26.9027C281.49 26.5187 282.172 26.3267 282.951 26.3267C284.071 26.3267 284.956 26.7053 285.607 27.4627C286.268 28.2093 286.599 29.2387 286.599 30.5507C286.599 30.8707 286.583 31.1373 286.551 31.3507H280.951ZM282.967 27.6547C282.391 27.6547 281.922 27.8627 281.559 28.2787C281.196 28.6947 280.988 29.3133 280.935 30.1347H284.855C284.834 29.3347 284.663 28.7213 284.343 28.2947C284.023 27.868 283.564 27.6547 282.967 27.6547ZM288.481 34.9987L291.521 30.5507L288.817 26.5507H290.881L292.609 29.5267L294.337 26.5507H296.305L293.665 30.4707L296.705 34.9987H294.609L292.529 31.5427L290.465 34.9987H288.481ZM315.188 32.9347C315.188 33.2547 315.236 33.4947 315.332 33.6547C315.428 33.804 315.594 33.916 315.828 33.9907L315.412 35.2067C314.527 35.1 313.946 34.7107 313.668 34.0387C313.359 34.4227 312.97 34.716 312.5 34.9187C312.042 35.1107 311.535 35.2067 310.98 35.2067C310.127 35.2067 309.45 34.9667 308.948 34.4867C308.447 34.0067 308.196 33.372 308.196 32.5827C308.196 31.6973 308.543 31.0147 309.236 30.5347C309.94 30.0547 310.932 29.8147 312.212 29.8147H313.412V29.2707C313.412 28.7373 313.252 28.348 312.932 28.1027C312.612 27.8573 312.148 27.7347 311.54 27.7347C311.242 27.7347 310.895 27.772 310.5 27.8467C310.106 27.9213 309.706 28.028 309.3 28.1667L308.852 26.9027C309.866 26.5187 310.852 26.3267 311.812 26.3267C312.932 26.3267 313.775 26.572 314.34 27.0627C314.906 27.5533 315.188 28.252 315.188 29.1587V32.9347ZM311.508 33.8947C311.882 33.8947 312.239 33.7987 312.58 33.6067C312.932 33.4147 313.21 33.148 313.412 32.8067V30.9347H312.42C311.61 30.9347 311.018 31.0733 310.644 31.3507C310.271 31.6173 310.084 32.0067 310.084 32.5187C310.084 32.9667 310.202 33.308 310.436 33.5427C310.682 33.7773 311.039 33.8947 311.508 33.8947ZM320.27 32.4547C320.27 32.9453 320.366 33.3027 320.558 33.5267C320.761 33.74 321.065 33.8467 321.47 33.8467C321.854 33.8467 322.222 33.7347 322.574 33.5107C322.937 33.2867 323.225 33.004 323.438 32.6627V26.5507H325.23V34.9987H323.678L323.566 33.9107C323.267 34.3267 322.878 34.6467 322.398 34.8707C321.918 35.0947 321.422 35.2067 320.91 35.2067C320.099 35.2067 319.491 34.988 319.086 34.5507C318.681 34.1133 318.478 33.4893 318.478 32.6787V26.5507H320.27V32.4547ZM335.288 34.5507C334.968 34.7533 334.594 34.9133 334.168 35.0307C333.741 35.148 333.293 35.2067 332.824 35.2067C331.864 35.2067 331.122 34.9613 330.6 34.4707C330.077 33.9693 329.816 33.292 329.816 32.4387V27.8627H327.944V26.5507H329.816V24.6627L331.608 24.4547V26.5507H334.472L334.264 27.8627H331.608V32.4227C331.608 32.8813 331.725 33.2227 331.96 33.4467C332.194 33.66 332.568 33.7667 333.08 33.7667C333.645 33.7667 334.168 33.6333 334.648 33.3667L335.288 34.5507ZM341.378 26.3267C342.594 26.3267 343.532 26.7267 344.194 27.5267C344.855 28.316 345.186 29.3933 345.186 30.7587C345.186 32.124 344.85 33.2067 344.178 34.0067C343.506 34.8067 342.567 35.2067 341.362 35.2067C340.146 35.2067 339.202 34.8173 338.53 34.0387C337.868 33.2493 337.538 32.1613 337.538 30.7747C337.538 29.4307 337.874 28.3533 338.546 27.5427C339.228 26.732 340.172 26.3267 341.378 26.3267ZM341.378 27.7187C340.727 27.7187 340.236 27.9693 339.906 28.4707C339.586 28.972 339.426 29.74 339.426 30.7747C339.426 31.82 339.586 32.5933 339.906 33.0947C340.226 33.5853 340.711 33.8307 341.362 33.8307C342.012 33.8307 342.498 33.58 342.818 33.0787C343.138 32.5773 343.298 31.804 343.298 30.7587C343.298 29.724 343.138 28.9613 342.818 28.4707C342.498 27.9693 342.018 27.7187 341.378 27.7187ZM353.563 26.3267C354.086 26.3267 354.497 26.508 354.795 26.8707C355.094 27.2333 355.243 27.852 355.243 28.7267V34.9987H353.659V28.9667C353.659 28.4973 353.622 28.172 353.547 27.9907C353.483 27.8093 353.334 27.7187 353.099 27.7187C352.651 27.7187 352.235 28.0013 351.851 28.5667V34.9987H350.395V28.9667C350.395 28.4973 350.358 28.172 350.283 27.9907C350.219 27.8093 350.07 27.7187 349.835 27.7187C349.387 27.7187 348.971 28.0013 348.587 28.5667V34.9987H346.987V26.5507H348.331L348.459 27.4627C348.726 27.0893 348.998 26.8067 349.275 26.6147C349.553 26.4227 349.883 26.3267 350.267 26.3267C351.014 26.3267 351.494 26.684 351.707 27.3987C351.963 27.0573 352.241 26.796 352.539 26.6147C352.838 26.4227 353.179 26.3267 353.563 26.3267ZM363.957 32.9347C363.957 33.2547 364.005 33.4947 364.101 33.6547C364.197 33.804 364.362 33.916 364.597 33.9907L364.181 35.2067C363.296 35.1 362.714 34.7107 362.437 34.0387C362.128 34.4227 361.738 34.716 361.269 34.9187C360.81 35.1107 360.304 35.2067 359.749 35.2067C358.896 35.2067 358.218 34.9667 357.717 34.4867C357.216 34.0067 356.965 33.372 356.965 32.5827C356.965 31.6973 357.312 31.0147 358.005 30.5347C358.709 30.0547 359.701 29.8147 360.981 29.8147H362.181V29.2707C362.181 28.7373 362.021 28.348 361.701 28.1027C361.381 27.8573 360.917 27.7347 360.309 27.7347C360.01 27.7347 359.664 27.772 359.269 27.8467C358.874 27.9213 358.474 28.028 358.069 28.1667L357.621 26.9027C358.634 26.5187 359.621 26.3267 360.581 26.3267C361.701 26.3267 362.544 26.572 363.109 27.0627C363.674 27.5533 363.957 28.252 363.957 29.1587V32.9347ZM360.277 33.8947C360.65 33.8947 361.008 33.7987 361.349 33.6067C361.701 33.4147 361.978 33.148 362.181 32.8067V30.9347H361.189C360.378 30.9347 359.786 31.0733 359.413 31.3507C359.04 31.6173 358.853 32.0067 358.853 32.5187C358.853 32.9667 358.97 33.308 359.205 33.5427C359.45 33.7773 359.808 33.8947 360.277 33.8947ZM374.303 34.5507C373.983 34.7533 373.609 34.9133 373.183 35.0307C372.756 35.148 372.308 35.2067 371.839 35.2067C370.879 35.2067 370.137 34.9613 369.615 34.4707C369.092 33.9693 368.831 33.292 368.831 32.4387V27.8627H366.959V26.5507H368.831V24.6627L370.623 24.4547V26.5507H373.487L373.279 27.8627H370.623V32.4227C370.623 32.8813 370.74 33.2227 370.975 33.4467C371.209 33.66 371.583 33.7667 372.095 33.7667C372.66 33.7667 373.183 33.6333 373.663 33.3667L374.303 34.5507ZM380.377 22.4067C380.718 22.4067 380.995 22.5187 381.209 22.7427C381.433 22.956 381.545 23.2227 381.545 23.5427C381.545 23.8627 381.433 24.1293 381.209 24.3427C380.995 24.556 380.718 24.6627 380.377 24.6627C380.025 24.6627 379.742 24.556 379.529 24.3427C379.315 24.1293 379.209 23.8627 379.209 23.5427C379.209 23.212 379.315 22.94 379.529 22.7267C379.753 22.5133 380.035 22.4067 380.377 22.4067ZM381.609 33.6867H383.913V34.9987H377.305V33.6867H379.817V27.8627H377.385V26.5507H381.609V33.6867ZM390.146 26.3267C391.362 26.3267 392.301 26.7267 392.962 27.5267C393.624 28.316 393.954 29.3933 393.954 30.7587C393.954 32.124 393.618 33.2067 392.946 34.0067C392.274 34.8067 391.336 35.2067 390.13 35.2067C388.914 35.2067 387.97 34.8173 387.298 34.0387C386.637 33.2493 386.306 32.1613 386.306 30.7747C386.306 29.4307 386.642 28.3533 387.314 27.5427C387.997 26.732 388.941 26.3267 390.146 26.3267ZM390.146 27.7187C389.496 27.7187 389.005 27.9693 388.674 28.4707C388.354 28.972 388.194 29.74 388.194 30.7747C388.194 31.82 388.354 32.5933 388.674 33.0947C388.994 33.5853 389.48 33.8307 390.13 33.8307C390.781 33.8307 391.266 33.58 391.586 33.0787C391.906 32.5773 392.066 31.804 392.066 30.7587C392.066 29.724 391.906 28.9613 391.586 28.4707C391.266 27.9693 390.786 27.7187 390.146 27.7187ZM396.508 26.5507H398.06L398.188 27.6547C398.54 27.228 398.951 26.9027 399.42 26.6787C399.9 26.444 400.401 26.3267 400.924 26.3267C401.703 26.3267 402.289 26.5453 402.684 26.9827C403.079 27.42 403.276 28.0387 403.276 28.8387V34.9987H401.484V29.7347C401.484 29.212 401.452 28.812 401.388 28.5347C401.335 28.2467 401.223 28.0387 401.052 27.9107C400.881 27.772 400.625 27.7027 400.284 27.7027C399.9 27.7027 399.532 27.82 399.18 28.0547C398.839 28.2893 398.545 28.5827 398.3 28.9347V34.9987H396.508V26.5507ZM421.84 26.3267C422.362 26.3267 422.773 26.508 423.072 26.8707C423.37 27.2333 423.52 27.852 423.52 28.7267V34.9987H421.936V28.9667C421.936 28.4973 421.898 28.172 421.824 27.9907C421.76 27.8093 421.61 27.7187 421.376 27.7187C420.928 27.7187 420.512 28.0013 420.128 28.5667V34.9987H418.672V28.9667C418.672 28.4973 418.634 28.172 418.56 27.9907C418.496 27.8093 418.346 27.7187 418.112 27.7187C417.664 27.7187 417.248 28.0013 416.864 28.5667V34.9987H415.264V26.5507H416.608L416.736 27.4627C417.002 27.0893 417.274 26.8067 417.552 26.6147C417.829 26.4227 418.16 26.3267 418.544 26.3267C419.29 26.3267 419.77 26.684 419.984 27.3987C420.24 27.0573 420.517 26.796 420.816 26.6147C421.114 26.4227 421.456 26.3267 421.84 26.3267ZM432.233 32.9347C432.233 33.2547 432.281 33.4947 432.377 33.6547C432.473 33.804 432.639 33.916 432.873 33.9907L432.457 35.2067C431.572 35.1 430.991 34.7107 430.713 34.0387C430.404 34.4227 430.015 34.716 429.545 34.9187C429.087 35.1107 428.58 35.2067 428.025 35.2067C427.172 35.2067 426.495 34.9667 425.993 34.4867C425.492 34.0067 425.241 33.372 425.241 32.5827C425.241 31.6973 425.588 31.0147 426.281 30.5347C426.985 30.0547 427.977 29.8147 429.257 29.8147H430.457V29.2707C430.457 28.7373 430.297 28.348 429.977 28.1027C429.657 27.8573 429.193 27.7347 428.585 27.7347C428.287 27.7347 427.94 27.772 427.545 27.8467C427.151 27.9213 426.751 28.028 426.345 28.1667L425.897 26.9027C426.911 26.5187 427.897 26.3267 428.857 26.3267C429.977 26.3267 430.82 26.572 431.385 27.0627C431.951 27.5533 432.233 28.252 432.233 29.1587V32.9347ZM428.553 33.8947C428.927 33.8947 429.284 33.7987 429.625 33.6067C429.977 33.4147 430.255 33.148 430.457 32.8067V30.9347H429.465C428.655 30.9347 428.063 31.0733 427.689 31.3507C427.316 31.6173 427.129 32.0067 427.129 32.5187C427.129 32.9667 427.247 33.308 427.481 33.5427C427.727 33.7773 428.084 33.8947 428.553 33.8947ZM442.275 23.1587V34.9987H440.691L440.563 33.9587C440.286 34.364 439.944 34.6733 439.539 34.8867C439.134 35.1 438.686 35.2067 438.195 35.2067C437.139 35.2067 436.344 34.812 435.811 34.0227C435.278 33.2333 435.011 32.1507 435.011 30.7747C435.011 29.9107 435.144 29.1427 435.411 28.4707C435.688 27.7987 436.078 27.276 436.579 26.9027C437.08 26.5187 437.672 26.3267 438.355 26.3267C439.219 26.3267 439.928 26.636 440.483 27.2547V22.9507L442.275 23.1587ZM438.819 27.7027C438.2 27.7027 437.726 27.9587 437.395 28.4707C437.075 28.972 436.915 29.74 436.915 30.7747C436.915 32.8227 437.502 33.8467 438.675 33.8467C439.379 33.8467 439.982 33.4413 440.483 32.6307V28.6467C440.046 28.0173 439.491 27.7027 438.819 27.7027ZM446.765 31.3507C446.818 32.172 447.053 32.7907 447.469 33.2067C447.895 33.612 448.429 33.8147 449.069 33.8147C449.463 33.8147 449.837 33.756 450.189 33.6387C450.551 33.5107 450.919 33.324 451.293 33.0787L452.061 34.1667C451.666 34.4973 451.202 34.7533 450.669 34.9347C450.135 35.116 449.575 35.2067 448.989 35.2067C447.698 35.2067 446.695 34.8067 445.981 34.0067C445.266 33.196 444.909 32.1187 444.909 30.7747C444.909 29.932 445.063 29.1747 445.373 28.5027C445.682 27.82 446.13 27.2867 446.717 26.9027C447.303 26.5187 447.986 26.3267 448.765 26.3267C449.885 26.3267 450.77 26.7053 451.421 27.4627C452.082 28.2093 452.413 29.2387 452.413 30.5507C452.413 30.8707 452.397 31.1373 452.365 31.3507H446.765ZM448.781 27.6547C448.205 27.6547 447.735 27.8627 447.373 28.2787C447.01 28.6947 446.802 29.3133 446.749 30.1347H450.669C450.647 29.3347 450.477 28.7213 450.157 28.2947C449.837 27.868 449.378 27.6547 448.781 27.6547ZM467.856 33.8467C468.422 33.8467 468.864 33.7453 469.184 33.5427C469.515 33.34 469.68 33.0627 469.68 32.7107C469.68 32.4653 469.632 32.268 469.536 32.1187C469.44 31.9587 469.248 31.8147 468.96 31.6867C468.672 31.548 468.24 31.404 467.664 31.2547C466.736 31.02 466.038 30.7213 465.568 30.3587C465.11 29.9853 464.88 29.452 464.88 28.7587C464.88 28.0227 465.184 27.436 465.792 26.9987C466.4 26.5507 467.222 26.3267 468.256 26.3267C469.504 26.3267 470.576 26.652 471.472 27.3027L470.704 28.4387C469.947 27.9373 469.147 27.6867 468.304 27.6867C467.238 27.6867 466.704 27.996 466.704 28.6147C466.704 28.828 466.763 29.004 466.88 29.1427C467.008 29.2813 467.222 29.4147 467.52 29.5427C467.819 29.66 468.262 29.7987 468.848 29.9587C469.766 30.2147 470.448 30.5293 470.896 30.9027C471.355 31.276 471.584 31.836 471.584 32.5827C471.584 33.4467 471.227 34.1027 470.512 34.5507C469.798 34.988 468.912 35.2067 467.856 35.2067C466.459 35.2067 465.302 34.812 464.384 34.0227L465.328 32.9347C465.68 33.212 466.07 33.436 466.496 33.6067C466.934 33.7667 467.387 33.8467 467.856 33.8467ZM477.914 22.4067C478.255 22.4067 478.533 22.5187 478.746 22.7427C478.97 22.956 479.082 23.2227 479.082 23.5427C479.082 23.8627 478.97 24.1293 478.746 24.3427C478.533 24.556 478.255 24.6627 477.914 24.6627C477.562 24.6627 477.279 24.556 477.066 24.3427C476.853 24.1293 476.746 23.8627 476.746 23.5427C476.746 23.212 476.853 22.94 477.066 22.7267C477.29 22.5133 477.573 22.4067 477.914 22.4067ZM479.146 33.6867H481.45V34.9987H474.842V33.6867H477.354V27.8627H474.922V26.5507H479.146V33.6867ZM490.116 26.3267C490.638 26.3267 491.049 26.508 491.348 26.8707C491.646 27.2333 491.796 27.852 491.796 28.7267V34.9987H490.212V28.9667C490.212 28.4973 490.174 28.172 490.1 27.9907C490.036 27.8093 489.886 27.7187 489.652 27.7187C489.204 27.7187 488.788 28.0013 488.404 28.5667V34.9987H486.948V28.9667C486.948 28.4973 486.91 28.172 486.836 27.9907C486.772 27.8093 486.622 27.7187 486.388 27.7187C485.94 27.7187 485.524 28.0013 485.14 28.5667V34.9987H483.54V26.5507H484.884L485.012 27.4627C485.278 27.0893 485.55 26.8067 485.828 26.6147C486.105 26.4227 486.436 26.3267 486.82 26.3267C487.566 26.3267 488.046 26.684 488.26 27.3987C488.516 27.0573 488.793 26.796 489.092 26.6147C489.39 26.4227 489.732 26.3267 490.116 26.3267ZM498.174 26.3267C500.222 26.3267 501.246 27.804 501.246 30.7587C501.246 32.092 500.963 33.1693 500.398 33.9907C499.832 34.8013 499.027 35.2067 497.982 35.2067C497.096 35.2067 496.382 34.8973 495.838 34.2787V38.2467L494.046 38.4547V26.5507H495.598L495.71 27.6387C496.03 27.212 496.398 26.8867 496.814 26.6627C497.24 26.4387 497.694 26.3267 498.174 26.3267ZM497.678 27.7027C497.304 27.7027 496.963 27.8147 496.654 28.0387C496.344 28.2627 496.072 28.556 495.838 28.9187V32.8707C496.254 33.5 496.808 33.8147 497.502 33.8147C498.12 33.8147 498.584 33.5693 498.894 33.0787C499.203 32.588 499.358 31.82 499.358 30.7747C499.358 29.6973 499.219 28.9187 498.942 28.4387C498.664 27.948 498.243 27.7027 497.678 27.7027ZM507.511 32.6947C507.511 33.4093 507.938 33.7667 508.791 33.7667C509.218 33.7667 509.666 33.6707 510.135 33.4787L510.583 34.7267C509.997 35.0467 509.271 35.2067 508.407 35.2067C507.565 35.2067 506.903 34.972 506.423 34.5027C505.954 34.0227 505.719 33.3667 505.719 32.5347V24.4707H503.175V23.1587H507.511V32.6947ZM515.041 31.3507C515.094 32.172 515.329 32.7907 515.745 33.2067C516.172 33.612 516.705 33.8147 517.345 33.8147C517.74 33.8147 518.113 33.756 518.465 33.6387C518.828 33.5107 519.196 33.324 519.569 33.0787L520.337 34.1667C519.942 34.4973 519.478 34.7533 518.945 34.9347C518.412 35.116 517.852 35.2067 517.265 35.2067C515.974 35.2067 514.972 34.8067 514.257 34.0067C513.542 33.196 513.185 32.1187 513.185 30.7747C513.185 29.932 513.34 29.1747 513.649 28.5027C513.958 27.82 514.406 27.2867 514.993 26.9027C515.58 26.5187 516.262 26.3267 517.041 26.3267C518.161 26.3267 519.046 26.7053 519.697 27.4627C520.358 28.2093 520.689 29.2387 520.689 30.5507C520.689 30.8707 520.673 31.1373 520.641 31.3507H515.041ZM517.057 27.6547C516.481 27.6547 516.012 27.8627 515.649 28.2787C515.286 28.6947 515.078 29.3133 515.025 30.1347H518.945C518.924 29.3347 518.753 28.7213 518.433 28.2947C518.113 27.868 517.654 27.6547 517.057 27.6547Z" fill="#959595"/>
</svg>
