<svg width="416" height="416" viewBox="0 0 416 416" fill="none" xmlns="http://www.w3.org/2000/svg">
<path d="M241.037 275.049C241.037 275.049 271.233 241.887 309.388 239L322.028 161.284L404.424 275.985C411.759 254.605 415.894 231.431 415.894 207.633C415.894 92.9314 322.887 0 208.266 0C93.6446 0 0.871094 93.0094 0.871094 207.633C0.871094 322.256 93.8788 415.265 208.5 415.265C221.374 415.265 234.015 414.095 246.031 411.754L163.01 241.965L241.037 275.127V275.049Z" fill="white" fill-opacity="0.08"/>
<path d="M344.839 327.703C352.004 324.729 354.691 314.801 350.842 305.527C346.994 296.253 338.066 291.146 330.902 294.119C323.737 297.093 321.05 307.021 324.899 316.295C328.748 325.569 337.675 330.676 344.839 327.703Z" fill="white" fill-opacity="0.08"/>
<path d="M294.144 356.293C301.308 353.319 303.996 343.391 300.147 334.117C296.298 324.843 287.37 319.736 280.206 322.709C273.042 325.682 270.355 335.611 274.203 344.885C278.052 354.158 286.98 359.266 294.144 356.293Z" fill="white" fill-opacity="0.08"/>
</svg>
