<svg width="485" height="485" viewBox="0 0 485 485" fill="none" xmlns="http://www.w3.org/2000/svg">
    <style>
        #connections, #triggers, #variables, #code-assets {
            cursor: pointer;
            transition: fill 0.3s ease;
        }
        #connections:hover, #triggers:hover, #variables:hover, #code-assets:hover {
            fill: #454343;
        }
    </style>
<path d="M463.707 295.341C464.176 294.849 464.644 294.381 465.089 293.865C465.558 293.35 466.003 292.835 466.448 292.319C466.893 291.828 467.315 291.312 467.736 290.82C468.181 290.282 468.603 289.743 469.025 289.204C469.423 288.689 469.821 288.197 470.196 287.682C470.618 287.12 471.016 286.558 471.414 285.972C471.765 285.457 472.117 284.941 472.468 284.426C472.866 283.841 473.241 283.232 473.592 282.646C473.92 282.131 474.225 281.616 474.529 281.1C474.904 280.468 475.232 279.859 475.583 279.226C475.865 278.711 476.146 278.219 476.403 277.704C476.755 277.048 477.059 276.392 477.387 275.737C477.621 275.245 477.879 274.729 478.113 274.238C478.418 273.558 478.722 272.856 479.003 272.176C479.214 271.685 479.425 271.193 479.612 270.701C479.894 269.975 480.175 269.249 480.432 268.523C480.596 268.054 480.784 267.562 480.948 267.094C481.205 266.344 481.44 265.595 481.674 264.845C481.814 264.377 481.955 263.908 482.095 263.44C482.306 262.667 482.517 261.894 482.704 261.121C482.822 260.653 482.939 260.208 483.032 259.739C483.22 258.943 483.384 258.147 483.524 257.35C483.618 256.905 483.712 256.46 483.782 255.992C483.923 255.195 484.04 254.376 484.157 253.556C484.227 253.111 484.297 252.666 484.344 252.221C484.438 251.401 484.532 250.581 484.602 249.762C484.649 249.317 484.696 248.872 484.719 248.45C484.789 247.63 484.836 246.787 484.86 245.967C484.86 245.522 484.906 245.077 484.906 244.656C484.906 243.836 484.93 242.993 484.906 242.173C484.906 241.728 484.906 241.306 484.906 240.861C484.906 240.041 484.86 239.222 484.813 238.378C484.789 237.933 484.766 237.488 484.742 237.043C484.672 236.224 484.602 235.427 484.508 234.608C484.461 234.163 484.414 233.694 484.368 233.249C484.274 232.453 484.157 231.656 484.016 230.86C483.946 230.392 483.876 229.947 483.805 229.478C483.665 228.705 483.524 227.909 483.36 227.136C483.267 226.667 483.173 226.199 483.056 225.707C482.892 224.958 482.681 224.185 482.494 223.435C482.377 222.943 482.236 222.451 482.119 221.983C481.908 221.257 481.697 220.507 481.463 219.781C481.299 219.29 481.158 218.798 480.995 218.306C480.76 217.603 480.503 216.9 480.245 216.198C480.058 215.683 479.87 215.191 479.683 214.675C479.425 213.996 479.121 213.317 478.839 212.638C478.629 212.122 478.394 211.607 478.16 211.092C477.856 210.436 477.551 209.804 477.247 209.148C476.989 208.632 476.731 208.094 476.474 207.579C476.146 206.946 475.818 206.337 475.466 205.728C475.162 205.189 474.881 204.674 474.576 204.135C474.225 203.55 473.85 202.941 473.499 202.355C473.171 201.817 472.843 201.301 472.492 200.786C472.117 200.224 471.719 199.662 471.32 199.1C470.946 198.584 470.594 198.046 470.196 197.53C469.798 196.992 469.376 196.453 468.954 195.914C468.556 195.399 468.135 194.884 467.736 194.368C467.315 193.853 466.87 193.338 466.425 192.823C465.98 192.307 465.534 191.815 465.089 191.3C464.644 190.808 464.152 190.316 463.684 189.825C463.356 189.473 463.028 189.122 462.7 188.794C462.583 188.677 462.442 188.56 462.325 188.443C461.178 187.318 460.006 186.194 458.765 185.117C457.57 184.063 456.329 183.079 455.064 182.119C454.83 181.955 454.595 181.767 454.361 181.603C453.096 180.667 451.808 179.753 450.52 178.887C450.449 178.84 450.356 178.793 450.285 178.746C449.114 177.996 447.943 177.27 446.748 176.591C446.327 176.357 445.905 176.099 445.46 175.865C444.406 175.303 443.375 174.741 442.298 174.226C441.548 173.851 440.798 173.523 440.049 173.172C439.463 172.914 438.854 172.656 438.269 172.399C437.449 172.047 436.629 171.719 435.809 171.415C435.739 171.391 435.669 171.368 435.598 171.345C421.239 165.981 405.592 165.091 390.811 168.698C390.624 168.745 390.436 168.792 390.249 168.838C389.476 169.026 388.703 169.213 387.93 169.424C369.542 174.671 349.772 169.307 336.256 155.792L329.111 148.649C315.596 135.134 310.231 115.343 315.478 96.9562C315.478 96.886 315.525 96.7923 315.549 96.722C315.97 95.1996 316.369 93.6537 316.697 92.1079C317.024 90.6089 317.282 89.1099 317.516 87.6109C317.563 87.283 317.61 86.9785 317.657 86.6506C317.844 85.3858 317.985 84.0975 318.102 82.8328C318.125 82.5517 318.149 82.2706 318.172 81.9661C318.406 78.8744 318.477 75.7593 318.336 72.6442C318.336 72.3397 318.313 72.0586 318.289 71.7541C318.219 70.4893 318.125 69.2246 317.985 67.9598C317.938 67.6319 317.915 67.2805 317.868 66.9526C317.68 65.477 317.493 64.0014 317.212 62.5259C317.212 62.479 317.212 62.4556 317.212 62.4322C316.931 60.8863 316.603 59.3639 316.228 57.818C316.158 57.5135 316.064 57.2325 315.994 56.9514C315.689 55.7569 315.338 54.5624 314.987 53.3678C314.869 52.9697 314.752 52.5949 314.612 52.1967C314.214 50.9788 313.792 49.7843 313.323 48.5898C313.23 48.3321 313.136 48.0745 313.042 47.8402C312.48 46.4115 311.848 44.9828 311.192 43.5774C311.051 43.2964 310.911 43.0387 310.794 42.7577C310.255 41.6334 309.693 40.5326 309.084 39.4552C308.849 39.0336 308.639 38.6354 308.404 38.2372C307.819 37.2066 307.21 36.2229 306.577 35.2158C306.366 34.8644 306.156 34.5365 305.921 34.1852C305.055 32.8736 304.165 31.6088 303.204 30.344C303.064 30.1566 302.9 29.9692 302.759 29.7584C301.939 28.7045 301.096 27.6505 300.229 26.6433C299.901 26.2686 299.573 25.8938 299.245 25.5191C298.472 24.6524 297.676 23.8092 296.856 22.9661C296.645 22.7318 296.434 22.4976 296.2 22.2634C296.06 22.1229 295.896 21.9823 295.755 21.8418C295.263 21.3734 294.771 20.9049 294.279 20.4365C293.788 19.968 293.296 19.4996 292.78 19.0546C292.616 18.8906 292.452 18.7501 292.265 18.5861C291.75 18.1411 291.234 17.7195 290.719 17.2979C290.485 17.1105 290.25 16.8997 289.993 16.689C288.025 15.1197 285.987 13.6441 283.902 12.2856C283.528 12.0514 283.153 11.8172 282.778 11.5829C282.146 11.1848 281.537 10.81 280.904 10.4353C280.319 10.0839 279.733 9.75603 279.124 9.42812C278.726 9.21733 278.328 8.9831 277.929 8.77231C277.18 8.37413 276.43 7.99938 275.681 7.62463C275.47 7.53094 275.282 7.43725 275.072 7.34356C256.543 -1.46312 235.203 -2.35316 216.113 4.69687C215.504 4.90767 214.895 5.14189 214.309 5.37611C213.911 5.54007 213.536 5.70402 213.138 5.86797C212.341 6.19588 211.545 6.54721 210.748 6.89854C210.467 7.01565 210.21 7.15619 209.929 7.2733C208.992 7.71831 208.078 8.16333 207.165 8.6552C207.001 8.72546 206.86 8.81915 206.696 8.88942C205.618 9.47497 204.541 10.0605 203.487 10.6929C200.348 12.5667 197.303 14.6747 194.398 17.0637C194.281 17.1574 194.187 17.2511 194.094 17.3448C192.805 18.4222 191.54 19.5464 190.299 20.7175C189.994 20.9986 189.713 21.3031 189.409 21.6076C188.425 22.5679 187.488 23.5282 186.551 24.5588C186.247 24.8867 185.942 25.2146 185.638 25.5425C185.427 25.7767 185.239 25.9641 185.029 26.1983C184.138 27.2289 183.272 28.2829 182.452 29.3603C182.335 29.5242 182.218 29.6882 182.077 29.8521C181.07 31.1872 180.086 32.5222 179.172 33.9041C179.102 33.9978 179.055 34.0915 178.985 34.1618C178.095 35.4968 177.275 36.8553 176.502 38.2372C176.268 38.6354 176.057 39.0101 175.846 39.4083C175.167 40.6731 174.488 41.9379 173.879 43.2261C173.598 43.8117 173.363 44.3738 173.106 44.9593C172.754 45.7323 172.45 46.4818 172.122 47.2547C171.583 48.5663 171.091 49.9014 170.623 51.2364C170.482 51.6346 170.342 52.0562 170.201 52.4544C166.5 63.8375 165.563 75.8764 167.367 87.6109C167.413 87.9622 167.484 88.3369 167.554 88.6883C167.788 90.117 168.069 91.5692 168.397 92.9745C168.561 93.724 168.749 94.4501 168.936 95.1996C169.053 95.6212 169.123 96.0428 169.241 96.4644C174.441 115.061 169.405 135.017 155.748 148.672L148.651 155.769C134.994 169.424 115.037 174.436 96.4379 169.237C95.9928 169.12 95.5243 169.026 95.0793 168.909C94.0486 168.651 93.0179 168.393 91.9873 168.159C91.2611 167.995 90.5115 167.855 89.7854 167.738C88.9421 167.574 88.1222 167.457 87.279 167.316C86.5762 167.199 85.8501 167.105 85.1474 167.012C83.7653 166.848 82.3599 166.707 80.9778 166.613C80.3454 166.567 79.7364 166.567 79.1039 166.543C78.1435 166.496 77.1831 166.473 76.2227 166.473C75.5434 166.473 74.8875 166.473 74.2082 166.473C73.0838 166.496 71.9829 166.543 70.8585 166.637C70.2495 166.684 69.6171 166.73 69.008 166.777C67.7197 166.894 66.4314 167.035 65.1664 167.222C64.5808 167.316 63.9952 167.41 63.4096 167.503C62.3321 167.691 61.278 167.878 60.2239 168.112C59.7086 168.229 59.2167 168.323 58.7013 168.44C57.2256 168.792 55.7733 169.166 54.321 169.588C53.8525 169.729 53.4074 169.869 52.9624 170.033C51.8614 170.384 50.7371 170.759 49.6596 171.157C49.1676 171.345 48.6757 171.509 48.2072 171.696C46.7549 172.258 45.3026 172.867 43.8738 173.546C43.6864 173.64 43.499 173.734 43.3116 173.827C42.0232 174.436 40.7583 175.092 39.4934 175.795C39.0718 176.029 38.6267 176.263 38.2051 176.521C37.0339 177.2 35.8861 177.879 34.7617 178.629C34.504 178.793 34.2229 178.957 33.9653 179.144C32.6067 180.058 31.2715 181.018 29.9363 182.025C29.5849 182.283 29.257 182.564 28.9291 182.821C27.8984 183.641 26.8677 184.508 25.8605 185.398C25.5325 185.679 25.2046 185.983 24.8767 186.264C23.6117 187.412 22.3937 188.583 21.199 189.825C21.0116 190.012 20.8243 190.246 20.6369 190.434C19.9341 191.16 19.2548 191.909 18.5755 192.682C18.2242 193.08 17.8962 193.502 17.5683 193.9C17.4277 194.064 17.2872 194.205 17.1466 194.368C16.9827 194.556 16.8421 194.743 16.7016 194.931C16.4439 195.259 16.1628 195.586 15.9051 195.938C15.4132 196.547 14.9448 197.179 14.4997 197.812C14.3591 197.999 14.2186 198.21 14.0781 198.397C13.5159 199.17 12.9771 199.943 12.4618 200.739C12.4149 200.81 12.3681 200.88 12.3447 200.927C6.20749 210.295 2.36591 220.789 0.843327 231.539C0.702782 232.57 0.562236 233.6 0.468539 234.631C0.468539 234.795 0.445114 234.935 0.42169 235.099C0.327993 235.989 0.25772 236.856 0.210871 237.746C0.210871 238.074 0.187447 238.402 0.164023 238.73C0.140599 239.432 0.09375 240.159 0.09375 240.861C0.09375 241.376 0.09375 241.868 0.09375 242.384C0.09375 242.922 0.09375 243.438 0.09375 243.976C0.09375 244.656 0.140599 245.358 0.164023 246.037C0.164023 246.389 0.187447 246.74 0.210871 247.091C0.25772 247.958 0.327993 248.801 0.42169 249.668C0.42169 249.855 0.445114 250.019 0.468539 250.207C0.562236 251.214 0.702782 252.244 0.843327 253.251C0.843327 253.275 0.843327 253.298 0.843327 253.322C2.36591 264.072 6.18407 274.542 12.2978 283.911C12.3447 283.981 12.3915 284.075 12.4384 284.145C12.9537 284.918 13.4924 285.691 14.0312 286.464C14.1718 286.675 14.3123 286.885 14.4763 287.073C14.9213 287.705 15.3898 288.314 15.8817 288.923C16.1394 289.251 16.3971 289.602 16.6782 289.93C16.8187 290.118 16.9592 290.305 17.0998 290.492C17.2403 290.656 17.3809 290.797 17.498 290.961C17.8494 291.383 18.1773 291.804 18.5287 292.202C19.1845 292.952 19.8639 293.678 20.5666 294.427C20.754 294.638 20.9414 294.849 21.1522 295.06C22.3468 296.301 23.5649 297.496 24.8298 298.643C25.1577 298.924 25.4857 299.205 25.8136 299.51C26.8209 300.4 27.8515 301.267 28.9056 302.086C29.2336 302.344 29.5615 302.625 29.9129 302.883C31.2246 303.89 32.5832 304.874 33.9419 305.787C34.1761 305.951 34.4338 306.092 34.6914 306.255C35.8626 307.005 37.0339 307.731 38.2285 308.41C38.6267 308.645 39.0483 308.879 39.4466 309.09C40.7583 309.816 42.0701 310.495 43.4053 311.127C43.5458 311.198 43.6864 311.268 43.8269 311.338C45.2792 312.017 46.7784 312.65 48.2541 313.235C48.6757 313.399 49.1208 313.563 49.5424 313.727C50.7371 314.172 51.9083 314.57 53.1264 314.945C53.5011 315.062 53.8759 315.203 54.2741 315.296C55.7733 315.741 57.2959 316.14 58.8419 316.491C59.2401 316.585 59.6149 316.655 60.0131 316.749C61.2312 317.006 62.4258 317.24 63.6439 317.428C64.1123 317.498 64.6043 317.592 65.0727 317.662C66.6187 317.896 68.1647 318.084 69.7342 318.201C69.9216 318.201 70.109 318.201 70.2964 318.224C71.7018 318.318 73.1073 318.388 74.5127 318.411C75.0281 318.411 75.52 318.411 76.0353 318.411C77.2768 318.411 78.5183 318.388 79.7598 318.318C80.1346 318.318 80.5093 318.318 80.8841 318.271C82.4301 318.177 83.9527 318.013 85.4987 317.826C85.9672 317.779 86.4357 317.685 86.9042 317.639C88.0754 317.475 89.2232 317.287 90.3944 317.053C90.8629 316.959 91.3548 316.866 91.8233 316.772C93.3459 316.444 94.845 316.093 96.3442 315.695C96.4144 315.695 96.4847 315.671 96.555 315.648C115.154 310.448 135.111 315.484 148.768 329.139L155.865 336.236C169.522 349.891 174.534 369.846 169.334 388.443C169.147 389.076 169.03 389.732 168.866 390.364C168.842 390.481 168.819 390.598 168.772 390.715C164.931 406.314 166.102 422.85 172.262 437.84C172.52 438.473 172.778 439.082 173.059 439.691C173.363 440.37 173.644 441.049 173.972 441.705C174.558 442.946 175.19 444.164 175.846 445.359C176.08 445.804 176.338 446.249 176.596 446.671C177.369 448.006 178.165 449.341 179.032 450.652C179.102 450.769 179.196 450.887 179.29 451.027C180.18 452.362 181.14 453.674 182.124 454.985C182.264 455.149 182.382 455.337 182.522 455.501C183.342 456.578 184.209 457.632 185.099 458.663C185.286 458.897 185.497 459.084 185.684 459.318C185.989 459.646 186.293 459.974 186.598 460.302C187.535 461.309 188.472 462.293 189.456 463.253C189.76 463.558 190.041 463.839 190.369 464.143C191.611 465.314 192.876 466.439 194.164 467.516C194.258 467.61 194.351 467.704 194.469 467.774C198.357 470.983 202.526 473.723 206.86 476.018C206.954 476.065 207.071 476.135 207.165 476.182C208.148 476.698 209.132 477.189 210.139 477.658C210.327 477.752 210.538 477.845 210.725 477.939C211.615 478.337 212.505 478.735 213.419 479.11C213.7 479.227 213.981 479.344 214.262 479.461C215.035 479.766 215.831 480.07 216.628 480.351C234.641 486.886 254.622 486.371 272.354 478.852C272.378 478.852 272.425 478.829 272.448 478.806C273.315 478.431 274.158 478.056 275.025 477.658C275.306 477.517 275.61 477.377 275.891 477.236C276.594 476.908 277.273 476.557 277.953 476.182C278.421 475.925 278.89 475.667 279.358 475.409C279.897 475.105 280.436 474.824 280.951 474.519C281.677 474.098 282.403 473.653 283.129 473.184C283.411 472.997 283.715 472.833 283.996 472.646C285.05 471.966 286.104 471.24 287.135 470.491C287.135 470.491 287.135 470.491 287.158 470.467C288.166 469.741 289.126 468.992 290.11 468.219C290.368 468.008 290.602 467.797 290.859 467.586C291.351 467.188 291.843 466.79 292.335 466.368C292.523 466.205 292.687 466.041 292.874 465.877C293.389 465.432 293.881 464.963 294.373 464.495C294.865 464.026 295.38 463.558 295.849 463.089C296.013 462.925 296.177 462.785 296.341 462.621C296.575 462.387 296.762 462.152 296.973 461.942C297.793 461.099 298.59 460.255 299.363 459.389C299.69 459.014 300.018 458.639 300.346 458.264C301.236 457.234 302.103 456.156 302.923 455.079C303.064 454.915 303.204 454.728 303.345 454.564C304.282 453.322 305.172 452.034 306.038 450.746C306.296 450.371 306.53 449.996 306.765 449.598C307.374 448.638 307.959 447.701 308.521 446.717C308.779 446.272 309.037 445.827 309.271 445.382C309.833 444.352 310.372 443.321 310.887 442.267C311.051 441.916 311.239 441.588 311.403 441.237C312.035 439.878 312.644 438.496 313.183 437.114C313.347 436.716 313.487 436.318 313.628 435.92C314.026 434.889 314.401 433.859 314.729 432.828C314.893 432.313 315.057 431.798 315.221 431.259C315.525 430.275 315.806 429.291 316.064 428.284C316.181 427.792 316.322 427.324 316.439 426.832C316.79 425.427 317.095 424.021 317.352 422.593C317.423 422.171 317.493 421.75 317.563 421.328C317.727 420.274 317.891 419.243 318.032 418.189C318.102 417.58 318.172 416.995 318.219 416.386C318.313 415.472 318.383 414.582 318.43 413.669C318.477 413.06 318.5 412.451 318.547 411.842C318.594 410.741 318.594 409.64 318.594 408.539C318.594 407.767 318.594 406.994 318.547 406.244C318.524 405.26 318.477 404.277 318.406 403.293C318.36 402.59 318.289 401.911 318.219 401.208C318.149 400.435 318.055 399.663 317.961 398.89C317.868 398.164 317.774 397.437 317.657 396.711C317.54 395.962 317.399 395.212 317.235 394.439C317.001 393.221 316.743 392.004 316.439 390.809C316.251 390.06 316.087 389.31 315.877 388.561C315.806 388.326 315.76 388.069 315.689 387.834C310.442 369.448 315.806 349.68 329.322 336.165L336.467 329.022C349.982 315.507 369.776 310.144 388.164 315.39C388.609 315.507 389.054 315.601 389.476 315.718C390.179 315.905 390.881 316.093 391.584 316.257C394.418 316.936 397.3 317.428 400.204 317.779C400.321 317.779 400.462 317.803 400.579 317.826C410.277 318.927 420.115 318.154 429.578 315.531C429.625 315.531 429.695 315.507 429.742 315.484C431.616 314.968 433.467 314.36 435.294 313.68C435.528 313.587 435.786 313.516 436.02 313.423C436.816 313.118 437.589 312.814 438.386 312.486C439.042 312.205 439.697 311.924 440.33 311.643C441.08 311.315 441.806 310.987 442.532 310.612C443.586 310.097 444.617 309.558 445.647 308.996C446.069 308.762 446.491 308.527 446.889 308.293C448.154 307.567 449.395 306.841 450.613 306.045C450.613 306.045 450.637 306.045 450.66 306.021C451.972 305.155 453.26 304.241 454.525 303.304C454.759 303.14 454.994 302.953 455.228 302.766C456.469 301.829 457.687 300.845 458.859 299.814C458.882 299.791 458.905 299.768 458.952 299.744C459.023 299.697 459.069 299.627 459.14 299.58C460.287 298.573 461.412 297.519 462.489 296.465C462.63 296.348 462.747 296.231 462.888 296.09C463.215 295.762 463.52 295.411 463.848 295.083L463.707 295.341ZM322.295 315.32L315.197 322.417C301.541 336.072 281.583 341.084 262.985 335.884C262.493 335.744 262.001 335.65 261.509 335.533C260.97 335.393 260.408 335.275 259.869 335.135C258.768 334.877 257.644 334.62 256.52 334.409C255.934 334.292 255.348 334.221 254.786 334.128C253.685 333.94 252.584 333.776 251.483 333.636C250.874 333.566 250.265 333.519 249.656 333.472C248.579 333.378 247.478 333.261 246.4 333.214C245.744 333.191 245.088 333.191 244.433 333.167C243.378 333.144 242.324 333.097 241.27 333.121C240.497 333.121 239.701 333.191 238.928 333.238C237.967 333.284 237.007 333.308 236.047 333.378C234.384 333.519 232.744 333.706 231.104 333.964C230.612 334.034 230.12 334.151 229.628 334.245C228.387 334.456 227.169 334.666 225.927 334.947C225.412 335.065 224.92 335.205 224.405 335.322C223.421 335.556 222.414 335.791 221.453 336.072C203.065 341.318 183.295 335.955 169.779 322.44L162.635 315.296C149.119 301.782 143.755 281.99 149.002 263.604C149.119 263.206 149.189 262.808 149.307 262.433C149.541 261.543 149.775 260.653 149.986 259.763C150.15 259.06 150.314 258.334 150.454 257.608C150.642 256.671 150.806 255.758 150.97 254.821C151.087 254.118 151.18 253.439 151.274 252.736C151.415 251.776 151.508 250.816 151.602 249.832C151.672 249.153 151.719 248.497 151.766 247.818C151.836 246.81 151.883 245.827 151.907 244.82C151.907 244.164 151.93 243.531 151.93 242.876C151.93 241.845 151.93 240.814 151.883 239.807C151.883 239.198 151.836 238.589 151.789 237.957C151.719 236.903 151.649 235.849 151.532 234.795C151.462 234.209 151.415 233.624 151.321 233.062C151.18 231.984 151.04 230.907 150.853 229.829C150.759 229.291 150.665 228.752 150.548 228.19C150.337 227.089 150.103 225.988 149.845 224.887C149.728 224.372 149.588 223.88 149.47 223.365C149.307 222.756 149.189 222.17 149.025 221.561C143.778 203.175 149.143 183.407 162.658 169.892L169.803 162.749C183.319 149.234 203.112 143.871 221.5 149.117C222.273 149.328 223.046 149.515 223.819 149.703C224.545 149.89 225.295 150.101 226.021 150.265C227.028 150.499 228.059 150.663 229.066 150.85C229.746 150.967 230.448 151.131 231.128 151.225C232.65 151.459 234.196 151.623 235.742 151.764C236.515 151.834 237.265 151.857 238.038 151.904C239.139 151.975 240.24 152.045 241.341 152.068C242.114 152.068 242.887 152.045 243.66 152.021C244.62 152.021 245.557 152.021 246.517 151.951C247.337 151.904 248.134 151.834 248.953 151.764C249.867 151.694 250.781 151.623 251.694 151.506C252.514 151.412 253.334 151.272 254.154 151.155C255.044 151.014 255.934 150.874 256.824 150.71C257.644 150.546 258.464 150.358 259.26 150.195C260.15 150.007 261.017 149.796 261.907 149.562C262.258 149.468 262.61 149.398 262.985 149.304C281.583 144.105 301.541 149.141 315.197 162.796L322.295 169.892C335.951 183.547 340.964 203.503 335.764 222.1C335.506 223.014 335.319 223.951 335.085 224.887C334.991 225.309 334.874 225.731 334.78 226.152C334.499 227.464 334.241 228.775 334.031 230.11C333.96 230.579 333.867 231.024 333.796 231.492C333.609 232.781 333.468 234.092 333.351 235.38C333.304 235.872 333.258 236.364 333.211 236.879C333.117 238.144 333.07 239.409 333.047 240.674C333.047 241.213 333 241.751 333 242.29C333 243.508 333.047 244.726 333.094 245.944C333.117 246.529 333.14 247.115 333.164 247.7C333.234 248.872 333.375 250.043 333.492 251.214C333.562 251.846 333.632 252.479 333.703 253.111C333.867 254.235 334.054 255.336 334.265 256.437C334.382 257.116 334.499 257.795 334.64 258.475C334.874 259.529 335.131 260.559 335.389 261.613C335.53 262.128 335.623 262.62 335.764 263.136C340.964 281.733 335.928 301.688 322.272 315.343L322.295 315.32Z" fill="#D2D2D7"/>
<path d="M242 144C279.555 144 310 113.555 310 76C310 38.4446 279.555 8 242 8C204.445 8 174 38.4446 174 76C174 113.555 204.445 144 242 144Z" id="connections" fill="#D2D2D7" style="cursor: pointer; transition: fill 0.3s ease"/>
<path d="M253.769 61.6667H247.026C245.539 61.6667 244.333 60.461 244.333 58.9738V52.2313C244.333 50.999 243.291 50 242 50C240.709 50 239.667 50.999 239.667 52.2313V58.9738C239.667 60.461 238.461 61.6667 236.974 61.6667H230.231C228.999 61.6667 228 62.7094 228 64C228 65.2906 228.999 66.3333 230.231 66.3333H236.974C238.461 66.3333 239.667 67.539 239.667 69.0262V75.7687C239.667 77.001 240.709 78 242 78C243.291 78 244.333 77.001 244.333 75.7687V69.0262C244.333 67.539 245.539 66.3333 247.026 66.3333H253.769C255.001 66.3333 256 65.2906 256 64C256 62.7094 255.001 61.6667 253.769 61.6667Z" fill="white" style="pointer-events: none"/>
<path d="M253.769 61.6667H247.026C245.539 61.6667 244.333 60.461 244.333 58.9738V52.2313C244.333 50.999 243.291 50 242 50C240.709 50 239.667 50.999 239.667 52.2313V58.9738C239.667 60.461 238.461 61.6667 236.974 61.6667H230.231C228.999 61.6667 228 62.7094 228 64C228 65.2906 228.999 66.3333 230.231 66.3333H236.974C238.461 66.3333 239.667 67.539 239.667 69.0262V75.7687C239.667 77.001 240.709 78 242 78C243.291 78 244.333 77.001 244.333 75.7687V69.0262C244.333 67.539 245.539 66.3333 247.026 66.3333H253.769C255.001 66.3333 256 65.2906 256 64C256 62.7094 255.001 61.6667 253.769 61.6667Z" stroke="white" style="pointer-events: none"/>
<path d="M195.306 104.098C192.534 104.098 190.238 102.334 190.238 99.058C190.238 96.216 192.058 93.934 195.278 93.934C196.706 93.934 198.176 94.55 199.24 95.852L197.784 97.07C197.14 96.286 196.3 95.81 195.278 95.81C193.584 95.81 192.296 97.07 192.296 99.058C192.296 100.906 193.528 102.236 195.306 102.236C196.342 102.236 197.21 101.718 197.812 100.976L199.254 102.222C198.4 103.286 197.056 104.098 195.306 104.098ZM205.549 104.126C202.539 104.126 200.481 101.984 200.481 99.03C200.481 96.076 202.539 93.934 205.549 93.934C208.461 93.934 210.603 95.992 210.603 99.03C210.603 102.054 208.461 104.126 205.549 104.126ZM205.549 102.278C207.257 102.278 208.545 100.906 208.545 99.03C208.545 97.154 207.257 95.782 205.549 95.782C203.757 95.782 202.525 97.224 202.525 99.03C202.525 100.836 203.757 102.278 205.549 102.278ZM212.498 104V94.06H214.43L218.896 100.766H218.924V94.06H220.87V104H218.896L214.486 97.434H214.458V104H212.498ZM223.179 104V94.06H225.111L229.577 100.766H229.605V94.06H231.551V104H229.577L225.167 97.434H225.139V104H223.179ZM233.86 104V94.06H240.216V95.81H235.806V98.204H239.334V99.926H235.806V102.25H240.51V104H233.86ZM246.701 104.098C243.929 104.098 241.633 102.334 241.633 99.058C241.633 96.216 243.453 93.934 246.673 93.934C248.101 93.934 249.571 94.55 250.635 95.852L249.179 97.07C248.535 96.286 247.695 95.81 246.673 95.81C244.979 95.81 243.691 97.07 243.691 99.058C243.691 100.906 244.923 102.236 246.701 102.236C247.737 102.236 248.605 101.718 249.207 100.976L250.649 102.222C249.795 103.286 248.451 104.098 246.701 104.098ZM254.312 104V95.81H251.596V94.06H259.058V95.81H256.3V104H254.312ZM260.709 104V94.06H262.711V104H260.709ZM269.734 104.126C266.724 104.126 264.666 101.984 264.666 99.03C264.666 96.076 266.724 93.934 269.734 93.934C272.646 93.934 274.788 95.992 274.788 99.03C274.788 102.054 272.646 104.126 269.734 104.126ZM269.734 102.278C271.442 102.278 272.73 100.906 272.73 99.03C272.73 97.154 271.442 95.782 269.734 95.782C267.942 95.782 266.71 97.224 266.71 99.03C266.71 100.836 267.942 102.278 269.734 102.278ZM276.683 104V94.06H278.615L283.081 100.766H283.109V94.06H285.055V104H283.081L278.671 97.434H278.643V104H276.683ZM290.36 104.126C289.086 104.126 287.784 103.622 286.734 102.544L287.924 101.088C288.666 101.928 289.618 102.334 290.402 102.334C291.354 102.334 291.816 101.9 291.816 101.284C291.816 100.556 291.298 100.29 290.094 99.87C288.582 99.352 287.084 98.666 287.084 96.776C287.084 95.18 288.498 93.948 290.276 93.934C291.508 93.934 292.642 94.382 293.636 95.194L292.488 96.678C291.662 96.006 290.934 95.698 290.318 95.698C289.632 95.698 289.128 96.062 289.114 96.692C289.114 97.308 289.646 97.56 290.794 98.008C292.516 98.68 293.888 99.128 293.888 101.046C293.888 103.23 291.97 104.126 290.36 104.126Z" fill="white" style="pointer-events: none"/>
<path d="M409 319C450.974 319 485 284.974 485 243C485 201.026 450.974 167 409 167C367.026 167 333 201.026 333 243C333 284.974 367.026 319 409 319Z" fill="#D2D2D7"/>
<path d="M420.769 228.667H414.026C412.539 228.667 411.333 227.461 411.333 225.974V219.231C411.333 217.999 410.291 217 409 217C407.709 217 406.667 217.999 406.667 219.231V225.974C406.667 227.461 405.461 228.667 403.974 228.667H397.231C395.999 228.667 395 229.709 395 231C395 232.291 395.999 233.333 397.231 233.333H403.974C405.461 233.333 406.667 234.539 406.667 236.026V242.769C406.667 244.001 407.709 245 409 245C410.291 245 411.333 244.001 411.333 242.769V236.026C411.333 234.539 412.539 233.333 414.026 233.333H420.769C422.001 233.333 423 232.291 423 231C423 229.709 422.001 228.667 420.769 228.667Z" fill="white"/>
<path d="M420.769 228.667H414.026C412.539 228.667 411.333 227.461 411.333 225.974V219.231C411.333 217.999 410.291 217 409 217C407.709 217 406.667 217.999 406.667 219.231V225.974C406.667 227.461 405.461 228.667 403.974 228.667H397.231C395.999 228.667 395 229.709 395 231C395 232.291 395.999 233.333 397.231 233.333H403.974C405.461 233.333 406.667 234.539 406.667 236.026V242.769C406.667 244.001 407.709 245 409 245C410.291 245 411.333 244.001 411.333 242.769V236.026C411.333 234.539 412.539 233.333 414.026 233.333H420.769C422.001 233.333 423 232.291 423 231C423 229.709 422.001 228.667 420.769 228.667Z" stroke="white"/>
<mask id="path-10-outside-1_3325_17638" maskUnits="userSpaceOnUse" x="373" y="259" width="72" height="14" fill="black">
<rect fill="white" x="373" y="259" width="72" height="14"/>
<path d="M377.431 271V262.81H374.715V261.06H382.177V262.81H379.419V271H377.431ZM383.772 271V261.06H387.538C389.932 261.06 390.996 262.46 390.996 264.364C390.996 265.876 390.296 266.912 388.924 267.36L391.416 271H389.078L386.852 267.598H385.718V271H383.772ZM385.718 265.862H387.146C388.35 265.862 388.966 265.246 388.966 264.336C388.966 263.412 388.364 262.81 387.23 262.81H385.718V265.862ZM393.142 271V261.06H395.144V271H393.142ZM402.167 271.098C399.297 271.098 397.099 269.236 397.099 266.044C397.099 263.132 398.975 260.934 402.083 260.934C403.497 260.934 405.009 261.494 406.031 262.628L404.645 263.832C404.029 263.216 403.175 262.796 402.083 262.796C400.445 262.796 399.157 264.014 399.157 266.044C399.157 267.878 400.305 269.306 402.167 269.306C402.881 269.306 403.539 269.124 404.169 268.732V267.276H401.943V265.582H406.087V269.866C405.177 270.594 403.693 271.098 402.167 271.098ZM412.807 271.098C409.937 271.098 407.739 269.236 407.739 266.044C407.739 263.132 409.615 260.934 412.723 260.934C414.137 260.934 415.649 261.494 416.671 262.628L415.285 263.832C414.669 263.216 413.815 262.796 412.723 262.796C411.085 262.796 409.797 264.014 409.797 266.044C409.797 267.878 410.945 269.306 412.807 269.306C413.521 269.306 414.179 269.124 414.809 268.732V267.276H412.583V265.582H416.727V269.866C415.817 270.594 414.333 271.098 412.807 271.098ZM418.785 271V261.06H425.141V262.81H420.731V265.204H424.259V266.926H420.731V269.25H425.435V271H418.785ZM427.292 271V261.06H431.058C433.452 261.06 434.516 262.46 434.516 264.364C434.516 265.876 433.816 266.912 432.444 267.36L434.936 271H432.598L430.372 267.598H429.238V271H427.292ZM429.238 265.862H430.666C431.87 265.862 432.486 265.246 432.486 264.336C432.486 263.412 431.884 262.81 430.75 262.81H429.238V265.862ZM439.602 271.126C438.328 271.126 437.026 270.622 435.976 269.544L437.166 268.088C437.908 268.928 438.86 269.334 439.644 269.334C440.596 269.334 441.058 268.9 441.058 268.284C441.058 267.556 440.54 267.29 439.336 266.87C437.824 266.352 436.326 265.666 436.326 263.776C436.326 262.18 437.74 260.948 439.518 260.934C440.75 260.934 441.884 261.382 442.878 262.194L441.73 263.678C440.904 263.006 440.176 262.698 439.56 262.698C438.874 262.698 438.37 263.062 438.356 263.692C438.356 264.308 438.888 264.56 440.036 265.008C441.758 265.68 443.13 266.128 443.13 268.046C443.13 270.23 441.212 271.126 439.602 271.126Z"/>
</mask>
<path d="M377.431 271V262.81H374.715V261.06H382.177V262.81H379.419V271H377.431ZM383.772 271V261.06H387.538C389.932 261.06 390.996 262.46 390.996 264.364C390.996 265.876 390.296 266.912 388.924 267.36L391.416 271H389.078L386.852 267.598H385.718V271H383.772ZM385.718 265.862H387.146C388.35 265.862 388.966 265.246 388.966 264.336C388.966 263.412 388.364 262.81 387.23 262.81H385.718V265.862ZM393.142 271V261.06H395.144V271H393.142ZM402.167 271.098C399.297 271.098 397.099 269.236 397.099 266.044C397.099 263.132 398.975 260.934 402.083 260.934C403.497 260.934 405.009 261.494 406.031 262.628L404.645 263.832C404.029 263.216 403.175 262.796 402.083 262.796C400.445 262.796 399.157 264.014 399.157 266.044C399.157 267.878 400.305 269.306 402.167 269.306C402.881 269.306 403.539 269.124 404.169 268.732V267.276H401.943V265.582H406.087V269.866C405.177 270.594 403.693 271.098 402.167 271.098ZM412.807 271.098C409.937 271.098 407.739 269.236 407.739 266.044C407.739 263.132 409.615 260.934 412.723 260.934C414.137 260.934 415.649 261.494 416.671 262.628L415.285 263.832C414.669 263.216 413.815 262.796 412.723 262.796C411.085 262.796 409.797 264.014 409.797 266.044C409.797 267.878 410.945 269.306 412.807 269.306C413.521 269.306 414.179 269.124 414.809 268.732V267.276H412.583V265.582H416.727V269.866C415.817 270.594 414.333 271.098 412.807 271.098ZM418.785 271V261.06H425.141V262.81H420.731V265.204H424.259V266.926H420.731V269.25H425.435V271H418.785ZM427.292 271V261.06H431.058C433.452 261.06 434.516 262.46 434.516 264.364C434.516 265.876 433.816 266.912 432.444 267.36L434.936 271H432.598L430.372 267.598H429.238V271H427.292ZM429.238 265.862H430.666C431.87 265.862 432.486 265.246 432.486 264.336C432.486 263.412 431.884 262.81 430.75 262.81H429.238V265.862ZM439.602 271.126C438.328 271.126 437.026 270.622 435.976 269.544L437.166 268.088C437.908 268.928 438.86 269.334 439.644 269.334C440.596 269.334 441.058 268.9 441.058 268.284C441.058 267.556 440.54 267.29 439.336 266.87C437.824 266.352 436.326 265.666 436.326 263.776C436.326 262.18 437.74 260.948 439.518 260.934C440.75 260.934 441.884 261.382 442.878 262.194L441.73 263.678C440.904 263.006 440.176 262.698 439.56 262.698C438.874 262.698 438.37 263.062 438.356 263.692C438.356 264.308 438.888 264.56 440.036 265.008C441.758 265.68 443.13 266.128 443.13 268.046C443.13 270.23 441.212 271.126 439.602 271.126Z" fill="white"/>
<path d="M377.431 271H376.431V272H377.431V271ZM377.431 262.81H378.431V261.81H377.431V262.81ZM374.715 262.81H373.715V263.81H374.715V262.81ZM374.715 261.06V260.06H373.715V261.06H374.715ZM382.177 261.06H383.177V260.06H382.177V261.06ZM382.177 262.81V263.81H383.177V262.81H382.177ZM379.419 262.81V261.81H378.419V262.81H379.419ZM379.419 271V272H380.419V271H379.419ZM378.431 271V262.81H376.431V271H378.431ZM377.431 261.81H374.715V263.81H377.431V261.81ZM375.715 262.81V261.06H373.715V262.81H375.715ZM374.715 262.06H382.177V260.06H374.715V262.06ZM381.177 261.06V262.81H383.177V261.06H381.177ZM382.177 261.81H379.419V263.81H382.177V261.81ZM378.419 262.81V271H380.419V262.81H378.419ZM379.419 270H377.431V272H379.419V270ZM383.772 271H382.772V272H383.772V271ZM383.772 261.06V260.06H382.772V261.06H383.772ZM388.924 267.36L388.614 266.409L387.345 266.824L388.099 267.925L388.924 267.36ZM391.416 271V272H393.312L392.241 270.435L391.416 271ZM389.078 271L388.241 271.548L388.537 272H389.078V271ZM386.852 267.598L387.689 267.05L387.393 266.598H386.852V267.598ZM385.718 267.598V266.598H384.718V267.598H385.718ZM385.718 271V272H386.718V271H385.718ZM385.718 265.862H384.718V266.862H385.718V265.862ZM385.718 262.81V261.81H384.718V262.81H385.718ZM384.772 271V261.06H382.772V271H384.772ZM383.772 262.06H387.538V260.06H383.772V262.06ZM387.538 262.06C388.538 262.06 389.114 262.347 389.444 262.691C389.782 263.043 389.996 263.591 389.996 264.364H391.996C391.996 263.233 391.678 262.129 390.886 261.305C390.085 260.472 388.932 260.06 387.538 260.06V262.06ZM389.996 264.364C389.996 264.966 389.858 265.393 389.65 265.694C389.447 265.99 389.124 266.243 388.614 266.409L389.234 268.311C390.096 268.029 390.809 267.54 391.298 266.828C391.784 266.121 391.996 265.274 391.996 264.364H389.996ZM388.099 267.925L390.591 271.565L392.241 270.435L389.749 266.795L388.099 267.925ZM391.416 270H389.078V272H391.416V270ZM389.915 270.452L387.689 267.05L386.015 268.146L388.241 271.548L389.915 270.452ZM386.852 266.598H385.718V268.598H386.852V266.598ZM384.718 267.598V271H386.718V267.598H384.718ZM385.718 270H383.772V272H385.718V270ZM385.718 266.862H387.146V264.862H385.718V266.862ZM387.146 266.862C387.909 266.862 388.627 266.666 389.168 266.191C389.724 265.702 389.966 265.027 389.966 264.336H387.966C387.966 264.555 387.9 264.643 387.847 264.689C387.778 264.75 387.587 264.862 387.146 264.862V266.862ZM389.966 264.336C389.966 263.649 389.735 262.978 389.196 262.487C388.669 262.007 387.967 261.81 387.23 261.81V263.81C387.627 263.81 387.793 263.914 387.85 263.966C387.895 264.007 387.966 264.099 387.966 264.336H389.966ZM387.23 261.81H385.718V263.81H387.23V261.81ZM384.718 262.81V265.862H386.718V262.81H384.718ZM393.142 271H392.142V272H393.142V271ZM393.142 261.06V260.06H392.142V261.06H393.142ZM395.144 261.06H396.144V260.06H395.144V261.06ZM395.144 271V272H396.144V271H395.144ZM394.142 271V261.06H392.142V271H394.142ZM393.142 262.06H395.144V260.06H393.142V262.06ZM394.144 261.06V271H396.144V261.06H394.144ZM395.144 270H393.142V272H395.144V270ZM406.031 262.628L406.687 263.383L407.456 262.715L406.774 261.959L406.031 262.628ZM404.645 263.832L403.938 264.539L404.597 265.198L405.301 264.587L404.645 263.832ZM404.169 268.732L404.697 269.581L405.169 269.288V268.732H404.169ZM404.169 267.276H405.169V266.276H404.169V267.276ZM401.943 267.276H400.943V268.276H401.943V267.276ZM401.943 265.582V264.582H400.943V265.582H401.943ZM406.087 265.582H407.087V264.582H406.087V265.582ZM406.087 269.866L406.712 270.647L407.087 270.347V269.866H406.087ZM402.167 270.098C400.948 270.098 399.941 269.705 399.246 269.044C398.559 268.39 398.099 267.4 398.099 266.044H396.099C396.099 267.88 396.738 269.417 397.867 270.492C398.989 271.56 400.516 272.098 402.167 272.098V270.098ZM398.099 266.044C398.099 264.802 398.497 263.782 399.155 263.081C399.805 262.389 400.777 261.934 402.083 261.934V259.934C400.281 259.934 398.762 260.578 397.696 261.713C396.639 262.839 396.099 264.374 396.099 266.044H398.099ZM402.083 261.934C403.255 261.934 404.482 262.402 405.288 263.297L406.774 261.959C405.537 260.586 403.74 259.934 402.083 259.934V261.934ZM405.375 261.873L403.989 263.077L405.301 264.587L406.687 263.383L405.375 261.873ZM405.352 263.125C404.559 262.332 403.455 261.796 402.083 261.796V263.796C402.895 263.796 403.499 264.1 403.938 264.539L405.352 263.125ZM402.083 261.796C401.008 261.796 400.007 262.2 399.278 262.972C398.551 263.744 398.157 264.814 398.157 266.044H400.157C400.157 265.244 400.407 264.69 400.733 264.345C401.058 264.001 401.52 263.796 402.083 263.796V261.796ZM398.157 266.044C398.157 267.166 398.509 268.229 399.216 269.026C399.933 269.835 400.962 270.306 402.167 270.306V268.306C401.51 268.306 401.034 268.063 400.712 267.699C400.379 267.324 400.157 266.756 400.157 266.044H398.157ZM402.167 270.306C403.066 270.306 403.907 270.073 404.697 269.581L403.641 267.883C403.171 268.175 402.696 268.306 402.167 268.306V270.306ZM405.169 268.732V267.276H403.169V268.732H405.169ZM404.169 266.276H401.943V268.276H404.169V266.276ZM402.943 267.276V265.582H400.943V267.276H402.943ZM401.943 266.582H406.087V264.582H401.943V266.582ZM405.087 265.582V269.866H407.087V265.582H405.087ZM405.462 269.085C404.758 269.649 403.505 270.098 402.167 270.098V272.098C403.881 272.098 405.596 271.539 406.712 270.647L405.462 269.085ZM416.671 262.628L417.327 263.383L418.096 262.715L417.414 261.959L416.671 262.628ZM415.285 263.832L414.578 264.539L415.237 265.198L415.941 264.587L415.285 263.832ZM414.809 268.732L415.337 269.581L415.809 269.288V268.732H414.809ZM414.809 267.276H415.809V266.276H414.809V267.276ZM412.583 267.276H411.583V268.276H412.583V267.276ZM412.583 265.582V264.582H411.583V265.582H412.583ZM416.727 265.582H417.727V264.582H416.727V265.582ZM416.727 269.866L417.352 270.647L417.727 270.347V269.866H416.727ZM412.807 270.098C411.588 270.098 410.581 269.705 409.886 269.044C409.199 268.39 408.739 267.4 408.739 266.044H406.739C406.739 267.88 407.378 269.417 408.507 270.492C409.629 271.56 411.156 272.098 412.807 272.098V270.098ZM408.739 266.044C408.739 264.802 409.137 263.782 409.795 263.081C410.445 262.389 411.417 261.934 412.723 261.934V259.934C410.921 259.934 409.402 260.578 408.336 261.713C407.279 262.839 406.739 264.374 406.739 266.044H408.739ZM412.723 261.934C413.895 261.934 415.122 262.402 415.928 263.297L417.414 261.959C416.177 260.586 414.38 259.934 412.723 259.934V261.934ZM416.015 261.873L414.629 263.077L415.941 264.587L417.327 263.383L416.015 261.873ZM415.992 263.125C415.199 262.332 414.095 261.796 412.723 261.796V263.796C413.535 263.796 414.139 264.1 414.578 264.539L415.992 263.125ZM412.723 261.796C411.648 261.796 410.647 262.2 409.918 262.972C409.191 263.744 408.797 264.814 408.797 266.044H410.797C410.797 265.244 411.047 264.69 411.373 264.345C411.698 264.001 412.16 263.796 412.723 263.796V261.796ZM408.797 266.044C408.797 267.166 409.149 268.229 409.856 269.026C410.573 269.835 411.602 270.306 412.807 270.306V268.306C412.15 268.306 411.674 268.063 411.352 267.699C411.019 267.324 410.797 266.756 410.797 266.044H408.797ZM412.807 270.306C413.706 270.306 414.547 270.073 415.337 269.581L414.281 267.883C413.811 268.175 413.336 268.306 412.807 268.306V270.306ZM415.809 268.732V267.276H413.809V268.732H415.809ZM414.809 266.276H412.583V268.276H414.809V266.276ZM413.583 267.276V265.582H411.583V267.276H413.583ZM412.583 266.582H416.727V264.582H412.583V266.582ZM415.727 265.582V269.866H417.727V265.582H415.727ZM416.102 269.085C415.398 269.649 414.145 270.098 412.807 270.098V272.098C414.521 272.098 416.236 271.539 417.352 270.647L416.102 269.085ZM418.785 271H417.785V272H418.785V271ZM418.785 261.06V260.06H417.785V261.06H418.785ZM425.141 261.06H426.141V260.06H425.141V261.06ZM425.141 262.81V263.81H426.141V262.81H425.141ZM420.731 262.81V261.81H419.731V262.81H420.731ZM420.731 265.204H419.731V266.204H420.731V265.204ZM424.259 265.204H425.259V264.204H424.259V265.204ZM424.259 266.926V267.926H425.259V266.926H424.259ZM420.731 266.926V265.926H419.731V266.926H420.731ZM420.731 269.25H419.731V270.25H420.731V269.25ZM425.435 269.25H426.435V268.25H425.435V269.25ZM425.435 271V272H426.435V271H425.435ZM419.785 271V261.06H417.785V271H419.785ZM418.785 262.06H425.141V260.06H418.785V262.06ZM424.141 261.06V262.81H426.141V261.06H424.141ZM425.141 261.81H420.731V263.81H425.141V261.81ZM419.731 262.81V265.204H421.731V262.81H419.731ZM420.731 266.204H424.259V264.204H420.731V266.204ZM423.259 265.204V266.926H425.259V265.204H423.259ZM424.259 265.926H420.731V267.926H424.259V265.926ZM419.731 266.926V269.25H421.731V266.926H419.731ZM420.731 270.25H425.435V268.25H420.731V270.25ZM424.435 269.25V271H426.435V269.25H424.435ZM425.435 270H418.785V272H425.435V270ZM427.292 271H426.292V272H427.292V271ZM427.292 261.06V260.06H426.292V261.06H427.292ZM432.444 267.36L432.134 266.409L430.865 266.824L431.619 267.925L432.444 267.36ZM434.936 271V272H436.833L435.761 270.435L434.936 271ZM432.598 271L431.761 271.548L432.058 272H432.598V271ZM430.372 267.598L431.209 267.05L430.913 266.598H430.372V267.598ZM429.238 267.598V266.598H428.238V267.598H429.238ZM429.238 271V272H430.238V271H429.238ZM429.238 265.862H428.238V266.862H429.238V265.862ZM429.238 262.81V261.81H428.238V262.81H429.238ZM428.292 271V261.06H426.292V271H428.292ZM427.292 262.06H431.058V260.06H427.292V262.06ZM431.058 262.06C432.058 262.06 432.634 262.347 432.964 262.691C433.302 263.043 433.516 263.591 433.516 264.364H435.516C435.516 263.233 435.198 262.129 434.406 261.305C433.606 260.472 432.452 260.06 431.058 260.06V262.06ZM433.516 264.364C433.516 264.966 433.378 265.393 433.171 265.694C432.967 265.99 432.645 266.243 432.134 266.409L432.755 268.311C433.616 268.029 434.329 267.54 434.819 266.828C435.305 266.121 435.516 265.274 435.516 264.364H433.516ZM431.619 267.925L434.111 271.565L435.761 270.435L433.269 266.795L431.619 267.925ZM434.936 270H432.598V272H434.936V270ZM433.435 270.452L431.209 267.05L429.535 268.146L431.761 271.548L433.435 270.452ZM430.372 266.598H429.238V268.598H430.372V266.598ZM428.238 267.598V271H430.238V267.598H428.238ZM429.238 270H427.292V272H429.238V270ZM429.238 266.862H430.666V264.862H429.238V266.862ZM430.666 266.862C431.429 266.862 432.148 266.666 432.688 266.191C433.244 265.702 433.486 265.027 433.486 264.336H431.486C431.486 264.555 431.42 264.643 431.367 264.689C431.299 264.75 431.107 264.862 430.666 264.862V266.862ZM433.486 264.336C433.486 263.649 433.256 262.978 432.717 262.487C432.189 262.007 431.487 261.81 430.75 261.81V263.81C431.148 263.81 431.314 263.914 431.37 263.966C431.416 264.007 431.486 264.099 431.486 264.336H433.486ZM430.75 261.81H429.238V263.81H430.75V261.81ZM428.238 262.81V265.862H430.238V262.81H428.238ZM435.976 269.544L435.202 268.911L434.637 269.602L435.26 270.242L435.976 269.544ZM437.166 268.088L437.916 267.426L437.136 266.544L436.392 267.455L437.166 268.088ZM439.336 266.87L439.665 265.926L439.66 265.924L439.336 266.87ZM439.518 260.934V259.934L439.51 259.934L439.518 260.934ZM442.878 262.194L443.669 262.806L444.265 262.036L443.511 261.42L442.878 262.194ZM441.73 263.678L441.099 264.454L441.894 265.1L442.521 264.29L441.73 263.678ZM438.356 263.692L437.356 263.67L437.356 263.681V263.692H438.356ZM440.036 265.008L440.4 264.076L440.4 264.076L440.036 265.008ZM439.602 270.126C438.6 270.126 437.555 269.732 436.692 268.846L435.26 270.242C436.497 271.512 438.057 272.126 439.602 272.126V270.126ZM436.75 270.177L437.94 268.721L436.392 267.455L435.202 268.911L436.75 270.177ZM436.417 268.75C437.323 269.777 438.538 270.334 439.644 270.334V268.334C439.183 268.334 438.493 268.079 437.916 267.426L436.417 268.75ZM439.644 270.334C440.257 270.334 440.859 270.196 441.328 269.824C441.828 269.429 442.058 268.864 442.058 268.284H440.058C440.058 268.312 440.053 268.31 440.062 268.292C440.071 268.272 440.084 268.259 440.088 268.256C440.089 268.255 439.983 268.334 439.644 268.334V270.334ZM442.058 268.284C442.058 267.98 442.003 267.667 441.852 267.365C441.7 267.065 441.483 266.837 441.249 266.661C440.824 266.343 440.242 266.127 439.665 265.926L439.007 267.814C439.302 267.917 439.531 268.002 439.712 268.082C439.896 268.162 439.995 268.222 440.049 268.261C440.094 268.296 440.082 268.298 440.065 268.265C440.048 268.231 440.058 268.224 440.058 268.284H442.058ZM439.66 265.924C438.909 265.667 438.315 265.414 437.907 265.071C437.552 264.774 437.326 264.403 437.326 263.776H435.326C435.326 265.039 435.849 265.956 436.622 266.604C437.34 267.206 438.251 267.555 439.012 267.816L439.66 265.924ZM437.326 263.776C437.326 262.847 438.171 261.945 439.526 261.934L439.51 259.934C437.309 259.951 435.326 261.513 435.326 263.776H437.326ZM439.518 261.934C440.491 261.934 441.407 262.283 442.245 262.968L443.511 261.42C442.362 260.481 441.009 259.934 439.518 259.934V261.934ZM442.087 261.582L440.939 263.066L442.521 264.29L443.669 262.806L442.087 261.582ZM442.361 262.902C441.45 262.161 440.503 261.698 439.56 261.698V263.698C439.849 263.698 440.358 263.851 441.099 264.454L442.361 262.902ZM439.56 261.698C439.05 261.698 438.515 261.833 438.084 262.176C437.631 262.536 437.37 263.067 437.356 263.67L439.356 263.714C439.356 263.69 439.36 263.693 439.352 263.71C439.344 263.727 439.333 263.738 439.328 263.741C439.324 263.745 439.384 263.698 439.56 263.698V261.698ZM437.356 263.692C437.356 264 437.425 264.308 437.591 264.595C437.752 264.873 437.971 265.076 438.187 265.229C438.584 265.51 439.129 265.727 439.673 265.94L440.4 264.076C440.114 263.965 439.888 263.874 439.704 263.79C439.518 263.705 439.408 263.643 439.344 263.597C439.283 263.554 439.298 263.551 439.323 263.594C439.353 263.647 439.356 263.692 439.356 263.692H437.356ZM439.673 265.94C440.602 266.302 441.2 266.525 441.614 266.848C441.924 267.09 442.13 267.389 442.13 268.046H444.13C444.13 266.785 443.65 265.901 442.844 265.271C442.141 264.723 441.192 264.386 440.4 264.076L439.673 265.94ZM442.13 268.046C442.13 268.8 441.818 269.277 441.38 269.597C440.905 269.944 440.243 270.126 439.602 270.126V272.126C440.571 272.126 441.673 271.86 442.559 271.213C443.483 270.539 444.13 269.476 444.13 268.046H442.13Z" fill="#C9C9D0" mask="url(#path-10-outside-1_3325_17638)"/>
<path d="M242 485C283.974 485 318 450.974 318 409C318 367.026 283.974 333 242 333C200.026 333 166 367.026 166 409C166 450.974 200.026 485 242 485Z" fill="#D2D2D7"/>
<path d="M253.769 394.667H247.026C245.539 394.667 244.333 393.461 244.333 391.974V385.231C244.333 383.999 243.291 383 242 383C240.709 383 239.667 383.999 239.667 385.231V391.974C239.667 393.461 238.461 394.667 236.974 394.667H230.231C228.999 394.667 228 395.709 228 397C228 398.291 228.999 399.333 230.231 399.333H236.974C238.461 399.333 239.667 400.539 239.667 402.026V408.769C239.667 410.001 240.709 411 242 411C243.291 411 244.333 410.001 244.333 408.769V402.026C244.333 400.539 245.539 399.333 247.026 399.333H253.769C255.001 399.333 256 398.291 256 397C256 395.709 255.001 394.667 253.769 394.667Z" fill="white"/>
<path d="M253.769 394.667H247.026C245.539 394.667 244.333 393.461 244.333 391.974V385.231C244.333 383.999 243.291 383 242 383C240.709 383 239.667 383.999 239.667 385.231V391.974C239.667 393.461 238.461 394.667 236.974 394.667H230.231C228.999 394.667 228 395.709 228 397C228 398.291 228.999 399.333 230.231 399.333H236.974C238.461 399.333 239.667 400.539 239.667 402.026V408.769C239.667 410.001 240.709 411 242 411C243.291 411 244.333 410.001 244.333 408.769V402.026C244.333 400.539 245.539 399.333 247.026 399.333H253.769C255.001 399.333 256 398.291 256 397C256 395.709 255.001 394.667 253.769 394.667Z" stroke="white"/>
<mask id="path-15-outside-2_3325_17638" maskUnits="userSpaceOnUse" x="202" y="425" width="79" height="14" fill="black">
<rect fill="white" x="202" y="425" width="79" height="14"/>
<path d="M208.058 437L204.362 427.06H206.49L208.926 434.172H208.954L211.376 427.06H213.476L209.794 437H208.058ZM212.881 437L216.563 427.06H218.467L222.163 437H220.105L219.419 435.012H215.611L214.939 437H212.881ZM216.171 433.332H218.859L217.529 429.44H217.501L216.171 433.332ZM223.596 437V427.06H227.362C229.756 427.06 230.82 428.46 230.82 430.364C230.82 431.876 230.12 432.912 228.748 433.36L231.24 437H228.902L226.676 433.598H225.542V437H223.596ZM225.542 431.862H226.97C228.174 431.862 228.79 431.246 228.79 430.336C228.79 429.412 228.188 428.81 227.054 428.81H225.542V431.862ZM232.966 437V427.06H234.968V437H232.966ZM236.475 437L240.157 427.06H242.061L245.757 437H243.699L243.013 435.012H239.205L238.533 437H236.475ZM239.765 433.332H242.453L241.123 429.44H241.095L239.765 433.332ZM247.19 437V427.06H250.774C252.888 427.06 254.036 427.9 254.036 429.482C254.036 430.378 253.616 431.288 252.538 431.708V431.736C253.812 432.044 254.54 432.94 254.54 434.256C254.54 435.838 253.476 437 251.264 437H247.19ZM249.136 431.12H250.62C251.474 431.12 252.048 430.77 252.048 429.958C252.048 429.258 251.614 428.796 250.536 428.796H249.136V431.12ZM249.136 435.264H250.984C251.922 435.264 252.496 434.844 252.496 434.004C252.496 433.22 251.922 432.716 250.788 432.716H249.136V435.264ZM256.312 437V427.06H258.314V435.25H262.71V437H256.312ZM264.354 437V427.06H270.71V428.81H266.3V431.204H269.828V432.926H266.3V435.25H271.004V437H264.354ZM275.858 437.126C274.584 437.126 273.282 436.622 272.232 435.544L273.422 434.088C274.164 434.928 275.116 435.334 275.9 435.334C276.852 435.334 277.314 434.9 277.314 434.284C277.314 433.556 276.796 433.29 275.592 432.87C274.08 432.352 272.582 431.666 272.582 429.776C272.582 428.18 273.996 426.948 275.774 426.934C277.006 426.934 278.14 427.382 279.134 428.194L277.986 429.678C277.16 429.006 276.432 428.698 275.816 428.698C275.13 428.698 274.626 429.062 274.612 429.692C274.612 430.308 275.144 430.56 276.292 431.008C278.014 431.68 279.386 432.128 279.386 434.046C279.386 436.23 277.468 437.126 275.858 437.126Z"/>
</mask>
<path d="M208.058 437L204.362 427.06H206.49L208.926 434.172H208.954L211.376 427.06H213.476L209.794 437H208.058ZM212.881 437L216.563 427.06H218.467L222.163 437H220.105L219.419 435.012H215.611L214.939 437H212.881ZM216.171 433.332H218.859L217.529 429.44H217.501L216.171 433.332ZM223.596 437V427.06H227.362C229.756 427.06 230.82 428.46 230.82 430.364C230.82 431.876 230.12 432.912 228.748 433.36L231.24 437H228.902L226.676 433.598H225.542V437H223.596ZM225.542 431.862H226.97C228.174 431.862 228.79 431.246 228.79 430.336C228.79 429.412 228.188 428.81 227.054 428.81H225.542V431.862ZM232.966 437V427.06H234.968V437H232.966ZM236.475 437L240.157 427.06H242.061L245.757 437H243.699L243.013 435.012H239.205L238.533 437H236.475ZM239.765 433.332H242.453L241.123 429.44H241.095L239.765 433.332ZM247.19 437V427.06H250.774C252.888 427.06 254.036 427.9 254.036 429.482C254.036 430.378 253.616 431.288 252.538 431.708V431.736C253.812 432.044 254.54 432.94 254.54 434.256C254.54 435.838 253.476 437 251.264 437H247.19ZM249.136 431.12H250.62C251.474 431.12 252.048 430.77 252.048 429.958C252.048 429.258 251.614 428.796 250.536 428.796H249.136V431.12ZM249.136 435.264H250.984C251.922 435.264 252.496 434.844 252.496 434.004C252.496 433.22 251.922 432.716 250.788 432.716H249.136V435.264ZM256.312 437V427.06H258.314V435.25H262.71V437H256.312ZM264.354 437V427.06H270.71V428.81H266.3V431.204H269.828V432.926H266.3V435.25H271.004V437H264.354ZM275.858 437.126C274.584 437.126 273.282 436.622 272.232 435.544L273.422 434.088C274.164 434.928 275.116 435.334 275.9 435.334C276.852 435.334 277.314 434.9 277.314 434.284C277.314 433.556 276.796 433.29 275.592 432.87C274.08 432.352 272.582 431.666 272.582 429.776C272.582 428.18 273.996 426.948 275.774 426.934C277.006 426.934 278.14 427.382 279.134 428.194L277.986 429.678C277.16 429.006 276.432 428.698 275.816 428.698C275.13 428.698 274.626 429.062 274.612 429.692C274.612 430.308 275.144 430.56 276.292 431.008C278.014 431.68 279.386 432.128 279.386 434.046C279.386 436.23 277.468 437.126 275.858 437.126Z" fill="white"/>
<path d="M208.058 437L207.121 437.349L207.363 438H208.058V437ZM204.362 427.06V426.06H202.923L203.425 427.409L204.362 427.06ZM206.49 427.06L207.436 426.736L207.204 426.06H206.49V427.06ZM208.926 434.172L207.98 434.496L208.211 435.172H208.926V434.172ZM208.954 434.172V435.172H209.67L209.901 434.494L208.954 434.172ZM211.376 427.06V426.06H210.66L210.429 426.738L211.376 427.06ZM213.476 427.06L214.414 427.407L214.913 426.06H213.476V427.06ZM209.794 437V438H210.49L210.732 437.347L209.794 437ZM208.995 436.651L205.299 426.711L203.425 427.409L207.121 437.349L208.995 436.651ZM204.362 428.06H206.49V426.06H204.362V428.06ZM205.544 427.384L207.98 434.496L209.872 433.848L207.436 426.736L205.544 427.384ZM208.926 435.172H208.954V433.172H208.926V435.172ZM209.901 434.494L212.323 427.382L210.429 426.738L208.007 433.85L209.901 434.494ZM211.376 428.06H213.476V426.06H211.376V428.06ZM212.538 426.713L208.856 436.653L210.732 437.347L214.414 427.407L212.538 426.713ZM209.794 436H208.058V438H209.794V436ZM212.881 437L211.943 436.653L211.444 438H212.881V437ZM216.563 427.06V426.06H215.867L215.625 426.713L216.563 427.06ZM218.467 427.06L219.404 426.711L219.162 426.06H218.467V427.06ZM222.163 437V438H223.602L223.1 436.651L222.163 437ZM220.105 437L219.16 437.326L219.392 438H220.105V437ZM219.419 435.012L220.364 434.686L220.132 434.012H219.419V435.012ZM215.611 435.012V434.012H214.894L214.664 434.692L215.611 435.012ZM214.939 437V438H215.657L215.886 437.32L214.939 437ZM216.171 433.332L215.225 433.009L214.773 434.332H216.171V433.332ZM218.859 433.332V434.332H220.258L219.805 433.009L218.859 433.332ZM217.529 429.44L218.475 429.117L218.244 428.44H217.529V429.44ZM217.501 429.44V428.44H216.786L216.555 429.117L217.501 429.44ZM213.819 437.347L217.501 427.407L215.625 426.713L211.943 436.653L213.819 437.347ZM216.563 428.06H218.467V426.06H216.563V428.06ZM217.53 427.409L221.226 437.349L223.1 436.651L219.404 426.711L217.53 427.409ZM222.163 436H220.105V438H222.163V436ZM221.05 436.674L220.364 434.686L218.474 435.338L219.16 437.326L221.05 436.674ZM219.419 434.012H215.611V436.012H219.419V434.012ZM214.664 434.692L213.992 436.68L215.886 437.32L216.558 435.332L214.664 434.692ZM214.939 436H212.881V438H214.939V436ZM216.171 434.332H218.859V432.332H216.171V434.332ZM219.805 433.009L218.475 429.117L216.583 429.763L217.913 433.655L219.805 433.009ZM217.529 428.44H217.501V430.44H217.529V428.44ZM216.555 429.117L215.225 433.009L217.117 433.655L218.447 429.763L216.555 429.117ZM223.596 437H222.596V438H223.596V437ZM223.596 427.06V426.06H222.596V427.06H223.596ZM228.748 433.36L228.437 432.409L227.169 432.824L227.923 433.925L228.748 433.36ZM231.24 437V438H233.136L232.065 436.435L231.24 437ZM228.902 437L228.065 437.548L228.361 438H228.902V437ZM226.676 433.598L227.513 433.05L227.217 432.598H226.676V433.598ZM225.542 433.598V432.598H224.542V433.598H225.542ZM225.542 437V438H226.542V437H225.542ZM225.542 431.862H224.542V432.862H225.542V431.862ZM225.542 428.81V427.81H224.542V428.81H225.542ZM224.596 437V427.06H222.596V437H224.596ZM223.596 428.06H227.362V426.06H223.596V428.06ZM227.362 428.06C228.362 428.06 228.937 428.347 229.268 428.691C229.606 429.043 229.82 429.591 229.82 430.364H231.82C231.82 429.233 231.502 428.129 230.71 427.305C229.909 426.472 228.756 426.06 227.362 426.06V428.06ZM229.82 430.364C229.82 430.966 229.682 431.393 229.474 431.694C229.271 431.99 228.948 432.243 228.437 432.409L229.058 434.311C229.919 434.029 230.633 433.54 231.122 432.828C231.608 432.121 231.82 431.274 231.82 430.364H229.82ZM227.923 433.925L230.415 437.565L232.065 436.435L229.573 432.795L227.923 433.925ZM231.24 436H228.902V438H231.24V436ZM229.739 436.452L227.513 433.05L225.839 434.146L228.065 437.548L229.739 436.452ZM226.676 432.598H225.542V434.598H226.676V432.598ZM224.542 433.598V437H226.542V433.598H224.542ZM225.542 436H223.596V438H225.542V436ZM225.542 432.862H226.97V430.862H225.542V432.862ZM226.97 432.862C227.733 432.862 228.451 432.666 228.992 432.191C229.548 431.702 229.79 431.027 229.79 430.336H227.79C227.79 430.555 227.724 430.643 227.671 430.689C227.602 430.75 227.411 430.862 226.97 430.862V432.862ZM229.79 430.336C229.79 429.649 229.559 428.978 229.02 428.487C228.493 428.007 227.79 427.81 227.054 427.81V429.81C227.451 429.81 227.617 429.914 227.674 429.966C227.719 430.007 227.79 430.099 227.79 430.336H229.79ZM227.054 427.81H225.542V429.81H227.054V427.81ZM224.542 428.81V431.862H226.542V428.81H224.542ZM232.966 437H231.966V438H232.966V437ZM232.966 427.06V426.06H231.966V427.06H232.966ZM234.968 427.06H235.968V426.06H234.968V427.06ZM234.968 437V438H235.968V437H234.968ZM233.966 437V427.06H231.966V437H233.966ZM232.966 428.06H234.968V426.06H232.966V428.06ZM233.968 427.06V437H235.968V427.06H233.968ZM234.968 436H232.966V438H234.968V436ZM236.475 437L235.537 436.653L235.038 438H236.475V437ZM240.157 427.06V426.06H239.461L239.219 426.713L240.157 427.06ZM242.061 427.06L242.998 426.711L242.756 426.06H242.061V427.06ZM245.757 437V438H247.196L246.694 436.651L245.757 437ZM243.699 437L242.754 437.326L242.986 438H243.699V437ZM243.013 435.012L243.958 434.686L243.726 434.012H243.013V435.012ZM239.205 435.012V434.012H238.487L238.258 434.692L239.205 435.012ZM238.533 437V438H239.251L239.48 437.32L238.533 437ZM239.765 433.332L238.819 433.009L238.366 434.332H239.765V433.332ZM242.453 433.332V434.332H243.851L243.399 433.009L242.453 433.332ZM241.123 429.44L242.069 429.117L241.838 428.44H241.123V429.44ZM241.095 429.44V428.44H240.38L240.149 429.117L241.095 429.44ZM237.413 437.347L241.095 427.407L239.219 426.713L235.537 436.653L237.413 437.347ZM240.157 428.06H242.061V426.06H240.157V428.06ZM241.124 427.409L244.82 437.349L246.694 436.651L242.998 426.711L241.124 427.409ZM245.757 436H243.699V438H245.757V436ZM244.644 436.674L243.958 434.686L242.068 435.338L242.754 437.326L244.644 436.674ZM243.013 434.012H239.205V436.012H243.013V434.012ZM238.258 434.692L237.586 436.68L239.48 437.32L240.152 435.332L238.258 434.692ZM238.533 436H236.475V438H238.533V436ZM239.765 434.332H242.453V432.332H239.765V434.332ZM243.399 433.009L242.069 429.117L240.177 429.763L241.507 433.655L243.399 433.009ZM241.123 428.44H241.095V430.44H241.123V428.44ZM240.149 429.117L238.819 433.009L240.711 433.655L242.041 429.763L240.149 429.117ZM247.19 437H246.19V438H247.19V437ZM247.19 427.06V426.06H246.19V427.06H247.19ZM252.538 431.708L252.175 430.776L251.538 431.024V431.708H252.538ZM252.538 431.736H251.538V432.523L252.303 432.708L252.538 431.736ZM249.136 431.12H248.136V432.12H249.136V431.12ZM249.136 428.796V427.796H248.136V428.796H249.136ZM249.136 435.264H248.136V436.264H249.136V435.264ZM249.136 432.716V431.716H248.136V432.716H249.136ZM248.19 437V427.06H246.19V437H248.19ZM247.19 428.06H250.774V426.06H247.19V428.06ZM250.774 428.06C251.722 428.06 252.293 428.252 252.603 428.482C252.864 428.675 253.036 428.962 253.036 429.482H255.036C255.036 428.42 254.633 427.496 253.792 426.874C253 426.288 251.939 426.06 250.774 426.06V428.06ZM253.036 429.482C253.036 430.051 252.795 430.534 252.175 430.776L252.901 432.64C254.436 432.042 255.036 430.705 255.036 429.482H253.036ZM251.538 431.708V431.736H253.538V431.708H251.538ZM252.303 432.708C252.764 432.82 253.056 433.018 253.235 433.242C253.413 433.465 253.54 433.787 253.54 434.256H255.54C255.54 433.409 255.302 432.625 254.798 431.994C254.294 431.364 253.585 430.96 252.773 430.764L252.303 432.708ZM253.54 434.256C253.54 434.815 253.359 435.211 253.062 435.478C252.755 435.755 252.202 436 251.264 436V438C252.538 438 253.623 437.664 254.4 436.965C255.189 436.255 255.54 435.279 255.54 434.256H253.54ZM251.264 436H247.19V438H251.264V436ZM249.136 432.12H250.62V430.12H249.136V432.12ZM250.62 432.12C251.16 432.12 251.765 432.013 252.257 431.641C252.795 431.234 253.048 430.626 253.048 429.958H251.048C251.048 430.043 251.033 430.071 251.035 430.067C251.036 430.065 251.039 430.06 251.043 430.054C251.048 430.048 251.052 430.045 251.051 430.046C251.043 430.052 250.934 430.12 250.62 430.12V432.12ZM253.048 429.958C253.048 429.392 252.863 428.786 252.337 428.347C251.842 427.934 251.195 427.796 250.536 427.796V429.796C250.954 429.796 251.063 429.889 251.055 429.882C251.053 429.881 251.049 429.876 251.044 429.869C251.041 429.866 251.04 429.863 251.038 429.861C251.038 429.86 251.037 429.859 251.037 429.858C251.037 429.858 251.036 429.857 251.036 429.857C251.036 429.857 251.037 429.858 251.037 429.858C251.037 429.859 251.038 429.861 251.038 429.862C251.039 429.866 251.041 429.872 251.042 429.88C251.045 429.896 251.048 429.922 251.048 429.958H253.048ZM250.536 427.796H249.136V429.796H250.536V427.796ZM248.136 428.796V431.12H250.136V428.796H248.136ZM249.136 436.264H250.984V434.264H249.136V436.264ZM250.984 436.264C251.583 436.264 252.217 436.132 252.719 435.728C253.255 435.296 253.496 434.671 253.496 434.004H251.496C251.496 434.1 251.479 434.145 251.474 434.157C251.471 434.165 251.47 434.166 251.464 434.17C251.445 434.186 251.322 434.264 250.984 434.264V436.264ZM253.496 434.004C253.496 433.345 253.241 432.716 252.685 432.28C252.162 431.869 251.485 431.716 250.788 431.716V433.716C251.224 433.716 251.402 433.815 251.449 433.852C251.469 433.868 251.474 433.878 251.478 433.886C251.483 433.896 251.496 433.931 251.496 434.004H253.496ZM250.788 431.716H249.136V433.716H250.788V431.716ZM248.136 432.716V435.264H250.136V432.716H248.136ZM256.312 437H255.312V438H256.312V437ZM256.312 427.06V426.06H255.312V427.06H256.312ZM258.314 427.06H259.314V426.06H258.314V427.06ZM258.314 435.25H257.314V436.25H258.314V435.25ZM262.71 435.25H263.71V434.25H262.71V435.25ZM262.71 437V438H263.71V437H262.71ZM257.312 437V427.06H255.312V437H257.312ZM256.312 428.06H258.314V426.06H256.312V428.06ZM257.314 427.06V435.25H259.314V427.06H257.314ZM258.314 436.25H262.71V434.25H258.314V436.25ZM261.71 435.25V437H263.71V435.25H261.71ZM262.71 436H256.312V438H262.71V436ZM264.354 437H263.354V438H264.354V437ZM264.354 427.06V426.06H263.354V427.06H264.354ZM270.71 427.06H271.71V426.06H270.71V427.06ZM270.71 428.81V429.81H271.71V428.81H270.71ZM266.3 428.81V427.81H265.3V428.81H266.3ZM266.3 431.204H265.3V432.204H266.3V431.204ZM269.828 431.204H270.828V430.204H269.828V431.204ZM269.828 432.926V433.926H270.828V432.926H269.828ZM266.3 432.926V431.926H265.3V432.926H266.3ZM266.3 435.25H265.3V436.25H266.3V435.25ZM271.004 435.25H272.004V434.25H271.004V435.25ZM271.004 437V438H272.004V437H271.004ZM265.354 437V427.06H263.354V437H265.354ZM264.354 428.06H270.71V426.06H264.354V428.06ZM269.71 427.06V428.81H271.71V427.06H269.71ZM270.71 427.81H266.3V429.81H270.71V427.81ZM265.3 428.81V431.204H267.3V428.81H265.3ZM266.3 432.204H269.828V430.204H266.3V432.204ZM268.828 431.204V432.926H270.828V431.204H268.828ZM269.828 431.926H266.3V433.926H269.828V431.926ZM265.3 432.926V435.25H267.3V432.926H265.3ZM266.3 436.25H271.004V434.25H266.3V436.25ZM270.004 435.25V437H272.004V435.25H270.004ZM271.004 436H264.354V438H271.004V436ZM272.232 435.544L271.457 434.911L270.892 435.602L271.515 436.242L272.232 435.544ZM273.422 434.088L274.171 433.426L273.392 432.544L272.647 433.455L273.422 434.088ZM275.592 432.87L275.921 431.926L275.916 431.924L275.592 432.87ZM275.774 426.934V425.934L275.766 425.934L275.774 426.934ZM279.134 428.194L279.925 428.806L280.52 428.036L279.766 427.42L279.134 428.194ZM277.986 429.678L277.355 430.454L278.15 431.1L278.777 430.29L277.986 429.678ZM274.612 429.692L273.612 429.67L273.612 429.681V429.692H274.612ZM276.292 431.008L276.655 430.076L276.655 430.076L276.292 431.008ZM275.858 436.126C274.855 436.126 273.811 435.732 272.948 434.846L271.515 436.242C272.752 437.512 274.312 438.126 275.858 438.126V436.126ZM273.006 436.177L274.196 434.721L272.647 433.455L271.457 434.911L273.006 436.177ZM272.672 434.75C273.579 435.777 274.793 436.334 275.9 436.334V434.334C275.438 434.334 274.748 434.079 274.171 433.426L272.672 434.75ZM275.9 436.334C276.512 436.334 277.114 436.196 277.584 435.824C278.083 435.429 278.314 434.864 278.314 434.284H276.314C276.314 434.312 276.309 434.31 276.317 434.292C276.326 434.272 276.34 434.259 276.343 434.256C276.344 434.255 276.239 434.334 275.9 434.334V436.334ZM278.314 434.284C278.314 433.98 278.259 433.667 278.107 433.365C277.956 433.065 277.739 432.837 277.504 432.661C277.079 432.343 276.498 432.127 275.921 431.926L275.262 433.814C275.558 433.917 275.786 434.002 275.968 434.082C276.151 434.162 276.251 434.222 276.304 434.261C276.35 434.296 276.337 434.298 276.321 434.265C276.304 434.231 276.314 434.224 276.314 434.284H278.314ZM275.916 431.924C275.164 431.667 274.571 431.414 274.162 431.071C273.808 430.774 273.582 430.403 273.582 429.776H271.582C271.582 431.039 272.104 431.956 272.877 432.604C273.596 433.206 274.507 433.555 275.268 433.816L275.916 431.924ZM273.582 429.776C273.582 428.847 274.426 427.945 275.782 427.934L275.766 425.934C273.565 425.951 271.582 427.513 271.582 429.776H273.582ZM275.774 427.934C276.747 427.934 277.662 428.283 278.501 428.968L279.766 427.42C278.617 426.481 277.265 425.934 275.774 425.934V427.934ZM278.343 427.582L277.195 429.066L278.777 430.29L279.925 428.806L278.343 427.582ZM278.617 428.902C277.706 428.161 276.758 427.698 275.816 427.698V429.698C276.105 429.698 276.614 429.851 277.355 430.454L278.617 428.902ZM275.816 427.698C275.305 427.698 274.771 427.833 274.339 428.176C273.886 428.536 273.625 429.067 273.612 429.67L275.611 429.714C275.612 429.69 275.616 429.693 275.608 429.71C275.599 429.727 275.588 429.738 275.584 429.741C275.579 429.745 275.64 429.698 275.816 429.698V427.698ZM273.612 429.692C273.612 430 273.681 430.308 273.847 430.595C274.008 430.873 274.227 431.076 274.443 431.229C274.839 431.51 275.385 431.727 275.928 431.94L276.655 430.076C276.369 429.965 276.143 429.874 275.959 429.79C275.773 429.705 275.664 429.643 275.599 429.597C275.539 429.554 275.553 429.551 275.578 429.594C275.609 429.647 275.612 429.692 275.612 429.692H273.612ZM275.928 431.94C276.857 432.302 277.456 432.525 277.869 432.848C278.18 433.09 278.386 433.389 278.386 434.046H280.386C280.386 432.785 279.906 431.901 279.1 431.271C278.397 430.723 277.448 430.386 276.655 430.076L275.928 431.94ZM278.386 434.046C278.386 434.8 278.074 435.277 277.636 435.597C277.161 435.944 276.498 436.126 275.858 436.126V438.126C276.827 438.126 277.928 437.86 278.815 437.213C279.738 436.539 280.386 435.476 280.386 434.046H278.386Z" fill="#C9C9D0" mask="url(#path-15-outside-2_3325_17638)"/>
<path d="M76 319C117.974 319 152 284.974 152 243C152 201.026 117.974 167 76 167C34.0263 167 0 201.026 0 243C0 284.974 34.0263 319 76 319Z" fill="#D2D2D7"/>
<path d="M87.7687 228.667H81.0262C79.539 228.667 78.3333 227.461 78.3333 225.974V219.231C78.3333 217.999 77.2906 217 76 217C74.7094 217 73.6667 217.999 73.6667 219.231V225.974C73.6667 227.461 72.461 228.667 70.9738 228.667H64.2313C62.999 228.667 62 229.709 62 231C62 232.291 62.999 233.333 64.2313 233.333H70.9738C72.461 233.333 73.6667 234.539 73.6667 236.026V242.769C73.6667 244.001 74.7094 245 76 245C77.2906 245 78.3333 244.001 78.3333 242.769V236.026C78.3333 234.539 79.539 233.333 81.0262 233.333H87.7687C89.001 233.333 90 232.291 90 231C90 229.709 89.001 228.667 87.7687 228.667Z" fill="white"/>
<path d="M87.7687 228.667H81.0262C79.539 228.667 78.3333 227.461 78.3333 225.974V219.231C78.3333 217.999 77.2906 217 76 217C74.7094 217 73.6667 217.999 73.6667 219.231V225.974C73.6667 227.461 72.461 228.667 70.9738 228.667H64.2313C62.999 228.667 62 229.709 62 231C62 232.291 62.999 233.333 64.2313 233.333H70.9738C72.461 233.333 73.6667 234.539 73.6667 236.026V242.769C73.6667 244.001 74.7094 245 76 245C77.2906 245 78.3333 244.001 78.3333 242.769V236.026C78.3333 234.539 79.539 233.333 81.0262 233.333H87.7687C89.001 233.333 90 232.291 90 231C90 229.709 89.001 228.667 87.7687 228.667Z" stroke="white"/>
<mask id="path-20-outside-3_3325_17638" maskUnits="userSpaceOnUse" x="49" y="259" width="54" height="29" fill="black">
<rect fill="white" x="49" y="259" width="54" height="29"/>
<path d="M59.5987 271.098C56.8267 271.098 54.5307 269.334 54.5307 266.058C54.5307 263.216 56.3507 260.934 59.5707 260.934C60.9987 260.934 62.4687 261.55 63.5327 262.852L62.0767 264.07C61.4327 263.286 60.5927 262.81 59.5707 262.81C57.8767 262.81 56.5887 264.07 56.5887 266.058C56.5887 267.906 57.8207 269.236 59.5987 269.236C60.6347 269.236 61.5027 268.718 62.1047 267.976L63.5467 269.222C62.6927 270.286 61.3487 271.098 59.5987 271.098ZM69.8422 271.126C66.8322 271.126 64.7742 268.984 64.7742 266.03C64.7742 263.076 66.8322 260.934 69.8422 260.934C72.7542 260.934 74.8962 262.992 74.8962 266.03C74.8962 269.054 72.7542 271.126 69.8422 271.126ZM69.8422 269.278C71.5502 269.278 72.8382 267.906 72.8382 266.03C72.8382 264.154 71.5502 262.782 69.8422 262.782C68.0502 262.782 66.8182 264.224 66.8182 266.03C66.8182 267.836 68.0502 269.278 69.8422 269.278ZM76.7909 271V261.06H80.0809C83.2309 261.06 85.2469 263.104 85.2469 266.044C85.2469 268.97 83.3149 271 80.1229 271H76.7909ZM78.7369 269.25H79.9969C81.9289 269.25 83.1889 267.864 83.1889 266.044C83.1889 264.182 81.9149 262.81 80.1089 262.81H78.7369V269.25ZM87.1164 271V261.06H93.4724V262.81H89.0624V265.204H92.5904V266.926H89.0624V269.25H93.7664V271H87.1164ZM50.5058 286L54.1878 276.06H56.0918L59.7878 286H57.7298L57.0438 284.012H53.2358L52.5638 286H50.5058ZM53.7958 282.332H56.4838L55.1538 278.44H55.1258L53.7958 282.332ZM64.2165 286.126C62.9425 286.126 61.6405 285.622 60.5905 284.544L61.7805 283.088C62.5225 283.928 63.4745 284.334 64.2585 284.334C65.2105 284.334 65.6725 283.9 65.6725 283.284C65.6725 282.556 65.1545 282.29 63.9505 281.87C62.4385 281.352 60.9405 280.666 60.9405 278.776C60.9405 277.18 62.3545 275.948 64.1325 275.934C65.3645 275.934 66.4985 276.382 67.4925 277.194L66.3445 278.678C65.5185 278.006 64.7905 277.698 64.1745 277.698C63.4885 277.698 62.9845 278.062 62.9705 278.692C62.9705 279.308 63.5025 279.56 64.6505 280.008C66.3725 280.68 67.7445 281.128 67.7445 283.046C67.7445 285.23 65.8265 286.126 64.2165 286.126ZM72.505 286.126C71.231 286.126 69.929 285.622 68.879 284.544L70.069 283.088C70.811 283.928 71.763 284.334 72.547 284.334C73.499 284.334 73.961 283.9 73.961 283.284C73.961 282.556 73.443 282.29 72.239 281.87C70.727 281.352 69.229 280.666 69.229 278.776C69.229 277.18 70.643 275.948 72.421 275.934C73.653 275.934 74.787 276.382 75.781 277.194L74.633 278.678C73.807 278.006 73.079 277.698 72.463 277.698C71.777 277.698 71.273 278.062 71.259 278.692C71.259 279.308 71.791 279.56 72.939 280.008C74.661 280.68 76.033 281.128 76.033 283.046C76.033 285.23 74.115 286.126 72.505 286.126ZM77.7974 286V276.06H84.1534V277.81H79.7434V280.204H83.2714V281.926H79.7434V284.25H84.4474V286H77.7974ZM88.3073 286V277.81H85.5913V276.06H93.0533V277.81H90.2953V286H88.3073ZM97.6437 286.126C96.3697 286.126 95.0677 285.622 94.0177 284.544L95.2077 283.088C95.9497 283.928 96.9017 284.334 97.6857 284.334C98.6377 284.334 99.0997 283.9 99.0997 283.284C99.0997 282.556 98.5817 282.29 97.3777 281.87C95.8657 281.352 94.3677 280.666 94.3677 278.776C94.3677 277.18 95.7817 275.948 97.5597 275.934C98.7917 275.934 99.9257 276.382 100.92 277.194L99.7717 278.678C98.9457 278.006 98.2177 277.698 97.6017 277.698C96.9157 277.698 96.4117 278.062 96.3977 278.692C96.3977 279.308 96.9297 279.56 98.0777 280.008C99.7997 280.68 101.172 281.128 101.172 283.046C101.172 285.23 99.2537 286.126 97.6437 286.126Z"/>
</mask>
<path d="M59.5987 271.098C56.8267 271.098 54.5307 269.334 54.5307 266.058C54.5307 263.216 56.3507 260.934 59.5707 260.934C60.9987 260.934 62.4687 261.55 63.5327 262.852L62.0767 264.07C61.4327 263.286 60.5927 262.81 59.5707 262.81C57.8767 262.81 56.5887 264.07 56.5887 266.058C56.5887 267.906 57.8207 269.236 59.5987 269.236C60.6347 269.236 61.5027 268.718 62.1047 267.976L63.5467 269.222C62.6927 270.286 61.3487 271.098 59.5987 271.098ZM69.8422 271.126C66.8322 271.126 64.7742 268.984 64.7742 266.03C64.7742 263.076 66.8322 260.934 69.8422 260.934C72.7542 260.934 74.8962 262.992 74.8962 266.03C74.8962 269.054 72.7542 271.126 69.8422 271.126ZM69.8422 269.278C71.5502 269.278 72.8382 267.906 72.8382 266.03C72.8382 264.154 71.5502 262.782 69.8422 262.782C68.0502 262.782 66.8182 264.224 66.8182 266.03C66.8182 267.836 68.0502 269.278 69.8422 269.278ZM76.7909 271V261.06H80.0809C83.2309 261.06 85.2469 263.104 85.2469 266.044C85.2469 268.97 83.3149 271 80.1229 271H76.7909ZM78.7369 269.25H79.9969C81.9289 269.25 83.1889 267.864 83.1889 266.044C83.1889 264.182 81.9149 262.81 80.1089 262.81H78.7369V269.25ZM87.1164 271V261.06H93.4724V262.81H89.0624V265.204H92.5904V266.926H89.0624V269.25H93.7664V271H87.1164ZM50.5058 286L54.1878 276.06H56.0918L59.7878 286H57.7298L57.0438 284.012H53.2358L52.5638 286H50.5058ZM53.7958 282.332H56.4838L55.1538 278.44H55.1258L53.7958 282.332ZM64.2165 286.126C62.9425 286.126 61.6405 285.622 60.5905 284.544L61.7805 283.088C62.5225 283.928 63.4745 284.334 64.2585 284.334C65.2105 284.334 65.6725 283.9 65.6725 283.284C65.6725 282.556 65.1545 282.29 63.9505 281.87C62.4385 281.352 60.9405 280.666 60.9405 278.776C60.9405 277.18 62.3545 275.948 64.1325 275.934C65.3645 275.934 66.4985 276.382 67.4925 277.194L66.3445 278.678C65.5185 278.006 64.7905 277.698 64.1745 277.698C63.4885 277.698 62.9845 278.062 62.9705 278.692C62.9705 279.308 63.5025 279.56 64.6505 280.008C66.3725 280.68 67.7445 281.128 67.7445 283.046C67.7445 285.23 65.8265 286.126 64.2165 286.126ZM72.505 286.126C71.231 286.126 69.929 285.622 68.879 284.544L70.069 283.088C70.811 283.928 71.763 284.334 72.547 284.334C73.499 284.334 73.961 283.9 73.961 283.284C73.961 282.556 73.443 282.29 72.239 281.87C70.727 281.352 69.229 280.666 69.229 278.776C69.229 277.18 70.643 275.948 72.421 275.934C73.653 275.934 74.787 276.382 75.781 277.194L74.633 278.678C73.807 278.006 73.079 277.698 72.463 277.698C71.777 277.698 71.273 278.062 71.259 278.692C71.259 279.308 71.791 279.56 72.939 280.008C74.661 280.68 76.033 281.128 76.033 283.046C76.033 285.23 74.115 286.126 72.505 286.126ZM77.7974 286V276.06H84.1534V277.81H79.7434V280.204H83.2714V281.926H79.7434V284.25H84.4474V286H77.7974ZM88.3073 286V277.81H85.5913V276.06H93.0533V277.81H90.2953V286H88.3073ZM97.6437 286.126C96.3697 286.126 95.0677 285.622 94.0177 284.544L95.2077 283.088C95.9497 283.928 96.9017 284.334 97.6857 284.334C98.6377 284.334 99.0997 283.9 99.0997 283.284C99.0997 282.556 98.5817 282.29 97.3777 281.87C95.8657 281.352 94.3677 280.666 94.3677 278.776C94.3677 277.18 95.7817 275.948 97.5597 275.934C98.7917 275.934 99.9257 276.382 100.92 277.194L99.7717 278.678C98.9457 278.006 98.2177 277.698 97.6017 277.698C96.9157 277.698 96.4117 278.062 96.3977 278.692C96.3977 279.308 96.9297 279.56 98.0777 280.008C99.7997 280.68 101.172 281.128 101.172 283.046C101.172 285.23 99.2537 286.126 97.6437 286.126Z" fill="white"/>
<path d="M63.5327 262.852L64.1743 263.619L64.9326 262.985L64.307 262.219L63.5327 262.852ZM62.0767 264.07L61.3039 264.705L61.9444 265.484L62.7183 264.837L62.0767 264.07ZM62.1047 267.976L62.7585 267.219L61.978 266.545L61.3281 267.346L62.1047 267.976ZM63.5467 269.222L64.3265 269.848L64.9302 269.096L64.2005 268.465L63.5467 269.222ZM59.5987 270.098C58.4208 270.098 57.4099 269.724 56.7038 269.072C56.0099 268.431 55.5307 267.448 55.5307 266.058H53.5307C53.5307 267.944 54.1995 269.481 55.3465 270.541C56.4814 271.59 58.0045 272.098 59.5987 272.098V270.098ZM55.5307 266.058C55.5307 264.848 55.9168 263.822 56.5768 263.11C57.2267 262.408 58.211 261.934 59.5707 261.934V259.934C57.7104 259.934 56.1746 260.601 55.1095 261.751C54.0546 262.89 53.5307 264.426 53.5307 266.058H55.5307ZM59.5707 261.934C60.708 261.934 61.8901 262.422 62.7583 263.485L64.307 262.219C63.0472 260.678 61.2894 259.934 59.5707 259.934V261.934ZM62.891 262.085L61.435 263.303L62.7183 264.837L64.1743 263.619L62.891 262.085ZM62.8494 263.435C62.0515 262.464 60.9444 261.81 59.5707 261.81V263.81C60.241 263.81 60.8139 264.108 61.3039 264.705L62.8494 263.435ZM59.5707 261.81C58.4673 261.81 57.4532 262.225 56.7184 263.001C55.9852 263.775 55.5887 264.845 55.5887 266.058H57.5887C57.5887 265.283 57.8361 264.729 58.1704 264.376C58.5032 264.025 58.9801 263.81 59.5707 263.81V261.81ZM55.5887 266.058C55.5887 267.206 55.9739 268.255 56.6987 269.025C57.4279 269.8 58.4489 270.236 59.5987 270.236V268.236C58.9705 268.236 58.4865 268.007 58.1552 267.655C57.8194 267.298 57.5887 266.758 57.5887 266.058H55.5887ZM59.5987 270.236C60.9932 270.236 62.1285 269.534 62.8812 268.606L61.3281 267.346C60.8768 267.902 60.2762 268.236 59.5987 268.236V270.236ZM61.4509 268.733L62.8929 269.979L64.2005 268.465L62.7585 267.219L61.4509 268.733ZM62.7668 268.596C62.081 269.45 61.0126 270.098 59.5987 270.098V272.098C61.6847 272.098 63.3043 271.122 64.3265 269.848L62.7668 268.596ZM69.8422 270.126C68.5824 270.126 67.5795 269.682 66.892 268.984C66.2027 268.284 65.7742 267.27 65.7742 266.03H63.7742C63.7742 267.744 64.3747 269.278 65.4668 270.387C66.5609 271.499 68.092 272.126 69.8422 272.126V270.126ZM65.7742 266.03C65.7742 264.79 66.2027 263.776 66.892 263.076C67.5795 262.378 68.5824 261.934 69.8422 261.934V259.934C68.092 259.934 66.5609 260.561 65.4668 261.673C64.3747 262.782 63.7742 264.316 63.7742 266.03H65.7742ZM69.8422 261.934C71.0575 261.934 72.0601 262.36 72.7562 263.052C73.4507 263.742 73.8962 264.754 73.8962 266.03H75.8962C75.8962 264.268 75.2707 262.732 74.1662 261.634C73.0633 260.537 71.5389 259.934 69.8422 259.934V261.934ZM73.8962 266.03C73.8962 267.299 73.4513 268.31 72.7555 269.004C72.0584 269.698 71.0556 270.126 69.8422 270.126V272.126C71.5408 272.126 73.065 271.518 74.1669 270.42C75.2701 269.322 75.8962 267.785 75.8962 266.03H73.8962ZM69.8422 270.278C72.1722 270.278 73.8382 268.386 73.8382 266.03H71.8382C71.8382 267.426 70.9281 268.278 69.8422 268.278V270.278ZM73.8382 266.03C73.8382 263.674 72.1722 261.782 69.8422 261.782V263.782C70.9281 263.782 71.8382 264.634 71.8382 266.03H73.8382ZM69.8422 261.782C67.4087 261.782 65.8182 263.765 65.8182 266.03H67.8182C67.8182 264.683 68.6916 263.782 69.8422 263.782V261.782ZM65.8182 266.03C65.8182 268.295 67.4087 270.278 69.8422 270.278V268.278C68.6916 268.278 67.8182 267.377 67.8182 266.03H65.8182ZM76.7909 271H75.7909V272H76.7909V271ZM76.7909 261.06V260.06H75.7909V261.06H76.7909ZM78.7369 269.25H77.7369V270.25H78.7369V269.25ZM78.7369 262.81V261.81H77.7369V262.81H78.7369ZM77.7909 271V261.06H75.7909V271H77.7909ZM76.7909 262.06H80.0809V260.06H76.7909V262.06ZM80.0809 262.06C81.4357 262.06 82.4624 262.496 83.1457 263.164C83.8281 263.832 84.2469 264.809 84.2469 266.044H86.2469C86.2469 264.339 85.6577 262.824 84.5445 261.735C83.4324 260.646 81.8761 260.06 80.0809 260.06V262.06ZM84.2469 266.044C84.2469 267.283 83.8422 268.251 83.1783 268.909C82.5148 269.566 81.5029 270 80.1229 270V272C81.9349 272 83.485 271.419 84.5855 270.33C85.6856 269.241 86.2469 267.731 86.2469 266.044H84.2469ZM80.1229 270H76.7909V272H80.1229V270ZM78.7369 270.25H79.9969V268.25H78.7369V270.25ZM79.9969 270.25C81.2121 270.25 82.2761 269.809 83.0354 269.026C83.7904 268.247 84.1889 267.187 84.1889 266.044H82.1889C82.1889 266.721 81.9574 267.264 81.5994 267.633C81.2457 267.998 80.7137 268.25 79.9969 268.25V270.25ZM84.1889 266.044C84.1889 263.683 82.5194 261.81 80.1089 261.81V263.81C81.3103 263.81 82.1889 264.681 82.1889 266.044H84.1889ZM80.1089 261.81H78.7369V263.81H80.1089V261.81ZM77.7369 262.81V269.25H79.7369V262.81H77.7369ZM87.1164 271H86.1164V272H87.1164V271ZM87.1164 261.06V260.06H86.1164V261.06H87.1164ZM93.4724 261.06H94.4724V260.06H93.4724V261.06ZM93.4724 262.81V263.81H94.4724V262.81H93.4724ZM89.0624 262.81V261.81H88.0624V262.81H89.0624ZM89.0624 265.204H88.0624V266.204H89.0624V265.204ZM92.5904 265.204H93.5904V264.204H92.5904V265.204ZM92.5904 266.926V267.926H93.5904V266.926H92.5904ZM89.0624 266.926V265.926H88.0624V266.926H89.0624ZM89.0624 269.25H88.0624V270.25H89.0624V269.25ZM93.7664 269.25H94.7664V268.25H93.7664V269.25ZM93.7664 271V272H94.7664V271H93.7664ZM88.1164 271V261.06H86.1164V271H88.1164ZM87.1164 262.06H93.4724V260.06H87.1164V262.06ZM92.4724 261.06V262.81H94.4724V261.06H92.4724ZM93.4724 261.81H89.0624V263.81H93.4724V261.81ZM88.0624 262.81V265.204H90.0624V262.81H88.0624ZM89.0624 266.204H92.5904V264.204H89.0624V266.204ZM91.5904 265.204V266.926H93.5904V265.204H91.5904ZM92.5904 265.926H89.0624V267.926H92.5904V265.926ZM88.0624 266.926V269.25H90.0624V266.926H88.0624ZM89.0624 270.25H93.7664V268.25H89.0624V270.25ZM92.7664 269.25V271H94.7664V269.25H92.7664ZM93.7664 270H87.1164V272H93.7664V270ZM50.5058 286L49.5681 285.653L49.069 287H50.5058V286ZM54.1878 276.06V275.06H53.4919L53.2501 275.713L54.1878 276.06ZM56.0918 276.06L57.0291 275.711L56.7869 275.06H56.0918V276.06ZM59.7878 286V287H61.2266L60.7251 285.651L59.7878 286ZM57.7298 286L56.7845 286.326L57.017 287H57.7298V286ZM57.0438 284.012L57.9891 283.686L57.7566 283.012H57.0438V284.012ZM53.2358 284.012V283.012H52.5183L52.2885 283.692L53.2358 284.012ZM52.5638 286V287H53.2814L53.5112 286.32L52.5638 286ZM53.7958 282.332L52.8496 282.009L52.3973 283.332H53.7958V282.332ZM56.4838 282.332V283.332H57.8823L57.4301 282.009L56.4838 282.332ZM55.1538 278.44L56.1001 278.117L55.8689 277.44H55.1538V278.44ZM55.1258 278.44V277.44H54.4108L54.1796 278.117L55.1258 278.44ZM51.4436 286.347L55.1256 276.407L53.2501 275.713L49.5681 285.653L51.4436 286.347ZM54.1878 277.06H56.0918V275.06H54.1878V277.06ZM55.1545 276.409L58.8505 286.349L60.7251 285.651L57.0291 275.711L55.1545 276.409ZM59.7878 285H57.7298V287H59.7878V285ZM58.6751 285.674L57.9891 283.686L56.0985 284.338L56.7845 286.326L58.6751 285.674ZM57.0438 283.012H53.2358V285.012H57.0438V283.012ZM52.2885 283.692L51.6165 285.68L53.5112 286.32L54.1832 284.332L52.2885 283.692ZM52.5638 285H50.5058V287H52.5638V285ZM53.7958 283.332H56.4838V281.332H53.7958V283.332ZM57.4301 282.009L56.1001 278.117L54.2076 278.763L55.5376 282.655L57.4301 282.009ZM55.1538 277.44H55.1258V279.44H55.1538V277.44ZM54.1796 278.117L52.8496 282.009L54.7421 282.655L56.0721 278.763L54.1796 278.117ZM60.5905 284.544L59.8163 283.911L59.2514 284.602L59.8742 285.242L60.5905 284.544ZM61.7805 283.088L62.53 282.426L61.7509 281.544L61.0063 282.455L61.7805 283.088ZM63.9505 281.87L64.2799 280.926L64.2746 280.924L63.9505 281.87ZM64.1325 275.934L64.1325 274.934L64.1247 274.934L64.1325 275.934ZM67.4925 277.194L68.2835 277.806L68.8793 277.036L68.1252 276.42L67.4925 277.194ZM66.3445 278.678L65.7135 279.454L66.5084 280.1L67.1355 279.29L66.3445 278.678ZM62.9705 278.692L61.9708 278.67L61.9705 278.681V278.692H62.9705ZM64.6505 280.008L65.0141 279.076L65.0141 279.076L64.6505 280.008ZM64.2165 285.126C63.214 285.126 62.1698 284.732 61.3069 283.846L59.8742 285.242C61.1113 286.512 62.6711 287.126 64.2165 287.126V285.126ZM61.3648 285.177L62.5548 283.721L61.0063 282.455L59.8163 283.911L61.3648 285.177ZM61.0311 283.75C61.9378 284.777 63.152 285.334 64.2585 285.334V283.334C63.7971 283.334 63.1073 283.079 62.53 282.426L61.0311 283.75ZM64.2585 285.334C64.8711 285.334 65.473 285.196 65.9429 284.824C66.4423 284.429 66.6725 283.864 66.6725 283.284H64.6725C64.6725 283.312 64.6676 283.31 64.676 283.292C64.6853 283.272 64.6984 283.259 64.7021 283.256C64.703 283.255 64.5979 283.334 64.2585 283.334V285.334ZM66.6725 283.284C66.6725 282.98 66.6176 282.667 66.466 282.365C66.3147 282.065 66.0976 281.837 65.863 281.661C65.4384 281.343 64.8568 281.127 64.2799 280.926L63.6212 282.814C63.9168 282.917 64.1453 283.002 64.3265 283.082C64.51 283.162 64.6098 283.222 64.663 283.261C64.7085 283.296 64.6962 283.298 64.6795 283.265C64.6628 283.231 64.6725 283.224 64.6725 283.284H66.6725ZM64.2746 280.924C63.5233 280.667 62.9296 280.414 62.5211 280.071C62.1668 279.774 61.9405 279.403 61.9405 278.776H59.9405C59.9405 280.039 60.4633 280.956 61.236 281.604C61.9545 282.206 62.8658 282.555 63.6264 282.816L64.2746 280.924ZM61.9405 278.776C61.9405 277.847 62.7853 276.945 64.1404 276.934L64.1247 274.934C61.9238 274.951 59.9405 276.513 59.9405 278.776H61.9405ZM64.1325 276.934C65.1055 276.934 66.0211 277.283 66.8599 277.968L68.1252 276.42C66.976 275.481 65.6236 274.934 64.1325 274.934V276.934ZM66.7016 276.582L65.5536 278.066L67.1355 279.29L68.2835 277.806L66.7016 276.582ZM66.9756 277.902C66.0645 277.161 65.1172 276.698 64.1745 276.698V278.698C64.4639 278.698 64.9725 278.851 65.7135 279.454L66.9756 277.902ZM64.1745 276.698C63.6643 276.698 63.1297 276.833 62.6982 277.176C62.245 277.536 61.9842 278.067 61.9708 278.67L63.9703 278.714C63.9708 278.69 63.9749 278.693 63.9667 278.71C63.9583 278.727 63.9472 278.738 63.9429 278.741C63.9384 278.745 63.9988 278.698 64.1745 278.698V276.698ZM61.9705 278.692C61.9705 279 62.0396 279.308 62.206 279.595C62.3666 279.873 62.5857 280.076 62.8017 280.229C63.1982 280.51 63.7435 280.727 64.287 280.94L65.0141 279.076C64.728 278.965 64.5021 278.874 64.3182 278.79C64.132 278.705 64.0225 278.643 63.9583 278.597C63.8979 278.554 63.9122 278.551 63.9372 278.594C63.968 278.647 63.9705 278.692 63.9705 278.692H61.9705ZM64.287 280.94C65.2162 281.302 65.8145 281.525 66.228 281.848C66.5384 282.09 66.7445 282.389 66.7445 283.046H68.7445C68.7445 281.785 68.2646 280.901 67.4586 280.271C66.7556 279.723 65.8069 279.386 65.0141 279.076L64.287 280.94ZM66.7445 283.046C66.7445 283.8 66.4329 284.277 65.9946 284.597C65.5199 284.944 64.8571 285.126 64.2165 285.126V287.126C65.1859 287.126 66.2872 286.86 67.1739 286.213C68.0971 285.539 68.7445 284.476 68.7445 283.046H66.7445ZM68.879 284.544L68.1047 283.911L67.5398 284.602L68.1626 285.242L68.879 284.544ZM70.069 283.088L70.8185 282.426L70.0394 281.544L69.2947 282.455L70.069 283.088ZM72.239 281.87L72.5684 280.926L72.5631 280.924L72.239 281.87ZM72.421 275.934L72.421 274.934L72.4131 274.934L72.421 275.934ZM75.781 277.194L76.5719 277.806L77.1678 277.036L76.4136 276.42L75.781 277.194ZM74.633 278.678L74.0019 279.454L74.7969 280.1L75.4239 279.29L74.633 278.678ZM71.259 278.692L70.2592 278.67L70.259 278.681V278.692H71.259ZM72.939 280.008L73.3025 279.076L73.3025 279.076L72.939 280.008ZM72.505 285.126C71.5024 285.126 70.4583 284.732 69.5953 283.846L68.1626 285.242C69.3997 286.512 70.9595 287.126 72.505 287.126V285.126ZM69.6533 285.177L70.8433 283.721L69.2947 282.455L68.1047 283.911L69.6533 285.177ZM69.3195 283.75C70.2262 284.777 71.4404 285.334 72.547 285.334V283.334C72.0855 283.334 71.3957 283.079 70.8185 282.426L69.3195 283.75ZM72.547 285.334C73.1596 285.334 73.7615 285.196 74.2314 284.824C74.7307 284.429 74.961 283.864 74.961 283.284H72.961C72.961 283.312 72.9561 283.31 72.9644 283.292C72.9737 283.272 72.9869 283.259 72.9906 283.256C72.9915 283.255 72.8864 283.334 72.547 283.334V285.334ZM74.961 283.284C74.961 282.98 74.906 282.667 74.7545 282.365C74.6031 282.065 74.386 281.837 74.1515 281.661C73.7268 281.343 73.1452 281.127 72.5683 280.926L71.9096 282.814C72.2053 282.917 72.4337 283.002 72.615 283.082C72.7984 283.162 72.8982 283.222 72.9515 283.261C72.9969 283.296 72.9846 283.298 72.968 283.265C72.9512 283.231 72.961 283.224 72.961 283.284H74.961ZM72.5631 280.924C71.8117 280.667 71.218 280.414 70.8095 280.071C70.4552 279.774 70.229 279.403 70.229 278.776H68.229C68.229 280.039 68.7517 280.956 69.5245 281.604C70.2429 282.206 71.1542 282.555 71.9149 282.816L72.5631 280.924ZM70.229 278.776C70.229 277.847 71.0738 276.945 72.4289 276.934L72.4131 274.934C70.2122 274.951 68.229 276.513 68.229 278.776H70.229ZM72.421 276.934C73.3939 276.934 74.3095 277.283 75.1483 277.968L76.4136 276.42C75.2644 275.481 73.912 274.934 72.421 274.934V276.934ZM74.99 276.582L73.842 278.066L75.4239 279.29L76.5719 277.806L74.99 276.582ZM75.2641 277.902C74.353 277.161 73.4056 276.698 72.463 276.698V278.698C72.7523 278.698 73.261 278.851 74.0019 279.454L75.2641 277.902ZM72.463 276.698C71.9527 276.698 71.4181 276.833 70.9866 277.176C70.5334 277.536 70.2726 278.067 70.2592 278.67L72.2587 278.714C72.2593 278.69 72.2634 278.693 72.2551 278.71C72.2467 278.727 72.2356 278.738 72.2313 278.741C72.2268 278.745 72.2873 278.698 72.463 278.698V276.698ZM70.259 278.692C70.259 279 70.3281 279.308 70.4944 279.595C70.6551 279.873 70.8741 280.076 71.0902 280.229C71.4866 280.51 72.0319 280.727 72.5754 280.94L73.3025 279.076C73.0165 278.965 72.7906 278.874 72.6067 278.79C72.4204 278.705 72.3109 278.643 72.2468 278.597C72.1863 278.554 72.2007 278.551 72.2257 278.594C72.2564 278.647 72.259 278.692 72.259 278.692H70.259ZM72.5754 280.94C73.5046 281.302 74.1029 281.525 74.5164 281.848C74.8269 282.09 75.033 282.389 75.033 283.046H77.033C77.033 281.785 76.5531 280.901 75.747 280.271C75.0441 279.723 74.0953 279.386 73.3025 279.076L72.5754 280.94ZM75.033 283.046C75.033 283.8 74.7214 284.277 74.2831 284.597C73.8083 284.944 73.1456 285.126 72.505 285.126V287.126C73.4744 287.126 74.5756 286.86 75.4624 286.213C76.3856 285.539 77.033 284.476 77.033 283.046H75.033ZM77.7974 286H76.7974V287H77.7974V286ZM77.7974 276.06V275.06H76.7974V276.06H77.7974ZM84.1534 276.06H85.1534V275.06H84.1534V276.06ZM84.1534 277.81V278.81H85.1534V277.81H84.1534ZM79.7434 277.81V276.81H78.7434V277.81H79.7434ZM79.7434 280.204H78.7434V281.204H79.7434V280.204ZM83.2714 280.204H84.2714V279.204H83.2714V280.204ZM83.2714 281.926V282.926H84.2714V281.926H83.2714ZM79.7434 281.926V280.926H78.7434V281.926H79.7434ZM79.7434 284.25H78.7434V285.25H79.7434V284.25ZM84.4474 284.25H85.4474V283.25H84.4474V284.25ZM84.4474 286V287H85.4474V286H84.4474ZM78.7974 286V276.06H76.7974V286H78.7974ZM77.7974 277.06H84.1534V275.06H77.7974V277.06ZM83.1534 276.06V277.81H85.1534V276.06H83.1534ZM84.1534 276.81H79.7434V278.81H84.1534V276.81ZM78.7434 277.81V280.204H80.7434V277.81H78.7434ZM79.7434 281.204H83.2714V279.204H79.7434V281.204ZM82.2714 280.204V281.926H84.2714V280.204H82.2714ZM83.2714 280.926H79.7434V282.926H83.2714V280.926ZM78.7434 281.926V284.25H80.7434V281.926H78.7434ZM79.7434 285.25H84.4474V283.25H79.7434V285.25ZM83.4474 284.25V286H85.4474V284.25H83.4474ZM84.4474 285H77.7974V287H84.4474V285ZM88.3073 286H87.3073V287H88.3073V286ZM88.3073 277.81H89.3073V276.81H88.3073V277.81ZM85.5913 277.81H84.5913V278.81H85.5913V277.81ZM85.5913 276.06V275.06H84.5913V276.06H85.5913ZM93.0533 276.06H94.0533V275.06H93.0533V276.06ZM93.0533 277.81V278.81H94.0533V277.81H93.0533ZM90.2953 277.81V276.81H89.2953V277.81H90.2953ZM90.2953 286V287H91.2953V286H90.2953ZM89.3073 286V277.81H87.3073V286H89.3073ZM88.3073 276.81H85.5913V278.81H88.3073V276.81ZM86.5913 277.81V276.06H84.5913V277.81H86.5913ZM85.5913 277.06H93.0533V275.06H85.5913V277.06ZM92.0533 276.06V277.81H94.0533V276.06H92.0533ZM93.0533 276.81H90.2953V278.81H93.0533V276.81ZM89.2953 277.81V286H91.2953V277.81H89.2953ZM90.2953 285H88.3073V287H90.2953V285ZM94.0177 284.544L93.2434 283.911L92.6786 284.602L93.3014 285.242L94.0177 284.544ZM95.2077 283.088L95.9572 282.426L95.1781 281.544L94.4334 282.455L95.2077 283.088ZM97.3777 281.87L97.7071 280.926L97.7018 280.924L97.3777 281.87ZM97.5597 275.934L97.5597 274.934L97.5519 274.934L97.5597 275.934ZM100.92 277.194L101.711 277.806L102.307 277.036L101.552 276.42L100.92 277.194ZM99.7717 278.678L99.1406 279.454L99.9356 280.1L100.563 279.29L99.7717 278.678ZM96.3977 278.692L95.398 278.67L95.3977 278.681V278.692H96.3977ZM98.0777 280.008L98.4413 279.076L98.4413 279.076L98.0777 280.008ZM97.6437 285.126C96.6412 285.126 95.597 284.732 94.7341 283.846L93.3014 285.242C94.5385 286.512 96.0983 287.126 97.6437 287.126V285.126ZM94.792 285.177L95.982 283.721L94.4334 282.455L93.2434 283.911L94.792 285.177ZM94.4583 283.75C95.365 284.777 96.5792 285.334 97.6857 285.334V283.334C97.2243 283.334 96.5345 283.079 95.9572 282.426L94.4583 283.75ZM97.6857 285.334C98.2983 285.334 98.9002 285.196 99.3701 284.824C99.8694 284.429 100.1 283.864 100.1 283.284H98.0997C98.0997 283.312 98.0948 283.31 98.1032 283.292C98.1125 283.272 98.1256 283.259 98.1293 283.256C98.1302 283.255 98.0251 283.334 97.6857 283.334V285.334ZM100.1 283.284C100.1 282.98 100.045 282.667 99.8932 282.365C99.7418 282.065 99.5248 281.837 99.2902 281.661C98.8656 281.343 98.284 281.127 97.7071 280.926L97.0484 282.814C97.344 282.917 97.5724 283.002 97.7537 283.082C97.9372 283.162 98.037 283.222 98.0902 283.261C98.1357 283.296 98.1234 283.298 98.1067 283.265C98.0899 283.231 98.0997 283.224 98.0997 283.284H100.1ZM97.7018 280.924C96.9505 280.667 96.3568 280.414 95.9482 280.071C95.594 279.774 95.3677 279.403 95.3677 278.776H93.3677C93.3677 280.039 93.8905 280.956 94.6632 281.604C95.3817 282.206 96.293 282.555 97.0536 282.816L97.7018 280.924ZM95.3677 278.776C95.3677 277.847 96.2125 276.945 97.5676 276.934L97.5519 274.934C95.351 274.951 93.3677 276.513 93.3677 278.776H95.3677ZM97.5597 276.934C98.5327 276.934 99.4483 277.283 100.287 277.968L101.552 276.42C100.403 275.481 99.0508 274.934 97.5597 274.934V276.934ZM100.129 276.582L98.9808 278.066L100.563 279.29L101.711 277.806L100.129 276.582ZM100.403 277.902C99.4917 277.161 98.5444 276.698 97.6017 276.698V278.698C97.8911 278.698 98.3997 278.851 99.1406 279.454L100.403 277.902ZM97.6017 276.698C97.0915 276.698 96.5569 276.833 96.1254 277.176C95.6721 277.536 95.4114 278.067 95.398 278.67L97.3975 278.714C97.398 278.69 97.4021 278.693 97.3938 278.71C97.3855 278.727 97.3744 278.738 97.3701 278.741C97.3656 278.745 97.426 278.698 97.6017 278.698V276.698ZM95.3977 278.692C95.3977 279 95.4668 279.308 95.6331 279.595C95.7938 279.873 96.0129 280.076 96.2289 280.229C96.6254 280.51 97.1707 280.727 97.7142 280.94L98.4413 279.076C98.1552 278.965 97.9293 278.874 97.7454 278.79C97.5592 278.705 97.4497 278.643 97.3855 278.597C97.3251 278.554 97.3394 278.551 97.3644 278.594C97.3951 278.647 97.3977 278.692 97.3977 278.692H95.3977ZM97.7142 280.94C98.6434 281.302 99.2416 281.525 99.6552 281.848C99.9656 282.09 100.172 282.389 100.172 283.046H102.172C102.172 281.785 101.692 280.901 100.886 280.271C100.183 279.723 99.2341 279.386 98.4413 279.076L97.7142 280.94ZM100.172 283.046C100.172 283.8 99.8601 284.277 99.4218 284.597C98.9471 284.944 98.2843 285.126 97.6437 285.126V287.126C98.6131 287.126 99.7144 286.86 100.601 286.213C101.524 285.539 102.172 284.476 102.172 283.046H100.172Z" fill="#C9C9D0" mask="url(#path-20-outside-3_3325_17638)"/>
</svg>
