<svg width="203" height="76" viewBox="0 0 203 76" fill="none" xmlns="http://www.w3.org/2000/svg">
<path d="M81.9361 16.9441C81.2767 17.0659 80.6774 16.9879 80.1382 16.7101C79.6081 16.4306 79.17 15.9926 78.8239 15.3961C78.487 14.7979 78.2785 14.0816 78.1986 13.2472C78.1568 12.8115 78.1801 12.3732 78.2683 11.9323C78.3648 11.4805 78.496 11.0506 78.662 10.6425C78.827 10.2252 79.0007 9.84878 79.1829 9.51322C79.099 9.4155 79.0459 9.25076 79.0237 9.01899C79.0015 8.78722 79.0728 8.50988 79.2376 8.18697C79.4024 7.86406 79.6413 7.53688 79.9544 7.20545C80.2675 6.87402 80.64 6.57879 81.0719 6.31977C81.5037 6.06075 81.9715 5.88473 82.4752 5.79171C83.3086 5.63779 84.0312 5.68834 84.6428 5.94334C85.2544 6.19834 85.7352 6.59545 86.0851 7.13465C86.4433 7.6629 86.6557 8.27467 86.7223 8.96998C86.8183 9.97122 86.751 10.9224 86.5204 11.8236C86.2899 12.7247 85.9392 13.5395 85.4684 14.268C85.0068 14.9949 84.4678 15.5944 83.8513 16.0668C83.2431 16.5282 82.6047 16.8207 81.9361 16.9441ZM80.8732 8.04056C80.9143 8.08015 80.9371 8.12312 80.9415 8.16948C80.9477 8.23437 80.9311 8.3035 80.8915 8.37685C80.8611 8.44851 80.8224 8.53113 80.7754 8.62472C80.6227 8.87935 80.463 9.20605 80.2961 9.60482C80.1385 10.0019 79.9935 10.4344 79.8612 10.9022C79.7381 11.3684 79.6439 11.8434 79.5784 12.3272C79.512 12.8018 79.4988 13.2477 79.5388 13.6649C79.6072 14.3787 79.823 14.9285 80.1862 15.3143C80.5485 15.6908 81.0456 15.8208 81.6775 15.7041C82.1537 15.6161 82.596 15.4165 83.0042 15.1052C83.4216 14.7923 83.7902 14.4081 84.1101 13.9528C84.4382 13.4865 84.712 12.9878 84.9314 12.4567C85.1499 11.9163 85.3075 11.373 85.4043 10.8267C85.5011 10.2805 85.5268 9.771 85.4815 9.29819C85.4345 8.80684 85.2943 8.3657 85.0611 7.97476C84.8279 7.58382 84.5157 7.29239 84.1245 7.10047C83.7333 6.90854 83.2767 6.86078 82.7547 6.95719C82.3151 7.03837 81.9421 7.18273 81.6358 7.39026C81.3377 7.58683 81.0836 7.80359 80.8732 8.04056ZM90.0941 15.4517C89.9476 15.4787 89.8182 15.4413 89.7059 15.3394C89.5936 15.2375 89.5272 15.0799 89.5068 14.8667C89.4917 14.7091 89.4989 14.4436 89.5283 14.0702C89.5661 13.6858 89.6026 13.2404 89.6379 12.7338C89.6824 12.2255 89.7114 11.7013 89.7249 11.161C89.7375 10.6114 89.7202 10.091 89.6732 9.59965C89.6501 9.35861 89.6927 9.17148 89.8011 9.03824C89.9178 8.89404 90.054 8.80756 90.2096 8.77881C90.3562 8.75175 90.475 8.82416 90.566 8.99604C90.657 9.16793 90.7063 9.53622 90.7138 10.1009C91.0445 9.0775 91.4341 8.23189 91.8828 7.56408C92.3397 6.88531 92.808 6.37425 93.2877 6.03092C93.7665 5.67831 94.2074 5.4648 94.6104 5.39038C94.876 5.34133 95.0737 5.36144 95.2034 5.4507C95.3414 5.529 95.4166 5.63304 95.429 5.76283C95.4459 5.93898 95.3859 6.09157 95.2492 6.22061C95.1207 6.33869 94.8887 6.49476 94.5531 6.68882C94.1652 6.92084 93.8121 7.17476 93.4936 7.45056C93.1835 7.71541 92.8933 8.04261 92.623 8.43217C92.3619 8.82004 92.1143 9.29978 91.8802 9.87137C91.6451 10.4337 91.4216 11.1165 91.2097 11.9199C90.9977 12.7233 90.7821 13.683 90.5628 14.799C90.5274 15.0131 90.4679 15.1704 90.3843 15.2707C90.3099 15.3694 90.2132 15.4297 90.0941 15.4517Z" fill="white"/>
<path d="M4.54257 63.8496C4.25224 63.8871 4.00869 63.8361 3.8119 63.6966C3.62751 63.5673 3.52904 63.4091 3.51649 63.2222C3.50238 63.0119 3.52082 62.8504 3.57183 62.7377C3.63366 62.6119 3.77333 62.5113 3.99084 62.436C4.52802 62.2369 5.08105 62.0122 5.64994 61.7618C6.22965 61.4982 6.76832 61.2341 7.26596 60.9694C7.76281 60.6929 8.16135 60.4352 8.46156 60.196C8.77339 59.9553 8.92421 59.759 8.91401 59.6071C8.9046 59.4669 8.76784 59.3491 8.50373 59.2536C8.23883 59.1465 7.90347 59.0367 7.49765 58.9242C7.09183 58.8117 6.65581 58.6854 6.18957 58.5454C5.72333 58.4054 5.28417 58.2324 4.87207 58.0264C4.45998 57.8205 4.11521 57.5705 3.83776 57.2764C3.55954 56.9706 3.40591 56.6016 3.37689 56.1693C3.33141 55.4917 3.45164 54.8397 3.73758 54.2135C4.03436 53.5741 4.43298 52.9686 4.93346 52.3971C5.43393 51.8256 5.9894 51.2882 6.59988 50.785C7.22119 50.2686 7.83441 49.8062 8.43955 49.398C9.05551 48.9765 9.60455 48.605 10.0867 48.2833C10.243 48.1688 10.3954 48.0843 10.544 48.0297C10.6926 47.9751 10.825 47.9403 10.9412 47.9253C11.2779 47.8817 11.5269 47.9261 11.6881 48.0585C11.8492 48.1908 11.9365 48.3563 11.9498 48.5549C11.9608 48.7185 11.8866 48.9225 11.7273 49.1671C11.5673 49.3999 11.3301 49.6191 11.0159 49.8248C10.7018 50.0304 10.3182 50.1625 9.86532 50.2211L9.72596 50.2391C9.34524 50.5005 8.93242 50.8073 8.48751 51.1595C8.0426 51.5117 7.60546 51.8923 7.17608 52.3014C6.7467 52.7105 6.35295 53.1268 5.99482 53.5502C5.64752 53.9605 5.36911 54.3501 5.1596 54.7189C4.9617 55.0863 4.87216 55.4102 4.89098 55.6906C4.91372 56.0294 5.06186 56.3166 5.33538 56.5523C5.6089 56.788 5.95014 56.9854 6.3591 57.1446C6.77967 57.3024 7.21727 57.452 7.67189 57.5935C8.13813 57.7335 8.57573 57.8831 8.98468 58.0424C9.40447 58.1884 9.75034 58.3676 10.0223 58.5799C10.2935 58.7805 10.4396 59.0385 10.4608 59.354C10.4851 59.7162 10.3805 60.0773 10.147 60.4375C9.92508 60.7962 9.62031 61.1421 9.23268 61.475C8.84427 61.7963 8.41364 62.0995 7.94079 62.3846C7.47878 62.6565 7.02061 62.8985 6.56629 63.1104C6.11197 63.3224 5.70175 63.4934 5.33562 63.6232C4.98111 63.7516 4.71676 63.827 4.54257 63.8496ZM12.5662 56.5714C12.2511 56.5886 12.0922 56.4029 12.0895 56.0144C12.0949 55.9194 12.1513 55.8001 12.2588 55.6566C12.3655 55.5014 12.4939 55.4081 12.6441 55.3769C13.0018 55.2953 13.4395 55.1856 13.9574 55.0479C14.4861 54.897 15.0663 54.7277 15.698 54.5399C15.7757 53.9524 15.8746 53.3327 15.9948 52.6807C16.1151 52.0288 16.2539 51.3921 16.4113 50.7707C16.568 50.1377 16.7401 49.5615 16.9278 49.0422C17.1155 48.523 17.3219 48.1074 17.547 47.7954C17.6661 47.6504 17.7763 47.5477 17.8777 47.4875C17.9783 47.4155 18.0693 47.3743 18.1505 47.3638C18.3131 47.3428 18.4456 47.3963 18.5479 47.5245C18.6618 47.6512 18.7247 47.8022 18.7364 47.9774C18.7427 48.0709 18.7316 48.1666 18.703 48.2646C18.5147 48.9489 18.3191 49.7874 18.1163 50.78C17.9135 51.7726 17.6992 52.855 17.4733 54.0274C18.53 53.7139 19.5858 53.3888 20.6409 53.0519C21.6959 52.7151 22.6012 52.4153 23.3567 52.1526C23.571 52.0305 23.7406 52.0263 23.8653 52.1398C24.0017 52.2518 24.0742 52.372 24.0828 52.5005C24.0938 52.6641 24.0556 52.7928 23.9682 52.8866C23.8924 52.9789 23.81 53.0603 23.721 53.1307L23.7048 53.1505C23.4788 53.274 23.1379 53.4301 22.682 53.6187C22.2253 53.7956 21.6997 53.9932 21.1053 54.2116C20.51 54.4182 19.8741 54.6301 19.1976 54.8473C18.5327 55.0629 17.8728 55.2662 17.2179 55.4569C17.0198 56.5196 16.8179 57.6123 16.6121 58.7349C16.4172 59.8443 16.221 60.9363 16.0237 62.0106C15.9358 62.4463 15.8199 62.7264 15.676 62.8511C15.5445 62.986 15.3975 63.0639 15.2349 63.0849C15.0491 63.109 14.8818 63.0599 14.733 62.9377C14.5959 62.8141 14.5592 62.5301 14.6231 62.0858L15.4936 55.9452C14.8039 56.1405 14.1935 56.2961 13.6624 56.4119C13.143 56.5262 12.7776 56.5794 12.5662 56.5714ZM23.41 61.2848C22.9687 61.3419 22.5892 61.1848 22.2714 60.8134C21.9645 60.4289 21.7887 59.9036 21.744 59.2377C21.7024 58.6185 21.8122 57.9856 22.0733 57.339C22.3461 56.6909 22.7191 56.0533 23.1925 55.4264C23.6658 54.7995 24.1887 54.2133 24.7612 53.6679C25.3329 53.1107 25.909 52.6178 26.4893 52.1892C27.0813 51.7591 27.6261 51.4116 28.1237 51.1469C28.6213 50.8822 29.0211 50.7303 29.3231 50.6912C29.4856 50.6702 29.6215 50.688 29.7308 50.7446C29.8392 50.7895 29.8989 50.8937 29.9099 51.0573C29.9169 51.1624 29.883 51.267 29.8079 51.371C29.8196 51.3695 29.8312 51.368 29.8428 51.3664C30.0983 51.3334 30.2362 51.4688 30.2566 51.7725C30.2637 51.8777 30.2375 52.0991 30.1782 52.4367C30.1181 52.7627 30.0518 53.172 29.9795 53.6645C29.9071 54.157 29.8499 54.7007 29.8078 55.2953C29.765 55.8783 29.7635 56.4678 29.8035 57.0636C29.8373 57.566 30.0457 57.7924 30.429 57.7428C30.8586 57.6873 31.2875 57.5316 31.7154 57.2759C32.1434 57.0202 32.557 56.7251 32.9562 56.3906C33.3547 56.0444 33.7187 55.7086 34.0483 55.3831C34.377 55.046 34.6567 54.7623 34.8872 54.5321C35.1178 54.302 35.2853 54.1801 35.3898 54.1666C35.4827 54.1546 35.566 54.1733 35.6396 54.2227C35.7132 54.2721 35.7543 54.361 35.7629 54.4896C35.7707 54.6064 35.6687 54.8317 35.4569 55.1655C35.245 55.4993 34.9604 55.8838 34.6031 56.319C34.2457 56.7541 33.8411 57.1835 33.3893 57.6073C32.9375 58.0311 32.4697 58.3921 31.9861 58.6904C31.5024 58.9887 31.0341 59.1671 30.5812 59.2257C30.2328 59.2708 29.9064 59.207 29.602 59.0342C29.3084 58.8483 29.0568 58.5037 28.8473 58.0005C28.6494 57.4958 28.5195 56.7819 28.4576 55.8589L28.4282 55.4208C27.9227 56.4408 27.3826 57.3827 26.8081 58.2466C26.2451 59.1091 25.6716 59.8138 25.0875 60.3607C24.515 60.9062 23.9558 61.2142 23.41 61.2848ZM29.0768 51.9959C29.0203 52.0267 28.9414 52.0723 28.84 52.1326C28.3222 52.447 27.7852 52.8229 27.2289 53.2602C26.6842 53.696 26.1538 54.1712 25.6378 54.6858C25.1334 55.1989 24.6824 55.7227 24.2849 56.2574C23.8874 56.792 23.5774 57.3211 23.3548 57.8449C23.1323 58.3687 23.0367 58.8642 23.0681 59.3315C23.0783 59.4834 23.1151 59.5965 23.1787 59.6708C23.2539 59.7435 23.3727 59.7694 23.5353 59.7484C23.7676 59.7183 24.0597 59.5332 24.4117 59.1931C24.7629 58.8412 25.1427 58.3914 25.5511 57.8436C25.971 57.2943 26.3875 56.6924 26.8004 56.038C27.2133 55.3835 27.6026 54.7262 27.9682 54.0661C28.3455 53.4045 28.6679 52.7971 28.9353 52.244C28.9763 52.1562 29.0234 52.0735 29.0768 51.9959ZM35.5679 59.5882C35.3821 59.6122 35.2202 59.5566 35.0823 59.4212C34.9443 59.2858 34.8663 59.0838 34.8483 58.8151C34.835 58.6165 34.8537 58.2841 34.9044 57.8179C34.9659 57.3385 35.0281 56.7825 35.0911 56.1498C35.1656 55.5155 35.2212 54.8601 35.2578 54.1837C35.2936 53.4955 35.2907 52.8418 35.2492 52.2226C35.2288 51.9188 35.2894 51.6871 35.4309 51.5274C35.5833 51.3544 35.7582 51.2552 35.9556 51.2297C36.1414 51.2056 36.2886 51.3044 36.3972 51.5261C36.5058 51.7477 36.5546 52.2128 36.5436 52.9213C36.9978 51.6605 37.5199 50.6266 38.11 49.8196C38.7109 48.9994 39.3202 48.3903 39.9377 47.9922C40.5544 47.5824 41.1183 47.3445 41.6293 47.2784C41.966 47.2348 42.2146 47.2733 42.375 47.394C42.5462 47.5015 42.6373 47.637 42.6483 47.8006C42.6632 48.0226 42.582 48.2098 42.4049 48.3624C42.2385 48.5018 41.9402 48.6818 41.5099 48.9024C41.0122 49.1672 40.5576 49.4617 40.146 49.786C39.7451 50.0971 39.3672 50.4878 39.0122 50.958C38.6689 51.4266 38.3391 52.0114 38.0231 52.7122C37.7062 53.4014 37.3995 54.2425 37.103 55.2354C36.8066 56.2283 36.4998 57.417 36.1828 58.8015C36.1303 59.0676 36.0496 59.2607 35.9405 59.3809C35.8431 59.4995 35.7189 59.5686 35.5679 59.5882ZM40.7584 52.924C40.4433 52.9412 40.2844 52.7556 40.2817 52.367C40.2871 52.272 40.3435 52.1528 40.451 52.0092C40.5577 51.854 40.6862 51.7608 40.8364 51.7296C41.194 51.6479 41.6318 51.5383 42.1496 51.4006C42.6783 51.2497 43.2585 51.0803 43.8902 50.8925C43.9679 50.305 44.0668 49.6853 44.1871 49.0334C44.3073 48.3814 44.4461 47.7448 44.6035 47.1234C44.7602 46.4903 44.9324 45.9141 45.1201 45.3949C45.3078 44.8756 45.5141 44.46 45.7392 44.1481C45.8583 44.003 45.9686 43.9004 46.0699 43.8401C46.1705 43.7682 46.2615 43.727 46.3428 43.7164C46.5053 43.6954 46.6378 43.749 46.7401 43.8772C46.854 44.0038 46.9169 44.1548 46.9286 44.3301C46.9349 44.4235 46.9238 44.5192 46.8952 44.6172C46.7069 45.3015 46.5113 46.14 46.3085 47.1326C46.1057 48.1252 45.8914 49.2077 45.6656 50.38C46.7222 50.0665 47.778 49.7414 48.8331 49.4046C49.8881 49.0677 50.7934 48.7679 51.5489 48.5052C51.7632 48.3832 51.9328 48.3789 52.0576 48.4924C52.1939 48.6044 52.2664 48.7247 52.2751 48.8532C52.286 49.0167 52.2478 49.1454 52.1604 49.2392C52.0846 49.3315 52.0022 49.4129 51.9132 49.4833L51.897 49.5031C51.671 49.6266 51.3301 49.7827 50.8742 49.9713C50.4175 50.1482 49.8919 50.3459 49.2975 50.5642C48.7022 50.7708 48.0663 50.9828 47.3898 51.1999C46.7249 51.4156 46.065 51.6188 45.4101 51.8096C45.212 52.8723 45.0101 53.9649 44.8043 55.0876C44.6094 56.197 44.4133 57.2889 44.216 58.3633C44.1281 58.7989 44.0122 59.0791 43.8683 59.2037C43.7367 59.3386 43.5897 59.4165 43.4271 59.4376C43.2413 59.4616 43.074 59.4126 42.9253 59.2904C42.7881 59.1667 42.7515 58.8827 42.8153 58.4384L43.6858 52.2978C42.9961 52.4931 42.3857 52.6487 41.8546 52.7645C41.3352 52.8789 40.9698 52.932 40.7584 52.924ZM61.3613 55.9507C61.1174 55.9822 60.8986 55.8632 60.7048 55.5937C60.511 55.3241 60.3846 54.7512 60.3258 53.8749C60.2717 53.0688 60.2619 52.0507 60.2965 50.8206C60.3419 49.5773 60.4367 48.198 60.581 46.6826C60.6632 45.9884 60.8637 45.3968 61.1823 44.9078C61.5125 44.4172 61.9519 43.9833 62.5005 43.6059C63.0608 43.227 63.7221 42.8704 64.4845 42.5361C65.2469 42.2017 66.034 41.8878 66.846 41.5942C67.6688 41.2874 68.4421 41.0282 69.1659 40.8167C69.9005 40.5921 70.5058 40.4489 70.982 40.3873C71.3187 40.3438 71.5789 40.3808 71.7625 40.4985C71.9461 40.6161 72.043 40.7509 72.0532 40.9028C72.0626 41.043 72.0302 41.1709 71.956 41.2866C71.8926 41.3891 71.7583 41.4831 71.5532 41.5685C71.4054 41.6348 71.0915 41.7579 70.6116 41.9378C70.1426 42.1046 69.5647 42.309 68.8781 42.551C68.2032 42.7915 67.4883 43.049 66.7337 43.3234C65.9782 43.5861 65.2463 43.8517 64.5381 44.1201C63.7293 44.4604 63.1512 44.8357 62.8039 45.246C62.4674 45.6431 62.2627 46.1704 62.1897 46.828C62.1774 46.9946 62.1587 47.2386 62.1334 47.5601C62.4499 47.3895 62.847 47.1967 63.3245 46.9817C63.8021 46.7667 64.2916 46.5561 64.7932 46.3498C65.2947 46.1435 65.7576 45.9716 66.1818 45.8343C66.6052 45.6852 66.9214 45.5972 67.1305 45.5701C67.2814 45.5506 67.4445 45.6238 67.6196 45.7897C67.8064 45.9541 67.9064 46.1356 67.9197 46.3342C67.926 46.4277 67.9032 46.5249 67.8514 46.6259C67.7989 46.7152 67.7045 46.7922 67.5683 46.8569C67.4885 46.8908 67.2892 46.9755 66.9703 47.1111C66.6623 47.2334 66.2861 47.3882 65.8418 47.5753C65.4092 47.7609 64.9541 47.9612 64.4765 48.1762C63.9982 48.3795 63.5427 48.5739 63.11 48.7595C62.689 48.9436 62.3364 49.1012 62.0524 49.2322C62.032 49.8006 62.0073 50.393 61.9784 51.0095C61.9495 51.6261 61.9245 52.2127 61.9033 52.7693C61.8929 53.3128 61.8832 53.7795 61.8743 54.1696C61.8645 54.548 61.8632 54.7897 61.8702 54.8949C61.9142 55.5491 61.7445 55.9011 61.3613 55.9507ZM71.4451 54.9466C71.2592 54.9706 71.0974 54.915 70.9594 54.7796C70.8215 54.6442 70.7435 54.4422 70.7255 54.1735C70.7121 53.9749 70.7308 53.6425 70.7815 53.1763C70.8431 52.6969 70.9053 52.1409 70.9683 51.5081C71.0428 50.8739 71.0984 50.2185 71.135 49.5421C71.1708 48.8539 71.1679 48.2002 71.1263 47.581C71.1059 47.2772 71.1665 47.0455 71.3081 46.8858C71.4605 46.7128 71.6354 46.6136 71.8328 46.5881C72.0186 46.564 72.1658 46.6628 72.2744 46.8845C72.383 47.1061 72.4318 47.5712 72.4208 48.2797C72.875 47.0189 73.3971 45.985 73.9872 45.178C74.5881 44.3578 75.1973 43.7487 75.8149 43.3506C76.4316 42.9408 76.9955 42.7029 77.5064 42.6368C77.8432 42.5932 78.0918 42.6317 78.2522 42.7524C78.4234 42.8599 78.5145 42.9954 78.5255 43.159C78.5404 43.381 78.4592 43.5682 78.282 43.7208C78.1157 43.8602 77.8174 44.0402 77.387 44.2608C76.8894 44.5256 76.4348 44.8201 76.0231 45.1444C75.6223 45.4555 75.2444 45.8462 74.8894 46.3164C74.546 46.785 74.2163 47.3698 73.9002 48.0706C73.5834 48.7598 73.2767 49.6009 72.9802 50.5938C72.6837 51.5867 72.377 52.7754 72.0599 54.1599C72.0075 54.426 71.9268 54.6191 71.8177 54.7393C71.7202 54.8579 71.596 54.927 71.4451 54.9466ZM80.9913 53.5524C80.3062 53.6411 79.7485 53.4481 79.3184 52.9734C78.8882 52.4987 78.6449 51.8408 78.5885 50.9996C78.5681 50.6958 78.5872 50.3693 78.6457 50.0199C78.7151 49.6574 78.81 49.3269 78.9306 49.0285C78.8438 48.9572 78.7725 48.8545 78.7166 48.7203C78.66 48.5744 78.6242 48.3905 78.6093 48.1685C78.563 47.4792 78.6368 46.8333 78.8306 46.2307C79.0245 45.6282 79.2989 45.0918 79.6539 44.6216C80.0081 44.1398 80.4096 43.752 80.8584 43.4582C81.3189 43.1629 81.793 42.9837 82.2807 42.9206C83.082 42.817 83.7519 43.0249 84.2905 43.5445C84.8283 44.0524 85.1368 44.8963 85.216 46.0764C85.2576 46.6956 85.207 47.3385 85.0643 48.0051C84.9333 48.6702 84.731 49.321 84.4574 49.9574C84.1955 50.5924 83.877 51.1698 83.5019 51.6897C83.1384 52.2081 82.7396 52.6368 82.3056 52.9758C81.8823 53.3016 81.4442 53.4938 80.9913 53.5524ZM80.0403 48.2839C80.1162 48.3683 80.1593 48.4865 80.1695 48.6384C80.1812 48.8136 80.1582 48.9934 80.1003 49.1777C80.054 49.3604 80.0062 49.6082 79.9569 49.921C79.9076 50.2338 79.9018 50.6706 79.9394 51.2314C79.9771 51.7922 80.2165 52.044 80.6578 51.9869C81.1456 51.9238 81.5855 51.6725 81.9777 51.2328C82.3691 50.7815 82.7066 50.2252 82.9902 49.5639C83.2738 48.9026 83.4792 48.2102 83.6063 47.4867C83.7443 46.7499 83.7921 46.0661 83.7497 45.4352C83.7223 45.0263 83.6276 44.7498 83.4656 44.6058C83.3029 44.4501 83.0241 44.3977 82.6293 44.4488C82.2228 44.5014 81.8084 44.6964 81.3859 45.0339C80.9742 45.3583 80.639 45.7729 80.38 46.2778C80.121 46.7826 80.0112 47.3272 80.0504 47.9114C80.059 48.0399 80.0556 48.1641 80.0403 48.2839ZM101.065 50.2484C101.065 50.4368 101 50.5985 100.869 50.7333C100.737 50.8682 100.578 50.9476 100.393 50.9717C100.184 50.9987 100.005 50.9512 99.856 50.829C99.7072 50.7068 99.623 50.4997 99.6034 50.2076C99.5524 49.4482 99.532 48.62 99.542 47.723C99.5513 46.8144 99.5788 45.9152 99.6245 45.0254C99.6694 44.1239 99.719 43.2926 99.7734 42.5313C99.427 43.13 99.0497 43.7917 98.6415 44.5162C98.2449 45.2392 97.8363 45.958 97.4157 46.6723C96.9951 47.3867 96.5826 48.047 96.1782 48.6532C95.773 49.2477 95.4017 49.7377 95.0645 50.1231C94.7264 50.4968 94.4413 50.6987 94.209 50.7287C93.7794 50.7843 93.3964 50.663 93.0601 50.3647C92.723 50.0548 92.5368 49.6369 92.5015 49.1112C92.4874 48.9009 92.4914 48.6116 92.5136 48.2434C92.5349 47.8636 92.5609 47.4654 92.5915 47.049C92.6221 46.6325 92.6489 46.2461 92.6718 45.8896C92.694 45.5214 92.6991 45.2496 92.6874 45.0744C92.6764 44.9108 92.6496 44.7729 92.6069 44.6605C92.575 44.535 92.5127 44.4783 92.4198 44.4903C92.2804 44.5083 92.0994 44.6908 91.8767 45.0379C91.6532 45.3732 91.4066 45.7999 91.1368 46.318C90.8786 46.8345 90.6108 47.3818 90.3333 47.9598C90.0675 48.5363 89.8171 49.0814 89.5821 49.595C89.3464 50.0968 89.1446 50.4942 88.9769 50.7869C88.8432 51.0635 88.7164 51.2685 88.5965 51.4018C88.4766 51.5352 88.3237 51.6139 88.1379 51.6379C87.9173 51.6665 87.7062 51.5759 87.5047 51.3663C87.3148 51.1552 87.2085 50.8802 87.1858 50.5414C87.1724 50.3427 87.1865 50.0286 87.2279 49.599C87.2686 49.1577 87.3239 48.6733 87.3939 48.1457C87.4755 47.6166 87.5521 47.0999 87.6237 46.5957C87.7061 46.0783 87.7762 45.6391 87.834 45.278C87.9002 44.8688 87.9983 44.585 88.1282 44.4268C88.2582 44.2686 88.4045 44.1789 88.567 44.1579C88.7877 44.1294 88.9674 44.1886 89.1061 44.3357C89.2556 44.4695 89.3414 44.7 89.3634 45.0271C89.3673 45.0856 89.343 45.2478 89.2906 45.5138C89.2374 45.7682 89.1707 46.0832 89.0905 46.459C89.0211 46.8215 88.9413 47.203 88.851 47.6036C88.7724 48.0027 88.7092 48.3703 88.6615 48.7064C88.888 48.2411 89.1237 47.7392 89.3687 47.2008C89.6253 46.6608 89.8823 46.1267 90.1397 45.5984C90.3963 45.0585 90.656 44.5653 90.9189 44.1188C91.181 43.6606 91.4431 43.2909 91.7054 43.0094C91.9676 42.728 92.2265 42.5708 92.482 42.5377C92.7839 42.4987 93.0689 42.5561 93.3369 42.71C93.6166 42.8624 93.8483 43.0858 94.032 43.3802C94.2158 43.6746 94.3206 44.0146 94.3465 44.4001C94.3645 44.6688 94.3436 45.0546 94.2836 45.5573C94.2228 46.0483 94.159 46.581 94.0922 47.1553C94.0369 47.7282 94.0145 48.2673 94.025 48.7727C94.0329 48.8895 94.0716 48.9434 94.1413 48.9344C94.1994 48.9269 94.2663 48.877 94.3421 48.7847C94.6538 48.3672 94.9952 47.8693 95.3664 47.291C95.7367 46.701 96.111 46.081 96.489 45.4311C96.8787 44.7796 97.2634 44.1406 97.643 43.514C98.0218 42.8758 98.3756 42.2997 98.7042 41.7858C99.0437 41.2587 99.3434 40.8369 99.6032 40.5204C99.8747 40.2025 100.092 40.033 100.254 40.0119C100.603 39.9669 100.877 40.0316 101.076 40.2062C101.275 40.3808 101.39 40.7017 101.421 41.1691C101.447 41.543 101.45 42.0316 101.432 42.6349C101.426 43.2368 101.405 43.8935 101.371 44.605C101.348 45.315 101.314 46.0324 101.269 46.7571C101.235 47.4686 101.198 48.1334 101.157 48.7515C101.116 49.3578 101.085 49.8568 101.065 50.2484ZM113.849 37.7935C113.373 37.8551 113.035 37.8753 112.834 37.8541C112.633 37.8213 112.506 37.7611 112.453 37.6736C112.412 37.5847 112.388 37.4935 112.382 37.4C112.373 37.2715 112.429 37.1464 112.55 37.0247C112.681 36.8898 112.954 36.7603 113.367 36.6361C113.894 36.4502 114.513 36.2522 115.225 36.0422C115.948 35.8191 116.718 35.6016 117.536 35.3897C118.352 35.1662 119.17 34.9544 119.988 34.7543C120.818 34.5526 121.609 34.3796 122.36 34.2352C123.123 34.0776 123.8 33.9605 124.393 33.8839C125.182 33.7818 125.721 33.7827 126.009 33.8869C126.309 33.9895 126.464 34.1226 126.475 34.2862C126.486 34.4381 126.414 34.5888 126.26 34.7384C126.117 34.8864 125.86 34.9845 125.489 35.0325C125.338 35.0521 124.992 35.1322 124.451 35.2729C123.909 35.4019 123.247 35.5701 122.464 35.7774C121.692 35.9716 120.875 36.1834 120.012 36.4129C119.98 36.8177 119.928 37.3547 119.856 38.024C119.783 38.6816 119.697 39.4057 119.598 40.1963C119.51 40.9855 119.417 41.7812 119.319 42.5835C119.231 43.3727 119.146 44.1085 119.063 44.791C118.991 45.4719 118.93 46.0338 118.877 46.4766C118.825 46.9194 118.796 47.1825 118.79 47.2658C118.768 47.634 118.681 47.922 118.531 48.13C118.392 48.3248 118.23 48.4342 118.044 48.4582C117.823 48.4868 117.631 48.4174 117.468 48.25C117.315 48.0694 117.222 47.7337 117.189 47.243C117.178 47.0795 117.192 46.7595 117.23 46.2831C117.268 45.7951 117.323 45.2164 117.395 44.5471C117.467 43.8779 117.548 43.1662 117.638 42.4121C117.728 41.658 117.819 40.9214 117.911 40.2024C118.003 39.4717 118.088 38.8126 118.165 38.225C118.242 37.6259 118.299 37.1589 118.335 36.8243C117.424 37.0481 116.566 37.2535 115.758 37.4405C114.962 37.6142 114.325 37.7319 113.849 37.7935ZM131.1 39.2739C131.125 39.6478 131.034 40.0308 130.826 40.4231C130.617 40.8036 130.332 41.1823 129.971 41.559C129.609 41.924 129.205 42.2768 128.759 42.6173C128.314 42.9578 127.865 43.2632 127.415 43.5336C126.965 43.804 126.552 44.0283 126.178 44.2064C126.115 44.674 126.096 45.0831 126.119 45.4336C126.134 45.6556 126.197 45.8066 126.308 45.8865C126.419 45.9665 126.584 45.9922 126.805 45.9636C127.293 45.9005 127.804 45.746 128.338 45.5002C128.872 45.2543 129.414 44.9544 129.964 44.6003C130.514 44.2463 131.04 43.8778 131.542 43.4947C132.043 43.1117 132.499 42.7521 132.91 42.4161C133.332 42.0786 133.683 41.8035 133.962 41.5907C134.24 41.3779 134.426 41.2654 134.519 41.2534C134.658 41.2354 134.766 41.2686 134.842 41.3531C134.928 41.4243 134.976 41.5184 134.984 41.6352C134.99 41.7287 134.857 41.9286 134.585 42.2348C134.324 42.5396 133.968 42.9039 133.516 43.3277C133.063 43.7398 132.553 44.1711 131.986 44.6216C131.419 45.0721 130.827 45.5022 130.21 45.912C129.605 46.3202 129.013 46.662 128.434 46.9372C127.867 47.211 127.351 47.3779 126.887 47.438C126.283 47.5161 125.797 47.3491 125.43 46.937C125.062 46.525 124.846 45.8399 124.782 44.8819C124.739 44.2393 124.777 43.5803 124.895 42.905C125.026 42.2282 125.216 41.5731 125.466 40.9397C125.727 40.2931 126.022 39.7128 126.351 39.1989C126.69 38.6718 127.054 38.2476 127.443 37.9263C127.83 37.5933 128.216 37.402 128.599 37.3525C129.331 37.2578 129.919 37.3879 130.365 37.7427C130.81 38.0976 131.055 38.608 131.1 39.2739ZM126.453 42.8096C126.798 42.541 127.154 42.2593 127.521 41.9644C127.887 41.6694 128.225 41.3724 128.533 41.0733C128.841 40.7742 129.084 40.4717 129.262 40.1657C129.452 39.8466 129.536 39.5352 129.516 39.2314C129.487 38.7991 129.24 38.613 128.776 38.6731C128.485 38.7107 128.19 38.9374 127.89 39.3533C127.601 39.7561 127.331 40.2683 127.08 40.8901C126.828 41.5118 126.619 42.1516 126.453 42.8096ZM147.591 44.2291C147.592 44.4175 147.526 44.5792 147.395 44.714C147.263 44.8489 147.105 44.9283 146.919 44.9524C146.71 44.9794 146.531 44.9319 146.382 44.8097C146.233 44.6875 146.149 44.4804 146.13 44.1883C146.079 43.4289 146.058 42.6007 146.068 41.7037C146.077 40.7951 146.105 39.8959 146.151 39.0061C146.196 38.1046 146.245 37.2733 146.3 36.512C145.953 37.1107 145.576 37.7723 145.168 38.4969C144.771 39.2199 144.362 39.9386 143.942 40.653C143.521 41.3674 143.109 42.0277 142.704 42.6339C142.299 43.2284 141.928 43.7184 141.591 44.1038C141.253 44.4775 140.967 44.6794 140.735 44.7094C140.305 44.765 139.923 44.6437 139.586 44.3454C139.249 44.0355 139.063 43.6176 139.028 43.0919C139.014 42.8816 139.018 42.5923 139.04 42.2241C139.061 41.8443 139.087 41.4461 139.118 41.0297C139.148 40.6132 139.175 40.2268 139.198 39.8702C139.22 39.5021 139.225 39.2303 139.214 39.0551C139.203 38.8915 139.176 38.7536 139.133 38.6412C139.101 38.5157 139.039 38.459 138.946 38.471C138.807 38.489 138.626 38.6715 138.403 39.0185C138.179 39.3539 137.933 39.7806 137.663 40.2986C137.405 40.8152 137.137 41.3625 136.859 41.9405C136.594 42.517 136.343 43.0621 136.108 43.5756C135.873 44.0775 135.671 44.4749 135.503 44.7676C135.369 45.0442 135.242 45.2491 135.123 45.3825C135.003 45.5159 134.85 45.5946 134.664 45.6186C134.443 45.6472 134.232 45.5566 134.031 45.347C133.841 45.1358 133.735 44.8609 133.712 44.5221C133.699 44.3234 133.713 44.0093 133.754 43.5797C133.795 43.1384 133.85 42.654 133.92 42.1264C134.002 41.5973 134.078 41.0806 134.15 40.5764C134.232 40.059 134.302 39.6198 134.36 39.2587C134.426 38.8495 134.524 38.5657 134.654 38.4075C134.784 38.2493 134.931 38.1596 135.093 38.1386C135.314 38.1101 135.493 38.1693 135.632 38.3163C135.782 38.4502 135.868 38.6807 135.889 39.0078C135.893 39.0663 135.869 39.2285 135.817 39.4945C135.764 39.7489 135.697 40.0639 135.617 40.4396C135.547 40.8022 135.467 41.1837 135.377 41.5843C135.299 41.9834 135.235 42.351 135.188 42.6871C135.414 42.2218 135.65 41.7199 135.895 41.1815C136.151 40.6415 136.408 40.1074 136.666 39.5791C136.922 39.0392 137.182 38.546 137.445 38.0995C137.707 37.6413 137.969 37.2715 138.232 36.9901C138.494 36.7087 138.753 36.5515 139.008 36.5184C139.31 36.4794 139.595 36.5368 139.863 36.6907C140.143 36.843 140.374 37.0664 140.558 37.3609C140.742 37.6553 140.847 37.9953 140.873 38.3808C140.891 38.6495 140.87 39.0353 140.81 39.538C140.749 40.029 140.685 40.5617 140.618 41.136C140.563 41.7089 140.541 42.248 140.551 42.7534C140.559 42.8702 140.598 42.9241 140.667 42.9151C140.726 42.9076 140.792 42.8577 140.868 42.7654C141.18 42.3479 141.521 41.85 141.892 41.2717C142.263 40.6817 142.637 40.0617 143.015 39.4118C143.405 38.7603 143.789 38.1213 144.169 37.4947C144.548 36.8565 144.902 36.2804 145.23 35.7665C145.57 35.2394 145.869 34.8176 146.129 34.5011C146.401 34.1832 146.618 34.0137 146.78 33.9926C147.129 33.9476 147.403 34.0123 147.602 34.1869C147.801 34.3615 147.916 34.6824 147.948 35.1498C147.973 35.5236 147.976 36.0123 147.958 36.6156C147.952 37.2175 147.931 37.8742 147.897 38.5857C147.874 39.2957 147.841 40.0131 147.796 40.7378C147.761 41.4493 147.724 42.1141 147.683 42.7322C147.642 43.3385 147.611 43.8375 147.591 44.2291ZM151.428 49.5131C151.23 49.5387 151.069 49.4889 150.943 49.3637C150.829 49.237 150.759 48.9751 150.732 48.5778C150.694 48.0053 150.69 47.3341 150.72 46.5642C150.75 45.7942 150.807 44.9738 150.889 44.1029C150.982 43.2305 151.088 42.3565 151.205 41.4811C151.333 40.6042 151.47 39.7674 151.616 38.9708C151.773 38.1726 151.931 37.4628 152.088 36.8414C152.245 36.2084 152.393 35.706 152.532 35.3345C152.682 34.9615 152.822 34.7667 152.949 34.7502C153.17 34.7216 153.348 34.7633 153.485 34.8753C153.633 34.9858 153.715 35.1696 153.733 35.4266C153.755 35.7538 153.692 36.2981 153.544 37.0597C153.395 37.8096 153.203 38.789 152.968 39.9979C153.222 39.4229 153.498 38.8216 153.795 38.1938C154.093 37.5661 154.409 36.9536 154.744 36.3564C155.078 35.7475 155.416 35.1971 155.758 34.705C156.111 34.2115 156.459 33.8071 156.801 33.4918C157.143 33.1765 157.482 32.997 157.819 32.9535C158.179 32.9069 158.506 32.9824 158.8 33.18C159.094 33.3659 159.329 33.6419 159.506 34.0079C159.694 34.3608 159.803 34.7709 159.835 35.2382C159.9 36.2079 159.8 37.1695 159.536 38.1229C159.271 39.0645 158.873 39.9351 158.341 40.7346C157.82 41.5209 157.184 42.1747 156.435 42.696C155.696 43.2158 154.88 43.5335 153.986 43.6492C153.649 43.6927 153.346 43.7143 153.077 43.7138C152.807 43.7133 152.572 43.7024 152.372 43.6813C152.284 44.4704 152.204 45.2821 152.131 46.1165C152.058 46.9509 151.989 47.8378 151.923 48.7773C151.905 49.0272 151.858 49.2041 151.783 49.3081C151.709 49.4238 151.59 49.4921 151.428 49.5131ZM158.222 34.2448C157.978 34.2764 157.697 34.4541 157.379 34.7781C157.073 35.1006 156.744 35.5203 156.392 36.0372C156.051 36.5409 155.707 37.098 155.362 37.7084C155.015 38.3071 154.681 38.9159 154.36 39.535C154.038 40.1541 153.743 40.7285 153.474 41.2582C153.217 41.7865 153.006 42.2262 152.842 42.5774C153.746 42.4368 154.53 42.1528 155.192 41.7254C155.854 41.2862 156.41 40.7664 156.862 40.1658C157.313 39.5536 157.668 38.9125 157.928 38.2426C158.198 37.5594 158.383 36.9109 158.482 36.297C158.581 35.6714 158.615 35.1367 158.586 34.6927C158.564 34.3656 158.442 34.2163 158.222 34.2448ZM165.294 43.1761C164.4 43.2918 163.678 43.0906 163.128 42.5725C162.588 42.0413 162.283 41.2441 162.211 40.1809C162.168 39.5266 162.203 38.7501 162.319 37.8513C162.445 36.9393 162.614 35.9746 162.827 34.9571C163.051 33.9265 163.298 32.9045 163.57 31.8912C163.842 30.8779 164.107 29.9362 164.364 29.0661C164.633 28.1828 164.871 27.445 165.077 26.8527C165.195 26.5192 165.382 26.3359 165.637 26.3029C165.986 26.2578 166.174 26.4514 166.203 26.8837C166.213 27.0239 166.168 27.3184 166.069 27.7672C165.971 28.216 165.838 28.7752 165.673 29.4449C165.506 30.1028 165.326 30.8331 165.134 31.6358C164.942 32.4384 164.746 33.2652 164.545 34.1161C164.356 34.9538 164.183 35.7834 164.027 36.6049C163.871 37.4148 163.752 38.1726 163.67 38.8785C163.589 39.5843 163.564 40.1826 163.597 40.6733C163.619 40.9888 163.717 41.2294 163.892 41.3953C164.078 41.548 164.316 41.6056 164.606 41.5681C165.14 41.4989 165.668 41.3247 166.188 41.0453C166.719 40.7527 167.223 40.4163 167.701 40.0363C168.179 39.6445 168.61 39.2647 168.995 38.8966C169.391 38.5154 169.728 38.2009 170.004 37.953C170.279 37.6934 170.475 37.5562 170.591 37.5411C170.847 37.5081 170.984 37.6318 171.003 37.9122C171.009 38.0056 170.928 38.1929 170.759 38.474C170.59 38.7434 170.36 39.0678 170.069 39.4471C169.778 39.8265 169.436 40.2244 169.042 40.6406C168.659 41.0437 168.252 41.4323 167.82 41.8063C167.399 42.1672 166.969 42.4704 166.528 42.7159C166.1 42.9716 165.689 43.125 165.294 43.1761ZM171.486 42.1276C171.045 42.1847 170.665 42.0275 170.347 41.6562C170.04 41.2716 169.864 40.7464 169.82 40.0804C169.778 39.4612 169.888 38.8283 170.149 38.1817C170.422 37.5336 170.795 36.8961 171.268 36.2692C171.742 35.6422 172.265 35.0561 172.837 34.5106C173.409 33.9534 173.985 33.4606 174.565 33.0319C175.157 32.6018 175.702 32.2544 176.2 31.9896C176.697 31.7249 177.097 31.573 177.399 31.534C177.561 31.5129 177.697 31.5307 177.807 31.5873C177.915 31.6322 177.975 31.7364 177.986 31.9C177.993 32.0051 177.959 32.1097 177.884 32.2137C177.895 32.2122 177.907 32.2107 177.919 32.2092C178.174 32.1761 178.312 32.3115 178.332 32.6152C178.339 32.7204 178.313 32.9418 178.254 33.2794C178.194 33.6054 178.128 34.0147 178.055 34.5072C177.983 34.9998 177.926 35.5434 177.884 36.1381C177.841 36.7211 177.839 37.3105 177.879 37.9064C177.913 38.4087 178.122 38.6351 178.505 38.5856C178.934 38.53 179.363 38.3743 179.791 38.1186C180.219 37.8629 180.633 37.5678 181.032 37.2333C181.431 36.8871 181.795 36.5513 182.124 36.2258C182.453 35.8887 182.733 35.605 182.963 35.3749C183.194 35.1447 183.361 35.0228 183.466 35.0093C183.559 34.9973 183.642 35.016 183.715 35.0654C183.789 35.1148 183.83 35.2038 183.839 35.3323C183.847 35.4491 183.745 35.6744 183.533 36.0082C183.321 36.3421 183.036 36.7265 182.679 37.1617C182.322 37.5968 181.917 38.0263 181.465 38.4501C181.013 38.8738 180.546 39.2349 180.062 39.5331C179.578 39.8314 179.11 40.0098 178.657 40.0684C178.309 40.1135 177.982 40.0497 177.678 39.8769C177.384 39.691 177.133 39.3464 176.923 38.8432C176.725 38.3385 176.595 37.6246 176.533 36.7017L176.504 36.2635C175.998 37.2835 175.458 38.2254 174.884 39.0894C174.321 39.9518 173.747 40.6565 173.163 41.2034C172.591 41.7489 172.032 42.0569 171.486 42.1276ZM177.153 32.8386C177.096 32.8695 177.017 32.915 176.916 32.9753C176.398 33.2898 175.861 33.6656 175.305 34.1029C174.76 34.5388 174.23 35.0139 173.714 35.5285C173.209 36.0416 172.758 36.5655 172.361 37.1001C171.963 37.6347 171.653 38.1639 171.431 38.6876C171.208 39.2114 171.113 39.7069 171.144 40.1743C171.154 40.3261 171.191 40.4392 171.255 40.5135C171.33 40.5863 171.449 40.6121 171.611 40.5911C171.843 40.5611 172.136 40.3759 172.488 40.0358C172.839 39.6839 173.219 39.2341 173.627 38.6863C174.047 38.137 174.463 37.5351 174.876 36.8807C175.289 36.2262 175.678 35.569 176.044 34.9088C176.421 34.2472 176.744 33.6398 177.011 33.0867C177.052 32.9989 177.099 32.9162 177.153 32.8386ZM181.183 34.7566C180.868 34.7738 180.709 34.5881 180.707 34.1996C180.712 34.1046 180.768 33.9853 180.876 33.8418C180.983 33.6866 181.111 33.5933 181.261 33.5621C181.619 33.4805 182.057 33.3708 182.575 33.2331C183.103 33.0822 183.683 32.9129 184.315 32.7251C184.393 32.1376 184.492 31.5179 184.612 30.8659C184.732 30.214 184.871 29.5773 185.028 28.9559C185.185 28.3228 185.357 27.7467 185.545 27.2274C185.733 26.7082 185.939 26.2926 186.164 25.9806C186.283 25.8356 186.393 25.7329 186.495 25.6727C186.595 25.6007 186.686 25.5595 186.768 25.549C186.93 25.528 187.063 25.5815 187.165 25.7097C187.279 25.8364 187.342 25.9874 187.354 26.1626C187.36 26.2561 187.349 26.3518 187.32 26.4498C187.132 27.1341 186.936 27.9726 186.733 28.9652C186.531 29.9577 186.316 31.0402 186.09 32.2126C187.147 31.8991 188.203 31.5739 189.258 31.2371C190.313 30.9003 191.218 30.6005 191.974 30.3378C192.188 30.2157 192.358 30.2115 192.482 30.325C192.619 30.437 192.691 30.5572 192.7 30.6857C192.711 30.8493 192.673 30.978 192.585 31.0718C192.51 31.1641 192.427 31.2455 192.338 31.3159L192.322 31.3357C192.096 31.4592 191.755 31.6153 191.299 31.8039C190.842 31.9808 190.317 32.1784 189.722 32.3968C189.127 32.6034 188.491 32.8153 187.815 33.0325C187.15 33.2481 186.49 33.4514 185.835 33.6421C185.637 34.7048 185.435 35.7975 185.229 36.9201C185.034 38.0295 184.838 39.1214 184.641 40.1958C184.553 40.6315 184.437 40.9116 184.293 41.0363C184.162 41.1712 184.015 41.2491 183.852 41.2701C183.666 41.2942 183.499 41.2451 183.35 41.1229C183.213 40.9993 183.176 40.7153 183.24 40.271L184.111 34.1304C183.421 34.3257 182.811 34.4812 182.28 34.5971C181.76 34.7114 181.395 34.7646 181.183 34.7566ZM197.623 30.6675C197.648 31.0414 197.557 31.4244 197.349 31.8167C197.14 32.1972 196.855 32.5758 196.494 32.9526C196.132 33.3176 195.728 33.6704 195.282 34.0109C194.837 34.3514 194.389 34.6568 193.938 34.9272C193.488 35.1976 193.075 35.4219 192.701 35.5999C192.638 36.0676 192.619 36.4767 192.642 36.8272C192.657 37.0492 192.72 37.2002 192.831 37.2801C192.942 37.3601 193.108 37.3858 193.328 37.3572C193.816 37.2941 194.327 37.1396 194.861 36.8938C195.395 36.6479 195.937 36.3479 196.487 35.9939C197.037 35.6399 197.563 35.2714 198.065 34.8883C198.566 34.5052 199.022 34.1457 199.433 33.8097C199.856 33.4722 200.206 33.1971 200.485 32.9843C200.763 32.7715 200.949 32.659 201.042 32.647C201.181 32.629 201.289 32.6622 201.365 32.7467C201.452 32.8179 201.499 32.912 201.507 33.0288C201.513 33.1223 201.38 33.3221 201.108 33.6284C200.847 33.9332 200.491 34.2975 200.039 34.7213C199.586 35.1334 199.076 35.5647 198.509 36.0152C197.942 36.4657 197.35 36.8958 196.733 37.3056C196.128 37.7138 195.536 38.0556 194.957 38.3308C194.39 38.6046 193.874 38.7715 193.41 38.8316C192.806 38.9097 192.32 38.7427 191.953 38.3306C191.585 37.9186 191.37 37.2335 191.305 36.2754C191.262 35.6329 191.3 34.9739 191.419 34.2986C191.549 33.6218 191.739 32.9667 191.989 32.3333C192.251 31.6867 192.545 31.1064 192.874 30.5925C193.214 30.0654 193.577 29.6412 193.966 29.3199C194.354 28.9869 194.739 28.7956 195.122 28.746C195.854 28.6514 196.442 28.7815 196.888 29.1363C197.333 29.4912 197.578 30.0015 197.623 30.6675ZM192.976 34.2032C193.321 33.9346 193.677 33.6529 194.044 33.3579C194.41 33.063 194.748 32.766 195.056 32.4669C195.364 32.1678 195.607 31.8653 195.785 31.5593C195.975 31.2402 196.059 30.9287 196.039 30.625C196.01 30.1927 195.763 30.0066 195.299 30.0667C195.008 30.1043 194.713 30.331 194.413 30.7469C194.124 31.1497 193.854 31.6619 193.603 32.2837C193.351 32.9054 193.143 33.5452 192.976 34.2032Z" fill="white"/>
</svg>
