<svg width="353" height="65" viewBox="0 0 353 65" fill="none" xmlns="http://www.w3.org/2000/svg">
<path d="M7.59368 49.548C6.78681 49.6553 6.04264 49.5436 5.36118 49.2129C4.67971 48.8822 4.10977 48.3746 3.65135 47.69C3.20214 46.9935 2.91397 46.1674 2.78687 45.2119C2.69224 44.5006 2.74376 43.7915 2.94144 43.0845C3.1377 42.3669 3.37711 41.73 3.65967 41.1738C3.59602 41.0202 3.54866 40.8266 3.51759 40.593C3.47946 40.3063 3.55246 39.9617 3.7366 39.559C3.92073 39.1564 4.19652 38.7523 4.56397 38.3469C4.94203 37.9401 5.39687 37.5824 5.92848 37.274C6.47072 36.9642 7.07626 36.7648 7.74511 36.6758C8.78555 36.5374 9.68967 36.6332 10.4575 36.9632C11.2253 37.2933 11.8356 37.7793 12.2884 38.4214C12.7517 39.0621 13.0371 39.7858 13.1444 40.5927C13.2998 41.7605 13.252 42.8636 13.0012 43.9018C12.7503 44.94 12.3544 45.8624 11.8135 46.6691C11.2725 47.4757 10.636 48.1331 9.90406 48.641C9.17068 49.1383 8.40055 49.4407 7.59368 49.548ZM6.4565 39.5376C6.47135 39.568 6.4809 39.5991 6.48513 39.631C6.49926 39.7372 6.49356 39.8568 6.46804 39.9898C6.44111 40.1123 6.37171 40.2403 6.25984 40.3741C6.07576 40.6146 5.90297 40.9402 5.74148 41.3506C5.57857 41.7504 5.43724 42.1906 5.31749 42.6711C5.20835 43.1503 5.13248 43.6358 5.08986 44.1276C5.04725 44.6195 5.0549 45.0831 5.1128 45.5184C5.19189 46.1129 5.39558 46.5882 5.72387 46.9443C6.06278 47.299 6.53481 47.4361 7.13996 47.3556C7.64957 47.2878 8.11709 47.1068 8.54254 46.8125C8.96657 46.5076 9.34286 46.128 9.67139 45.6737C9.99851 45.2088 10.2669 44.7085 10.4766 44.1728C10.6848 43.6265 10.8286 43.0833 10.9081 42.5433C10.9967 41.9913 11.0092 41.4764 10.9457 40.9986C10.8864 40.5527 10.7357 40.1514 10.4938 39.7946C10.2625 39.4364 9.95609 39.1639 9.57467 38.9769C9.19183 38.7793 8.74031 38.7151 8.22009 38.7843C7.83789 38.8352 7.4992 38.9289 7.20403 39.0654C6.91947 39.2005 6.67029 39.3579 6.4565 39.5376ZM16.9275 48.6305C16.662 48.6658 16.4211 48.6006 16.2046 48.4349C15.9986 48.2678 15.8717 48.0038 15.8237 47.6428C15.8025 47.4836 15.7891 47.2207 15.7836 46.854C15.7872 46.4754 15.7944 46.0422 15.8052 45.5546C15.8266 45.0656 15.8398 44.556 15.8449 44.0259C15.8606 43.4944 15.864 42.9915 15.8549 42.5173C15.8565 42.0417 15.846 41.6379 15.8234 41.306C15.791 40.8997 15.859 40.5989 16.0275 40.4037C16.1946 40.1977 16.4109 40.0771 16.6763 40.0418C16.8886 40.0136 17.0868 40.0412 17.2708 40.1248C17.464 40.1964 17.603 40.3886 17.6878 40.7014C17.7819 41.0022 17.8465 41.4474 17.8817 42.037C18.2359 41.1255 18.6073 40.3036 18.9961 39.5712C19.3955 38.8373 19.8345 38.2387 20.3131 37.7753C21.1053 36.9892 21.857 36.5489 22.5684 36.4542C22.9718 36.4006 23.2492 36.4555 23.4006 36.619C23.552 36.7826 23.6405 36.9599 23.6659 37.151C23.6828 37.2784 23.6665 37.3994 23.6169 37.514C23.578 37.6273 23.476 37.7543 23.3111 37.8951C23.1461 38.0359 22.8906 38.2265 22.5444 38.4671C22.0793 38.7883 21.6301 39.1884 21.1968 39.6674C20.7742 40.145 20.367 40.7394 19.9754 41.4505C19.5838 42.1617 19.2067 43.0222 18.844 44.0321C18.4813 45.0419 18.1268 46.2344 17.7803 47.6095C17.7327 47.9831 17.6265 48.2404 17.4615 48.3812C17.3072 48.5205 17.1292 48.6037 16.9275 48.6305Z" fill="white"/>
<path d="M36.4058 47.4482C35.8695 47.4982 35.4535 47.3882 35.1579 47.1182C34.8622 46.8482 34.7 46.559 34.6713 46.2506C34.6376 45.8886 34.679 45.6075 34.7956 45.4073C34.9122 45.2071 35.1605 45.0419 35.5406 44.9118C36.0401 44.7571 36.5572 44.5736 37.092 44.3615C37.6401 44.1481 38.1608 43.9306 38.6541 43.7088C39.1595 43.4723 39.5979 43.2421 39.9692 43.0182C40.3393 42.7808 40.6034 42.5669 40.7615 42.3763C40.5357 42.2756 40.1807 42.1667 39.6964 42.0495C39.2109 41.919 38.6692 41.7666 38.0714 41.5924C37.4858 41.4035 36.9165 41.1725 36.3636 40.8995C35.8107 40.6264 35.3466 40.291 34.9715 39.8931C34.5963 39.4953 34.3831 39.0215 34.3318 38.4718C34.2606 37.7075 34.3882 36.9721 34.7145 36.2654C35.0409 35.5588 35.499 34.8872 36.0889 34.2507C36.6787 33.6142 37.3266 33.0196 38.0325 32.4669C38.7518 31.913 39.4687 31.4066 40.1833 30.9478C40.9101 30.4743 41.5608 30.0553 42.1354 29.6907C42.3509 29.5354 42.5573 29.4282 42.7547 29.3693C42.9642 29.2956 43.1561 29.2507 43.3304 29.2344C43.9338 29.1782 44.3632 29.287 44.6186 29.5607C44.874 29.8344 45.0161 30.1255 45.0449 30.4339C45.0648 30.6484 44.988 30.9126 44.8144 31.2263C44.6395 31.5266 44.3421 31.818 43.9221 32.1006C43.5155 32.3819 42.9619 32.6094 42.2613 32.7829C42.1419 32.8075 42.0359 32.8309 41.9433 32.8531C41.4319 33.1712 40.8854 33.5467 40.3036 33.9796C39.7218 34.4125 39.1754 34.8624 38.6644 35.3293C38.1655 35.7815 37.7606 36.225 37.4494 36.6598C37.1383 37.0945 36.9977 37.4728 37.0277 37.7945C37.0615 38.1566 37.2396 38.4713 37.562 38.7388C37.8833 38.9929 38.2831 39.2194 38.7614 39.4182C39.2519 39.6024 39.762 39.7781 40.2915 39.9451C40.8344 40.1109 41.3444 40.2865 41.8215 40.472C42.3108 40.6428 42.7154 40.8485 43.0354 41.0892C43.3553 41.3299 43.5309 41.6178 43.5622 41.953C43.6047 42.4089 43.4911 42.859 43.2214 43.3034C42.9518 43.7478 42.5858 44.1741 42.1234 44.5824C41.6598 44.9772 41.1461 45.3429 40.5824 45.6795C40.0187 46.016 39.4579 46.3117 38.9001 46.5666C38.357 46.8336 37.8625 47.042 37.4166 47.1917C36.9707 47.3415 36.6338 47.427 36.4058 47.4482ZM60.1466 34.22C60.1616 34.3809 60.121 34.5267 60.025 34.6573C59.929 34.788 59.8037 34.8944 59.649 34.9764C59.4298 35.0915 59.0455 35.249 58.4961 35.449C57.9467 35.649 57.2785 35.8803 56.4916 36.143C55.718 36.4044 54.8847 36.6782 53.9917 36.9643C53.0974 37.237 52.2025 37.5029 51.307 37.7622C51.0783 39.0819 50.8467 40.4424 50.6122 41.8438C50.3763 43.2317 50.1386 44.5996 49.8991 45.9473C49.8087 46.4291 49.6809 46.7994 49.5157 47.0582C49.3518 47.3305 49.0418 47.4878 48.5859 47.5303C48.0898 47.5766 47.7397 47.4469 47.5354 47.1414C47.3457 46.848 47.2862 46.4275 47.3569 45.8799C47.5694 44.3859 47.7643 42.995 47.9418 41.7072C48.1328 40.4181 48.2859 39.3759 48.4011 38.5808C47.6091 38.7898 46.9152 38.9627 46.3193 39.0993C45.7222 39.2226 45.2956 39.2894 45.0396 39.2998C44.7556 39.2992 44.5103 39.2071 44.3038 39.0234C44.0974 38.8398 43.9871 38.5999 43.973 38.3037C43.9749 38.033 44.0743 37.7938 44.2713 37.5861C44.4671 37.365 44.7106 37.2206 45.0019 37.1529C45.4138 37.0739 45.9445 36.9636 46.594 36.8219C47.2435 36.6802 47.9588 36.5189 48.7398 36.3379C48.8504 35.6379 48.9859 34.9152 49.1464 34.1699C49.3056 33.4112 49.4747 32.6854 49.6535 31.9925C49.8446 31.285 50.0303 30.6658 50.2108 30.1351C50.3912 29.6043 50.5647 29.2162 50.7312 28.9708C50.8624 28.7827 51.0309 28.6318 51.2367 28.5179C51.4559 28.4028 51.6728 28.3353 51.8873 28.3153C52.1689 28.2891 52.4062 28.3684 52.5992 28.5533C52.7923 28.7381 52.9013 28.9647 52.9263 29.2328C52.9363 29.3401 52.9402 29.4547 52.938 29.5766C52.9346 29.6851 52.9178 29.7949 52.8876 29.9059C52.6953 30.6 52.496 31.4369 52.2898 32.4163C52.0969 33.3945 51.8994 34.4679 51.6972 35.6363C52.6891 35.3951 53.6608 35.1558 54.6125 34.9183C55.5763 34.6662 56.4475 34.4362 57.226 34.2284C58.0168 34.006 58.6485 33.8186 59.1212 33.6664C59.3806 33.5475 59.6104 33.5464 59.8106 33.663C60.0096 33.7662 60.1216 33.9518 60.1466 34.22ZM58.7743 45.3434C58.3452 45.3834 57.9451 45.2989 57.574 45.0901C57.2042 44.8946 56.9012 44.6185 56.6651 44.2619C56.4277 43.8918 56.2884 43.4855 56.2472 43.043C56.1697 42.2117 56.2751 41.3836 56.5634 40.5588C56.8651 39.7328 57.2846 38.9363 57.8217 38.1694C58.3588 37.4026 58.9552 36.6911 59.6109 36.0349C60.2787 35.364 60.9479 34.781 61.6186 34.2857C62.3026 33.7891 62.9284 33.3927 63.4959 33.0964C64.0767 32.7988 64.5348 32.6344 64.87 32.6032C65.2588 32.5669 65.582 32.6247 65.8396 32.7765C66.1094 32.9137 66.2605 33.1566 66.293 33.5052C66.303 33.6125 66.2843 33.7021 66.2369 33.7741C66.4149 33.7981 66.5651 33.8856 66.6874 34.0365C66.8096 34.1874 66.8857 34.4237 66.9157 34.7455C66.9282 34.8796 66.9272 35.2313 66.9126 35.8007C66.8981 36.3701 66.8881 37.0608 66.8826 37.8728C66.8905 38.6835 66.9351 39.5247 67.0163 40.3962C67.0288 40.5303 67.0602 40.6491 67.1104 40.7526C67.1593 40.8427 67.2509 40.8815 67.385 40.869C67.9213 40.819 68.4543 40.6612 68.9841 40.3954C69.526 40.115 70.0434 39.7895 70.5363 39.419C71.0414 39.0338 71.4935 38.6603 71.8925 38.2985C72.3038 37.9221 72.6469 37.6129 72.9219 37.3708C73.209 37.1142 73.3995 36.9815 73.4934 36.9727C73.9492 36.9302 74.1984 37.1369 74.2409 37.5928C74.2522 37.7135 74.1284 37.982 73.8697 38.3983C73.6231 38.8 73.2749 39.272 72.825 39.8143C72.3739 40.3432 71.8624 40.8778 71.2906 41.4179C70.731 41.9435 70.137 42.391 69.5088 42.7606C68.8939 43.129 68.2848 43.3413 67.6814 43.3975C66.944 43.4662 66.3646 43.3444 65.9433 43.032C65.5354 42.7184 65.2235 42.2741 65.0076 41.6992C64.8039 41.1095 64.6603 40.4399 64.577 39.6903C63.9844 40.7328 63.3549 41.6706 62.6887 42.5036C62.0346 43.3219 61.3729 43.9854 60.7035 44.4941C60.0341 45.0028 59.391 45.2859 58.7743 45.3434ZM64.955 34.6037C63.6997 35.3563 62.5873 36.1903 61.6176 37.1056C60.6468 38.0076 59.8942 38.9298 59.3599 39.8722C58.839 40.8134 58.6166 41.6929 58.6929 42.5108C58.7141 42.7387 58.832 42.8427 59.0465 42.8227C59.3013 42.799 59.6227 42.6202 60.0109 42.2865C60.4125 41.9516 60.8388 41.5196 61.2899 40.9907C61.7398 40.4484 62.1847 39.8524 62.6246 39.2028C63.0632 38.5398 63.467 37.8665 63.8361 37.1829C64.2052 36.4993 64.4896 35.8507 64.6894 35.237C64.7633 35.0137 64.8518 34.8026 64.955 34.6037ZM73.9358 44.0522C73.6006 44.0834 73.3011 43.9896 73.0373 43.7707C72.7868 43.5506 72.6404 43.2126 72.5979 42.7568C72.5791 42.5556 72.5753 42.2246 72.5865 41.7638C72.6098 41.2882 72.6403 40.7444 72.6779 40.1323C72.7289 39.5189 72.7708 38.8794 72.8034 38.2136C72.8494 37.5466 72.8785 36.915 72.8905 36.3188C72.916 35.7214 72.9228 35.2136 72.9109 34.7954C72.8902 34.2834 72.9906 33.9089 73.2119 33.6719C73.432 33.4215 73.7097 33.2806 74.0449 33.2494C74.313 33.2244 74.5606 33.2689 74.7877 33.383C75.0268 33.4825 75.192 33.7308 75.2831 34.128C75.3864 34.5106 75.4456 35.0732 75.4607 35.8156C75.9507 34.688 76.458 33.6737 76.9826 32.7727C77.5207 31.8705 78.1018 31.1402 78.726 30.5816C79.7601 29.6332 80.7264 29.1171 81.6247 29.0334C82.1342 28.9859 82.4801 29.0686 82.6622 29.2816C82.8443 29.4945 82.9467 29.7217 82.9691 29.963C82.9841 30.1239 82.9577 30.2751 82.8897 30.4167C82.8352 30.557 82.7008 30.7116 82.4866 30.8803C82.2724 31.049 81.9419 31.2759 81.4951 31.561C80.8949 31.9416 80.3108 32.422 79.7428 33.0024C79.1881 33.5816 78.6472 34.3082 78.1201 35.1823C77.5929 36.0564 77.0766 37.1189 76.571 38.3697C76.0654 39.6205 75.561 41.1011 75.0577 42.8116C74.9795 43.2787 74.8333 43.5966 74.6191 43.7653C74.4183 43.9328 74.1906 44.0284 73.9358 44.0522ZM96.1341 30.8663C96.1491 31.0272 96.1086 31.173 96.0125 31.3036C95.9165 31.4343 95.7912 31.5406 95.6365 31.6227C95.4173 31.7378 95.0331 31.8953 94.4837 32.0953C93.9343 32.2953 93.2661 32.5266 92.4791 32.7893C91.7055 33.0507 90.8722 33.3245 89.9792 33.6106C89.0849 33.8832 88.19 34.1492 87.2945 34.4085C87.0659 35.7282 86.8342 37.0887 86.5997 38.49C86.3639 39.878 86.1262 41.2458 85.8866 42.5936C85.7962 43.0754 85.6685 43.4457 85.5032 43.7045C85.3393 43.9768 85.0293 44.1341 84.5735 44.1766C84.0774 44.2228 83.7272 44.0932 83.5229 43.7876C83.3332 43.4942 83.2738 43.0738 83.3445 42.5262C83.5569 41.0322 83.7518 39.6413 83.9294 38.3534C84.1203 37.0643 84.2734 36.0222 84.3886 35.227C83.5966 35.4361 82.9027 35.609 82.3068 35.7456C81.7097 35.8689 81.2831 35.9357 81.0271 35.946C80.7431 35.9455 80.4978 35.8534 80.2914 35.6697C80.0849 35.4861 79.9746 35.2462 79.9605 34.9499C79.9624 34.6793 80.0618 34.4401 80.2588 34.2324C80.4546 34.0113 80.6981 33.8669 80.9894 33.7991C81.4013 33.7202 81.932 33.6099 82.5815 33.4682C83.231 33.3265 83.9463 33.1652 84.7274 32.9842C84.8379 32.2841 84.9735 31.5615 85.1339 30.8162C85.2931 30.0575 85.4622 29.3317 85.641 28.6388C85.8321 27.9312 86.0178 27.3121 86.1983 26.7813C86.3787 26.2506 86.5522 25.8625 86.7187 25.6171C86.8499 25.429 87.0184 25.2781 87.2242 25.1642C87.4434 25.0491 87.6603 24.9816 87.8748 24.9616C88.1564 24.9353 88.3937 25.0147 88.5867 25.1995C88.7798 25.3844 88.8888 25.6109 88.9138 25.8791C88.9238 25.9864 88.9277 26.101 88.9255 26.2229C88.9221 26.3314 88.9053 26.4412 88.8751 26.5522C88.6828 27.2463 88.4835 28.0831 88.2773 29.0626C88.0844 30.0408 87.8869 31.1141 87.6847 32.2826C88.6766 32.0414 89.6483 31.802 90.6 31.5646C91.5638 31.3125 92.435 31.0825 93.2136 30.8747C94.0043 30.6522 94.636 30.4649 95.1087 30.3126C95.3681 30.1938 95.5979 30.1927 95.7982 30.3093C95.9971 30.4124 96.1091 30.5981 96.1341 30.8663ZM106.007 40.3331C105.658 40.3656 105.388 40.2218 105.195 39.9015C105.003 39.5813 104.867 38.9922 104.787 38.134C104.675 36.9273 104.63 35.6467 104.652 34.2921C104.687 32.9229 104.759 31.442 104.867 29.8495C104.979 28.5813 105.433 27.5721 106.228 26.8217C107.037 26.0701 108.153 25.4116 109.574 24.8464C110.461 24.4932 111.383 24.1571 112.341 23.8379C113.298 23.5188 114.2 23.2522 115.045 23.0381C115.903 22.8094 116.614 22.6688 117.177 22.6163C117.606 22.5764 117.947 22.6122 118.201 22.7237C118.455 22.8353 118.638 22.9873 118.751 23.1797C118.876 23.3574 118.945 23.5267 118.96 23.6876C118.984 23.9424 118.945 24.1759 118.843 24.3883C118.741 24.6007 118.494 24.7792 118.102 24.924C117.933 24.9939 117.573 25.1221 117.022 25.3086C116.483 25.4805 115.82 25.6911 115.032 25.9404C114.257 26.1884 113.437 26.4542 112.57 26.7378C111.703 27.008 110.863 27.2824 110.05 27.561C109.255 27.8786 108.679 28.2298 108.323 28.6146C107.979 28.9848 107.776 29.4973 107.715 30.1522C107.701 30.2887 107.692 30.479 107.687 30.7228C108.221 30.4973 108.798 30.3015 109.418 30.1355C110.038 29.9695 110.614 29.8347 111.145 29.7311C111.677 29.6275 112.07 29.5638 112.324 29.5401C112.592 29.5151 112.878 29.5358 113.182 29.6021C113.498 29.6538 113.771 29.7569 114.002 29.9112C114.245 30.0508 114.378 30.248 114.402 30.5028C114.425 30.7441 114.351 30.9741 114.182 31.1927C114.012 31.3979 113.647 31.6146 113.087 31.8426C112.97 31.8941 112.7 31.9733 112.277 32.0803C111.868 32.1861 111.38 32.3195 110.813 32.4805C110.259 32.6268 109.692 32.7878 109.113 32.9635C108.548 33.1379 108.05 33.3127 107.621 33.4881C107.594 34.2208 107.574 34.953 107.561 35.6845C107.548 36.4161 107.54 37.0525 107.537 37.5938C107.532 38.1217 107.522 38.454 107.508 38.5906C107.473 39.0942 107.315 39.5011 107.033 39.8114C106.751 40.1217 106.409 40.2956 106.007 40.3331ZM118.462 39.9027C118.127 39.9339 117.828 39.8401 117.564 39.6213C117.313 39.4012 117.167 39.0632 117.124 38.6073C117.106 38.4062 117.102 38.0752 117.113 37.6143C117.136 37.1388 117.167 36.5949 117.204 35.9828C117.255 35.3695 117.297 34.7299 117.33 34.0642C117.376 33.3972 117.405 32.7656 117.417 32.1694C117.443 31.5719 117.449 31.0641 117.437 30.6459C117.417 30.1339 117.517 29.7594 117.738 29.5224C117.959 29.272 118.236 29.1311 118.571 29.0999C118.84 29.0749 119.087 29.1195 119.314 29.2335C119.553 29.333 119.719 29.5813 119.81 29.9786C119.913 30.3612 119.972 30.9237 119.987 31.6661C120.477 30.5385 120.985 29.5242 121.509 28.6233C122.047 27.7211 122.628 26.9907 123.253 26.4321C124.287 25.4837 125.253 24.9676 126.151 24.8839C126.661 24.8364 127.007 24.9191 127.189 25.1321C127.371 25.345 127.473 25.5722 127.496 25.8135C127.511 25.9744 127.484 26.1257 127.416 26.2672C127.362 26.4076 127.227 26.5621 127.013 26.7308C126.799 26.8996 126.468 27.1265 126.022 27.4115C125.421 27.7921 124.837 28.2725 124.269 28.8529C123.715 29.4321 123.174 30.1587 122.647 31.0328C122.119 31.907 121.603 32.9694 121.098 34.2202C120.592 35.471 120.088 36.9516 119.584 38.6621C119.506 39.1292 119.36 39.4471 119.146 39.6158C118.945 39.7833 118.717 39.8789 118.462 39.9027ZM130.532 38.5547C129.58 38.6435 128.785 38.3795 128.146 37.7628C127.505 37.1327 127.132 36.2478 127.026 35.1081C126.992 34.7461 127.005 34.373 127.063 33.9888C127.136 33.6034 127.231 33.2429 127.348 32.9074C127.256 32.7942 127.175 32.6463 127.104 32.4636C127.045 32.2662 127.003 32.0334 126.978 31.7652C126.897 30.8937 126.977 30.0816 127.218 29.3288C127.457 28.5626 127.814 27.887 128.286 27.3019C128.759 26.7169 129.297 26.2475 129.9 25.8938C130.503 25.5401 131.126 25.3332 131.769 25.2732C132.869 25.1708 133.801 25.4558 134.567 26.1283C135.347 26.7995 135.809 27.9128 135.954 29.4681C136.026 30.2458 135.979 31.0481 135.813 31.8751C135.647 32.7021 135.39 33.5037 135.043 34.2798C134.708 35.0414 134.3 35.7354 133.817 36.3619C133.348 36.9872 132.827 37.4956 132.255 37.887C131.696 38.2772 131.122 38.4998 130.532 38.5547ZM129.577 31.7868C129.658 31.928 129.707 32.0992 129.726 32.3003C129.745 32.5015 129.724 32.713 129.663 32.9351C129.603 33.1571 129.549 33.4529 129.503 33.8224C129.455 34.1785 129.461 34.6851 129.523 35.342C129.539 35.5164 129.573 35.662 129.624 35.7789C129.688 35.8812 129.807 35.9242 129.981 35.9079C130.437 35.8654 130.852 35.678 131.227 35.3455C131.615 35.0118 131.948 34.5886 132.224 34.0759C132.515 33.562 132.746 32.9994 132.919 32.3882C133.104 31.7624 133.229 31.1354 133.292 30.5074C133.367 29.8647 133.38 29.2752 133.33 28.7389C133.297 28.3903 133.208 28.1552 133.061 28.0336C132.915 27.912 132.674 27.8668 132.339 27.8981C131.883 27.9406 131.427 28.1318 130.972 28.4717C130.529 28.797 130.17 29.2227 129.894 29.7488C129.617 30.2615 129.508 30.8262 129.565 31.443C129.576 31.5637 129.58 31.6783 129.577 31.7868ZM156.923 34.9593C156.91 35.6908 156.515 36.0928 155.737 36.1653C155.335 36.2028 155.002 36.1121 154.738 35.8932C154.488 35.6731 154.341 35.3351 154.299 34.8793C154.226 34.1016 154.182 33.2672 154.167 32.376C154.163 31.4701 154.173 30.5563 154.195 29.6346C154.231 28.7116 154.264 27.8294 154.294 26.9881C153.876 27.7303 153.433 28.4951 152.966 29.2826C152.498 30.07 152.028 30.8373 151.557 31.5845C151.086 32.3317 150.628 33.01 150.185 33.6194C149.753 34.2141 149.352 34.6978 148.981 35.0705C148.609 35.4298 148.288 35.6219 148.02 35.6469C147.377 35.7069 146.798 35.5241 146.285 35.0986C145.771 34.6596 145.48 34.0714 145.411 33.3339C145.387 33.0792 145.382 32.7348 145.396 32.3007C145.408 31.8533 145.431 31.3777 145.466 30.8741C145.5 30.3705 145.523 29.895 145.536 29.4475C145.548 29.0001 145.542 28.6489 145.519 28.3942C145.519 28.3942 145.517 28.3808 145.515 28.354C145.522 28.2857 145.505 28.2534 145.465 28.2572C145.412 28.2622 145.281 28.4569 145.073 28.8414C144.865 29.2125 144.612 29.6959 144.316 30.2915C144.02 30.8871 143.706 31.5115 143.375 32.1645C143.057 32.8162 142.755 33.4259 142.47 33.9935C142.198 34.5598 141.969 35.0004 141.782 35.3154C141.529 35.7988 141.281 36.1127 141.038 36.2571C140.794 36.4015 140.505 36.4893 140.17 36.5205C139.7 36.5643 139.317 36.4444 139.02 36.161C138.736 35.863 138.566 35.4257 138.513 34.8491C138.49 34.6078 138.495 34.2286 138.528 33.7116C138.575 33.1934 138.636 32.6196 138.713 31.9903C138.788 31.3476 138.865 30.7251 138.944 30.1226C139.036 29.5055 139.116 28.9841 139.184 28.5585C139.254 27.9975 139.386 27.5998 139.58 27.3652C139.787 27.1161 140.064 26.9752 140.413 26.9427C141.231 26.8665 141.677 27.2306 141.752 28.0351C141.766 28.1826 141.742 28.4283 141.679 28.7723C141.616 29.1162 141.539 29.5157 141.446 29.9707C141.353 30.4256 141.255 30.8946 141.151 31.3777C141.046 31.8473 140.965 32.2876 140.909 32.6986C141.178 32.1054 141.471 31.4696 141.786 30.791C142.101 30.1124 142.425 29.4466 142.756 28.7936C143.101 28.1394 143.444 27.5394 143.785 26.9936C144.14 26.4466 144.498 26.0075 144.86 25.6763C145.22 25.3317 145.574 25.1431 145.923 25.1106C146.271 25.0781 146.625 25.1737 146.984 25.3972C147.342 25.6073 147.646 25.8968 147.897 26.2656C148.16 26.6198 148.311 27.0114 148.351 27.4405C148.389 27.8427 148.38 28.3304 148.325 28.9036C148.27 29.4767 148.205 30.0779 148.128 30.7072C148.051 31.3364 148.014 31.9485 148.015 32.5435C148.424 31.9915 148.852 31.37 149.302 30.6789C149.75 29.9744 150.21 29.2486 150.681 28.5014C151.153 27.7542 151.613 27.0283 152.061 26.3238C152.523 25.6181 152.95 24.9765 153.342 24.3989C153.748 23.8201 154.111 23.3603 154.431 23.0194C154.749 22.6651 155.003 22.4792 155.19 22.4617C155.74 22.4105 156.183 22.518 156.519 22.7842C156.867 23.0358 157.074 23.5169 157.14 24.2276C157.181 24.67 157.202 25.2497 157.201 25.9666C157.213 26.6822 157.205 27.4607 157.175 28.302C157.157 29.1286 157.128 29.9699 157.086 30.8259C157.056 31.6672 157.027 32.4475 156.999 33.1669C156.972 33.8863 156.946 34.4837 156.923 34.9593ZM171.561 21.707C170.918 21.767 170.436 21.751 170.117 21.659C169.809 21.5525 169.6 21.4164 169.49 21.2508C169.392 21.0706 169.336 20.9068 169.323 20.7593C169.305 20.5715 169.392 20.347 169.584 20.0857C169.775 19.8109 170.173 19.5845 170.779 19.4063C171.383 19.2148 172.103 19.026 172.937 18.84C173.771 18.6406 174.66 18.4563 175.604 18.2872C176.548 18.1046 177.506 17.9342 178.478 17.7759C179.451 17.6177 180.378 17.4839 181.261 17.3746C182.142 17.2519 182.924 17.1587 183.608 17.095C184.319 17.0288 184.872 17.0178 185.268 17.062C185.665 17.1062 185.949 17.1811 186.121 17.2868C186.307 17.3912 186.419 17.5093 186.459 17.6408C186.511 17.7712 186.543 17.8967 186.554 18.0173C186.557 18.0442 186.559 18.0643 186.56 18.0777C186.575 18.2386 186.551 18.4166 186.488 18.6118C186.439 18.8058 186.299 18.9811 186.071 19.1376C185.84 19.2808 185.484 19.3749 185.001 19.4199C184.827 19.4361 184.441 19.4992 183.842 19.609C183.244 19.7189 182.513 19.8547 181.649 20.0163C180.785 20.178 179.867 20.3447 178.896 20.5163C178.804 21.1334 178.702 21.853 178.59 22.675C178.49 23.4957 178.388 24.3573 178.283 25.2597C178.191 26.1609 178.105 27.048 178.024 27.9211C177.942 28.7809 177.881 29.5777 177.841 30.3118C177.8 31.0324 177.78 31.6225 177.783 32.0821C177.786 32.7039 177.646 33.1565 177.361 33.44C177.089 33.7089 176.805 33.857 176.51 33.8845C176.296 33.9045 176.077 33.8776 175.853 33.8037C175.631 33.7433 175.44 33.5785 175.28 33.3094C175.118 33.0269 175.011 32.5974 174.957 32.0209C174.902 31.4309 174.888 30.7019 174.915 29.8338C174.942 28.9522 174.995 28.0072 175.077 26.9988C175.173 25.9891 175.287 24.9708 175.422 23.944C175.569 22.9159 175.73 21.9542 175.903 21.0589C175.011 21.2097 174.185 21.3475 173.426 21.4723C172.666 21.5838 172.044 21.662 171.561 21.707ZM187.658 33.2514C186.826 33.3289 186.129 33.1031 185.566 32.574C185.001 32.0315 184.659 31.11 184.537 29.8094C184.46 28.9781 184.476 28.1381 184.587 27.2893C184.709 26.4258 184.91 25.6024 185.188 24.8191C185.479 24.0211 185.832 23.3052 186.246 22.6715C186.674 22.0366 187.16 21.5246 187.705 21.1357C188.249 20.7334 188.83 20.5035 189.447 20.446C190.492 20.3485 191.337 20.5539 191.979 21.062C192.621 21.5702 192.983 22.26 193.065 23.1316C193.127 23.802 192.996 24.4295 192.672 25.0143C192.36 25.5843 191.909 26.1132 191.319 26.601C190.728 27.0888 190.061 27.5433 189.315 27.9643C188.57 28.3854 187.802 28.7749 187.01 29.1327C186.988 29.6216 186.995 30.0538 187.03 30.4292C187.051 30.6571 187.189 30.7592 187.444 30.7355C188.047 30.6793 188.682 30.5254 189.348 30.274C190.027 30.0079 190.707 29.6876 191.389 29.3129C192.069 28.9249 192.723 28.5327 193.348 28.1363C193.973 27.7264 194.539 27.3423 195.046 26.984C195.566 26.6109 195.992 26.3143 196.323 26.0941C196.666 25.8593 196.891 25.7368 196.999 25.7268C197.294 25.6993 197.516 25.7665 197.667 25.9283C197.817 26.0901 197.901 26.2716 197.92 26.4727C197.929 26.5666 197.767 26.7913 197.435 27.1468C197.117 27.5011 196.669 27.9282 196.094 28.4281C195.531 28.9134 194.889 29.4263 194.168 29.9668C193.46 30.4927 192.716 31.0015 191.937 31.4934C191.17 31.9706 190.415 32.3655 189.674 32.6781C188.947 33.0028 188.275 33.1939 187.658 33.2514ZM187.185 27.3108C187.705 26.9378 188.217 26.552 188.721 26.1534C189.237 25.7401 189.655 25.2954 189.976 24.8192C190.295 24.3296 190.427 23.7831 190.371 23.1797C190.355 23.0054 190.297 22.8958 190.198 22.8509C190.098 22.7926 189.961 22.7716 189.787 22.7879C189.317 22.8316 188.908 23.0794 188.557 23.5313C188.221 23.9819 187.936 24.5495 187.702 25.234C187.48 25.9038 187.308 26.5961 187.185 27.3108ZM214.707 29.5743C214.694 30.3058 214.299 30.7078 213.521 30.7803C213.119 30.8178 212.786 30.7271 212.522 30.5083C212.272 30.2881 212.125 29.9502 212.083 29.4943C212.01 28.7166 211.966 27.8822 211.951 26.991C211.948 26.0852 211.957 25.1714 211.979 24.2496C212.015 23.3266 212.048 22.4445 212.078 21.6032C211.66 22.3454 211.217 23.1102 210.75 23.8976C210.282 24.685 209.813 25.4524 209.341 26.1996C208.87 26.9468 208.412 27.625 207.969 28.2344C207.537 28.8291 207.136 29.3128 206.765 29.6855C206.393 30.0448 206.073 30.2369 205.804 30.2619C205.161 30.3219 204.583 30.1391 204.07 29.7136C203.555 29.2746 203.264 28.6864 203.195 27.949C203.171 27.6942 203.166 27.3498 203.18 26.9157C203.192 26.4683 203.216 25.9927 203.25 25.4891C203.284 24.9855 203.307 24.51 203.32 24.0625C203.332 23.6151 203.326 23.264 203.303 23.0092C203.303 23.0092 203.301 22.9958 203.299 22.969C203.306 22.9007 203.29 22.8684 203.249 22.8722C203.196 22.8772 203.065 23.0719 202.858 23.4564C202.649 23.8275 202.396 24.3109 202.1 24.9065C201.804 25.5022 201.49 26.1265 201.159 26.7795C200.841 27.4313 200.539 28.0409 200.254 28.6085C199.982 29.1748 199.753 29.6154 199.566 29.9304C199.313 30.4138 199.065 30.7277 198.822 30.8721C198.578 31.0165 198.289 31.1043 197.954 31.1356C197.484 31.1793 197.101 31.0595 196.804 30.7761C196.52 30.478 196.35 30.0407 196.297 29.4642C196.274 29.2228 196.279 28.8436 196.312 28.3266C196.359 27.8084 196.42 27.2346 196.497 26.6053C196.572 25.9627 196.649 25.3401 196.729 24.7377C196.82 24.1205 196.9 23.5992 196.968 23.1735C197.038 22.6125 197.17 22.2148 197.364 21.9803C197.571 21.7311 197.849 21.5902 198.197 21.5578C199.015 21.4815 199.462 21.8457 199.536 22.6502C199.55 22.7976 199.526 23.0434 199.463 23.3873C199.401 23.7313 199.323 24.1307 199.23 24.5857C199.137 25.0407 199.039 25.5096 198.935 25.9927C198.83 26.4623 198.749 26.9026 198.693 27.3136C198.962 26.7205 199.255 26.0846 199.57 25.406C199.886 24.7275 200.209 24.0617 200.54 23.4087C200.885 22.7544 201.228 22.1544 201.57 21.6086C201.924 21.0616 202.282 20.6225 202.644 20.2913C203.004 19.9467 203.358 19.7582 203.707 19.7257C204.055 19.6932 204.409 19.7887 204.768 20.0122C205.126 20.2223 205.43 20.5118 205.681 20.8806C205.944 21.2348 206.095 21.6264 206.135 22.0555C206.173 22.4577 206.164 22.9454 206.109 23.5186C206.054 24.0917 205.989 24.6929 205.912 25.3222C205.836 25.9515 205.798 26.5636 205.799 27.1585C206.208 26.6065 206.637 25.985 207.086 25.2939C207.534 24.5895 207.994 23.8636 208.466 23.1164C208.937 22.3692 209.397 21.6434 209.845 20.9389C210.307 20.2331 210.734 19.5915 211.126 19.0139C211.532 18.4351 211.895 17.9753 212.215 17.6344C212.534 17.2801 212.787 17.0942 212.974 17.0767C213.524 17.0255 213.967 17.133 214.303 17.3993C214.651 17.6508 214.858 18.132 214.924 18.8426C214.965 19.2851 214.986 19.8647 214.985 20.5816C214.997 21.2972 214.989 22.0757 214.959 22.917C214.941 23.7436 214.912 24.5849 214.87 25.4409C214.84 26.2822 214.811 27.0625 214.784 27.7819C214.756 28.5013 214.73 29.0988 214.707 29.5743ZM219.388 36.1167C219.013 36.1517 218.706 36.0451 218.466 35.7969C218.241 35.5609 218.104 35.1748 218.054 34.6384C217.985 33.901 217.97 33.0165 218.009 31.985C218.049 30.9535 218.129 29.8573 218.251 28.6963C218.372 27.5354 218.516 26.3927 218.682 25.2682C218.886 23.9779 219.094 22.8021 219.307 21.741C219.532 20.6785 219.777 19.8239 220.041 19.1772C220.318 18.5158 220.624 18.1694 220.959 18.1382C221.267 18.1095 221.546 18.1984 221.795 18.4051C222.057 18.5972 222.207 18.9077 222.247 19.3368C222.276 19.6452 222.237 20.0951 222.13 20.6867C222.021 21.2648 221.886 21.9875 221.723 22.8547C222.109 22.0614 222.51 21.2802 222.925 20.5111C223.353 19.7409 223.795 19.037 224.249 18.3996C224.704 17.7621 225.156 17.2466 225.607 16.853C226.057 16.4594 226.496 16.2426 226.926 16.2027C227.435 16.1552 227.898 16.2608 228.314 16.5196C228.744 16.777 229.097 17.1499 229.372 17.6382C229.647 18.1265 229.815 18.6924 229.875 19.336C229.986 20.5293 229.88 21.7091 229.556 22.8754C229.23 24.0282 228.727 25.0827 228.045 26.0389C227.377 26.9938 226.564 27.7796 225.607 28.3962C224.649 28.9994 223.587 29.3554 222.42 29.4641C222.085 29.4954 221.773 29.4906 221.486 29.4498C221.212 29.4211 220.958 29.3772 220.723 29.318C220.642 30.1911 220.569 31.0837 220.506 31.9958C220.457 32.9201 220.405 33.8919 220.351 34.9112C220.259 35.6637 219.938 36.0655 219.388 36.1167ZM227.348 18.5572C227.053 18.5846 226.696 18.8208 226.278 19.2655C225.873 19.709 225.439 20.2836 224.978 20.9893C224.515 21.6816 224.051 22.4349 223.586 23.2491C223.133 24.0487 222.699 24.833 222.283 25.6021C221.882 26.3698 221.538 27.0375 221.253 27.6051C222.262 27.4028 223.135 27.051 223.873 26.5494C224.609 26.0345 225.223 25.4363 225.714 24.7549C226.205 24.0735 226.586 23.3685 226.856 22.6401C227.138 21.897 227.329 21.1827 227.427 20.4973C227.526 19.8119 227.552 19.2211 227.505 18.725C227.494 18.6044 227.442 18.5484 227.348 18.5572ZM236.999 28.9778C235.793 29.0902 234.806 28.8102 234.04 28.1378C233.287 27.4506 232.845 26.4165 232.717 25.0355C232.647 24.2847 232.665 23.397 232.773 22.3727C232.879 21.3349 233.041 20.2379 233.257 19.0816C233.486 17.9107 233.737 16.7513 234.008 15.6035C234.294 14.4543 234.579 13.3863 234.866 12.3993C235.153 11.4124 235.407 10.584 235.629 9.91414C235.824 9.39555 236.143 9.11564 236.585 9.0744C236.867 9.04816 237.103 9.11407 237.293 9.27214C237.497 9.42895 237.617 9.70177 237.653 10.0906C237.671 10.2783 237.615 10.696 237.486 11.3437C237.357 11.9914 237.182 12.7922 236.96 13.7461C236.75 14.6853 236.52 15.7008 236.27 16.7925C236.033 17.883 235.811 18.9789 235.602 20.0803C235.407 21.1805 235.26 22.2153 235.161 23.1847C235.061 24.1408 235.042 24.9473 235.103 25.6043C235.128 25.8725 235.221 26.0802 235.384 26.2273C235.56 26.3732 235.775 26.4343 236.03 26.4106C236.58 26.3593 237.133 26.2063 237.691 25.9514C238.262 25.6953 238.815 25.3869 239.35 25.026C239.897 24.6639 240.41 24.2848 240.887 23.8887C241.364 23.4926 241.789 23.1216 242.163 22.7757C242.548 22.4152 242.86 22.1292 243.097 21.9177C243.409 21.6317 243.625 21.4831 243.745 21.4719C244.201 21.4294 244.45 21.6294 244.491 22.0719C244.501 22.1791 244.387 22.4129 244.151 22.773C243.95 23.0893 243.663 23.4947 243.29 23.9893C242.917 24.4839 242.479 25.0116 241.977 25.5723C241.487 26.1184 240.954 26.6414 240.379 27.1414C239.816 27.6401 239.247 28.0583 238.67 28.3961C238.093 28.7339 237.536 28.9278 236.999 28.9778ZM244.609 28.0252C244.18 28.0652 243.78 27.9808 243.409 27.7719C243.039 27.5765 242.736 27.3004 242.5 26.9437C242.262 26.5736 242.123 26.1673 242.082 25.7249C242.004 24.8936 242.11 24.0655 242.398 23.2407C242.7 22.4146 243.119 21.6181 243.656 20.8513C244.193 20.0844 244.79 19.3729 245.445 18.7167C246.113 18.0459 246.782 17.4628 247.453 16.9675C248.137 16.471 248.763 16.0746 249.33 15.7782C249.911 15.4807 250.369 15.3163 250.705 15.285C251.093 15.2488 251.417 15.3066 251.674 15.4584C251.944 15.5955 252.095 15.8384 252.127 16.187C252.137 16.2943 252.119 16.384 252.071 16.456C252.249 16.48 252.4 16.5674 252.522 16.7183C252.644 16.8692 252.72 17.1056 252.75 17.4274C252.763 17.5615 252.762 17.9132 252.747 18.4826C252.733 19.052 252.723 19.7427 252.717 20.5546C252.725 21.3654 252.77 22.2065 252.851 23.078C252.863 23.2121 252.895 23.3309 252.945 23.4344C252.994 23.5245 253.085 23.5634 253.219 23.5509C253.756 23.5009 254.289 23.343 254.819 23.0772C255.36 22.7968 255.878 22.4714 256.371 22.1008C256.876 21.7156 257.328 21.3422 257.727 20.9804C258.138 20.6039 258.481 20.2947 258.756 20.0527C259.044 19.796 259.234 19.6633 259.328 19.6546C259.784 19.6121 260.033 19.8188 260.075 20.2746C260.087 20.3953 259.963 20.6638 259.704 21.0801C259.458 21.4818 259.109 21.9538 258.66 22.4961C258.208 23.0251 257.697 23.5596 257.125 24.0998C256.566 24.6253 255.972 25.0729 255.343 25.4425C254.728 25.8108 254.119 26.0231 253.516 26.0794C252.779 26.1481 252.199 26.0263 251.778 25.7139C251.37 25.4003 251.058 24.956 250.842 24.381C250.638 23.7914 250.495 23.1218 250.411 22.3722C249.819 23.4147 249.189 24.3524 248.523 25.1854C247.869 26.0038 247.207 26.6673 246.538 27.176C245.869 27.6847 245.226 27.9677 244.609 28.0252ZM250.789 17.2855C249.534 18.0381 248.422 18.8721 247.452 19.7875C246.481 20.6895 245.729 21.6116 245.194 22.554C244.674 23.4952 244.451 24.3747 244.527 25.1926C244.549 25.4206 244.667 25.5246 244.881 25.5046C245.136 25.4808 245.457 25.3021 245.845 24.9684C246.247 24.6334 246.673 24.2015 247.124 23.6725C247.574 23.1302 248.019 22.5342 248.459 21.8846C248.898 21.2216 249.302 20.5483 249.671 19.8648C250.04 19.1812 250.324 18.5326 250.524 17.9189C250.598 17.6956 250.686 17.4845 250.789 17.2855ZM272.231 14.4555C272.246 14.6164 272.206 14.7622 272.11 14.8929C272.014 15.0236 271.889 15.1299 271.734 15.2119C271.515 15.327 271.13 15.4846 270.581 15.6846C270.032 15.8845 269.363 16.1158 268.576 16.3785C267.803 16.64 266.97 16.9137 266.077 17.1998C265.182 17.4725 264.287 17.7385 263.392 17.9978C263.163 19.3174 262.932 20.6779 262.697 22.0793C262.461 23.4673 262.224 24.8351 261.984 26.1829C261.894 26.6646 261.766 27.0349 261.601 27.2938C261.437 27.566 261.127 27.7234 260.671 27.7659C260.175 27.8121 259.825 27.6825 259.62 27.3769C259.431 27.0835 259.371 26.663 259.442 26.1155C259.654 24.6215 259.849 23.2306 260.027 21.9427C260.218 20.6536 260.371 19.6115 260.486 18.8163C259.694 19.0254 259 19.1982 258.404 19.3349C257.807 19.4582 257.381 19.525 257.125 19.5353C256.84 19.5347 256.595 19.4426 256.389 19.259C256.182 19.0754 256.072 18.8354 256.058 18.5392C256.06 18.2685 256.159 18.0294 256.356 17.8217C256.552 17.6005 256.796 17.4561 257.087 17.3884C257.499 17.3095 258.029 17.1991 258.679 17.0575C259.328 16.9158 260.044 16.7545 260.825 16.5735C260.935 15.8734 261.071 15.1507 261.231 14.4055C261.391 13.6468 261.56 12.921 261.738 12.2281C261.929 11.5205 262.115 10.9014 262.296 10.3706C262.476 9.83986 262.65 9.45177 262.816 9.20633C262.947 9.01828 263.116 8.86733 263.322 8.75348C263.541 8.63839 263.758 8.57084 263.972 8.55085C264.254 8.52461 264.491 8.60393 264.684 8.78881C264.877 8.97368 264.986 9.2002 265.011 9.46837C265.021 9.57563 265.025 9.69023 265.023 9.81215C265.02 9.92066 265.003 10.0304 264.972 10.1414C264.78 10.8356 264.581 11.6724 264.375 12.6519C264.182 13.6301 263.984 14.7034 263.782 15.8718C264.774 15.6306 265.746 15.3913 266.697 15.1539C267.661 14.9017 268.532 14.6718 269.311 14.464C270.102 14.2415 270.733 14.0542 271.206 13.9019C271.466 13.7831 271.695 13.7819 271.896 13.8985C272.094 14.0017 272.206 14.1874 272.231 14.4555ZM273.48 25.2536C272.648 25.331 271.951 25.1052 271.388 24.5762C270.823 24.0337 270.48 23.1122 270.359 21.8116C270.282 20.9803 270.298 20.1402 270.408 19.2914C270.531 18.428 270.731 17.6046 271.01 16.8212C271.301 16.0232 271.653 15.3074 272.068 14.6737C272.495 14.0387 272.982 13.5268 273.527 13.1379C274.071 12.7355 274.652 12.5056 275.268 12.4481C276.314 12.3507 277.158 12.556 277.801 13.0642C278.443 13.5724 278.805 14.2622 278.886 15.1337C278.949 15.8041 278.818 16.4317 278.494 17.0164C278.182 17.5865 277.731 18.1154 277.14 18.6032C276.55 19.091 275.882 19.5454 275.137 19.9665C274.392 20.3876 273.624 20.777 272.832 21.1348C272.81 21.6238 272.816 22.0559 272.851 22.4314C272.873 22.6593 273.011 22.7614 273.265 22.7377C273.869 22.6814 274.504 22.5276 275.17 22.2762C275.848 22.0101 276.529 21.6897 277.211 21.3151C277.891 20.9271 278.544 20.5349 279.17 20.1384C279.795 19.7286 280.361 19.3445 280.868 18.9861C281.388 18.6131 281.813 18.3165 282.145 18.0963C282.488 17.8614 282.713 17.739 282.82 17.729C283.115 17.7015 283.338 17.7687 283.488 17.9305C283.639 18.0923 283.723 18.2737 283.742 18.4749C283.751 18.5687 283.589 18.7934 283.257 19.149C282.938 19.5032 282.491 19.9304 281.916 20.4303C281.352 20.9156 280.71 21.4285 279.99 21.969C279.282 22.4948 278.538 23.0037 277.759 23.4956C276.992 23.9728 276.237 24.3677 275.495 24.6803C274.768 25.005 274.096 25.1961 273.48 25.2536ZM273.007 19.313C273.527 18.9399 274.039 18.5541 274.543 18.1555C275.059 17.7423 275.477 17.2976 275.798 16.8214C276.117 16.3317 276.249 15.7853 276.193 15.1819C276.176 15.0076 276.119 14.898 276.02 14.8531C275.92 14.7948 275.783 14.7738 275.608 14.79C275.139 14.8338 274.729 15.0816 274.379 15.5335C274.043 15.9841 273.757 16.5517 273.524 17.2361C273.302 17.906 273.13 18.5982 273.007 19.313Z" fill="white"/>
</svg>
