<svg width="363" height="84" fill="none" xmlns="http://www.w3.org/2000/svg"><path d="M93.545 27.14a2.937 2.937 0 0 1-1.832-.32c-.548-.303-1.007-.758-1.38-1.366-.363-.61-.6-1.33-.71-2.16a4.305 4.305 0 0 1 .024-1.3c.082-.444.2-.863.354-1.26.153-.405.316-.77.49-1.093-.09-.101-.15-.267-.18-.498-.03-.23.032-.502.188-.814.156-.312.386-.625.693-.938a4.67 4.67 0 0 1 1.102-.823 3.982 3.982 0 0 1 1.405-.455c.84-.111 1.575-.026 2.205.257.63.282 1.13.7 1.505 1.251.382.541.619 1.158.711 1.85.133.997.098 1.937-.104 2.819a7.35 7.35 0 0 1-.981 2.37 6.074 6.074 0 0 1-1.578 1.705 4.23 4.23 0 0 1-1.912.775Zm-1.392-8.876a.224.224 0 0 1 .074.131.335.335 0 0 1-.044.203c-.028.07-.064.15-.109.24-.145.245-.296.56-.451.948-.146.386-.278.807-.396 1.265-.108.456-.187.922-.236 1.398-.051.467-.049.909.007 1.324.094.71.332 1.266.715 1.666.38.391.89.544 1.526.46.48-.064.922-.24 1.325-.529.413-.29.773-.652 1.082-1.088.316-.446.576-.927.78-1.443a7.403 7.403 0 0 0 .422-1.592 5.44 5.44 0 0 0 .025-1.511 3.29 3.29 0 0 0-.473-1.332 2.505 2.505 0 0 0-.981-.913c-.404-.21-.869-.279-1.395-.209-.443.06-.817.184-1.12.375-.296.18-.546.382-.75.607Zm9.616 7.797a.475.475 0 0 1-.397-.13c-.118-.107-.191-.267-.219-.48a5.026 5.026 0 0 1-.006-.787c.024-.38.046-.82.064-1.32.027-.501.038-1.02.033-1.554a13.054 13.054 0 0 0-.108-1.55c-.032-.24.005-.424.11-.55a.621.621 0 0 1 .405-.238c.148-.02.271.058.37.233.098.175.161.543.188 1.103.3-.999.665-1.818 1.097-2.457.44-.65.897-1.134 1.371-1.451.474-.326.913-.516 1.32-.57.267-.036.469-.006.603.088.143.085.223.192.24.32a.481.481 0 0 1-.166.446c-.126.11-.356.254-.69.43-.385.21-.734.445-1.048.703a4.497 4.497 0 0 0-.848.93 7.08 7.08 0 0 0-.703 1.39 14.258 14.258 0 0 0-.608 1.998 43.047 43.047 0 0 0-.555 2.822c-.028.21-.083.363-.165.458a.418.418 0 0 1-.288.166ZM4.957 71.928c-.291.028-.538-.032-.74-.178-.189-.135-.292-.296-.31-.482-.019-.21-.004-.37.044-.48.06-.124.197-.219.414-.286.536-.18 1.088-.384 1.654-.613a27.417 27.417 0 0 0 1.608-.732c.494-.258.888-.5 1.185-.728.308-.228.455-.419.44-.57-.012-.14-.153-.262-.422-.367-.27-.116-.61-.237-1.021-.363a68.695 68.695 0 0 1-1.328-.423 8.897 8.897 0 0 1-1.34-.563c-.42-.22-.774-.48-1.06-.784a1.868 1.868 0 0 1-.493-1.118 3.819 3.819 0 0 1 .314-1.934A6.986 6.986 0 0 1 5.06 60.54a13.083 13.083 0 0 1 1.638-1.546c.612-.492 1.218-.93 1.818-1.316.61-.398 1.153-.748 1.63-1.051a1.761 1.761 0 0 1 .852-.327c.338-.031.59.022.756.16a.723.723 0 0 1 .276.503c.015.163-.054.363-.209.601-.155.226-.388.436-.7.63-.31.194-.694.312-1.148.354l-.14.013a21.14 21.14 0 0 0-1.224.873c-.44.335-.87.698-1.292 1.09-.423.392-.809.793-1.159 1.202a7.13 7.13 0 0 0-.811 1.134c-.19.359-.272.678-.246.958.031.338.188.63.47.873.28.245.63.453 1.046.626.427.172.872.336 1.333.493.474.156.918.32 1.334.493.427.16.78.351 1.059.572.278.21.432.472.461.786.034.362-.062.718-.288 1.068-.215.35-.513.683-.895 1-.383.307-.81.594-1.278.86-.459.255-.914.48-1.366.675-.453.195-.861.35-1.227.467-.354.115-.618.181-.793.197Zm7.897-6.963c-.317.006-.481-.184-.494-.571.003-.095.057-.211.161-.35.104-.151.231-.24.381-.265.359-.069.797-.163 1.315-.281.529-.132 1.109-.28 1.74-.445a35.57 35.57 0 0 1 .252-1.84c.105-.645.228-1.274.371-1.887.142-.625.3-1.193.477-1.703.175-.51.373-.917.591-1.22a1.24 1.24 0 0 1 .326-.294c.1-.068.19-.106.271-.114a.44.44 0 0 1 .405.174.77.77 0 0 1 .201.458.796.796 0 0 1-.026.285 37.417 37.417 0 0 0-.527 2.483c-.18.981-.368 2.051-.565 3.21a155.72 155.72 0 0 0 3.165-.86 109.58 109.58 0 0 0 2.713-.799c.213-.114.383-.112.512.006.14.116.216.238.228.366.015.163-.02.29-.105.38-.074.09-.155.168-.243.235l-.016.019a10.68 10.68 0 0 1-1.018.43c-.456.16-.98.338-1.574.535a83.046 83.046 0 0 1-3.883 1.103c-.173 1.05-.349 2.131-.527 3.242a412.435 412.435 0 0 1-.51 3.24c-.078.43-.187.706-.329.825a.7.7 0 0 1-.438.217.674.674 0 0 1-.51-.164c-.14-.128-.185-.412-.132-.852l.721-6.083c-.69.17-1.3.304-1.833.4-.52.096-.887.136-1.1.12Zm11.043 5.075c-.444.041-.83-.129-1.16-.51-.318-.393-.509-.922-.57-1.587a4.087 4.087 0 0 1 .283-1.879 8.198 8.198 0 0 1 1.079-1.864c.46-.608.972-1.173 1.535-1.696a15.36 15.36 0 0 1 1.703-1.41 13.092 13.092 0 0 1 1.62-.98c.495-.247.893-.384 1.197-.412.163-.015.3.007.412.067.11.049.173.154.188.318a.447.447 0 0 1-.095.308c.012 0 .024-.002.035-.003.257-.024.4.116.427.42.01.104-.01.324-.062.657-.052.323-.108.728-.169 1.216-.06.488-.104 1.027-.131 1.617-.029.58-.015 1.166.04 1.76.047.502.263.735.648.699.431-.04.859-.18 1.284-.42.424-.24.833-.518 1.227-.837.393-.33.75-.652 1.074-.965.323-.324.597-.596.824-.817.226-.221.392-.337.497-.347a.372.372 0 0 1 .253.065c.075.052.119.142.13.27.012.117-.085.337-.29.662a12.466 12.466 0 0 1-2.02 2.358 8.145 8.145 0 0 1-1.387 1.03c-.48.28-.947.44-1.401.483-.35.032-.68-.043-.992-.226-.3-.195-.562-.547-.786-1.055-.212-.51-.361-1.225-.447-2.146l-.04-.437a23.61 23.61 0 0 1-1.56 2.756c-.546.839-1.106 1.52-1.68 2.044-.563.523-1.118.81-1.666.86Zm5.472-9.048a7.693 7.693 0 0 0-.235.128c-.514.294-1.045.65-1.595 1.066-.537.414-1.06.868-1.566 1.363-.495.493-.936.998-1.323 1.517a7.135 7.135 0 0 0-.896 1.547c-.211.514-.295 1.004-.252 1.47a.598.598 0 0 0 .12.342c.078.075.198.105.362.09.233-.022.522-.196.868-.522.345-.338.716-.773 1.114-1.304.409-.532.813-1.116 1.212-1.753.4-.637.775-1.278 1.127-1.922.363-.646.672-1.239.928-1.78.038-.086.084-.167.136-.242Zm6.73 7.787a.599.599 0 0 1-.493-.183c-.142-.14-.226-.344-.25-.612-.02-.198-.009-.528.03-.99.05-.476.099-1.027.146-1.655.06-.629.099-1.28.118-1.951.019-.684 0-1.335-.058-1.953-.029-.303.027-.532.165-.686a.783.783 0 0 1 .521-.278c.187-.017.337.087.452.311.115.225.176.69.183 1.394.426-1.239.926-2.25 1.5-3.032.584-.796 1.182-1.38 1.794-1.755.61-.387 1.173-.604 1.686-.651.338-.032.59.015.754.141.175.113.27.251.285.414a.607.607 0 0 1-.23.551c-.165.133-.46.302-.888.506a8.473 8.473 0 0 0-1.352.832 5.664 5.664 0 0 0-1.112 1.127c-.334.454-.651 1.025-.952 1.711-.302.675-.589 1.502-.863 2.48-.273.978-.552 2.15-.836 3.518-.046.263-.122.452-.23.568a.526.526 0 0 1-.37.193Zm5.06-6.451c-.317.005-.482-.185-.495-.572.003-.094.057-.21.162-.35a.578.578 0 0 1 .381-.265c.358-.069.796-.162 1.315-.281.528-.132 1.108-.28 1.74-.445.063-.582.147-1.195.252-1.84.104-.645.228-1.274.37-1.887.142-.625.301-1.192.477-1.703.176-.51.373-.916.592-1.219a1.24 1.24 0 0 1 .325-.295c.1-.068.19-.106.272-.113a.44.44 0 0 1 .404.174.77.77 0 0 1 .202.457.797.797 0 0 1-.027.285 37.308 37.308 0 0 0-.527 2.483c-.179.981-.367 2.052-.565 3.21a154.89 154.89 0 0 0 3.166-.859c1.054-.298 1.958-.564 2.712-.8.213-.113.384-.112.513.006.14.116.216.238.228.367.015.163-.02.29-.106.38-.074.09-.155.167-.243.234l-.016.02c-.224.114-.563.258-1.018.43-.455.16-.98.338-1.573.534-.594.185-1.23.373-1.905.566-.665.191-1.324.37-1.979.537-.172 1.05-.348 2.132-.527 3.242a412.402 412.402 0 0 1-.51 3.24c-.077.431-.187.706-.328.825a.699.699 0 0 1-.439.217.674.674 0 0 1-.509-.164c-.141-.128-.185-.412-.132-.852l.72-6.083c-.69.17-1.3.304-1.832.4-.52.096-.887.136-1.1.12Zm20.83 3.739c-.246.023-.47-.104-.671-.379-.202-.275-.344-.85-.425-1.724-.075-.805-.111-1.819-.108-3.042.015-1.236.075-2.606.182-4.11.065-.688.252-1.27.56-1.745.32-.477.752-.894 1.295-1.25a11.75 11.75 0 0 1 1.972-.995c.76-.306 1.544-.591 2.354-.855a32.604 32.604 0 0 1 2.317-.692c.735-.198 1.34-.319 1.819-.364.338-.031.6.015.789.139.188.123.289.26.303.412a.583.583 0 0 1-.088.38c-.061.099-.194.188-.399.266-.147.06-.46.172-.939.334a344.392 344.392 0 0 0-3.871 1.243 81.19 81.19 0 0 0-2.191.716c-.806.31-1.379.663-1.718 1.06-.33.383-.522.9-.579 1.553-.008.165-.02.407-.038.727.315-.16.71-.337 1.185-.534.476-.197.963-.39 1.463-.578.5-.187.962-.342 1.386-.464.423-.133.739-.21.949-.23.151-.014.317.065.498.236.192.17.298.355.316.553a.528.528 0 0 1-.061.288.577.577 0 0 1-.28.22l-.595.232c-.308.111-.683.252-1.125.422-.431.17-.885.353-1.36.55l-1.362.533c-.42.169-.77.313-1.053.434-.006.565-.016 1.154-.03 1.766-.013.613-.023 1.196-.03 1.75l.006 1.393c0 .376.004.617.014.722.06.652-.101.997-.486 1.033Zm10.13-.645a.598.598 0 0 1-.493-.183c-.142-.14-.226-.343-.25-.612-.02-.198-.009-.528.03-.99.05-.475.099-1.027.146-1.654.06-.63.099-1.28.118-1.952.019-.684 0-1.335-.058-1.953-.028-.303.027-.531.165-.686a.783.783 0 0 1 .521-.277c.187-.018.337.086.453.31.114.225.175.69.182 1.395.426-1.24.926-2.25 1.5-3.033.584-.796 1.182-1.38 1.794-1.755.61-.386 1.173-.603 1.686-.651.338-.032.59.016.754.141.175.113.27.251.285.415a.607.607 0 0 1-.23.55c-.164.133-.46.302-.888.506a8.461 8.461 0 0 0-1.352.832 5.658 5.658 0 0 0-1.112 1.127c-.334.454-.651 1.025-.952 1.712-.301.675-.589 1.501-.862 2.479-.274.978-.553 2.15-.837 3.518-.046.263-.122.452-.23.568a.526.526 0 0 1-.37.193Zm9.581-1.051c-.688.064-1.254-.148-1.7-.636-.445-.487-.707-1.15-.785-1.99a4.12 4.12 0 0 1 .033-.974c.06-.358.148-.684.261-.977a.838.838 0 0 1-.223-.314 1.932 1.932 0 0 1-.122-.553 4.975 4.975 0 0 1 .174-1.922 4.96 4.96 0 0 1 .788-1.572 4.29 4.29 0 0 1 1.184-1.116c.456-.278.93-.44 1.419-.485.804-.075 1.484.155 2.04.692.555.524.887 1.375.997 2.553a6.77 6.77 0 0 1-.104 1.915 9.067 9.067 0 0 1-.562 1.922 7.778 7.778 0 0 1-.918 1.69 5.425 5.425 0 0 1-1.173 1.24c-.418.309-.854.485-1.309.527Zm-1.092-5.279a.6.6 0 0 1 .14.358 1.41 1.41 0 0 1-.056.534c-.042.18-.084.425-.126.735-.042.31-.037.744.016 1.304.052.56.3.819.742.778.49-.046.927-.28 1.31-.705.383-.435.71-.977.978-1.625a8.8 8.8 0 0 0 .568-2.047c.12-.728.151-1.407.092-2.037-.038-.408-.14-.687-.307-.836-.168-.16-.45-.223-.846-.186-.408.038-.82.218-1.238.54-.406.307-.733.708-.981 1.202a2.92 2.92 0 0 0-.29 1.615c.011.128.01.251-.002.37Zm21.227 2.697a.62.62 0 0 1-.185.476.745.745 0 0 1-.473.22.714.714 0 0 1-.544-.16c-.153-.128-.243-.337-.27-.628a31.128 31.128 0 0 1-.125-2.476 64.661 64.661 0 0 1 .014-2.683c.023-.896.051-1.721.087-2.477-.334.583-.697 1.229-1.09 1.936a74.638 74.638 0 0 1-1.18 2.103c-.405.696-.804 1.34-1.196 1.928a14.266 14.266 0 0 1-1.085 1.425c-.33.36-.613.55-.846.572-.431.04-.82-.094-1.166-.402-.348-.32-.546-.743-.595-1.268a7.104 7.104 0 0 1-.01-.864c.012-.377.028-.773.048-1.186.02-.413.038-.797.052-1.151a6.994 6.994 0 0 0-.005-.811 1.481 1.481 0 0 0-.092-.415c-.035-.126-.1-.185-.193-.176-.14.013-.317.188-.533.526-.216.326-.454.742-.712 1.248-.247.505-.503 1.04-.768 1.606-.253.565-.492 1.099-.715 1.602-.225.491-.418.88-.58 1.165-.127.27-.25.47-.367.599a.68.68 0 0 1-.456.219c-.221.02-.436-.077-.645-.293-.196-.217-.31-.495-.342-.833-.018-.198-.012-.51.019-.936.03-.438.073-.919.13-1.441.069-.524.133-1.036.192-1.535l.178-1.305c.057-.405.148-.684.275-.837.127-.153.272-.237.435-.252a.634.634 0 0 1 .548.196c.154.139.246.371.277.697.005.059-.015.22-.061.482-.047.252-.107.563-.178.934-.06.359-.131.736-.212 1.131-.07.395-.123.759-.163 1.092.216-.456.441-.947.674-1.474.245-.529.49-1.052.736-1.569.245-.528.494-1.01.747-1.445.253-.447.507-.806.764-1.077.257-.27.514-.418.77-.442.304-.028.592.039.866.202.286.161.525.392.717.691.193.3.307.642.343 1.027.025.268.014.651-.034 1.15-.049.486-.1 1.014-.152 1.584-.041.568-.05 1.104-.027 1.608.011.116.052.171.121.165.059-.006.125-.053.199-.142.303-.405.635-.889.994-1.451.358-.575.719-1.179 1.083-1.812.376-.635.748-1.258 1.114-1.868.365-.622.707-1.183 1.025-1.683a12.8 12.8 0 0 1 .873-1.228c.266-.307.48-.468.643-.484.35-.032.628.042.833.223.205.18.329.504.372.97.035.373.051.86.048 1.46.009.6.005 1.252-.011 1.96a70.375 70.375 0 0 1-.048 2.138 109.86 109.86 0 0 1-.062 1.982c-.026.602-.045 1.098-.056 1.487Zm12.562-11.95c-.478.045-.819.053-1.021.025-.204-.04-.333-.104-.389-.193a.794.794 0 0 1-.078-.275c-.012-.128.041-.25.159-.367.13-.13.401-.25.814-.359a36.057 36.057 0 0 1 1.856-.525 51.184 51.184 0 0 1 2.311-.569 90.902 90.902 0 0 1 2.454-.546 49.28 49.28 0 0 1 2.376-.433c.765-.13 1.444-.223 2.038-.278.793-.074 1.336-.054 1.629.06.305.113.464.25.48.414.014.151-.055.299-.206.443-.14.142-.396.23-.769.265-.152.014-.498.082-1.04.203-.542.11-1.205.253-1.988.432-.773.166-1.591.348-2.454.546-.022.402-.06.935-.116 1.599-.057.652-.125 1.37-.205 2.154-.068.782-.142 1.57-.22 2.366-.069.783-.136 1.512-.202 2.189-.055.675-.103 1.232-.144 1.671-.042.44-.064.7-.068.783-.013.366-.093.65-.239.851-.135.19-.296.293-.482.31a.698.698 0 0 1-.586-.228c-.158-.185-.26-.522-.306-1.012-.015-.163-.01-.481.017-.954.025-.485.066-1.059.122-1.723.055-.663.119-1.37.19-2.117.072-.747.145-1.477.22-2.19.073-.724.142-1.377.205-1.96.062-.593.107-1.056.135-1.388-.911.19-1.771.365-2.579.523a23.43 23.43 0 0 1-1.914.284Zm17.414 2.082c.034.373-.048.752-.247 1.135a4.993 4.993 0 0 1-.833 1.1c-.355.351-.753.688-1.193 1.011a13.918 13.918 0 0 1-2.56 1.491c-.051.464-.061.87-.028 1.22.021.222.088.374.201.458.114.083.282.115.503.094a5.136 5.136 0 0 0 1.532-.407c.532-.226 1.07-.506 1.616-.839a22.078 22.078 0 0 0 1.56-1.045 47.35 47.35 0 0 0 1.351-1.026c.417-.32.763-.582 1.039-.784.275-.202.459-.308.552-.316.14-.013.25.023.328.11.089.074.139.17.15.286.009.093-.12.288-.386.583-.255.294-.605.644-1.049 1.05-.446.395-.948.806-1.508 1.235-.56.428-1.145.835-1.756 1.222-.599.385-1.187.704-1.763.958-.565.252-1.08.4-1.546.444-.607.056-1.1-.127-1.481-.55-.38-.423-.615-1.113-.704-2.07a8.022 8.022 0 0 1 .064-1.963c.114-.67.289-1.315.525-1.937a9.77 9.77 0 0 1 .847-1.702c.329-.512.684-.922 1.068-1.228.382-.318.765-.495 1.15-.53.734-.07 1.33.081 1.788.45.458.37.718.886.78 1.55Zm-4.592 3.357c.341-.255.692-.523 1.054-.804.362-.28.695-.565.997-.852.303-.286.54-.58.712-.877.183-.311.26-.619.232-.922-.04-.431-.294-.625-.76-.582-.292.028-.583.243-.875.646-.281.391-.54.892-.777 1.502s-.432 1.24-.583 1.889Zm21.328 2.158a.62.62 0 0 1-.185.476.746.746 0 0 1-.474.22.715.715 0 0 1-.544-.16c-.153-.128-.243-.337-.27-.628a31.608 31.608 0 0 1-.125-2.476 62.953 62.953 0 0 1 .015-2.683c.022-.896.051-1.722.086-2.478-.333.584-.697 1.23-1.089 1.937a75.654 75.654 0 0 1-1.18 2.103c-.406.696-.805 1.34-1.197 1.928A14.24 14.24 0 0 1 142.5 57.1c-.331.36-.613.55-.846.572-.432.04-.821-.094-1.167-.402-.347-.321-.545-.744-.594-1.268a7.018 7.018 0 0 1-.01-.864c.012-.377.028-.773.048-1.186.02-.414.037-.797.051-1.151a6.82 6.82 0 0 0-.005-.812 1.468 1.468 0 0 0-.091-.414c-.035-.126-.1-.185-.193-.176-.14.013-.318.188-.533.526a12.91 12.91 0 0 0-.713 1.248c-.247.505-.503 1.04-.767 1.606-.254.565-.492 1.098-.716 1.602-.224.49-.417.88-.579 1.165-.128.27-.25.47-.368.599a.678.678 0 0 1-.456.219c-.221.02-.436-.077-.644-.293-.197-.217-.311-.495-.342-.833-.019-.198-.013-.51.018-.936.03-.438.073-.919.13-1.441.069-.524.133-1.036.193-1.535l.178-1.305c.056-.405.148-.684.275-.837.127-.153.272-.237.435-.252a.633.633 0 0 1 .547.196c.154.138.247.37.277.697.005.059-.015.22-.061.482l-.177.934c-.061.359-.132.736-.213 1.131-.069.395-.123.759-.162 1.092.216-.456.441-.947.674-1.474.244-.529.49-1.052.736-1.569.244-.528.493-1.01.747-1.445a5.47 5.47 0 0 1 .764-1.077c.257-.27.514-.418.77-.442.303-.028.592.039.866.201.285.162.524.393.717.692.192.3.307.642.342 1.027.025.268.014.651-.033 1.15-.049.486-.1 1.014-.153 1.584-.041.568-.05 1.104-.026 1.608.011.116.051.171.121.165.058-.006.124-.053.198-.142.304-.405.635-.889.994-1.451.358-.575.719-1.179 1.084-1.813.376-.634.747-1.257 1.113-1.867.366-.622.708-1.183 1.026-1.683.328-.513.619-.923.873-1.228.265-.308.48-.469.643-.484.35-.032.627.042.832.222.205.181.329.505.373.971.035.373.051.86.048 1.46a52.49 52.49 0 0 1-.012 1.96c-.005.705-.02 1.418-.047 2.138-.017.707-.038 1.368-.063 1.982a102.56 102.56 0 0 0-.055 1.487Zm3.999 5.395a.586.586 0 0 1-.492-.165c-.118-.13-.195-.394-.232-.79a18.77 18.77 0 0 1-.064-2.005c.011-.766.047-1.58.108-2.445.072-.865.156-1.731.251-2.599.108-.868.224-1.696.351-2.484.138-.79.279-1.49.421-2.104.142-.624.278-1.12.409-1.484.142-.366.277-.555.406-.567.221-.02.402.027.542.143.152.115.24.301.264.558.03.326-.019.866-.149 1.619-.131.741-.299 1.71-.506 2.905.242-.564.505-1.153.788-1.767.284-.615.587-1.213.909-1.796.321-.594.647-1.13.979-1.608.344-.48.684-.87 1.02-1.171.337-.302.674-.469 1.012-.5.361-.034.693.053.994.26.301.195.545.478.732.849.198.358.319.77.362 1.236a8.28 8.28 0 0 1-.227 2.862 8.487 8.487 0 0 1-1.137 2.558 6.605 6.605 0 0 1-1.871 1.885 5.158 5.158 0 0 1-2.442.863 7.124 7.124 0 0 1-1.625-.025 96.117 96.117 0 0 0-.181 2.416c-.052.828-.1 1.708-.142 2.641-.012.248-.055.423-.128.524-.071.112-.189.176-.352.191Zm6.456-14.96c-.245.022-.524.19-.836.5-.3.31-.621.717-.962 1.22-.331.489-.663 1.031-.995 1.627a41.554 41.554 0 0 0-.963 1.783c-.308.605-.591 1.166-.849 1.684-.245.517-.446.948-.602 1.291.907-.108 1.689-.363 2.345-.765a6.14 6.14 0 0 0 1.642-1.494 7.587 7.587 0 0 0 1.025-1.877c.255-.67.425-1.31.509-1.917.084-.62.105-1.15.064-1.594-.031-.326-.157-.48-.378-.459Zm7.35 9.14c-.898.084-1.63-.142-2.197-.677-.557-.548-.885-1.352-.984-2.413-.061-.653-.045-1.425.049-2.316.104-.903.25-1.858.439-2.863.199-1.018.422-2.027.67-3.026.248-1 .491-1.928.729-2.785.248-.87.468-1.596.661-2.178.111-.328.294-.504.551-.528.349-.033.544.167.585.598.013.14-.025.432-.113.875s-.207.995-.357 1.656c-.151.65-.313 1.37-.487 2.163-.173.792-.35 1.608-.53 2.448-.17.827-.323 1.647-.459 2.46-.137.8-.237 1.55-.302 2.25-.064.7-.073 1.295-.027 1.785.029.315.134.558.315.729.191.159.432.224.724.197a4.408 4.408 0 0 0 1.579-.465c.528-.272 1.027-.59 1.499-.95.471-.374.896-.737 1.275-1.09.389-.365.72-.667.992-.904.27-.248.464-.378.581-.389.256-.024.397.104.424.384.008.093-.069.277-.231.55-.164.263-.388.578-.671.945-.283.367-.618.752-1.004 1.152-.375.388-.776.76-1.201 1.118a7.333 7.333 0 0 1-1.278.86c-.425.24-.835.377-1.232.414Zm6.21-.826c-.443.042-.829-.128-1.159-.509-.318-.394-.509-.923-.571-1.587a4.09 4.09 0 0 1 .284-1.879 8.211 8.211 0 0 1 1.078-1.864c.461-.608.973-1.173 1.536-1.696a15.34 15.34 0 0 1 1.703-1.411 13.024 13.024 0 0 1 1.62-.98c.494-.246.893-.383 1.196-.412a.712.712 0 0 1 .412.068c.111.048.174.154.189.317a.446.446 0 0 1-.095.31l.035-.004c.257-.024.399.116.427.419.01.105-.011.324-.062.658-.052.323-.109.728-.169 1.215-.06.488-.104 1.028-.131 1.618-.029.579-.015 1.166.04 1.76.047.502.263.735.647.699.432-.04.86-.18 1.284-.42.425-.24.834-.519 1.228-.838.392-.33.75-.652 1.074-.964.323-.324.597-.597.824-.818.226-.22.392-.336.496-.346a.37.37 0 0 1 .253.065c.076.051.12.142.131.27.011.116-.086.337-.291.662a10.96 10.96 0 0 1-.83 1.118c-.349.42-.746.834-1.19 1.24a8.192 8.192 0 0 1-1.386 1.029c-.48.28-.947.44-1.402.483a1.617 1.617 0 0 1-.991-.225c-.3-.195-.562-.547-.786-1.056-.212-.51-.361-1.224-.447-2.145l-.041-.438a23.545 23.545 0 0 1-1.56 2.757c-.545.838-1.105 1.52-1.679 2.044-.563.522-1.119.81-1.667.86Zm5.472-9.047a8.176 8.176 0 0 0-.235.127c-.513.295-1.044.65-1.594 1.066-.537.415-1.06.87-1.566 1.363a13.8 13.8 0 0 0-1.323 1.517 7.13 7.13 0 0 0-.897 1.548c-.21.514-.294 1.004-.251 1.47a.597.597 0 0 0 .12.342c.078.075.198.105.362.09.233-.022.522-.196.868-.523.345-.338.716-.772 1.114-1.303.409-.532.813-1.117 1.212-1.754s.775-1.277 1.126-1.922c.364-.645.673-1.238.928-1.78.039-.085.085-.166.136-.241Zm4.109 2.051c-.317.006-.482-.184-.494-.571.003-.095.057-.211.161-.35a.58.58 0 0 1 .381-.265c.359-.07.797-.163 1.315-.282.529-.131 1.109-.28 1.74-.444.063-.582.147-1.196.252-1.84.105-.645.228-1.274.371-1.887a16.62 16.62 0 0 1 .476-1.703c.176-.51.374-.917.592-1.22.117-.14.225-.238.326-.294a.592.592 0 0 1 .271-.114.442.442 0 0 1 .405.174.794.794 0 0 1 .175.742 36.936 36.936 0 0 0-.527 2.484c-.179.98-.368 2.051-.566 3.21a153.52 153.52 0 0 0 3.166-.86 109.47 109.47 0 0 0 2.713-.799c.213-.114.383-.112.512.005.14.117.216.239.228.367.015.163-.02.29-.105.38-.075.09-.155.168-.243.235l-.016.019c-.225.115-.564.258-1.018.43-.456.16-.98.338-1.574.535-.594.184-1.229.373-1.905.565a65.85 65.85 0 0 1-1.979.537c-.172 1.051-.348 2.132-.527 3.242a427.193 427.193 0 0 1-.509 3.24c-.078.431-.187.706-.329.825a.699.699 0 0 1-.438.218.675.675 0 0 1-.51-.165c-.141-.128-.185-.412-.132-.852l.721-6.082c-.69.17-1.301.303-1.833.4-.52.095-.887.135-1.1.12Zm16.456-3.492c.035.373-.048.752-.247 1.135a4.962 4.962 0 0 1-.833 1.1c-.355.351-.753.688-1.193 1.011a13.921 13.921 0 0 1-2.56 1.491c-.051.464-.06.87-.028 1.22.021.222.088.374.202.458.113.083.281.115.502.094a5.139 5.139 0 0 0 1.532-.407 12.413 12.413 0 0 0 1.616-.839 22.299 22.299 0 0 0 1.561-1.045c.495-.364.945-.706 1.351-1.026a55.93 55.93 0 0 1 1.038-.784c.275-.202.459-.308.552-.316.14-.014.25.023.328.11.089.074.14.17.15.286.009.093-.12.288-.386.583a13.26 13.26 0 0 1-1.049 1.05c-.445.395-.948.806-1.508 1.235-.56.428-1.145.835-1.756 1.222-.599.385-1.187.704-1.763.958-.564.252-1.08.4-1.546.444-.607.056-1.1-.127-1.48-.55-.381-.424-.616-1.113-.705-2.07a8.023 8.023 0 0 1 .064-1.963c.114-.67.289-1.315.525-1.937a9.765 9.765 0 0 1 .847-1.702c.329-.512.685-.922 1.068-1.228.382-.318.765-.495 1.15-.53.734-.07 1.33.081 1.788.45.458.369.718.886.78 1.55Zm-4.592 3.357c.341-.256.693-.524 1.054-.804.362-.281.695-.565.997-.852.303-.287.54-.58.712-.878.183-.31.26-.618.232-.92-.04-.432-.294-.626-.76-.583-.291.027-.583.243-.875.646-.281.391-.54.892-.777 1.502s-.431 1.24-.583 1.889Z" fill="#fff"/><path d="M342.487 17.131c4.348 1.754 11.285 4.62 15.781 2.838 1.313-.52-.628 1.714-.699 1.818-3.532 5.12-5.368 10.457-6.185 17.002" stroke="#fff" stroke-width="2.303" stroke-linecap="round"/><path d="M216.419 42.822c26.692-4.1 44.115-5.27 64.205-23.707 7.895-7.247 4.78-17.897-6.73-16.51-6.369.768-8.311 8.335-8.143 13.523.328 10.084 6.603 18.296 16.371 21.602 33.45 11.32 59.306-6.623 73.879-15.54" stroke="#fff" stroke-width="2.303" stroke-linecap="round"/></svg>