<svg width="363" height="84" viewBox="0 0 363 84" fill="none" xmlns="http://www.w3.org/2000/svg">
<path d="M4.95707 71.9284C4.66559 71.9555 4.41897 71.8962 4.21721 71.7503C4.02819 71.6151 3.925 71.4542 3.90761 71.2676C3.88805 71.0578 3.90253 70.8976 3.95105 70.7873C4.01014 70.6642 4.14827 70.569 4.36545 70.5017C4.90148 70.3224 5.45283 70.1181 6.01949 69.8889C6.59673 69.6469 7.13261 69.4029 7.62715 69.1569C8.12059 68.8992 8.51548 68.6566 8.81181 68.4291C9.11979 68.2005 9.26673 68.0104 9.2526 67.8588C9.23956 67.7189 9.09882 67.5968 8.83036 67.4924C8.56082 67.3764 8.22024 67.2553 7.80861 67.129C7.39699 67.0027 6.95459 66.8616 6.48141 66.7058C6.00823 66.55 5.56148 66.3623 5.14116 66.1427C4.72084 65.9231 4.36722 65.6621 4.0803 65.3595C3.79229 65.0453 3.62818 64.6725 3.58798 64.2411C3.52496 63.5649 3.62951 62.9201 3.90165 62.3067C4.18435 61.6806 4.5705 61.0918 5.0601 60.5405C5.54971 59.9892 6.09558 59.4738 6.69772 58.9943C7.31043 58.5021 7.91638 58.0634 8.51555 57.6782C9.1253 57.2804 9.66889 56.9298 10.1463 56.6266C10.3009 56.5181 10.4523 56.4393 10.6006 56.3902C10.7489 56.3411 10.8814 56.3111 10.998 56.3003C11.3361 56.2688 11.588 56.3217 11.7537 56.4592C11.9194 56.5966 12.0115 56.7644 12.0299 56.9626C12.0451 57.1259 11.9756 57.3264 11.8214 57.5642C11.666 57.7904 11.4328 58.0003 11.1215 58.1939C10.8103 58.3876 10.4273 58.5056 9.97258 58.548L9.83267 58.561C9.45581 58.8078 9.04778 59.0987 8.60858 59.4336C8.16937 59.7686 7.73871 60.1321 7.3166 60.5243C6.89449 60.9164 6.50844 61.317 6.15845 61.7259C5.81904 62.1221 5.5485 62.5002 5.34682 62.86C5.15681 63.2188 5.07484 63.5381 5.10092 63.8179C5.13243 64.156 5.28893 64.4472 5.57042 64.6914C5.85191 64.9357 6.20064 65.1443 6.61661 65.3172C7.04424 65.4891 7.48882 65.6534 7.95034 65.8104C8.42352 65.9662 8.8681 66.1306 9.28407 66.3035C9.71061 66.4637 10.0635 66.6542 10.3429 66.8752C10.6211 67.0844 10.7749 67.3465 10.8042 67.6613C10.8379 68.0227 10.7417 68.3786 10.5156 68.729C10.3012 69.0782 10.003 69.4118 9.621 69.7297C9.23791 70.0359 8.81185 70.3225 8.34281 70.5897C7.88434 70.8441 7.42898 71.0688 6.97674 71.2639C6.5245 71.4589 6.11563 71.6146 5.75014 71.731C5.39631 71.8463 5.13195 71.9121 4.95707 71.9284ZM12.8543 64.9653C12.5373 64.9713 12.3725 64.7808 12.36 64.3939C12.363 64.2995 12.4168 64.1828 12.5214 64.0437C12.625 63.8929 12.752 63.8046 12.9025 63.7788C13.2606 63.7102 13.6988 63.6164 14.2169 63.4976C14.7457 63.366 15.3258 63.2178 15.9572 63.0531C16.0206 62.471 16.1045 61.8575 16.2091 61.2127C16.3136 60.5679 16.4373 59.9389 16.5801 59.3258C16.7218 58.7011 16.8806 58.1335 17.0565 57.6232C17.2324 57.1129 17.4297 56.7064 17.6485 56.4038C17.7648 56.2636 17.8732 56.1652 17.9738 56.1088C18.0733 56.0408 18.1639 56.0029 18.2455 55.9953C18.4087 55.9801 18.5435 56.0381 18.6498 56.1693C18.7678 56.2994 18.8349 56.452 18.8512 56.6268C18.8599 56.7201 18.8511 56.815 18.8248 56.9116C18.6525 57.5862 18.4768 58.414 18.2977 59.3951C18.1186 60.3761 17.9302 61.4463 17.7325 62.6055C18.7888 62.3306 19.8441 62.0441 20.8983 61.7459C21.9525 61.4478 22.8567 61.1812 23.611 60.9463C23.8238 60.8323 23.9945 60.8341 24.1231 60.9515C24.2633 61.0678 24.3393 61.19 24.3513 61.3183C24.3665 61.4815 24.3313 61.6083 24.2456 61.6986C24.1716 61.7878 24.0907 61.8659 24.0028 61.9329L23.987 61.952C23.7625 62.067 23.423 62.2104 22.9686 62.3821C22.5131 62.5422 21.9887 62.7204 21.3955 62.9168C20.8012 63.1015 20.166 63.2901 19.4901 63.4825C18.8258 63.6737 18.1663 63.8528 17.5115 64.0197C17.3389 65.0707 17.1633 66.1514 16.9845 67.2617C16.8163 68.3594 16.6465 69.4395 16.475 70.5022C16.3975 70.9328 16.2879 71.2076 16.1461 71.3267C16.0171 71.4563 15.8709 71.5287 15.7077 71.5439C15.5211 71.5613 15.3514 71.5066 15.1984 71.3797C15.0572 71.2517 15.0131 70.9677 15.0661 70.5276L15.787 64.445C15.0973 64.6151 14.4864 64.7485 13.9544 64.8451C13.4341 64.9406 13.0674 64.9807 12.8543 64.9653ZM23.8966 70.0399C23.4535 70.0812 23.0672 69.9114 22.7377 69.5305C22.4188 69.1368 22.2283 68.6077 22.1664 67.9431C22.1088 67.3252 22.2034 66.6989 22.45 66.0644C22.7083 65.4288 23.0679 64.8073 23.5287 64.1998C23.9896 63.5924 24.5014 63.0272 25.0642 62.5043C25.626 61.9698 26.1937 61.4994 26.7673 61.0931C27.3527 60.6858 27.8926 60.3591 28.3872 60.1131C28.8817 59.8671 29.2805 59.7299 29.5837 59.7017C29.7469 59.6865 29.8842 59.7089 29.9957 59.7691C30.1061 59.8176 30.1688 59.9235 30.1841 60.0867C30.1938 60.1917 30.1623 60.2946 30.0893 60.3955C30.101 60.3944 30.1127 60.3933 30.1243 60.3922C30.3808 60.3683 30.5232 60.5079 30.5514 60.8111C30.5612 60.916 30.5405 61.1355 30.4893 61.4695C30.437 61.792 30.3807 62.1971 30.3203 62.6849C30.2599 63.1727 30.2161 63.7119 30.1888 64.3024C30.1604 64.8813 30.174 65.4681 30.2294 66.0627C30.2761 66.5641 30.4918 66.7968 30.8766 66.7609C31.308 66.7207 31.736 66.5809 32.1605 66.3414C32.5851 66.1019 32.9942 65.8227 33.3879 65.5038C33.7805 65.1732 34.1386 64.8517 34.4623 64.5392C34.7849 64.2152 35.0594 63.9426 35.2858 63.7216C35.5121 63.5006 35.6778 63.3852 35.7827 63.3754C35.876 63.3667 35.9603 63.3882 36.0357 63.44C36.1111 63.4918 36.1548 63.5818 36.1667 63.7101C36.1776 63.8266 36.0806 64.0474 35.8756 64.3722C35.6707 64.6971 35.3938 65.0699 35.0449 65.4905C34.696 65.9111 34.2994 66.3244 33.855 66.7304C33.4107 67.1363 32.9487 67.4793 32.4691 67.7592C31.9895 68.0391 31.5223 68.2002 31.0676 68.2426C30.7178 68.2752 30.3874 68.2001 30.0764 68.0174C29.7759 67.822 29.5138 67.4701 29.29 66.9617C29.0779 66.4523 28.9289 65.737 28.8431 64.8159L28.8023 64.3787C28.319 65.3763 27.799 66.2951 27.2422 67.1349C26.697 67.9737 26.1372 68.655 25.5628 69.179C24.9999 69.7019 24.4445 69.9888 23.8966 70.0399ZM29.3687 60.9918C29.3126 61.0206 29.2342 61.0632 29.1337 61.1196C28.6202 61.4144 28.0888 61.7697 27.5395 62.1855C27.0019 62.6001 26.4797 63.0545 25.973 63.5487C25.478 64.0417 25.037 64.5473 24.6502 65.0655C24.2634 65.5838 23.9645 66.0997 23.7536 66.6133C23.5428 67.1269 23.4591 67.6168 23.5025 68.0832C23.5166 68.2348 23.5567 68.3487 23.6226 68.4248C23.7001 68.4999 23.8205 68.5299 23.9837 68.5147C24.2169 68.4929 24.5065 68.3189 24.8524 67.9927C25.1973 67.6548 25.5684 67.2203 25.9658 66.6894C26.3749 66.1573 26.7791 65.5728 27.1784 64.9358C27.5777 64.2988 27.9531 63.6581 28.3047 63.0138C28.6679 62.3684 28.9772 61.7751 29.2325 61.2339C29.2715 61.1479 29.3169 61.0672 29.3687 60.9918ZM36.0997 68.7792C35.9132 68.7966 35.7487 68.7354 35.6063 68.5958C35.4639 68.4562 35.3803 68.2523 35.3553 67.9842C35.3368 67.786 35.3472 67.4557 35.3864 66.9934C35.4362 66.5183 35.4848 65.9669 35.5322 65.3392C35.5912 64.7104 35.6305 64.0599 35.6502 63.3877C35.6688 62.7039 35.6493 62.053 35.5917 61.4351C35.5635 61.1319 35.6186 60.9033 35.7571 60.7493C35.9062 60.5825 36.0799 60.4899 36.2781 60.4714C36.4646 60.454 36.6154 60.5576 36.7304 60.7821C36.8454 61.0066 36.9064 61.4713 36.9133 62.1763C37.3388 60.9371 37.8385 59.9262 38.4124 59.1435C38.9968 58.3482 39.595 57.7632 40.2069 57.3886C40.8178 57.0024 41.3797 56.7854 41.8927 56.7376C42.2308 56.7061 42.4822 56.7532 42.6468 56.879C42.822 56.992 42.9172 57.1302 42.9324 57.2934C42.953 57.5149 42.876 57.6985 42.7014 57.8441C42.5374 57.977 42.2415 58.1457 41.8136 58.3503C41.3191 58.5963 40.8686 58.8735 40.4622 59.1818C40.0664 59.4774 39.6957 59.853 39.35 60.3086C39.0161 60.7631 38.6988 61.3337 38.3982 62.0203C38.0965 62.6952 37.809 63.5217 37.5355 64.4998C37.2621 65.4779 36.9833 66.6505 36.6991 68.0177C36.653 68.2807 36.5766 68.4701 36.4698 68.5859C36.3746 68.7006 36.2513 68.7651 36.0997 68.7792ZM41.1588 62.3275C40.8418 62.3335 40.6771 62.1431 40.6645 61.7562C40.6675 61.6618 40.7213 61.5451 40.8259 61.4059C40.9295 61.2552 41.0565 61.1669 41.207 61.1411C41.5652 61.0724 42.0033 60.9787 42.5215 60.8598C43.0502 60.7282 43.6303 60.5801 44.2618 60.4154C44.3251 59.8332 44.4091 59.2198 44.5136 58.5749C44.6182 57.9301 44.7419 57.3012 44.8847 56.6881C45.0264 56.0633 45.1852 55.4958 45.361 54.9855C45.5369 54.4751 45.7343 54.0687 45.953 53.766C46.0693 53.6258 46.1778 53.5275 46.2784 53.4711C46.3779 53.403 46.4684 53.3652 46.55 53.3576C46.7133 53.3424 46.848 53.4004 46.9543 53.5316C47.0723 53.6617 47.1395 53.8142 47.1557 53.9891C47.1644 54.0824 47.1556 54.1773 47.1294 54.2738C46.957 54.9485 46.7813 55.7763 46.6023 56.7574C46.4232 57.7384 46.2348 58.8085 46.037 59.9677C47.0934 59.6929 48.1486 59.4064 49.2028 59.1082C50.257 58.81 51.1612 58.5435 51.9155 58.3085C52.1284 58.1946 52.2991 58.1963 52.4276 58.3137C52.5678 58.43 52.6439 58.5523 52.6558 58.6806C52.671 58.8438 52.6358 58.9706 52.5501 59.0609C52.4761 59.1501 52.3952 59.2282 52.3074 59.2952L52.2915 59.3143C52.067 59.4293 51.7276 59.5727 51.2731 59.7444C50.8176 59.9044 50.2933 60.0827 49.7 60.2791C49.1057 60.4638 48.4706 60.6524 47.7946 60.8447C47.1304 61.036 46.4708 61.2151 45.816 61.3819C45.6435 62.4329 45.4678 63.5136 45.289 64.624C45.1208 65.7216 44.951 66.8018 44.7795 67.8644C44.7021 68.295 44.5924 68.5699 44.4506 68.6889C44.3216 68.8186 44.1755 68.891 44.0122 68.9062C43.8257 68.9236 43.6559 68.8688 43.503 68.742C43.3617 68.614 43.3176 68.33 43.3707 67.8899L44.0916 61.8072C43.4018 61.9774 42.7909 62.1107 42.259 62.2074C41.7386 62.3029 41.3719 62.3429 41.1588 62.3275ZM61.9882 66.0667C61.7434 66.0895 61.5199 65.9633 61.3179 65.6882C61.1158 65.413 60.9741 64.8382 60.8926 63.9637C60.8176 63.1592 60.7819 62.1453 60.7855 60.9219C60.7997 59.6857 60.8602 58.3158 60.967 56.8123C61.0323 56.1241 61.2191 55.5422 61.5276 55.0666C61.8478 54.5898 62.2794 54.1733 62.8224 53.8169C63.3771 53.4594 64.0342 53.1277 64.7936 52.8217C65.5531 52.5157 66.338 52.2309 67.1484 51.9672C67.9694 51.6908 68.7417 51.46 69.4654 51.275C70.1996 51.0772 70.8058 50.956 71.2838 50.9115C71.6219 50.88 71.8849 50.926 72.0729 51.0496C72.2608 51.1732 72.3618 51.3108 72.3759 51.4624C72.389 51.6023 72.3596 51.7285 72.2877 51.8411C72.2265 51.9409 72.0936 52.0297 71.8892 52.1075C71.742 52.1683 71.4289 52.2798 70.9501 52.442C70.4819 52.5915 69.905 52.7746 69.2196 52.9914C68.5458 53.2071 67.8324 53.4382 67.0791 53.6848C66.3249 53.9197 65.5944 54.1583 64.8878 54.4006C64.0818 54.7109 63.509 55.0642 63.1696 55.4604C62.8408 55.8439 62.6479 56.3616 62.5911 57.0138C62.583 57.1792 62.5703 57.4214 62.553 57.7406C62.8675 57.5819 63.2625 57.404 63.7381 57.2068C64.2137 57.0096 64.7014 56.8171 65.2014 56.6294C65.7014 56.4417 66.1632 56.2869 66.587 56.1651C67.0097 56.0316 67.326 55.9551 67.5359 55.9355C67.6874 55.9214 67.8535 56 68.0341 56.1714C68.2264 56.3416 68.3318 56.5258 68.3503 56.724C68.3589 56.8173 68.3385 56.9133 68.2889 57.012C68.2382 57.0991 68.1451 57.1724 68.0095 57.2321C67.9301 57.263 67.7315 57.3403 67.4137 57.464C67.1065 57.575 66.7315 57.7158 66.2888 57.8864C65.8577 58.0559 65.4043 58.2393 64.9288 58.4365C64.4521 58.622 63.9983 58.7996 63.5672 58.9691C63.1477 59.1376 62.7966 59.282 62.5138 59.4025C62.5077 59.9675 62.4979 60.5565 62.4844 61.1693C62.471 61.7821 62.4606 62.3652 62.4534 62.9186C62.4567 63.4593 62.4589 63.9236 62.4597 64.3116C62.4595 64.688 62.4643 64.9286 62.4741 65.0335C62.5349 65.6865 62.373 66.0308 61.9882 66.0667ZM72.1198 65.4224C71.9333 65.4398 71.7688 65.3787 71.6264 65.2391C71.4841 65.0995 71.4004 64.8956 71.3754 64.6274C71.3569 64.4292 71.3673 64.0989 71.4065 63.6366C71.4563 63.1616 71.5049 62.6102 71.5523 61.9825C71.6113 61.3536 71.6506 60.7032 71.6703 60.031C71.6889 59.3471 71.6694 58.6962 71.6118 58.0783C71.5836 57.7752 71.6387 57.5466 71.7772 57.3925C71.9263 57.2258 72.1 57.1331 72.2982 57.1147C72.4848 57.0973 72.6355 57.2008 72.7505 57.4253C72.8655 57.6498 72.9265 58.1146 72.9334 58.8195C73.3589 57.5803 73.8586 56.5694 74.4325 55.7868C75.0169 54.9914 75.6151 54.4064 76.227 54.0319C76.8379 53.6457 77.3998 53.4286 77.9128 53.3808C78.2509 53.3493 78.5023 53.3965 78.6669 53.5222C78.8421 53.6353 78.9373 53.7734 78.9525 53.9367C78.9731 54.1582 78.8961 54.3418 78.7215 54.4874C78.5575 54.6203 78.2616 54.789 77.8338 54.9935C77.3392 55.2395 76.8888 55.5167 76.4824 55.8251C76.0865 56.1207 75.7158 56.4963 75.3702 56.9519C75.0362 57.4064 74.7189 57.9769 74.4183 58.6635C74.1166 59.3385 73.8291 60.165 73.5556 61.143C73.2822 62.1211 73.0034 63.2938 72.7192 64.6609C72.6731 64.924 72.5967 65.1134 72.4899 65.2292C72.3947 65.3439 72.2714 65.4083 72.1198 65.4224ZM81.7001 64.3709C81.0122 64.435 80.4456 64.2232 80.0003 63.7354C79.555 63.2477 79.2932 62.5841 79.215 61.7447C79.1867 61.4415 79.1977 61.1171 79.2478 60.7714C79.3084 60.4129 79.3957 60.0872 79.5095 59.7944C79.4203 59.7204 79.3459 59.6156 79.2862 59.48C79.2254 59.3328 79.1847 59.1484 79.1641 58.9269C79.1 58.239 79.1579 57.5985 79.3378 57.0055C79.5178 56.4125 79.7806 55.8882 80.1262 55.4326C80.4708 54.9653 80.8653 54.5934 81.31 54.3167C81.7663 54.039 82.2393 53.8773 82.729 53.8317C83.5334 53.7567 84.2135 53.9873 84.7692 54.5236C85.3238 55.0482 85.6559 55.8992 85.7657 57.0768C85.8233 57.6948 85.7887 58.3331 85.6619 58.9917C85.5468 59.6492 85.3595 60.29 85.1001 60.914C84.8524 61.5368 84.5462 62.1005 84.1816 62.6049C83.8287 63.1082 83.4379 63.5209 83.0092 63.8431C82.5912 64.1526 82.1548 64.3285 81.7001 64.3709ZM80.6084 59.0922C80.687 59.1789 80.7334 59.2981 80.7475 59.4497C80.7638 59.6246 80.7451 59.8027 80.6915 59.9841C80.6495 60.1644 80.6076 60.4094 80.5659 60.7191C80.5242 61.0287 80.5295 61.4634 80.5816 62.023C80.6338 62.5827 80.8814 62.8418 81.3244 62.8006C81.8141 62.7549 82.2509 62.5202 82.6348 62.0963C83.0175 61.6608 83.3434 61.1188 83.6122 60.4705C83.8811 59.8221 84.0704 59.14 84.1801 58.4242C84.3004 57.6956 84.3312 57.0165 84.2725 56.3869C84.2345 55.9788 84.1321 55.7002 83.9653 55.5511C83.7974 55.3903 83.5153 55.3284 83.1189 55.3654C82.7108 55.4034 82.2983 55.583 81.8813 55.9041C81.4749 56.2124 81.1477 56.6134 80.8997 57.1069C80.6516 57.6005 80.5548 58.1387 80.6091 58.7217C80.6211 58.8499 80.6208 58.9734 80.6084 59.0922ZM101.835 61.7888C101.841 61.9764 101.779 62.1351 101.65 62.2647C101.521 62.3943 101.363 62.4678 101.177 62.4852C100.967 62.5048 100.786 62.4511 100.633 62.3243C100.48 62.1974 100.39 61.9882 100.363 61.6967C100.292 60.9389 100.25 60.1136 100.238 59.221C100.224 58.3167 100.229 57.4225 100.252 56.5383C100.275 55.6424 100.303 54.8165 100.339 54.0605C100.005 54.6443 99.642 55.2897 99.2492 55.9967C98.8681 56.7026 98.4747 57.4037 98.0692 58.1C97.6637 58.7964 97.265 59.4392 96.873 60.0285C96.4799 60.6061 96.1184 61.0808 95.7885 61.4526C95.4575 61.8128 95.1754 62.0037 94.9422 62.0254C94.5108 62.0656 94.1219 61.9314 93.7756 61.6226C93.4282 61.3021 93.2301 60.8796 93.1812 60.3549C93.1616 60.1451 93.1583 59.8572 93.1713 59.4914C93.1832 59.114 93.1992 58.7185 93.2195 58.305C93.2398 57.8915 93.2569 57.5077 93.271 57.1536C93.2839 56.7878 93.2822 56.5175 93.2659 56.3426C93.2507 56.1794 93.2202 56.0411 93.1744 55.9277C93.1391 55.8017 93.0748 55.743 92.9815 55.7517C92.8416 55.7647 92.6639 55.94 92.4484 56.2776C92.2318 56.6036 91.9942 57.0197 91.7356 57.526C91.4887 58.0312 91.2328 58.5666 90.968 59.1323C90.7149 59.6968 90.4765 60.2306 90.2529 60.7337C90.0282 61.225 89.835 61.6135 89.6735 61.899C89.5458 62.1696 89.4233 62.3692 89.3059 62.4978C89.1885 62.6263 89.0365 62.6993 88.85 62.7167C88.6285 62.7373 88.4136 62.6397 88.2053 62.4239C88.0087 62.207 87.8946 61.9295 87.8631 61.5914C87.8446 61.3932 87.8508 61.081 87.8817 60.6547C87.9114 60.2168 87.9548 59.7365 88.012 59.2137C88.0808 58.6898 88.1448 58.1782 88.2041 57.6787C88.274 57.1665 88.3334 56.7317 88.3824 56.3743C88.4388 55.9692 88.5304 55.6902 88.6572 55.5372C88.7841 55.3843 88.9292 55.3002 89.0924 55.285C89.3139 55.2643 89.4964 55.3297 89.6399 55.4809C89.7939 55.6195 89.8861 55.852 89.9166 56.1784C89.922 56.2367 89.9017 56.3974 89.8556 56.6604C89.8085 56.9118 89.7493 57.223 89.678 57.5943C89.6174 57.9527 89.5467 58.3298 89.4659 58.7254C89.3968 59.1199 89.3425 59.4837 89.303 59.8167C89.5193 59.3614 89.744 58.87 89.9771 58.3426C90.2219 57.8141 90.4672 57.2914 90.713 56.7745C90.9578 56.246 91.2069 55.7642 91.4603 55.3289C91.7127 54.882 91.9674 54.5231 92.2244 54.2522C92.4814 53.9813 92.7381 53.8339 92.9946 53.81C93.2978 53.7817 93.5863 53.8489 93.8602 54.0116C94.1457 54.1731 94.3848 54.4037 94.5774 54.7033C94.7699 55.0029 94.8841 55.345 94.92 55.7298C94.945 55.9979 94.9336 56.3812 94.886 56.8796C94.8373 57.3663 94.7865 57.8944 94.7338 58.4638C94.6926 59.0321 94.6838 59.5681 94.7072 60.0716C94.718 60.1882 94.7585 60.2432 94.8284 60.2367C94.8867 60.2313 94.9529 60.1839 95.0269 60.0947C95.3302 59.6901 95.6615 59.2065 96.0207 58.6438C96.3787 58.0694 96.74 57.4654 97.1043 56.8316C97.4802 56.1968 97.8515 55.5742 98.218 54.9638C98.5834 54.3417 98.9251 53.7806 99.243 53.2806C99.5716 52.7678 99.8627 52.3585 100.116 52.0526C100.382 51.7456 100.596 51.5845 100.759 51.5693C101.109 51.5367 101.387 51.6108 101.592 51.7916C101.797 51.9724 101.921 52.296 101.964 52.7624C101.999 53.1355 102.015 53.6221 102.012 54.2221C102.021 54.8211 102.017 55.4741 102.001 56.1813C101.996 56.8874 101.98 57.6003 101.953 58.3203C101.937 59.0274 101.916 59.6879 101.891 60.3018C101.865 60.904 101.846 61.3997 101.835 61.7888ZM114.397 49.8397C113.919 49.8843 113.578 49.8925 113.376 49.8643C113.172 49.8245 113.043 49.7601 112.987 49.6712C112.944 49.5812 112.917 49.4895 112.909 49.3963C112.897 49.268 112.95 49.1454 113.068 49.0285C113.198 48.8989 113.469 48.7796 113.882 48.6705C114.407 48.5039 115.026 48.3287 115.738 48.1447C116.461 47.948 117.231 47.7586 118.049 47.5765C118.866 47.3828 119.684 47.2007 120.503 47.0303C121.334 46.8588 122.126 46.7144 122.879 46.5972C123.644 46.4671 124.323 46.3744 124.917 46.319C125.71 46.2451 126.253 46.2651 126.546 46.3789C126.851 46.4917 127.01 46.6297 127.026 46.7929C127.04 46.9445 126.971 47.092 126.82 47.2355C126.68 47.3778 126.424 47.4664 126.051 47.5012C125.899 47.5153 125.553 47.5829 125.011 47.7039C124.469 47.8133 123.806 47.9574 123.023 48.1362C122.25 48.3022 121.432 48.4843 120.569 48.6824C120.547 49.0842 120.509 49.6171 120.453 50.2808C120.396 50.933 120.328 51.6508 120.248 52.4345C120.18 53.217 120.106 54.0059 120.028 54.8012C119.959 55.5838 119.892 56.3133 119.826 56.9898C119.771 57.6653 119.723 58.2225 119.682 58.6615C119.64 59.1005 119.618 59.3613 119.614 59.444C119.601 59.8098 119.521 60.0936 119.375 60.2953C119.24 60.4844 119.079 60.5876 118.893 60.6049C118.671 60.6256 118.476 60.5497 118.307 60.3773C118.149 60.1921 118.047 59.8547 118.001 59.365C117.986 59.2018 117.991 58.8837 118.018 58.4108C118.043 57.9263 118.084 57.3521 118.14 56.6883C118.195 56.0245 118.259 55.3189 118.33 54.5713C118.402 53.8237 118.475 53.0937 118.55 52.3811C118.623 51.6568 118.692 51.0036 118.755 50.4214C118.817 49.8276 118.862 49.3648 118.89 49.0329C117.979 49.2236 117.119 49.3979 116.311 49.5555C115.513 49.7005 114.875 49.7952 114.397 49.8397ZM131.811 51.9214C131.845 52.2945 131.763 52.6727 131.564 53.0558C131.363 53.4273 131.085 53.7943 130.731 54.1566C130.376 54.5072 129.978 54.8442 129.538 55.1675C129.097 55.4908 128.654 55.7791 128.207 56.0324C127.76 56.2857 127.35 56.4944 126.978 56.6585C126.927 57.1219 126.917 57.5285 126.95 57.8783C126.971 58.0998 127.038 58.2523 127.151 58.3358C127.265 58.4193 127.433 58.4508 127.654 58.4301C128.144 58.3845 128.655 58.2487 129.186 58.0227C129.718 57.7968 130.256 57.5173 130.802 57.1842C131.347 56.8511 131.867 56.5028 132.362 56.1391C132.858 55.7754 133.308 55.4335 133.713 55.1135C134.13 54.7924 134.476 54.5308 134.752 54.3288C135.027 54.1267 135.211 54.0213 135.304 54.0126C135.444 53.9996 135.554 54.0365 135.632 54.1232C135.721 54.1972 135.771 54.2925 135.782 54.4091C135.791 54.5024 135.662 54.6967 135.396 54.992C135.141 55.2863 134.791 55.6364 134.347 56.0423C133.901 56.4367 133.399 56.8481 132.839 57.2766C132.279 57.7051 131.694 58.1125 131.083 58.4987C130.484 58.8838 129.896 59.2032 129.32 59.4568C128.755 59.7093 128.24 59.8573 127.774 59.9008C127.167 59.9573 126.674 59.7739 126.293 59.3507C125.913 58.9275 125.678 58.2379 125.589 57.2819C125.529 56.6406 125.551 55.9859 125.653 55.3178C125.767 54.6486 125.942 54.0031 126.178 53.3813C126.425 52.7468 126.707 52.1795 127.025 51.6794C127.354 51.1666 127.709 50.7571 128.093 50.4509C128.475 50.1331 128.858 49.9562 129.243 49.9204C129.977 49.8519 130.573 50.0022 131.031 50.3711C131.489 50.7401 131.749 51.2569 131.811 51.9214ZM127.219 55.2777C127.56 55.0225 127.911 54.7545 128.273 54.4738C128.635 54.1931 128.968 53.9093 129.27 53.6224C129.573 53.3355 129.81 53.0428 129.982 52.7446C130.165 52.4335 130.242 52.1264 130.214 51.8233C130.174 51.3919 129.92 51.1979 129.454 51.2414C129.162 51.2686 128.871 51.4839 128.579 51.8874C128.298 52.2782 128.039 52.7786 127.802 53.3888C127.565 53.9989 127.37 54.6285 127.219 55.2777ZM148.547 57.4357C148.553 57.6233 148.491 57.782 148.362 57.9116C148.233 58.0412 148.075 58.1147 147.888 58.1321C147.679 58.1517 147.497 58.098 147.344 57.9711C147.191 57.8443 147.101 57.6351 147.074 57.3436C147.003 56.5858 146.962 55.7605 146.949 54.8679C146.935 53.9636 146.94 53.0694 146.964 52.1852C146.986 51.2893 147.015 50.4634 147.05 49.7074C146.717 50.2912 146.353 50.9366 145.961 51.6436C145.58 52.3495 145.186 53.0506 144.781 53.7469C144.375 54.4433 143.976 55.0861 143.584 55.6754C143.191 56.253 142.83 56.7277 142.5 57.0995C142.169 57.4597 141.887 57.6506 141.654 57.6723C141.222 57.7125 140.833 57.5783 140.487 57.2695C140.14 56.949 139.942 56.5265 139.893 56.0018C139.873 55.792 139.87 55.5041 139.883 55.1383C139.895 54.7609 139.911 54.3654 139.931 53.9519C139.951 53.5384 139.968 53.1546 139.982 52.8005C139.995 52.4347 139.994 52.1644 139.977 51.9895C139.962 51.8263 139.932 51.688 139.886 51.5746C139.851 51.4486 139.786 51.3899 139.693 51.3986C139.553 51.4116 139.375 51.5869 139.16 51.9245C138.943 52.2505 138.706 52.6666 138.447 53.1729C138.2 53.6781 137.944 54.2135 137.68 54.7792C137.426 55.3437 137.188 55.8775 136.964 56.3806C136.74 56.8719 136.547 57.2604 136.385 57.5459C136.257 57.8165 136.135 58.0161 136.017 58.1447C135.9 58.2732 135.748 58.3462 135.561 58.3636C135.34 58.3842 135.125 58.2866 134.917 58.0708C134.72 57.8539 134.606 57.5764 134.575 57.2383C134.556 57.0401 134.562 56.7279 134.593 56.3016C134.623 55.8637 134.666 55.3834 134.723 54.8606C134.792 54.3367 134.856 53.8251 134.916 53.3256C134.985 52.8134 135.045 52.3786 135.094 52.0212C135.15 51.6161 135.242 51.3371 135.369 51.1841C135.496 51.0312 135.641 50.9471 135.804 50.9319C136.025 50.9112 136.208 50.9766 136.351 51.1278C136.505 51.2664 136.598 51.4989 136.628 51.8253C136.633 51.8836 136.613 52.0443 136.567 52.3073C136.52 52.5587 136.461 52.8699 136.39 53.2412C136.329 53.5996 136.258 53.9767 136.177 54.3723C136.108 54.7668 136.054 55.1306 136.015 55.4636C136.231 55.0083 136.456 54.5169 136.689 53.9895C136.933 53.461 137.179 52.9383 137.425 52.4214C137.669 51.8929 137.918 51.4111 138.172 50.9758C138.424 50.5289 138.679 50.17 138.936 49.8991C139.193 49.6282 139.45 49.4808 139.706 49.4569C140.009 49.4286 140.298 49.4958 140.572 49.6585C140.857 49.82 141.096 50.0506 141.289 50.3502C141.481 50.6498 141.596 50.9919 141.631 51.3767C141.656 51.6448 141.645 52.0281 141.598 52.5265C141.549 53.0132 141.498 53.5413 141.445 54.1107C141.404 54.679 141.395 55.215 141.419 55.7185C141.43 55.8351 141.47 55.8901 141.54 55.8836C141.598 55.8782 141.664 55.8308 141.738 55.7416C142.042 55.337 142.373 54.8534 142.732 54.2907C143.09 53.7163 143.451 53.1123 143.816 52.4785C144.192 51.8437 144.563 51.2211 144.929 50.6107C145.295 49.9886 145.637 49.4275 145.955 48.9275C146.283 48.4147 146.574 48.0054 146.828 47.6995C147.093 47.3925 147.308 47.2314 147.471 47.2162C147.821 47.1836 148.098 47.2577 148.303 47.4385C148.508 47.6193 148.632 47.9429 148.676 48.4093C148.711 48.7824 148.727 49.269 148.724 49.869C148.732 50.468 148.729 51.121 148.712 51.8282C148.707 52.5343 148.692 53.2472 148.665 53.9672C148.648 54.6743 148.627 55.3348 148.602 55.9487C148.576 56.5509 148.558 57.0466 148.547 57.4357ZM152.546 62.8315C152.348 62.85 152.184 62.7947 152.054 62.6657C151.936 62.5355 151.859 62.2723 151.822 61.8759C151.768 61.3046 151.747 60.6362 151.758 59.8707C151.769 59.1053 151.805 58.2905 151.866 57.4263C151.938 56.5611 152.022 55.6947 152.117 54.8273C152.225 53.9588 152.341 53.1306 152.468 52.3426C152.606 51.5535 152.747 50.8524 152.889 50.2393C153.031 49.6146 153.167 49.1197 153.298 48.7547C153.44 48.3887 153.575 48.1996 153.704 48.1877C153.925 48.1671 154.106 48.2149 154.246 48.3312C154.398 48.4464 154.486 48.6322 154.51 48.8888C154.54 49.2152 154.491 49.7549 154.361 50.5079C154.23 51.2493 154.062 52.2176 153.855 53.4128C154.097 52.8494 154.36 52.2604 154.643 51.6459C154.927 51.0314 155.23 50.4328 155.552 49.8501C155.873 49.2557 156.199 48.7195 156.531 48.2417C156.875 47.7628 157.215 47.3724 157.551 47.0706C157.888 46.7688 158.225 46.6021 158.563 46.5706C158.924 46.5369 159.256 46.6236 159.557 46.8307C159.858 47.0262 160.102 47.3092 160.289 47.6798C160.487 48.0377 160.608 48.4498 160.651 48.9162C160.742 49.8839 160.666 50.8377 160.424 51.7775C160.181 52.7057 159.802 53.5584 159.287 54.3356C158.782 55.1001 158.158 55.7285 157.416 56.2211C156.686 56.7125 155.872 57.0001 154.974 57.0837C154.636 57.1152 154.331 57.126 154.059 57.116C153.788 57.106 153.551 57.0869 153.349 57.0588C153.28 57.8413 153.22 58.6467 153.168 59.4747C153.116 60.3028 153.068 61.1834 153.026 62.1164C153.014 62.3645 152.971 62.539 152.898 62.6399C152.827 62.7524 152.709 62.8163 152.546 62.8315ZM159.002 47.8704C158.757 47.8932 158.478 48.0603 158.166 48.3716C157.866 48.6818 157.545 49.0881 157.204 49.5903C156.873 50.0798 156.541 50.6223 156.209 51.2178C155.875 51.8016 155.554 52.396 155.246 53.001C154.938 53.606 154.655 54.1674 154.397 54.6854C154.152 55.2022 153.951 55.6326 153.795 55.9764C154.702 55.8684 155.484 55.6132 156.14 55.211C156.795 54.7971 157.343 54.2992 157.782 53.7172C158.221 53.1236 158.563 52.4979 158.807 51.84C159.062 51.1694 159.232 50.5303 159.316 49.9227C159.4 49.3033 159.421 48.7722 159.38 48.3291C159.349 48.0026 159.223 47.8497 159.002 47.8704ZM166.352 57.0112C165.454 57.0949 164.722 56.8692 164.155 56.334C163.598 55.7861 163.27 54.9817 163.171 53.9207C163.11 53.2678 163.126 52.4959 163.22 51.6052C163.324 50.7017 163.47 49.7472 163.659 48.7418C163.858 47.7236 164.081 46.7149 164.329 45.7157C164.577 44.7164 164.82 43.7883 165.058 42.9311C165.306 42.0612 165.526 41.3351 165.719 40.7526C165.83 40.4248 166.013 40.2489 166.27 40.225C166.619 40.1924 166.814 40.3918 166.855 40.8232C166.868 40.9631 166.83 41.2547 166.742 41.6981C166.654 42.1414 166.535 42.6935 166.385 43.3543C166.234 44.0035 166.072 44.7242 165.898 45.5165C165.725 46.3088 165.548 47.125 165.368 47.9651C165.198 48.7924 165.045 49.6122 164.909 50.4246C164.772 51.2253 164.672 51.9756 164.607 52.6755C164.543 53.3753 164.534 53.9701 164.58 54.4598C164.609 54.7746 164.714 55.0176 164.895 55.189C165.086 55.3476 165.327 55.4133 165.619 55.3861C166.155 55.3361 166.681 55.1812 167.198 54.9214C167.726 54.6488 168.225 54.3317 168.697 53.9702C169.168 53.597 169.593 53.234 169.972 52.8812C170.361 52.5156 170.692 52.2143 170.964 51.9773C171.234 51.7286 171.428 51.5988 171.545 51.588C171.801 51.564 171.942 51.692 171.969 51.9718C171.977 52.0651 171.9 52.2487 171.738 52.5226C171.574 52.7848 171.35 53.0996 171.067 53.4671C170.784 53.8345 170.449 54.2185 170.063 54.6191C169.688 55.0069 169.287 55.3794 168.862 55.7366C168.447 56.081 168.021 56.3677 167.584 56.5966C167.159 56.8361 166.749 56.9743 166.352 57.0112ZM172.562 56.1855C172.119 56.2268 171.733 56.057 171.403 55.6761C171.085 55.2825 170.894 54.7533 170.832 54.0888C170.775 53.4708 170.869 52.8446 171.116 52.2101C171.374 51.5745 171.734 50.9529 172.194 50.3455C172.655 49.738 173.167 49.1729 173.73 48.65C174.292 48.1155 174.859 47.6451 175.433 47.2388C176.018 46.8314 176.558 46.5047 177.053 46.2587C177.547 46.0127 177.946 45.8756 178.249 45.8473C178.413 45.8321 178.55 45.8546 178.661 45.9148C178.772 45.9633 178.835 46.0692 178.85 46.2324C178.86 46.3373 178.828 46.4402 178.755 46.5411C178.767 46.54 178.778 46.5389 178.79 46.5379C179.047 46.514 179.189 46.6536 179.217 46.9567C179.227 47.0616 179.206 47.2811 179.155 47.6152C179.103 47.9376 179.046 48.3427 178.986 48.8305C178.926 49.3183 178.882 49.8575 178.855 50.4481C178.826 51.027 178.84 51.6137 178.895 52.2084C178.942 52.7097 179.158 52.9425 179.542 52.9066C179.974 52.8664 180.402 52.7266 180.826 52.4871C181.251 52.2476 181.66 51.9683 182.054 51.6494C182.446 51.3188 182.804 50.9973 183.128 50.6849C183.451 50.3608 183.725 50.0883 183.952 49.8672C184.178 49.6462 184.344 49.5308 184.448 49.521C184.542 49.5123 184.626 49.5339 184.701 49.5857C184.777 49.6374 184.821 49.7275 184.832 49.8557C184.843 49.9723 184.746 50.193 184.541 50.5179C184.336 50.8428 184.06 51.2155 183.711 51.6361C183.362 52.0567 182.965 52.47 182.521 52.876C182.076 53.282 181.614 53.6249 181.135 53.9048C180.655 54.1847 180.188 54.3459 179.733 54.3883C179.384 54.4209 179.053 54.3458 178.742 54.1631C178.442 53.9677 178.18 53.6157 177.956 53.1074C177.744 52.5979 177.595 51.8827 177.509 50.9616L177.468 50.5244C176.985 51.522 176.465 52.4407 175.908 53.2806C175.363 54.1193 174.803 54.8007 174.229 55.3246C173.666 55.8475 173.11 56.1345 172.562 56.1855ZM178.034 47.1375C177.978 47.1662 177.9 47.2088 177.799 47.2652C177.286 47.5601 176.755 47.9154 176.205 48.3311C175.668 48.7458 175.145 49.2002 174.639 49.6943C174.144 50.1873 173.703 50.693 173.316 51.2112C172.929 51.7294 172.63 52.2453 172.419 52.7589C172.209 53.2725 172.125 53.7625 172.168 54.2289C172.182 54.3804 172.222 54.4943 172.288 54.5705C172.366 54.6456 172.486 54.6755 172.65 54.6603C172.883 54.6386 173.172 54.4646 173.518 54.1383C173.863 53.8004 174.234 53.366 174.632 52.835C175.041 52.303 175.445 51.7184 175.844 51.0814C176.243 50.4444 176.619 49.8038 176.97 49.1595C177.334 48.5141 177.643 47.9208 177.898 47.3795C177.937 47.2936 177.983 47.2129 178.034 47.1375ZM182.143 49.189C181.826 49.195 181.661 49.0046 181.649 48.6177C181.652 48.5233 181.706 48.4066 181.81 48.2674C181.914 48.1167 182.041 48.0284 182.191 48.0026C182.55 47.9339 182.988 47.8402 183.506 47.7213C184.035 47.5897 184.615 47.4416 185.246 47.2769C185.309 46.6947 185.393 46.0812 185.498 45.4364C185.603 44.7916 185.726 44.1627 185.869 43.5496C186.011 42.9248 186.17 42.3573 186.345 41.847C186.521 41.3366 186.719 40.9302 186.937 40.6275C187.054 40.4873 187.162 40.389 187.263 40.3326C187.362 40.2645 187.453 40.2267 187.534 40.2191C187.698 40.2039 187.832 40.2619 187.939 40.3931C188.057 40.5232 188.124 40.6757 188.14 40.8506C188.149 40.9439 188.14 41.0388 188.114 41.1353C187.941 41.81 187.766 42.6378 187.587 43.6189C187.408 44.5999 187.219 45.67 187.021 46.8292C188.078 46.5544 189.133 46.2679 190.187 45.9697C191.241 45.6715 192.146 45.405 192.9 45.17C193.113 45.0561 193.283 45.0578 193.412 45.1752C193.552 45.2915 193.628 45.4138 193.64 45.5421C193.655 45.7053 193.62 45.832 193.535 45.9224C193.46 46.0116 193.38 46.0897 193.292 46.1567L193.276 46.1758C193.051 46.2908 192.712 46.4341 192.258 46.6059C191.802 46.7659 191.278 46.9441 190.684 47.1406C190.09 47.3253 189.455 47.5139 188.779 47.7062C188.115 47.8975 187.455 48.0766 186.8 48.2434C186.628 49.2944 186.452 50.3751 186.273 51.4855C186.105 52.5831 185.935 53.6633 185.764 54.7259C185.686 55.1565 185.577 55.4314 185.435 55.5504C185.306 55.6801 185.16 55.7525 184.997 55.7677C184.81 55.7851 184.64 55.7303 184.487 55.6035C184.346 55.4755 184.302 55.1915 184.355 54.7514L185.076 48.6687C184.386 48.8389 183.775 48.9722 183.243 49.0688C182.723 49.1644 182.356 49.2044 182.143 49.189ZM198.599 45.6974C198.634 46.0705 198.551 46.4486 198.352 46.8318C198.151 47.2033 197.874 47.5702 197.519 47.9325C197.164 48.2832 196.766 48.6201 196.326 48.9434C195.885 49.2667 195.442 49.555 194.995 49.8083C194.548 50.0616 194.138 50.2704 193.766 50.4345C193.715 50.8979 193.706 51.3045 193.738 51.6542C193.759 51.8758 193.826 52.0283 193.94 52.1118C194.053 52.1953 194.221 52.2267 194.442 52.206C194.932 52.1604 195.443 52.0246 195.974 51.7987C196.506 51.5727 197.045 51.2932 197.59 50.9601C198.135 50.6271 198.655 50.2787 199.151 49.915C199.646 49.5513 200.096 49.2095 200.502 48.8894C200.918 48.5683 201.265 48.3067 201.54 48.1047C201.815 47.9026 201.999 47.7973 202.092 47.7886C202.232 47.7755 202.342 47.8124 202.42 47.8991C202.509 47.9732 202.56 48.0685 202.57 48.185C202.579 48.2783 202.45 48.4726 202.184 48.7679C201.929 49.0622 201.579 49.4123 201.135 49.8183C200.69 50.2126 200.187 50.624 199.627 51.0525C199.067 51.481 198.482 51.8884 197.871 52.2746C197.272 52.6597 196.684 52.9791 196.108 53.2327C195.544 53.4853 195.028 53.6333 194.562 53.6767C193.955 53.7332 193.462 53.5499 193.082 53.1267C192.701 52.7035 192.466 52.0139 192.377 51.0578C192.317 50.4165 192.339 49.7619 192.441 49.0937C192.555 48.4245 192.73 47.779 192.966 47.1572C193.213 46.5227 193.495 45.9554 193.813 45.4554C194.142 44.9426 194.498 44.5331 194.881 44.2269C195.263 43.909 195.646 43.7322 196.031 43.6963C196.765 43.6279 197.361 43.7781 197.819 44.1471C198.277 44.516 198.537 45.0328 198.599 45.6974ZM194.007 49.0536C194.348 48.7984 194.7 48.5304 195.061 48.2497C195.423 47.969 195.756 47.6852 196.058 47.3983C196.361 47.1114 196.598 46.8188 196.77 46.5205C196.953 46.2094 197.03 45.9024 197.002 45.5992C196.962 45.1678 196.708 44.9739 196.242 45.0173C195.951 45.0445 195.659 45.2598 195.367 45.6633C195.086 46.0541 194.827 46.5546 194.59 47.1647C194.353 47.7748 194.159 48.4045 194.007 49.0536Z" fill="white"/>
<path d="M342.487 17.1312C346.835 18.8846 353.771 21.7512 358.268 19.9688C359.58 19.4488 357.64 21.6831 357.568 21.787C354.036 26.907 352.201 32.2444 351.383 38.789" stroke="white" stroke-width="2.30278" stroke-linecap="round"/>
<path d="M216.419 42.8219C243.111 38.7221 260.534 37.5518 280.624 19.1148C288.519 11.8683 285.404 1.21824 273.894 2.60551C267.525 3.37326 265.583 10.9402 265.751 16.1276C266.079 26.2115 272.354 34.4238 282.122 37.7299C315.572 49.0506 341.428 31.1067 356.001 22.1909" stroke="white" stroke-width="2.30278" stroke-linecap="round"/>
</svg>
