<svg width="253" height="50" viewBox="0 0 253 50" fill="none" xmlns="http://www.w3.org/2000/svg">
<path d="M4.40585 43.4482C3.86952 43.4982 3.45353 43.3882 3.15788 43.1182C2.86223 42.8482 2.70003 42.559 2.67129 42.2506C2.63756 41.8886 2.67898 41.6075 2.79557 41.4073C2.91216 41.2071 3.1605 41.0419 3.54059 40.9118C4.0401 40.7571 4.55723 40.5736 5.09197 40.3615C5.64011 40.1481 6.16082 39.9306 6.65409 39.7088C7.15951 39.4723 7.5979 39.2421 7.96924 39.0182C8.33933 38.7808 8.60341 38.5669 8.76147 38.3763C8.5357 38.2756 8.18067 38.1667 7.69639 38.0495C7.21086 37.919 6.6692 37.7666 6.07141 37.5924C5.48577 37.4035 4.9165 37.1725 4.3636 36.8995C3.81069 36.6264 3.34664 36.291 2.97146 35.8931C2.59627 35.4953 2.38306 35.0215 2.33183 34.4718C2.2606 33.7075 2.38817 32.9721 2.71453 32.2654C3.04089 31.5588 3.499 30.8872 4.08887 30.2507C4.67873 29.6142 5.3266 29.0196 6.03247 28.4669C6.75175 27.913 7.4687 27.4066 8.18332 26.9478C8.9101 26.4743 9.5608 26.0553 10.1354 25.6907C10.3509 25.5354 10.5573 25.4282 10.7547 25.3693C10.9642 25.2956 11.1561 25.2507 11.3304 25.2344C11.9338 25.1782 12.3632 25.287 12.6186 25.5607C12.874 25.8344 13.0161 26.1255 13.0449 26.4339C13.0648 26.6484 12.988 26.9126 12.8144 27.2263C12.6395 27.5266 12.3421 27.818 11.9221 28.1006C11.5155 28.3819 10.9619 28.6094 10.2613 28.7829C10.1419 28.8075 10.0359 28.8309 9.94325 28.8531C9.43192 29.1712 8.88535 29.5467 8.30357 29.9796C7.72178 30.4125 7.17538 30.8624 6.66439 31.3293C6.16555 31.7815 5.76056 32.225 5.44944 32.6598C5.13831 33.0945 4.99774 33.4728 5.02773 33.7945C5.06147 34.1566 5.23957 34.4713 5.56204 34.7388C5.88326 34.9929 6.28305 35.2194 6.76142 35.4182C7.25195 35.6024 7.76196 35.7781 8.29146 35.9451C8.83437 36.1109 9.34439 36.2865 9.82151 36.472C10.3108 36.6428 10.7154 36.8485 11.0354 37.0892C11.3553 37.3299 11.5309 37.6178 11.5622 37.953C11.6047 38.4089 11.4911 38.859 11.2214 39.3034C10.9518 39.7478 10.5858 40.1741 10.1234 40.5824C9.6598 40.9772 9.14613 41.3429 8.58241 41.6795C8.01869 42.016 7.45793 42.3117 6.90012 42.5666C6.35697 42.8336 5.86246 43.042 5.41658 43.1917C4.9707 43.3415 4.63379 43.427 4.40585 43.4482ZM28.1466 30.22C28.1616 30.3809 28.121 30.5267 28.025 30.6573C27.929 30.788 27.8037 30.8944 27.649 30.9764C27.4298 31.0915 27.0455 31.249 26.4961 31.449C25.9467 31.649 25.2785 31.8803 24.4916 32.143C23.718 32.4044 22.8847 32.6782 21.9917 32.9643C21.0974 33.237 20.2025 33.5029 19.307 33.7622C19.0783 35.0819 18.8467 36.4424 18.6122 37.8438C18.3763 39.2317 18.1386 40.5996 17.8991 41.9473C17.8087 42.4291 17.6809 42.7994 17.5157 43.0582C17.3518 43.3305 17.0418 43.4878 16.5859 43.5303C16.0898 43.5766 15.7397 43.4469 15.5354 43.1414C15.3457 42.848 15.2862 42.4275 15.3569 41.8799C15.5694 40.3859 15.7643 38.995 15.9418 37.7072C16.1328 36.4181 16.2859 35.3759 16.4011 34.5808C15.6091 34.7898 14.9152 34.9627 14.3193 35.0993C13.7222 35.2226 13.2956 35.2894 13.0396 35.2998C12.7556 35.2992 12.5103 35.2071 12.3038 35.0234C12.0974 34.8398 11.9871 34.5999 11.973 34.3037C11.9749 34.033 12.0743 33.7938 12.2713 33.5861C12.4671 33.365 12.7106 33.2206 13.0019 33.1529C13.4138 33.0739 13.9445 32.9636 14.594 32.8219C15.2435 32.6802 15.9588 32.5189 16.7398 32.3379C16.8504 31.6379 16.9859 30.9152 17.1464 30.1699C17.3056 29.4112 17.4747 28.6854 17.6535 27.9925C17.8446 27.285 18.0303 26.6658 18.2108 26.1351C18.3912 25.6043 18.5647 25.2162 18.7312 24.9708C18.8624 24.7827 19.0309 24.6318 19.2367 24.5179C19.4559 24.4028 19.6728 24.3353 19.8873 24.3153C20.1689 24.2891 20.4062 24.3684 20.5992 24.5533C20.7923 24.7381 20.9013 24.9647 20.9263 25.2328C20.9363 25.3401 20.9402 25.4547 20.938 25.5766C20.9346 25.6851 20.9178 25.7949 20.8876 25.9059C20.6953 26.6 20.496 27.4369 20.2898 28.4163C20.0969 29.3945 19.8994 30.4679 19.6972 31.6363C20.6891 31.3951 21.6608 31.1558 22.6125 30.9183C23.5763 30.6662 24.4475 30.4362 25.226 30.2284C26.0168 30.006 26.6485 29.8186 27.1212 29.6664C27.3806 29.5475 27.6104 29.5464 27.8106 29.663C28.0096 29.7662 28.1216 29.9518 28.1466 30.22ZM26.7743 41.3434C26.3452 41.3834 25.9451 41.2989 25.574 41.0901C25.2042 40.8946 24.9012 40.6185 24.6651 40.2619C24.4277 39.8918 24.2884 39.4855 24.2472 39.043C24.1697 38.2117 24.2751 37.3836 24.5634 36.5588C24.8651 35.7328 25.2846 34.9363 25.8217 34.1694C26.3588 33.4026 26.9552 32.6911 27.6109 32.0349C28.2787 31.364 28.9479 30.781 29.6186 30.2857C30.3026 29.7891 30.9284 29.3927 31.4959 29.0964C32.0767 28.7988 32.5348 28.6344 32.87 28.6032C33.2588 28.5669 33.582 28.6247 33.8396 28.7765C34.1094 28.9137 34.2605 29.1566 34.293 29.5052C34.303 29.6125 34.2843 29.7021 34.2369 29.7741C34.4149 29.7981 34.5651 29.8856 34.6874 30.0365C34.8096 30.1874 34.8857 30.4237 34.9157 30.7455C34.9282 30.8796 34.9272 31.2313 34.9126 31.8007C34.8981 32.3701 34.8881 33.0608 34.8826 33.8728C34.8905 34.6835 34.9351 35.5247 35.0163 36.3962C35.0288 36.5303 35.0602 36.6491 35.1104 36.7526C35.1593 36.8427 35.2509 36.8815 35.385 36.869C35.9213 36.819 36.4543 36.6612 36.9841 36.3954C37.526 36.115 38.0434 35.7895 38.5363 35.419C39.0414 35.0338 39.4935 34.6603 39.8925 34.2985C40.3038 33.9221 40.6469 33.6129 40.9219 33.3708C41.209 33.1142 41.3995 32.9815 41.4934 32.9727C41.9492 32.9302 42.1984 33.1369 42.2409 33.5928C42.2522 33.7135 42.1284 33.982 41.8697 34.3983C41.6231 34.8 41.2749 35.272 40.825 35.8143C40.3739 36.3432 39.8624 36.8778 39.2906 37.4179C38.731 37.9435 38.137 38.391 37.5088 38.7606C36.8939 39.129 36.2848 39.3413 35.6814 39.3975C34.944 39.4662 34.3646 39.3444 33.9433 39.032C33.5354 38.7184 33.2235 38.2741 33.0076 37.6992C32.8039 37.1095 32.6603 36.4399 32.577 35.6903C31.9844 36.7328 31.3549 37.6706 30.6887 38.5036C30.0346 39.3219 29.3729 39.9854 28.7035 40.4941C28.0341 41.0028 27.391 41.2859 26.7743 41.3434ZM32.955 30.6037C31.6997 31.3563 30.5873 32.1903 29.6176 33.1056C28.6468 34.0076 27.8942 34.9298 27.3599 35.8722C26.839 36.8134 26.6166 37.6929 26.6929 38.5108C26.7141 38.7387 26.832 38.8427 27.0465 38.8227C27.3013 38.799 27.6227 38.6202 28.0109 38.2865C28.4125 37.9516 28.8388 37.5196 29.2899 36.9907C29.7398 36.4484 30.1847 35.8524 30.6246 35.2028C31.0632 34.5398 31.467 33.8665 31.8361 33.1829C32.2052 32.4993 32.4896 31.8507 32.6894 31.237C32.7633 31.0137 32.8518 30.8026 32.955 30.6037ZM41.9358 40.0522C41.6006 40.0834 41.3011 39.9896 41.0373 39.7707C40.7868 39.5506 40.6404 39.2126 40.5979 38.7568C40.5791 38.5556 40.5753 38.2246 40.5865 37.7638C40.6098 37.2882 40.6403 36.7444 40.6779 36.1323C40.7289 35.5189 40.7708 34.8794 40.8034 34.2136C40.8494 33.5466 40.8785 32.915 40.8905 32.3188C40.916 31.7214 40.9228 31.2136 40.9109 30.7954C40.8902 30.2834 40.9906 29.9089 41.2119 29.6719C41.432 29.4215 41.7097 29.2806 42.0449 29.2494C42.313 29.2244 42.5606 29.2689 42.7877 29.383C43.0268 29.4825 43.192 29.7308 43.2831 30.128C43.3864 30.5106 43.4456 31.0732 43.4607 31.8156C43.9507 30.688 44.458 29.6737 44.9826 28.7727C45.5207 27.8705 46.1018 27.1402 46.726 26.5816C47.7601 25.6332 48.7264 25.1171 49.6247 25.0334C50.1342 24.9859 50.4801 25.0686 50.6622 25.2816C50.8443 25.4945 50.9467 25.7217 50.9691 25.963C50.9841 26.1239 50.9577 26.2751 50.8897 26.4167C50.8352 26.557 50.7008 26.7116 50.4866 26.8803C50.2724 27.049 49.9419 27.2759 49.4951 27.561C48.8949 27.9416 48.3108 28.422 47.7428 29.0024C47.1881 29.5816 46.6472 30.3082 46.1201 31.1823C45.5929 32.0564 45.0766 33.1189 44.571 34.3697C44.0654 35.6205 43.561 37.1011 43.0577 38.8116C42.9795 39.2787 42.8333 39.5966 42.6191 39.7653C42.4183 39.9328 42.1906 40.0284 41.9358 40.0522ZM64.1341 26.8663C64.1491 27.0272 64.1086 27.173 64.0125 27.3036C63.9165 27.4343 63.7912 27.5406 63.6365 27.6227C63.4173 27.7378 63.0331 27.8953 62.4837 28.0953C61.9343 28.2953 61.2661 28.5266 60.4791 28.7893C59.7055 29.0507 58.8722 29.3245 57.9792 29.6106C57.0849 29.8832 56.19 30.1492 55.2945 30.4085C55.0659 31.7282 54.8342 33.0887 54.5997 34.49C54.3639 35.878 54.1262 37.2458 53.8866 38.5936C53.7962 39.0754 53.6685 39.4457 53.5032 39.7045C53.3393 39.9768 53.0293 40.1341 52.5735 40.1766C52.0774 40.2228 51.7272 40.0932 51.5229 39.7876C51.3332 39.4942 51.2738 39.0738 51.3445 38.5262C51.5569 37.0322 51.7518 35.6413 51.9294 34.3534C52.1203 33.0643 52.2734 32.0222 52.3886 31.227C51.5966 31.4361 50.9027 31.609 50.3068 31.7456C49.7097 31.8689 49.2831 31.9357 49.0271 31.946C48.7431 31.9455 48.4978 31.8534 48.2914 31.6697C48.0849 31.4861 47.9746 31.2462 47.9605 30.9499C47.9624 30.6793 48.0618 30.4401 48.2588 30.2324C48.4546 30.0113 48.6981 29.8669 48.9894 29.7991C49.4013 29.7202 49.932 29.6099 50.5815 29.4682C51.231 29.3265 51.9463 29.1652 52.7274 28.9842C52.8379 28.2841 52.9735 27.5615 53.1339 26.8162C53.2931 26.0575 53.4622 25.3317 53.641 24.6388C53.8321 23.9312 54.0178 23.3121 54.1983 22.7813C54.3787 22.2506 54.5522 21.8625 54.7187 21.6171C54.8499 21.429 55.0184 21.2781 55.2242 21.1642C55.4434 21.0491 55.6603 20.9816 55.8748 20.9616C56.1564 20.9353 56.3937 21.0147 56.5867 21.1995C56.7798 21.3844 56.8888 21.6109 56.9138 21.8791C56.9238 21.9864 56.9277 22.101 56.9255 22.2229C56.9221 22.3314 56.9053 22.4412 56.8751 22.5522C56.6828 23.2463 56.4835 24.0831 56.2773 25.0626C56.0844 26.0408 55.8869 27.1141 55.6847 28.2826C56.6766 28.0414 57.6483 27.802 58.6 27.5646C59.5638 27.3125 60.435 27.0825 61.2136 26.8747C62.0043 26.6522 62.636 26.4649 63.1087 26.3126C63.3681 26.1938 63.5979 26.1927 63.7982 26.3093C63.9971 26.4124 64.1091 26.5981 64.1341 26.8663ZM74.0066 36.3331C73.658 36.3656 73.3876 36.2218 73.1954 35.9015C73.0033 35.5813 72.8673 34.9922 72.7873 34.134C72.6748 32.9273 72.6299 31.6467 72.6524 30.2921C72.6871 28.9229 72.7587 27.442 72.8673 25.8495C72.979 24.5813 73.4327 23.5721 74.2284 22.8217C75.0374 22.0701 76.1527 21.4116 77.5742 20.8464C78.461 20.4932 79.3831 20.1571 80.3407 19.8379C81.2982 19.5188 82.1998 19.2522 83.0454 19.0381C83.9032 18.8094 84.6137 18.6688 85.1768 18.6163C85.6059 18.5764 85.9473 18.6122 86.2012 18.7237C86.455 18.8353 86.6382 18.9873 86.7508 19.1797C86.8756 19.3574 86.9455 19.5267 86.9605 19.6876C86.9842 19.9424 86.9451 20.1759 86.8432 20.3883C86.7413 20.6007 86.4942 20.7792 86.1019 20.924C85.9326 20.9939 85.5726 21.1221 85.022 21.3086C84.4835 21.4805 83.8201 21.6911 83.0319 21.9404C82.2571 22.1884 81.4365 22.4542 80.5703 22.7378C79.7029 23.008 78.8629 23.2824 78.0503 23.561C77.2549 23.8786 76.679 24.2298 76.3227 24.6146C75.9785 24.9848 75.7761 25.4973 75.7154 26.1522C75.701 26.2887 75.6917 26.479 75.6874 26.7228C76.2209 26.4973 76.7977 26.3015 77.4179 26.1355C78.0381 25.9695 78.6139 25.8347 79.1452 25.7311C79.6765 25.6275 80.0696 25.5638 80.3243 25.5401C80.5925 25.5151 80.8784 25.5358 81.1821 25.6021C81.498 25.6538 81.7714 25.7569 82.0021 25.9112C82.2451 26.0508 82.3784 26.248 82.4021 26.5028C82.4246 26.7441 82.3514 26.9741 82.1824 27.1927C82.0122 27.3979 81.6469 27.6146 81.0866 27.8426C80.9697 27.8941 80.6998 27.9733 80.277 28.0803C79.8676 28.1861 79.3796 28.3195 78.8131 28.4805C78.2587 28.6268 77.6921 28.7878 77.1134 28.9635C76.5481 29.1379 76.0505 29.3127 75.6205 29.4881C75.5941 30.2208 75.5744 30.953 75.5615 31.6845C75.5485 32.4161 75.5402 33.0525 75.5365 33.5938C75.5316 34.1217 75.522 34.454 75.5077 34.5906C75.4735 35.0942 75.3153 35.5011 75.0332 35.8114C74.751 36.1217 74.4088 36.2956 74.0066 36.3331ZM86.4624 35.9027C86.1272 35.9339 85.8277 35.8401 85.5638 35.6213C85.3134 35.4012 85.1669 35.0632 85.1244 34.6073C85.1057 34.4062 85.1019 34.0752 85.1131 33.6143C85.1364 33.1388 85.1668 32.5949 85.2045 31.9828C85.2555 31.3695 85.2973 30.7299 85.33 30.0642C85.376 29.3972 85.405 28.7656 85.4171 28.1694C85.4426 27.5719 85.4494 27.0641 85.4374 26.6459C85.4168 26.1339 85.5171 25.7594 85.7385 25.5224C85.9586 25.272 86.2362 25.1311 86.5714 25.0999C86.8396 25.0749 87.0872 25.1195 87.3142 25.2335C87.5534 25.333 87.7185 25.5813 87.8097 25.9786C87.9129 26.3612 87.9721 26.9237 87.9872 27.6661C88.4772 26.5385 88.9845 25.5242 89.5092 24.6233C90.0472 23.7211 90.6284 22.9907 91.2525 22.4321C92.2867 21.4837 93.2529 20.9676 94.1513 20.8839C94.6608 20.8364 95.0066 20.9191 95.1888 21.1321C95.3709 21.345 95.4732 21.5722 95.4957 21.8135C95.5107 21.9744 95.4842 22.1257 95.4163 22.2672C95.3617 22.4076 95.2273 22.5621 95.0132 22.7308C94.799 22.8996 94.4685 23.1265 94.0217 23.4115C93.4215 23.7921 92.8374 24.2725 92.2693 24.8529C91.7147 25.4321 91.1738 26.1587 90.6466 27.0328C90.1195 27.907 89.6031 28.9694 89.0976 30.2202C88.592 31.471 88.0876 32.9516 87.5843 34.6621C87.5061 35.1292 87.3599 35.4471 87.1457 35.6158C86.9449 35.7833 86.7171 35.8789 86.4624 35.9027ZM98.532 34.5547C97.5801 34.6435 96.7846 34.3795 96.1455 33.7628C95.5053 33.1327 95.132 32.2478 95.0258 31.1081C94.9921 30.7461 95.0046 30.373 95.0635 29.9888C95.1358 29.6034 95.2307 29.2429 95.3482 28.9074C95.2565 28.7942 95.1751 28.6463 95.1039 28.4636C95.045 28.2662 95.003 28.0334 94.978 27.7652C94.8968 26.8937 94.9766 26.0816 95.2175 25.3288C95.4572 24.5626 95.8135 23.887 96.2864 23.3019C96.7594 22.7169 97.2972 22.2475 97.8999 21.8938C98.5026 21.5401 99.1257 21.3332 99.7693 21.2732C100.869 21.1708 101.801 21.4558 102.567 22.1283C103.347 22.7995 103.809 23.9128 103.954 25.4681C104.026 26.2458 103.979 27.0481 103.813 27.8751C103.647 28.7021 103.39 29.5037 103.043 30.2798C102.708 31.0414 102.3 31.7354 101.817 32.3619C101.348 32.9872 100.827 33.4956 100.255 33.887C99.6963 34.2772 99.122 34.4998 98.532 34.5547ZM97.5767 27.7868C97.6575 27.928 97.7073 28.0992 97.726 28.3003C97.7448 28.5015 97.7239 28.713 97.6635 28.9351C97.603 29.1571 97.5494 29.4529 97.5027 29.8224C97.4547 30.1785 97.4614 30.6851 97.5226 31.342C97.5388 31.5164 97.5727 31.662 97.6242 31.7789C97.6878 31.8812 97.8068 31.9242 97.9811 31.9079C98.4369 31.8654 98.8523 31.678 99.227 31.3455C99.6152 31.0118 99.9477 30.5886 100.224 30.0759C100.515 29.562 100.746 28.9994 100.919 28.3882C101.104 27.7624 101.229 27.1354 101.292 26.5074C101.367 25.8647 101.38 25.2752 101.33 24.7389C101.297 24.3903 101.208 24.1552 101.061 24.0336C100.915 23.912 100.674 23.8668 100.339 23.8981C99.8826 23.9406 99.4271 24.1318 98.9719 24.4717C98.5289 24.797 98.1695 25.2227 97.894 25.7488C97.6172 26.2615 97.5075 26.8262 97.565 27.443C97.5762 27.5637 97.5801 27.6783 97.5767 27.7868ZM124.923 30.9593C124.91 31.6908 124.515 32.0928 123.737 32.1653C123.335 32.2028 123.002 32.1121 122.738 31.8932C122.488 31.6731 122.341 31.3351 122.299 30.8793C122.226 30.1016 122.182 29.2672 122.167 28.376C122.163 27.4701 122.173 26.5563 122.195 25.6346C122.231 24.7116 122.264 23.8294 122.294 22.9881C121.876 23.7303 121.433 24.4951 120.966 25.2826C120.498 26.07 120.028 26.8373 119.557 27.5845C119.086 28.3317 118.628 29.01 118.185 29.6194C117.753 30.2141 117.352 30.6978 116.981 31.0705C116.609 31.4298 116.288 31.6219 116.02 31.6469C115.377 31.7069 114.798 31.5241 114.285 31.0986C113.771 30.6596 113.48 30.0714 113.411 29.3339C113.387 29.0792 113.382 28.7348 113.396 28.3007C113.408 27.8533 113.431 27.3777 113.466 26.8741C113.5 26.3705 113.523 25.895 113.536 25.4475C113.548 25.0001 113.542 24.6489 113.519 24.3942C113.519 24.3942 113.517 24.3808 113.515 24.354C113.522 24.2857 113.505 24.2534 113.465 24.2572C113.412 24.2622 113.281 24.4569 113.073 24.8414C112.865 25.2125 112.612 25.6959 112.316 26.2915C112.02 26.8871 111.706 27.5115 111.375 28.1645C111.057 28.8162 110.755 29.4259 110.47 29.9935C110.198 30.5598 109.969 31.0004 109.782 31.3154C109.529 31.7988 109.281 32.1127 109.038 32.2571C108.794 32.4015 108.505 32.4893 108.17 32.5205C107.7 32.5643 107.317 32.4444 107.02 32.161C106.736 31.863 106.566 31.4257 106.513 30.8491C106.49 30.6078 106.495 30.2286 106.528 29.7116C106.575 29.1934 106.636 28.6196 106.713 27.9903C106.788 27.3476 106.865 26.7251 106.944 26.1226C107.036 25.5055 107.116 24.9841 107.184 24.5585C107.254 23.9975 107.386 23.5998 107.58 23.3652C107.787 23.1161 108.064 22.9752 108.413 22.9427C109.231 22.8665 109.677 23.2306 109.752 24.0351C109.766 24.1826 109.742 24.4283 109.679 24.7723C109.616 25.1162 109.539 25.5157 109.446 25.9707C109.353 26.4256 109.255 26.8946 109.151 27.3777C109.046 27.8473 108.965 28.2876 108.909 28.6986C109.178 28.1054 109.471 27.4696 109.786 26.791C110.101 26.1124 110.425 25.4466 110.756 24.7936C111.101 24.1394 111.444 23.5394 111.785 22.9936C112.14 22.4466 112.498 22.0075 112.86 21.6763C113.22 21.3317 113.574 21.1431 113.923 21.1106C114.271 21.0781 114.625 21.1737 114.984 21.3972C115.342 21.6073 115.646 21.8968 115.897 22.2656C116.16 22.6198 116.311 23.0114 116.351 23.4405C116.389 23.8427 116.38 24.3304 116.325 24.9036C116.27 25.4767 116.205 26.0779 116.128 26.7072C116.051 27.3364 116.014 27.9485 116.015 28.5435C116.424 27.9915 116.852 27.37 117.302 26.6789C117.75 25.9744 118.21 25.2486 118.681 24.5014C119.153 23.7542 119.613 23.0283 120.061 22.3238C120.523 21.6181 120.95 20.9765 121.342 20.3989C121.748 19.8201 122.111 19.3603 122.431 19.0194C122.749 18.6651 123.003 18.4792 123.19 18.4617C123.74 18.4105 124.183 18.518 124.519 18.7842C124.867 19.0358 125.074 19.5169 125.14 20.2276C125.181 20.67 125.202 21.2497 125.201 21.9666C125.213 22.6822 125.205 23.4607 125.175 24.302C125.157 25.1286 125.128 25.9699 125.086 26.8259C125.056 27.6672 125.027 28.4475 124.999 29.1669C124.972 29.8863 124.946 30.4837 124.923 30.9593ZM139.561 17.707C138.918 17.767 138.436 17.751 138.117 17.659C137.809 17.5525 137.6 17.4164 137.49 17.2508C137.392 17.0706 137.336 16.9068 137.323 16.7593C137.305 16.5715 137.392 16.347 137.584 16.0857C137.775 15.8109 138.173 15.5845 138.779 15.4063C139.383 15.2148 140.103 15.026 140.937 14.84C141.771 14.6406 142.66 14.4563 143.604 14.2872C144.548 14.1046 145.506 13.9342 146.478 13.7759C147.451 13.6177 148.378 13.4839 149.261 13.3746C150.142 13.2519 150.924 13.1587 151.608 13.095C152.319 13.0288 152.872 13.0178 153.268 13.062C153.665 13.1062 153.949 13.1811 154.121 13.2868C154.307 13.3912 154.419 13.5093 154.459 13.6408C154.511 13.7712 154.543 13.8967 154.554 14.0173C154.557 14.0442 154.559 14.0643 154.56 14.0777C154.575 14.2386 154.551 14.4166 154.488 14.6118C154.439 14.8058 154.299 14.9811 154.071 15.1376C153.84 15.2808 153.484 15.3749 153.001 15.4199C152.827 15.4361 152.441 15.4992 151.842 15.609C151.244 15.7189 150.513 15.8547 149.649 16.0163C148.785 16.178 147.867 16.3447 146.896 16.5163C146.804 17.1334 146.702 17.853 146.59 18.675C146.49 19.4957 146.388 20.3573 146.283 21.2597C146.191 22.1609 146.105 23.048 146.024 23.9211C145.942 24.7809 145.881 25.5777 145.841 26.3118C145.8 27.0324 145.78 27.6225 145.783 28.0821C145.786 28.7039 145.646 29.1565 145.361 29.44C145.089 29.7089 144.805 29.857 144.51 29.8845C144.296 29.9045 144.077 29.8776 143.853 29.8037C143.631 29.7433 143.44 29.5785 143.28 29.3094C143.118 29.0269 143.011 28.5974 142.957 28.0209C142.902 27.4309 142.888 26.7019 142.915 25.8338C142.942 24.9522 142.995 24.0072 143.077 22.9988C143.173 21.9891 143.287 20.9708 143.422 19.944C143.569 18.9159 143.73 17.9542 143.903 17.0589C143.011 17.2097 142.185 17.3475 141.426 17.4723C140.666 17.5838 140.044 17.662 139.561 17.707ZM155.658 29.2514C154.826 29.3289 154.129 29.1031 153.566 28.574C153.001 28.0315 152.659 27.11 152.537 25.8094C152.46 24.9781 152.476 24.1381 152.587 23.2893C152.709 22.4258 152.91 21.6024 153.188 20.8191C153.479 20.0211 153.832 19.3052 154.246 18.6715C154.674 18.0366 155.16 17.5246 155.705 17.1357C156.249 16.7334 156.83 16.5035 157.447 16.446C158.492 16.3485 159.337 16.5539 159.979 17.062C160.621 17.5702 160.983 18.26 161.065 19.1316C161.127 19.802 160.996 20.4295 160.672 21.0143C160.36 21.5843 159.909 22.1132 159.319 22.601C158.728 23.0888 158.061 23.5433 157.315 23.9643C156.57 24.3854 155.802 24.7749 155.01 25.1327C154.988 25.6216 154.995 26.0538 155.03 26.4292C155.051 26.6571 155.189 26.7592 155.444 26.7355C156.047 26.6793 156.682 26.5254 157.348 26.274C158.027 26.0079 158.707 25.6876 159.389 25.3129C160.069 24.9249 160.723 24.5327 161.348 24.1363C161.973 23.7264 162.539 23.3423 163.046 22.984C163.566 22.6109 163.992 22.3143 164.323 22.0941C164.666 21.8593 164.891 21.7368 164.999 21.7268C165.294 21.6993 165.516 21.7665 165.667 21.9283C165.817 22.0901 165.901 22.2716 165.92 22.4727C165.929 22.5666 165.767 22.7913 165.435 23.1468C165.117 23.5011 164.669 23.9282 164.094 24.4281C163.531 24.9134 162.889 25.4263 162.168 25.9668C161.46 26.4927 160.716 27.0015 159.937 27.4934C159.17 27.9706 158.415 28.3655 157.674 28.6781C156.947 29.0028 156.275 29.1939 155.658 29.2514ZM155.185 23.3108C155.705 22.9378 156.217 22.552 156.721 22.1534C157.237 21.7401 157.655 21.2954 157.976 20.8192C158.295 20.3296 158.427 19.7831 158.371 19.1797C158.355 19.0054 158.297 18.8958 158.198 18.8509C158.098 18.7926 157.961 18.7716 157.787 18.7879C157.317 18.8316 156.908 19.0794 156.557 19.5313C156.221 19.9819 155.936 20.5495 155.702 21.234C155.48 21.9038 155.308 22.5961 155.185 23.3108ZM182.707 25.5743C182.694 26.3058 182.299 26.7078 181.521 26.7803C181.119 26.8178 180.786 26.7271 180.522 26.5083C180.272 26.2881 180.125 25.9502 180.083 25.4943C180.01 24.7166 179.966 23.8822 179.951 22.991C179.948 22.0852 179.957 21.1714 179.979 20.2496C180.015 19.3266 180.048 18.4445 180.078 17.6032C179.66 18.3454 179.217 19.1102 178.75 19.8976C178.282 20.685 177.813 21.4524 177.341 22.1996C176.87 22.9468 176.412 23.625 175.969 24.2344C175.537 24.8291 175.136 25.3128 174.765 25.6855C174.393 26.0448 174.073 26.2369 173.804 26.2619C173.161 26.3219 172.583 26.1391 172.07 25.7136C171.555 25.2746 171.264 24.6864 171.195 23.949C171.171 23.6942 171.166 23.3498 171.18 22.9157C171.192 22.4683 171.216 21.9927 171.25 21.4891C171.284 20.9855 171.307 20.51 171.32 20.0625C171.332 19.6151 171.326 19.264 171.303 19.0092C171.303 19.0092 171.301 18.9958 171.299 18.969C171.306 18.9007 171.29 18.8684 171.249 18.8722C171.196 18.8772 171.065 19.0719 170.858 19.4564C170.649 19.8275 170.396 20.3109 170.1 20.9065C169.804 21.5022 169.49 22.1265 169.159 22.7795C168.841 23.4313 168.539 24.0409 168.254 24.6085C167.982 25.1748 167.753 25.6154 167.566 25.9304C167.313 26.4138 167.065 26.7277 166.822 26.8721C166.578 27.0165 166.289 27.1043 165.954 27.1356C165.484 27.1793 165.101 27.0595 164.804 26.7761C164.52 26.478 164.35 26.0407 164.297 25.4642C164.274 25.2228 164.279 24.8436 164.312 24.3266C164.359 23.8084 164.42 23.2346 164.497 22.6053C164.572 21.9627 164.649 21.3401 164.729 20.7377C164.82 20.1205 164.9 19.5992 164.968 19.1735C165.038 18.6125 165.17 18.2148 165.364 17.9803C165.571 17.7311 165.849 17.5902 166.197 17.5578C167.015 17.4815 167.462 17.8457 167.536 18.6502C167.55 18.7976 167.526 19.0434 167.463 19.3873C167.401 19.7313 167.323 20.1307 167.23 20.5857C167.137 21.0407 167.039 21.5096 166.935 21.9927C166.83 22.4623 166.749 22.9026 166.693 23.3136C166.962 22.7205 167.255 22.0846 167.57 21.406C167.886 20.7275 168.209 20.0617 168.54 19.4087C168.885 18.7544 169.228 18.1544 169.57 17.6086C169.924 17.0616 170.282 16.6225 170.644 16.2913C171.004 15.9467 171.358 15.7582 171.707 15.7257C172.055 15.6932 172.409 15.7887 172.768 16.0122C173.126 16.2223 173.43 16.5118 173.681 16.8806C173.944 17.2348 174.095 17.6264 174.135 18.0555C174.173 18.4577 174.164 18.9454 174.109 19.5186C174.054 20.0917 173.989 20.6929 173.912 21.3222C173.836 21.9515 173.798 22.5636 173.799 23.1585C174.208 22.6065 174.637 21.985 175.086 21.2939C175.534 20.5895 175.994 19.8636 176.466 19.1164C176.937 18.3692 177.397 17.6434 177.845 16.9389C178.307 16.2331 178.734 15.5915 179.126 15.0139C179.532 14.4351 179.895 13.9753 180.215 13.6344C180.534 13.2801 180.787 13.0942 180.974 13.0767C181.524 13.0255 181.967 13.133 182.303 13.3993C182.651 13.6508 182.858 14.132 182.924 14.8426C182.965 15.2851 182.986 15.8647 182.985 16.5816C182.997 17.2972 182.989 18.0757 182.959 18.917C182.941 19.7436 182.912 20.5849 182.87 21.4409C182.84 22.2822 182.811 23.0625 182.784 23.7819C182.756 24.5013 182.73 25.0988 182.707 25.5743ZM187.388 32.1167C187.013 32.1517 186.706 32.0451 186.466 31.7969C186.241 31.5609 186.104 31.1748 186.054 30.6384C185.985 29.901 185.97 29.0165 186.009 27.985C186.049 26.9535 186.129 25.8573 186.251 24.6963C186.372 23.5354 186.516 22.3927 186.682 21.2682C186.886 19.9779 187.094 18.8021 187.307 17.741C187.532 16.6785 187.777 15.8239 188.041 15.1772C188.318 14.5158 188.624 14.1694 188.959 14.1382C189.267 14.1095 189.546 14.1984 189.795 14.4051C190.057 14.5972 190.207 14.9077 190.247 15.3368C190.276 15.6452 190.237 16.0951 190.13 16.6867C190.021 17.2648 189.886 17.9875 189.723 18.8547C190.109 18.0614 190.51 17.2802 190.925 16.5111C191.353 15.7409 191.795 15.037 192.249 14.3996C192.704 13.7621 193.156 13.2466 193.607 12.853C194.057 12.4594 194.496 12.2426 194.926 12.2027C195.435 12.1552 195.898 12.2608 196.314 12.5196C196.744 12.777 197.097 13.1499 197.372 13.6382C197.647 14.1265 197.815 14.6924 197.875 15.336C197.986 16.5293 197.88 17.7091 197.556 18.8754C197.23 20.0282 196.727 21.0827 196.045 22.0389C195.377 22.9938 194.564 23.7796 193.607 24.3962C192.649 24.9994 191.587 25.3554 190.42 25.4641C190.085 25.4954 189.773 25.4906 189.486 25.4498C189.212 25.4211 188.958 25.3772 188.723 25.318C188.642 26.1911 188.569 27.0837 188.506 27.9958C188.457 28.9201 188.405 29.8919 188.351 30.9112C188.259 31.6637 187.938 32.0655 187.388 32.1167ZM195.348 14.5572C195.053 14.5846 194.696 14.8208 194.278 15.2655C193.873 15.709 193.439 16.2836 192.978 16.9893C192.515 17.6816 192.051 18.4349 191.586 19.2491C191.133 20.0487 190.699 20.833 190.283 21.6021C189.882 22.3698 189.538 23.0375 189.253 23.6051C190.262 23.4028 191.135 23.051 191.873 22.5494C192.609 22.0345 193.223 21.4363 193.714 20.7549C194.205 20.0735 194.586 19.3685 194.856 18.6401C195.138 17.897 195.329 17.1827 195.427 16.4973C195.526 15.8119 195.552 15.2211 195.505 14.725C195.494 14.6044 195.442 14.5484 195.348 14.5572ZM204.999 24.9778C203.793 25.0902 202.806 24.8102 202.04 24.1378C201.287 23.4506 200.845 22.4165 200.717 21.0355C200.647 20.2847 200.665 19.397 200.773 18.3727C200.879 17.3349 201.041 16.2379 201.257 15.0816C201.486 13.9107 201.737 12.7513 202.008 11.6035C202.294 10.4543 202.579 9.3863 202.866 8.39934C203.153 7.41237 203.407 6.58397 203.629 5.91414C203.824 5.39555 204.143 5.11564 204.585 5.0744C204.867 5.04816 205.103 5.11407 205.293 5.27214C205.497 5.42895 205.617 5.70177 205.653 6.09061C205.671 6.27832 205.615 6.69602 205.486 7.34369C205.357 7.99137 205.182 8.79216 204.96 9.74606C204.75 10.6853 204.52 11.7008 204.27 12.7925C204.033 13.883 203.811 14.9789 203.602 16.0803C203.407 17.1805 203.26 18.2153 203.161 19.1847C203.061 20.1408 203.042 20.9473 203.103 21.6043C203.128 21.8725 203.221 22.0802 203.384 22.2273C203.56 22.3732 203.775 22.4343 204.03 22.4106C204.58 22.3593 205.133 22.2063 205.691 21.9514C206.262 21.6953 206.815 21.3869 207.35 21.026C207.897 20.6639 208.41 20.2848 208.887 19.8887C209.364 19.4926 209.789 19.1216 210.163 18.7757C210.548 18.4152 210.86 18.1292 211.097 17.9177C211.409 17.6317 211.625 17.4831 211.745 17.4719C212.201 17.4294 212.45 17.6294 212.491 18.0719C212.501 18.1791 212.387 18.4129 212.151 18.773C211.95 19.0893 211.663 19.4947 211.29 19.9893C210.917 20.4839 210.479 21.0116 209.977 21.5723C209.487 22.1184 208.954 22.6414 208.379 23.1414C207.816 23.6401 207.247 24.0583 206.67 24.3961C206.093 24.7339 205.536 24.9278 204.999 24.9778ZM212.609 24.0252C212.18 24.0652 211.78 23.9808 211.409 23.7719C211.039 23.5765 210.736 23.3004 210.5 22.9437C210.262 22.5736 210.123 22.1673 210.082 21.7249C210.004 20.8936 210.11 20.0655 210.398 19.2407C210.7 18.4146 211.119 17.6181 211.656 16.8513C212.193 16.0844 212.79 15.3729 213.445 14.7167C214.113 14.0459 214.782 13.4628 215.453 12.9675C216.137 12.471 216.763 12.0746 217.33 11.7782C217.911 11.4807 218.369 11.3163 218.705 11.285C219.093 11.2488 219.417 11.3066 219.674 11.4584C219.944 11.5955 220.095 11.8384 220.127 12.187C220.137 12.2943 220.119 12.384 220.071 12.456C220.249 12.48 220.4 12.5674 220.522 12.7183C220.644 12.8692 220.72 13.1056 220.75 13.4274C220.763 13.5615 220.762 13.9132 220.747 14.4826C220.733 15.052 220.723 15.7427 220.717 16.5546C220.725 17.3654 220.77 18.2065 220.851 19.078C220.863 19.2121 220.895 19.3309 220.945 19.4344C220.994 19.5245 221.085 19.5634 221.219 19.5509C221.756 19.5009 222.289 19.343 222.819 19.0772C223.36 18.7968 223.878 18.4714 224.371 18.1008C224.876 17.7156 225.328 17.3422 225.727 16.9804C226.138 16.6039 226.481 16.2947 226.756 16.0527C227.044 15.796 227.234 15.6633 227.328 15.6546C227.784 15.6121 228.033 15.8188 228.075 16.2746C228.087 16.3953 227.963 16.6638 227.704 17.0801C227.458 17.4818 227.109 17.9538 226.66 18.4961C226.208 19.0251 225.697 19.5596 225.125 20.0998C224.566 20.6253 223.972 21.0729 223.343 21.4425C222.728 21.8108 222.119 22.0231 221.516 22.0794C220.779 22.1481 220.199 22.0263 219.778 21.7139C219.37 21.4003 219.058 20.956 218.842 20.381C218.638 19.7914 218.495 19.1218 218.411 18.3722C217.819 19.4147 217.189 20.3524 216.523 21.1854C215.869 22.0038 215.207 22.6673 214.538 23.176C213.869 23.6847 213.226 23.9677 212.609 24.0252ZM218.789 13.2855C217.534 14.0381 216.422 14.8721 215.452 15.7875C214.481 16.6895 213.729 17.6116 213.194 18.554C212.674 19.4952 212.451 20.3747 212.527 21.1926C212.549 21.4206 212.667 21.5246 212.881 21.5046C213.136 21.4808 213.457 21.3021 213.845 20.9684C214.247 20.6334 214.673 20.2015 215.124 19.6725C215.574 19.1302 216.019 18.5342 216.459 17.8846C216.898 17.2216 217.302 16.5483 217.671 15.8648C218.04 15.1812 218.324 14.5326 218.524 13.9189C218.598 13.6956 218.686 13.4845 218.789 13.2855ZM240.231 10.4555C240.246 10.6164 240.206 10.7622 240.11 10.8929C240.014 11.0236 239.889 11.1299 239.734 11.2119C239.515 11.327 239.13 11.4846 238.581 11.6846C238.032 11.8845 237.363 12.1158 236.576 12.3785C235.803 12.64 234.97 12.9137 234.077 13.1998C233.182 13.4725 232.287 13.7385 231.392 13.9978C231.163 15.3174 230.932 16.6779 230.697 18.0793C230.461 19.4673 230.224 20.8351 229.984 22.1829C229.894 22.6646 229.766 23.0349 229.601 23.2938C229.437 23.566 229.127 23.7234 228.671 23.7659C228.175 23.8121 227.825 23.6825 227.62 23.3769C227.431 23.0835 227.371 22.663 227.442 22.1155C227.654 20.6215 227.849 19.2306 228.027 17.9427C228.218 16.6536 228.371 15.6115 228.486 14.8163C227.694 15.0254 227 15.1982 226.404 15.3349C225.807 15.4582 225.381 15.525 225.125 15.5353C224.84 15.5347 224.595 15.4426 224.389 15.259C224.182 15.0754 224.072 14.8354 224.058 14.5392C224.06 14.2685 224.159 14.0294 224.356 13.8217C224.552 13.6005 224.796 13.4561 225.087 13.3884C225.499 13.3095 226.029 13.1991 226.679 13.0575C227.328 12.9158 228.044 12.7545 228.825 12.5735C228.935 11.8734 229.071 11.1507 229.231 10.4055C229.391 9.64676 229.56 8.92097 229.738 8.22807C229.929 7.52051 230.115 6.90136 230.296 6.37061C230.476 5.83986 230.65 5.45177 230.816 5.20633C230.947 5.01828 231.116 4.86733 231.322 4.75348C231.541 4.63839 231.758 4.57084 231.972 4.55085C232.254 4.52461 232.491 4.60393 232.684 4.78881C232.877 4.97368 232.986 5.2002 233.011 5.46837C233.021 5.57563 233.025 5.69023 233.023 5.81215C233.02 5.92066 233.003 6.03043 232.972 6.14144C232.78 6.83559 232.581 7.6724 232.375 8.65187C232.182 9.63008 231.984 10.7034 231.782 11.8718C232.774 11.6306 233.746 11.3913 234.697 11.1539C235.661 10.9017 236.532 10.6718 237.311 10.464C238.102 10.2415 238.733 10.0542 239.206 9.90192C239.466 9.78307 239.695 9.78194 239.896 9.89853C240.094 10.0017 240.206 10.1874 240.231 10.4555ZM241.48 21.2536C240.648 21.331 239.951 21.1052 239.388 20.5762C238.823 20.0337 238.48 19.1122 238.359 17.8116C238.282 16.9803 238.298 16.1402 238.408 15.2914C238.531 14.428 238.731 13.6046 239.01 12.8212C239.301 12.0232 239.653 11.3074 240.068 10.6737C240.495 10.0387 240.982 9.5268 241.527 9.13787C242.071 8.73552 242.652 8.50561 243.268 8.44814C244.314 8.35067 245.158 8.55602 245.801 9.06419C246.443 9.57235 246.805 10.2622 246.886 11.1337C246.949 11.8041 246.818 12.4317 246.494 13.0164C246.182 13.5865 245.731 14.1154 245.14 14.6032C244.55 15.091 243.882 15.5454 243.137 15.9665C242.392 16.3876 241.624 16.777 240.832 17.1348C240.81 17.6238 240.816 18.0559 240.851 18.4314C240.873 18.6593 241.011 18.7614 241.265 18.7377C241.869 18.6814 242.504 18.5276 243.17 18.2762C243.848 18.0101 244.529 17.6897 245.211 17.3151C245.891 16.9271 246.544 16.5349 247.17 16.1384C247.795 15.7286 248.361 15.3445 248.868 14.9861C249.388 14.6131 249.813 14.3165 250.145 14.0963C250.488 13.8614 250.713 13.739 250.82 13.729C251.115 13.7015 251.338 13.7687 251.488 13.9305C251.639 14.0923 251.723 14.2737 251.742 14.4749C251.751 14.5687 251.589 14.7934 251.257 15.149C250.938 15.5032 250.491 15.9304 249.916 16.4303C249.352 16.9156 248.71 17.4285 247.99 17.969C247.282 18.4948 246.538 19.0037 245.759 19.4956C244.992 19.9728 244.237 20.3677 243.495 20.6803C242.768 21.005 242.096 21.1961 241.48 21.2536ZM241.007 15.313C241.527 14.9399 242.039 14.5541 242.543 14.1555C243.059 13.7423 243.477 13.2976 243.798 12.8214C244.117 12.3317 244.249 11.7853 244.193 11.1819C244.176 11.0076 244.119 10.898 244.02 10.8531C243.92 10.7948 243.783 10.7738 243.608 10.79C243.139 10.8338 242.729 11.0816 242.379 11.5335C242.043 11.9841 241.757 12.5517 241.524 13.2361C241.302 13.906 241.13 14.5982 241.007 15.313Z" fill="white"/>
</svg>
