<svg width="8" height="15" viewBox="0 0 8 15" fill="none" xmlns="http://www.w3.org/2000/svg">
<path fill-rule="evenodd" clip-rule="evenodd" d="M4.63266 3.0529L6.50536 5.03679C6.75426 5.30053 7.15734 5.30053 7.40624 5.03679C7.65514 4.77305 7.65514 4.34594 7.40624 4.0822L4.44876 0.947954C4.19986 0.684666 3.79634 0.684666 3.54744 0.947954C2.09524 2.48718 0.818464 3.84007 0.592925 4.0786C0.344025 4.34234 0.344025 4.7699 0.592925 5.03364C0.841825 5.29693 1.24534 5.29693 1.49424 5.03364L3.35843 3.05786L3.35843 13.5745C3.35843 13.7536 3.42554 13.9256 3.54532 14.052C3.66467 14.1785 3.8265 14.2496 3.99555 14.2496C4.16459 14.2496 4.32685 14.1785 4.4462 14.052C4.56556 13.9256 4.63266 13.7536 4.63266 13.5745L4.63266 3.0529Z" fill="#D2D2D7"/>
</svg>
