<svg width="39" height="23" viewBox="0 0 39 23" fill="none" xmlns="http://www.w3.org/2000/svg">
<path d="M35.7548 0.750916C35.6537 0.754135 35.5529 0.762814 35.4527 0.777091H27.5951C26.8624 0.766873 26.1559 1.04473 25.634 1.54824C25.1121 2.05188 24.8183 2.73914 24.8183 3.45639C24.8183 4.17365 25.1121 4.86091 25.634 5.36441C26.1559 5.86805 26.8624 6.14577 27.5951 6.13566H29.1992L19.3817 15.7435L13.1039 9.59973L13.1041 9.59959C12.5906 9.09734 11.8943 8.81515 11.1683 8.81515C10.4423 8.81515 9.74614 9.09734 9.23267 9.59959L1.01958 17.6375H1.01944C0.488671 18.1362 0.185333 18.8231 0.177874 19.5431C0.170447 20.2633 0.45939 20.9559 0.97973 21.4652C1.50004 21.9744 2.20793 22.2572 2.94364 22.2499C3.6795 22.2426 4.3812 21.9457 4.89084 21.4263L11.1686 15.2825L17.4463 21.4263C17.9598 21.9285 18.6561 22.2107 19.3821 22.2107C20.108 22.2107 20.8042 21.9285 21.3177 21.4263L33.0709 9.92428V11.4941L33.0711 11.4943C33.0607 12.2114 33.3445 12.9027 33.8591 13.4134C34.3737 13.9241 35.076 14.2116 35.8088 14.2116C36.5417 14.2116 37.244 13.9241 37.7586 13.4134C38.2731 12.9027 38.5569 12.2114 38.5466 11.4943V3.78352C38.6526 3.00485 38.4042 2.21984 37.8669 1.63614C37.3297 1.05244 36.5577 0.728824 35.7553 0.751077L35.7548 0.750916Z" fill="#161616"/>
</svg>
