<svg width="196" height="196" viewBox="0 0 196 196" fill="none" xmlns="http://www.w3.org/2000/svg">
<rect width="196" height="196" rx="98" fill="white"/>
<g clip-path="url(#clip0_1922_45238)">
<path d="M71.3804 92.8754C71.3804 94.3982 71.5427 95.6329 71.8268 96.5384C72.1514 97.4438 72.5571 98.4316 73.1252 99.5017C73.3281 99.8309 73.4092 100.16 73.4092 100.448C73.4092 100.86 73.1658 101.271 72.6383 101.683L70.082 103.412C69.7168 103.659 69.3516 103.782 69.027 103.782C68.6213 103.782 68.2155 103.576 67.8097 103.206C67.2417 102.588 66.7548 101.93 66.349 101.271C65.9432 100.572 65.5375 99.7898 65.0911 98.8432C61.9262 102.63 57.9498 104.523 53.1618 104.523C49.7534 104.523 47.0348 103.535 45.0466 101.56C43.0583 99.584 42.0439 96.9499 42.0439 93.6574C42.0439 90.1591 43.2612 87.3192 45.7364 85.1791C48.2115 83.0389 51.4982 81.9689 55.6775 81.9689C57.0571 81.9689 58.4772 82.0923 59.9786 82.2981C61.4799 82.5039 63.0218 82.8331 64.6448 83.2036V80.1991C64.6448 77.0712 63.9956 74.8899 62.7377 73.614C61.4393 72.3382 59.2482 71.7208 56.1238 71.7208C54.7037 71.7208 53.2429 71.8854 51.7416 72.2558C50.2403 72.6263 48.7796 73.079 47.3594 73.6552C46.7102 73.9433 46.2233 74.1079 45.9392 74.1902C45.6552 74.2725 45.4523 74.3137 45.29 74.3137C44.722 74.3137 44.4379 73.9021 44.4379 73.0378V71.0211C44.4379 70.3626 44.5191 69.8687 44.722 69.5806C44.9248 69.2925 45.29 69.0044 45.8581 68.7164C47.2783 67.9755 48.9824 67.3582 50.9707 66.8643C52.9589 66.3293 55.0689 66.0823 57.3005 66.0823C62.1291 66.0823 65.6592 67.1935 67.9315 69.416C70.1631 71.6385 71.2993 75.0133 71.2993 79.5406V92.8754H71.3804ZM54.9066 99.1313C56.2456 99.1313 57.6251 98.8843 59.0859 98.3904C60.5466 97.8966 61.8451 96.9911 62.9406 95.7564C63.5898 94.9744 64.0767 94.1101 64.3202 93.1224C64.5637 92.1346 64.726 90.941 64.726 89.5417V87.8131C63.5492 87.525 62.2914 87.2781 60.993 87.1135C59.6945 86.9488 58.4367 86.8665 57.1788 86.8665C54.4602 86.8665 52.472 87.4016 51.133 88.5128C49.794 89.624 49.1448 91.188 49.1448 93.2458C49.1448 95.1802 49.6317 96.6207 50.6461 97.6085C51.6199 98.6374 53.0401 99.1313 54.9066 99.1313ZM87.4891 103.576C86.7587 103.576 86.2718 103.453 85.9472 103.165C85.6226 102.918 85.3386 102.341 85.0951 101.56L75.5598 69.7453C75.3163 68.9221 75.1946 68.3871 75.1946 68.099C75.1946 67.4405 75.5192 67.0701 76.1684 67.0701H80.1449C80.9158 67.0701 81.4433 67.1935 81.7273 67.4816C82.0519 67.7286 82.2954 68.3048 82.5388 69.0868L89.3556 96.3326L95.6855 69.0868C95.8884 68.2636 96.1318 67.7286 96.4564 67.4816C96.781 67.2347 97.3491 67.0701 98.0795 67.0701H101.326C102.096 67.0701 102.624 67.1935 102.949 67.4816C103.273 67.7286 103.557 68.3048 103.72 69.0868L110.131 96.6618L117.15 69.0868C117.394 68.2636 117.678 67.7286 117.962 67.4816C118.286 67.2347 118.814 67.0701 119.544 67.0701H123.318C123.967 67.0701 124.332 67.3993 124.332 68.099C124.332 68.3048 124.292 68.5106 124.251 68.7575C124.21 69.0044 124.129 69.3337 123.967 69.7864L114.188 101.601C113.945 102.424 113.661 102.959 113.336 103.206C113.011 103.453 112.484 103.617 111.794 103.617H108.305C107.534 103.617 107.006 103.494 106.682 103.206C106.357 102.918 106.073 102.383 105.911 101.56L99.6213 75.0133L93.3726 101.518C93.1698 102.341 92.9263 102.877 92.6017 103.165C92.2771 103.453 91.709 103.576 90.9787 103.576H87.4891ZM139.629 104.687C137.519 104.687 135.409 104.44 133.381 103.947C131.352 103.453 129.769 102.918 128.714 102.3C128.065 101.93 127.619 101.518 127.457 101.148C127.294 100.778 127.213 100.366 127.213 99.9956V97.8966C127.213 97.0323 127.538 96.6207 128.146 96.6207C128.39 96.6207 128.633 96.6618 128.877 96.7442C129.12 96.8265 129.485 96.9911 129.891 97.1557C131.271 97.7731 132.772 98.267 134.354 98.5962C135.977 98.9255 137.56 99.0901 139.183 99.0901C141.739 99.0901 143.728 98.6374 145.107 97.7319C146.487 96.8265 147.217 95.5095 147.217 93.822C147.217 92.6696 146.852 91.723 146.121 90.941C145.391 90.1591 144.012 89.4594 142.023 88.8009L136.14 86.9488C133.178 86.0022 130.987 84.6029 129.648 82.7508C128.309 80.9399 127.619 78.9232 127.619 76.7831C127.619 75.0545 127.984 73.5317 128.714 72.2147C129.445 70.8977 130.419 69.7453 131.636 68.8398C132.853 67.8932 134.233 67.1935 135.856 66.6997C137.479 66.2058 139.183 66 140.968 66C141.861 66 142.794 66.0412 143.687 66.1646C144.62 66.2881 145.472 66.4527 146.324 66.6174C147.136 66.8231 147.907 67.0289 148.637 67.2759C149.368 67.5228 149.936 67.7697 150.341 68.0167C150.909 68.3459 151.315 68.6752 151.559 69.0456C151.802 69.3749 151.924 69.8276 151.924 70.4038V72.3382C151.924 73.2024 151.599 73.6552 150.991 73.6552C150.666 73.6552 150.139 73.4905 149.449 73.1613C147.136 72.0912 144.539 71.5562 141.658 71.5562C139.345 71.5562 137.519 71.9266 136.262 72.7086C135.004 73.4905 134.354 74.6841 134.354 76.3715C134.354 77.5239 134.76 78.5117 135.572 79.2937C136.383 80.0756 137.885 80.8576 140.035 81.5573L145.797 83.4093C148.718 84.356 150.828 85.673 152.086 87.3604C153.344 89.0478 153.953 90.9822 153.953 93.1224C153.953 94.8921 153.587 96.4972 152.898 97.8966C152.167 99.2959 151.193 100.531 149.936 101.518C148.678 102.547 147.176 103.288 145.432 103.823C143.606 104.399 141.699 104.687 139.629 104.687Z" fill="#252F3E"/>
<path d="M147.298 124.689C133.948 134.69 114.553 139.999 97.8761 139.999C74.5043 139.999 53.4453 131.233 37.5395 116.663C36.2816 115.511 37.4178 113.947 38.9191 114.852C56.1233 124.977 77.3446 131.109 99.2962 131.109C114.106 131.109 130.377 127.981 145.35 121.561C147.582 120.532 149.489 123.043 147.298 124.689ZM152.857 118.268C151.152 116.046 141.576 117.198 137.235 117.733C135.936 117.898 135.734 116.746 136.91 115.881C144.539 110.449 157.077 112.013 158.537 113.823C159.998 115.675 158.132 128.393 150.99 134.484C149.895 135.431 148.84 134.937 149.326 133.702C150.95 129.628 154.561 120.45 152.857 118.268Z" fill="#FF9900"/>
</g>
<defs>
<clipPath id="clip0_1922_45238">
<rect width="122" height="74" fill="white" transform="translate(37 66)"/>
</clipPath>
</defs>
</svg>
