<svg xmlns="http://www.w3.org/2000/svg" viewBox="0 0 448 512">
  <path fill="transparent" d="M64 32C28.7 32 0 60.7 0 96L0 416c0 35.3 28.7 64 64 64l320 0c35.3 0 64-28.7 64-64l0-320c0-35.3-28.7-64-64-64L64 32zM64 80c-8.8 0-16 7.2-16 16l0 320c0 8.8 7.2 16 16 16l320 0c8.8 0 16-7.2 16-16l0-320c0-8.8-7.2-16-16-16L64 80z" rx="8" ry="8"/>
  <path fill="#BCF870" d="M365 185L185 365c-14.1 14.1-36.9 14.1-51 0l-96-96c-14.1-14.1-14.1-36.9 0-51s36.9-14.1 51 0l70.5 70.5L314 134c14.1-14.1 36.9-14.1 51 0s14.1 36.9 0 51z"/>
</svg>
