<svg width="12" height="12" viewBox="0 0 12 12" fill="none" xmlns="http://www.w3.org/2000/svg">
<path d="M9.65542 0.331654L7.10586 2.88122C6.5435 3.44358 5.63173 3.44358 5.06937 2.88122L2.51981 0.331654C2.05384 -0.134311 1.28183 -0.117768 0.793807 0.370255C0.305784 0.858278 0.289241 1.63029 0.755207 2.09626L3.30477 4.64582C3.86713 5.20818 3.86713 6.11995 3.30477 6.68231L0.755207 9.23187C0.289241 9.69783 0.305784 10.4698 0.793807 10.9579C1.28183 11.4459 2.05384 11.4624 2.51981 10.9965L5.06937 8.44691C5.63173 7.88455 6.5435 7.88455 7.10586 8.44691L9.65542 10.9965C10.1214 11.4624 10.8934 11.4459 11.3814 10.9579C11.8694 10.4698 11.886 9.69783 11.42 9.23187L8.87046 6.68231C8.3081 6.11995 8.3081 5.20818 8.87046 4.64582L11.42 2.09626C11.886 1.63029 11.8694 0.858278 11.3814 0.370255C10.8934 -0.117768 10.1214 -0.13431 9.65542 0.331654Z" fill="#2D2D2D"/>
<path d="M9.65542 0.331654L7.10586 2.88122C6.5435 3.44358 5.63173 3.44358 5.06937 2.88122L2.51981 0.331654C2.05384 -0.134311 1.28183 -0.117768 0.793807 0.370255C0.305784 0.858278 0.289241 1.63029 0.755207 2.09626L3.30477 4.64582C3.86713 5.20818 3.86713 6.11995 3.30477 6.68231L0.755207 9.23187C0.289241 9.69783 0.305784 10.4698 0.793807 10.9579C1.28183 11.4459 2.05384 11.4624 2.51981 10.9965L5.06937 8.44691C5.63173 7.88455 6.5435 7.88455 7.10586 8.44691L9.65542 10.9965C10.1214 11.4624 10.8934 11.4459 11.3814 10.9579C11.8694 10.4698 11.886 9.69783 11.42 9.23187L8.87046 6.68231C8.3081 6.11995 8.3081 5.20818 8.87046 4.64582L11.42 2.09626C11.886 1.63029 11.8694 0.858278 11.3814 0.370255C10.8934 -0.117768 10.1214 -0.13431 9.65542 0.331654Z" stroke="#2D2D2D"/>
</svg>
