<svg width="12" height="12" viewBox="0 0 12 12" fill="none" xmlns="http://www.w3.org/2000/svg">
<path fill-rule="evenodd" clip-rule="evenodd" d="M10.9497 9.70532L7.24451 6.00008L10.9497 2.29484C11.2892 1.95543 11.2962 1.39682 10.9497 1.05033C10.6033 0.703851 10.0517 0.703851 9.70524 1.05033L6 4.75557L2.29476 1.05033C1.95535 0.710922 1.39673 0.703851 1.05025 1.05033C0.70377 1.39682 0.70377 1.94836 1.05025 2.29484L4.75549 6.00008L1.05025 9.70532C0.710842 10.0447 0.70377 10.6033 1.05025 10.9498C1.39673 11.2963 1.94828 11.2963 2.29476 10.9498L6 7.24459L9.70524 10.9498C10.0447 11.2892 10.6033 11.2963 10.9497 10.9498C11.2962 10.6033 11.2962 10.0518 10.9497 9.70532Z"/>
</svg>
