<svg width="196" height="196" viewBox="0 0 196 196" fill="none" xmlns="http://www.w3.org/2000/svg">
<rect width="196" height="196" rx="98" fill="white"/>
<g clip-path="url(#clip0_4201_51772)">
<path d="M50.8384 124.631C49.7358 126.432 48.487 128.542 47.5013 130.213C47.2841 130.586 47.1463 131.001 47.0836 131.428C47.0241 131.857 47.0468 132.293 47.1504 132.714C47.2507 133.137 47.4345 133.53 47.6851 133.882C47.9356 134.234 48.2531 134.535 48.6164 134.77L70.7651 148.461C71.1452 148.699 71.5754 148.858 72.0223 148.93C72.465 149.001 72.9244 148.984 73.363 148.875C73.8015 148.766 74.215 148.574 74.5784 148.306C74.9417 148.038 75.2466 147.698 75.4763 147.309C76.3701 145.818 77.502 143.887 78.7174 141.827C87.4967 127.391 96.3929 129.158 112.285 136.734L134.254 147.179C134.665 147.377 135.112 147.49 135.568 147.51C136.023 147.531 136.479 147.46 136.906 147.301C137.332 147.141 137.725 146.898 138.055 146.584C138.389 146.27 138.652 145.893 138.836 145.475L149.382 121.632C149.561 121.23 149.662 120.799 149.674 120.359C149.691 119.923 149.62 119.484 149.469 119.073C149.319 118.663 149.094 118.282 148.801 117.955C148.509 117.628 148.158 117.365 147.761 117.168C143.129 114.982 133.912 110.681 125.65 106.627C95.5993 92.09 70.243 93.049 50.8384 124.631Z" fill="url(#paint0_linear_4201_51772)"/>
<path d="M150.146 70.4347C151.261 68.6338 152.51 66.5273 153.483 64.8562C153.704 64.4751 153.851 64.0521 153.913 63.6124C153.976 63.1769 153.951 62.7287 153.842 62.3016C153.731 61.8733 153.538 61.4708 153.274 61.1164C153.011 60.7608 152.68 60.4606 152.301 60.2327L130.186 46.5421C129.802 46.3033 129.376 46.1442 128.929 46.073C128.482 46.0018 128.026 46.0228 127.588 46.1275C127.149 46.2363 126.736 46.429 126.373 46.697C126.009 46.9651 125.704 47.3043 125.47 47.6938C124.597 49.1847 123.445 51.1154 122.229 53.1759C113.417 67.679 104.604 65.9116 88.6952 58.3355L66.747 47.8864C66.3377 47.6896 65.895 47.5723 65.4439 47.5472C64.9928 47.5179 64.5376 47.5849 64.1116 47.7356C63.6855 47.8864 63.2929 48.1209 62.9588 48.4267C62.6205 48.7324 62.3532 49.1009 62.1611 49.5114L51.6151 73.4207C51.2526 74.2317 51.2182 75.1521 51.519 75.988C51.6694 76.4026 51.8991 76.7837 52.1915 77.1104C52.4838 77.437 52.8388 77.7051 53.2356 77.8977C57.8842 80.0881 67.102 84.385 75.3467 88.4431C105.318 102.976 130.754 102.021 150.146 70.4347Z" fill="url(#paint1_linear_4201_51772)"/>
</g>
<defs>
<linearGradient id="paint0_linear_4201_51772" x1="148.672" y1="155.55" x2="81.6714" y2="117.149" gradientUnits="userSpaceOnUse">
<stop stop-color="#0052CC"/>
<stop offset="0.92" stop-color="#2380FB"/>
<stop offset="1" stop-color="#2684FF"/>
</linearGradient>
<linearGradient id="paint1_linear_4201_51772" x1="52.3097" y1="39.502" x2="119.326" y2="77.903" gradientUnits="userSpaceOnUse">
<stop stop-color="#0052CC"/>
<stop offset="0.92" stop-color="#2380FB"/>
<stop offset="1" stop-color="#2684FF"/>
</linearGradient>
<clipPath id="clip0_4201_51772">
<rect width="107" height="103" fill="white" transform="translate(47 46)"/>
</clipPath>
</defs>
</svg>
