<svg viewBox="0 0 13 14" fill="none" xmlns="http://www.w3.org/2000/svg">
<path d="M11.3917 0.5H4.89171C4.46513 0.5 4.05603 0.670862 3.75443 0.975004C3.45282 1.27915 3.2834 1.6917 3.2834 2.12181V3.70152H1.61246C1.18663 3.70043 0.777736 3.86964 0.475522 4.17209C0.173238 4.47459 0.00224533 4.88556 0 5.31498V11.8782C0.00115584 12.3079 0.170928 12.7198 0.472267 13.0238C0.773663 13.3276 1.18209 13.4989 1.60833 13.5H8.10829C8.53487 13.5 8.94397 13.3291 9.24557 13.025C9.54718 12.7208 9.7166 12.3083 9.7166 11.8782V10.2985H11.3875C11.8134 10.2996 12.2223 10.1304 12.5245 9.82791C12.8268 9.52541 12.9978 9.11444 13 8.68502V2.12183C12.9988 1.69207 12.8291 1.2802 12.5277 0.976249C12.2263 0.672382 11.8179 0.501106 11.3917 0.5ZM8.42993 11.874C8.42993 11.96 8.39607 12.0425 8.33576 12.1033C8.27538 12.1642 8.19359 12.1983 8.10827 12.1983H1.60831C1.52332 12.1972 1.44214 12.1627 1.38204 12.1021C1.32193 12.0415 1.28773 11.9597 1.28665 11.874V5.31497C1.28665 5.22892 1.32051 5.14644 1.38088 5.08563C1.44119 5.02482 1.52298 4.9906 1.6083 4.9906H8.10826C8.19393 4.98943 8.2764 5.02331 8.33699 5.08433C8.39757 5.14542 8.43109 5.22859 8.42993 5.31498V11.8782L8.42993 11.874ZM11.7133 8.68504C11.7133 8.77109 11.6795 8.85357 11.6191 8.91438C11.5588 8.9752 11.477 9.00941 11.3917 9.00941H9.72073V5.31498C9.72073 4.8848 9.55129 4.47232 9.24969 4.16817C8.94809 3.86403 8.53899 3.69317 8.11248 3.69317H4.57009V2.12183C4.57009 2.03585 4.60395 1.9533 4.66426 1.89249C4.72463 1.83167 4.80643 1.79753 4.89175 1.79753H11.3917C11.4767 1.79862 11.5579 1.83311 11.618 1.89372C11.6781 1.95433 11.7123 2.0362 11.7134 2.12183L11.7133 8.68504Z" fill="#C7C7D3"/>
</svg>
