<svg width="25" height="14" viewBox="0 0 25 14" fill="none" xmlns="http://www.w3.org/2000/svg">
<path d="M17.0321 8.70055C17.416 8.30927 17.416 7.67485 17.0321 7.28334C16.6482 6.89206 16.0047 6.89206 15.6207 7.28334L13.5387 9.38598V2.19447C13.5387 1.64073 13.1336 1.19247 12.5909 1.19247C12.0481 1.19247 11.6429 1.64073 11.6429 2.19447V9.38598L9.56906 7.28334C9.18507 6.89206 8.5563 6.89206 8.17249 7.28334C7.7885 7.67493 7.78514 8.30925 8.16913 8.70055L11.9056 12.5139C11.9068 12.5152 11.9073 12.5162 11.9086 12.5174C11.9515 12.5607 11.9982 12.6001 12.0489 12.6351C12.0549 12.6391 12.0607 12.6431 12.0668 12.6472C12.0858 12.6597 12.1054 12.6716 12.1254 12.6827C12.1323 12.6865 12.1391 12.6907 12.1462 12.6944C12.1711 12.7076 12.1964 12.72 12.2227 12.731C12.2228 12.7311 12.2229 12.7311 12.2231 12.7311C12.2471 12.7411 12.2715 12.7497 12.2961 12.7578C12.3028 12.76 12.3093 12.7629 12.316 12.7649C12.325 12.7678 12.3342 12.7694 12.3433 12.7719C12.4277 12.7952 12.5135 12.8075 12.599 12.8075C12.6844 12.8075 12.7702 12.7952 12.8544 12.7719C12.8635 12.7694 12.8729 12.7678 12.8818 12.7649C12.8886 12.7629 12.8951 12.76 12.9017 12.7578C12.9264 12.7496 12.9508 12.7411 12.9748 12.7311C12.9749 12.731 12.975 12.731 12.9752 12.731C13.0013 12.7199 13.0267 12.7076 13.0515 12.6945C13.0587 12.6906 13.0657 12.6864 13.0728 12.6825C13.0925 12.6713 13.1118 12.6597 13.1306 12.6475C13.137 12.6433 13.1434 12.639 13.1497 12.6347C13.1739 12.6181 13.1975 12.6007 13.2198 12.5819C13.22 12.5818 13.2202 12.5817 13.2205 12.5815C13.2446 12.5614 13.2674 12.5402 13.2893 12.5179C13.2907 12.5166 13.2924 12.5153 13.2937 12.5138L17.0321 8.70055Z" fill="#818181"/>
<path d="M7.40829 13.5335C7.11248 13.5335 6.81673 13.4209 6.59106 13.1958L1.1979 7.81529C0.746535 7.36498 0.746535 6.63502 1.1979 6.18472L6.59106 0.804203C7.04242 0.353982 7.7741 0.353982 8.22546 0.804203C8.67674 1.25442 8.67674 1.98447 8.22546 2.43477L3.6496 6.99991L8.22546 11.565C8.67674 12.0153 8.67674 12.7453 8.22546 13.1956C7.99979 13.4208 7.70412 13.5333 7.40831 13.5333L7.40829 13.5335Z" fill="#818181"/>
<path d="M17.5912 13.5335C17.887 13.5335 18.1827 13.4209 18.4084 13.1958L23.8016 7.81529C24.2529 7.36498 24.2529 6.63502 23.8016 6.18472L18.4084 0.804203C17.957 0.353982 17.2254 0.353982 16.774 0.804203C16.3227 1.25442 16.3227 1.98447 16.774 2.43477L21.3499 6.99991L16.774 11.565C16.3227 12.0153 16.3227 12.7453 16.774 13.1956C16.9997 13.4208 17.2953 13.5333 17.5912 13.5333L17.5912 13.5335Z" fill="#818181"/>
</svg>
