<svg width="17" height="20" viewBox="0 0 17 20" fill="none" xmlns="http://www.w3.org/2000/svg">
<path d="M0.337023 2.98012L0.552666 2.71306C2.12192 0.769764 4.96171 0.320022 7.08427 1.67883C9.22587 3.04989 12.0936 2.57839 13.6523 0.598885L13.9606 0.207343C14.2345 -0.140511 14.7999 -0.0315717 14.9165 0.391544L16.9774 7.8677C17.0307 8.06149 16.9886 8.26828 16.8632 8.42753L15.9162 9.63021C14.4292 11.5186 11.7317 12.0419 9.61297 10.8528C7.64554 9.74859 5.17588 10.1199 3.64141 11.6967L5.67662 19.0803C5.78408 19.47 5.54622 19.8705 5.1453 19.9749C4.74448 20.0793 4.33247 19.8481 4.22507 19.4584L2.20188 12.1186L2.20149 12.1171L0.0538794 4.32582C-0.0748772 3.85888 0.0300848 3.36031 0.337149 2.9801L0.337023 2.98012Z"/>
</svg>