<svg width="16" height="18" viewBox="0 0 16 18" fill="none" xmlns="http://www.w3.org/2000/svg">
<path d="M6.59375 1.375V6.11703C6.59375 6.67825 6.13882 7.13318 5.5776 7.13318H0.835564"  stroke-width="1.17"/>
<path d="M13.6406 5V3.09087C13.6406 1.9922 12.75 1.10156 11.6513 1.10156L6.60469 1.10156C6.19969 1.10156 5.81082 1.26035 5.5216 1.54387L1.91455 5.36968L1.2352 6.09971C0.968744 6.38604 0.820629 6.76264 0.820629 7.15376V14.9109C0.820629 16.0095 1.71126 16.9002 2.80994 16.9002H11.6513C12.75 16.9002 13.6406 16.0095 13.6406 14.9109V14.5"  stroke-width="1.17" stroke-linecap="round"/>
<path d="M13.1792 7.64798L15.1791 9.64782M15.1791 9.64782L13.1792 11.6477M15.1791 9.64782L12.4241 9.64689L8.67891 9.64922"  stroke-width="1.1" stroke-linecap="round" stroke-linejoin="round"/>
</svg>
