<svg width="27" height="20" viewBox="0 0 27 20" fill="none" xmlns="http://www.w3.org/2000/svg">
<path d="M25.6754 6.71474C24.1926 5.01607 22.3859 3.63058 20.3608 2.63897C18.3358 1.64765 16.1331 1.07048 13.8821 0.941406C11.4646 0.967123 9.09541 1.62166 7.00736 2.8405C5.19468 3.89551 3.53899 5.19965 2.08871 6.71465C1.23893 7.59731 0.76416 8.77484 0.76416 10.0001C0.76416 11.2253 1.23893 12.4029 2.08871 13.2855C3.57152 14.9842 5.37826 16.3697 7.40332 17.3613C9.42839 18.3526 11.631 18.9298 13.8821 19.0588C16.133 18.9298 18.3358 18.3526 20.3608 17.3613C22.386 16.3698 24.1929 14.9843 25.6754 13.2855C26.5252 12.4028 27 11.2253 27 10.0001C27 8.77484 26.5252 7.59728 25.6754 6.71465V6.71474ZM13.8821 15.2037C12.502 15.2037 11.1785 14.6555 10.2026 13.6797C9.22683 12.7038 8.67863 11.3803 8.67863 10.0002C8.67863 8.62016 9.22683 7.29662 10.2026 6.32074C11.1785 5.34499 12.502 4.79678 13.8821 4.79678C15.2621 4.79678 16.5857 5.34499 17.5616 6.32074C18.5373 7.29662 19.0855 8.62016 19.0855 10.0002C19.0834 11.3797 18.5346 12.702 17.5592 13.6775C16.5838 14.6529 15.2615 15.2017 13.8819 15.2038L13.8821 15.2037Z" />
</svg>
