<svg width="27" height="20" viewBox="0 0 27 20" fill="none" xmlns="http://www.w3.org/2000/svg">
<path d="M18.1739 7.05384L23.0355 2.19216C23.2764 1.95119 23.3705 1.60018 23.2823 1.27116C23.1942 0.942147 22.9371 0.685105 22.6081 0.596956C22.2791 0.5088 21.9281 0.602891 21.6873 0.84374L20.054 2.47702C19.4519 2.15655 18.8228 1.8896 18.1739 1.67931C16.7968 1.18624 15.3447 0.935623 13.882 0.938725C11.4645 0.964566 9.09532 1.61911 7.00727 2.83782C5.19459 3.89295 3.5389 5.19697 2.08862 6.71197C1.23884 7.59463 0.764069 8.77216 0.764069 9.99739C0.764069 11.2227 1.23884 12.4002 2.08862 13.2828C2.82575 14.0431 3.61249 14.7536 4.44356 15.4098C4.93884 15.8153 5.459 16.1894 6.00078 16.5303L4.72842 17.8027C4.55471 17.9842 4.45778 18.2256 4.45778 18.4769C4.45778 18.728 4.55471 18.9696 4.72842 19.151C4.90399 19.3295 5.14274 19.4319 5.39311 19.4358C5.64978 19.4358 5.89595 19.3332 6.07671 19.151L10.9384 14.2893L18.1739 7.05384ZM8.79236 11.0609H8.79223C8.71582 10.7115 8.67762 10.3549 8.67836 9.99737C8.68046 8.61793 9.22929 7.29562 10.2047 6.32009C11.1801 5.34472 12.5024 4.79588 13.882 4.79376C14.2395 4.79289 14.5961 4.8311 14.9455 4.90763C15.6201 5.04215 16.26 5.31366 16.8256 5.70535L9.59002 12.9409V12.9408C9.19846 12.3752 8.92708 11.7353 8.79243 11.0607L8.79236 11.0609ZM25.6753 13.2828C24.1926 14.9815 22.3857 16.3671 20.3607 17.3586C18.3356 18.3499 16.133 18.9271 13.8819 19.0562C12.4191 19.0594 10.967 18.8088 9.58998 18.3156L12.8184 15.0871H12.8375C13.1802 15.1645 13.5306 15.2027 13.882 15.2011C15.2614 15.199 16.5837 14.6501 17.5592 13.6747C18.5346 12.6993 19.0835 11.3769 19.0856 9.99739C19.0873 9.64599 19.0491 9.29561 18.9717 8.95289V8.93384L23.3206 4.58492C24.1517 5.24106 24.9384 5.95164 25.6756 6.71187C26.5253 7.59454 27 8.77207 27 9.9973C27 11.2226 26.5253 12.4001 25.6756 13.2827L25.6753 13.2828Z"/>
</svg>
