<svg width="16" height="17" viewBox="0 0 16 17" fill="none" xmlns="http://www.w3.org/2000/svg">
<path fill-rule="evenodd" clip-rule="evenodd" d="M2.91489 13.4826C2.3384 13.7911 1.60493 13.5863 1.27805 13.0275L0.660685 11.9721C0.333208 11.4122 0.519368 10.6857 1.08271 10.3455L1.47188 10.1105C1.71604 9.96305 1.914 9.61429 1.9138 9.33157L1.91293 7.66757C1.91274 7.38493 1.71497 7.03647 1.47032 6.88871L1.08125 6.6537C0.520624 6.31514 0.332511 5.58602 0.659815 5.0274L1.27787 3.97238C1.60575 3.41273 2.33709 3.20819 2.91763 3.51893L3.31868 3.73355C3.57048 3.86825 3.97595 3.86301 4.22447 3.72184L5.68713 2.89059C5.93564 2.74932 6.14318 2.40656 6.1506 2.12392L6.16259 1.67428C6.1797 1.02659 6.72641 0.501152 7.38089 0.500762L8.61708 0.5C9.27282 0.499619 9.81818 1.02136 9.83538 1.66942L9.84737 2.12228C9.85491 2.40463 10.0623 2.74804 10.3108 2.88951L11.7733 3.72161C12.0218 3.86298 12.4269 3.8686 12.6792 3.73361L13.0832 3.51737C13.6596 3.20893 14.3931 3.41373 14.72 3.97253L15.3374 5.02791C15.6648 5.58776 15.4787 6.31431 14.9153 6.65448L14.5262 6.88949C14.282 7.03695 14.084 7.38571 14.0842 7.66843L14.0851 9.33243C14.0853 9.61507 14.2831 9.96353 14.5277 10.1113L14.9168 10.3463C15.4774 10.6849 15.6655 11.414 15.3382 11.9726L14.7202 13.0276C14.3923 13.5873 13.661 13.7918 13.0804 13.4811L12.6794 13.2664C12.4276 13.1317 12.0221 13.137 11.7736 13.2782L10.3109 14.1094C10.0624 14.2507 9.85487 14.5934 9.84744 14.8761L9.83546 15.3257C9.81835 15.9734 9.27164 16.4988 8.61716 16.4992L7.38097 16.5C6.72522 16.5004 6.17986 15.9786 6.16267 15.3306L6.15068 14.8777C6.14314 14.5954 5.93571 14.252 5.68721 14.1105L4.22472 13.2784C3.97621 13.137 3.5711 13.1314 3.31883 13.2664L2.91489 13.4826ZM6.21737 11.5412C7.92169 12.511 10.1009 11.9355 11.085 10.2559C12.0691 8.57624 11.4851 6.42862 9.78074 5.45876C8.07642 4.4889 5.89724 5.06447 4.91313 6.74411C3.92902 8.42375 4.51305 10.5714 6.21737 11.5412Z" stroke-linecap="round" stroke-linejoin="round"/>
</svg>
