<svg width="30" height="30" viewBox="0 0 30 30" fill="none" xmlns="http://www.w3.org/2000/svg">
<g clip-path="url(#clip0_3728_129454)">
<path fill-rule="evenodd" clip-rule="evenodd" d="M15.0025 0.625C11.4415 0.626848 7.99733 1.88807 5.28575 4.18315C2.57418 6.47823 0.772046 9.65751 0.201597 13.1525C-0.368851 16.6475 0.329575 20.2303 2.172 23.2602C4.01443 26.2902 6.88072 28.5697 10.2583 29.6912C11.0035 29.8295 11.2842 29.3677 11.2842 28.975C11.2842 28.5823 11.2693 27.4438 11.2643 26.199C7.09141 27.1005 6.20965 24.4381 6.20965 24.4381C5.52907 22.7093 4.54546 22.2549 4.54546 22.2549C3.18431 21.3312 4.64731 21.3485 4.64731 21.3485C6.15501 21.4547 6.94736 22.8871 6.94736 22.8871C8.28368 25.1667 10.457 24.5073 11.3115 24.122C11.4456 23.1563 11.8356 22.4994 12.2653 22.1264C8.93195 21.751 5.42971 20.4717 5.42971 14.7568C5.40905 13.2746 5.96219 11.8413 6.97468 10.7534C6.82068 10.378 6.30651 8.86154 7.12122 6.80179C7.12122 6.80179 8.38054 6.40169 11.2469 8.33055C13.7055 7.66203 16.2995 7.66203 18.7581 8.33055C21.622 6.40169 22.8788 6.80179 22.8788 6.80179C23.696 8.8566 23.1818 10.373 23.0278 10.7534C24.0435 11.8415 24.5978 13.2773 24.5753 14.7617C24.5753 20.489 21.0656 21.751 17.7273 22.119C18.2638 22.5833 18.7432 23.4897 18.7432 24.8827C18.7432 26.8782 18.7258 28.4835 18.7258 28.975C18.7258 29.3726 18.9965 29.8369 19.7566 29.6912C23.1346 28.5696 26.0012 26.2896 27.8436 23.2592C29.686 20.2287 30.384 16.6454 29.8129 13.1501C29.2418 9.65475 27.4388 6.47544 24.7263 4.18076C22.0139 1.88607 18.5688 0.625676 15.0075 0.625H15.0025Z" />
<path d="M10.0339 24.9674C10.0339 25.0884 9.89485 25.1921 9.71601 25.1946C9.53717 25.1971 9.39062 25.0983 9.39062 24.9773C9.39062 24.8562 9.52971 24.7525 9.70855 24.75C9.88739 24.7476 10.0339 24.8439 10.0339 24.9674Z" />
<path d="M11.1799 24.7799C11.2023 24.9009 11.0781 25.0268 10.8993 25.0565C10.7204 25.0861 10.5639 25.0145 10.5416 24.8959C10.5192 24.7774 10.6484 24.649 10.8223 24.6169C10.9961 24.5848 11.1576 24.6589 11.1799 24.7799Z" />
<path d="M8.80869 24.8821C8.77144 24.9981 8.60253 25.05 8.43363 25.0006C8.26473 24.9512 8.15295 24.8129 8.18524 24.6944C8.21753 24.5758 8.38892 24.5215 8.56031 24.5758C8.73169 24.6302 8.84098 24.761 8.80869 24.8821Z" />
<path d="M7.68057 24.4045C7.5986 24.4959 7.43219 24.4712 7.29558 24.3477C7.15896 24.2242 7.12666 24.0562 7.20863 23.9673C7.2906 23.8784 7.45702 23.9031 7.5986 24.0241C7.74018 24.1452 7.7675 24.3156 7.68057 24.4045Z" />
<path d="M6.88009 23.5707C6.78819 23.6349 6.6317 23.5707 6.54476 23.4423C6.52072 23.4193 6.50161 23.3917 6.48855 23.3611C6.47549 23.3305 6.46875 23.2977 6.46875 23.2645C6.46875 23.2313 6.47549 23.1984 6.48855 23.1679C6.50161 23.1373 6.52072 23.1097 6.54476 23.0867C6.63667 23.0249 6.79316 23.0867 6.88009 23.2126C6.96703 23.3386 6.96951 23.5065 6.88009 23.5707Z"/>
<path d="M6.28611 22.711C6.23467 22.7368 6.17582 22.744 6.11963 22.7313C6.06345 22.7187 6.01342 22.6871 5.97811 22.6418C5.88124 22.5381 5.86136 22.3949 5.93587 22.3307C6.01039 22.2665 6.14453 22.2961 6.2414 22.3998C6.33827 22.5035 6.36062 22.6468 6.28611 22.711Z" />
<path d="M5.68045 22.0427C5.64816 22.1168 5.52894 22.139 5.43207 22.0872C5.3352 22.0353 5.26317 21.939 5.29795 21.8624C5.33272 21.7859 5.44946 21.7661 5.54633 21.818C5.6432 21.8698 5.71771 21.9686 5.68045 22.0427Z" />
</g>
<defs>
<clipPath id="clip0_3728_129454">
<rect width="30" height="30" fill="white"/>
</clipPath>
</defs>
</svg>
