<svg width="49" height="49" viewBox="0 0 49 49" fill="none" xmlns="http://www.w3.org/2000/svg">
<g filter="url(#filter0_d_2467_57062)">
<path d="M24.5 0C13.1616 0 4 9.1616 4 20.5C4 31.8384 13.1616 41 24.5 41C35.8384 41 45 31.8384 45 20.5C45 9.1616 35.8384 0 24.5 0Z" fill="white"/>
</g>
<path d="M40.5183 11.4449C38.864 8.53932 36.62 6.23899 33.7858 4.54336C30.9512 2.84764 27.8566 2 24.4998 2C21.1435 2 18.0479 2.8479 15.2138 4.54336C12.3794 6.2389 10.1355 8.53932 8.48114 11.4449C6.82708 14.3504 6 17.5232 6 20.9632C6 25.0955 7.17611 28.8113 9.52893 32.1117C11.8815 35.4123 14.9207 37.6962 18.6462 38.9636C19.0798 39.0461 19.4009 38.9881 19.6096 38.791C19.8184 38.5937 19.9227 38.3465 19.9227 38.0505C19.9227 38.0011 19.9186 37.5569 19.9105 36.7172C19.9023 35.8775 19.8984 35.145 19.8984 34.5199L19.3443 34.6182C18.9911 34.6845 18.5454 34.7126 18.0074 34.7047C17.4696 34.697 16.9114 34.6392 16.3333 34.5318C15.7551 34.4253 15.2172 34.1784 14.7194 33.7916C14.2217 33.4047 13.8685 32.8983 13.6597 32.2732L13.4188 31.705C13.2582 31.3267 13.0055 30.9065 12.6601 30.4459C12.3148 29.9848 11.9656 29.6723 11.6124 29.5077L11.4437 29.3839C11.3313 29.3017 11.227 29.2025 11.1306 29.0874C11.0343 28.9722 10.9621 28.8571 10.9139 28.7417C10.8657 28.6262 10.9057 28.5315 11.0343 28.4572C11.163 28.3829 11.3955 28.3469 11.7329 28.3469L12.2145 28.4206C12.5357 28.4866 12.933 28.6837 13.4069 29.0132C13.8806 29.3423 14.2699 29.7702 14.5751 30.2968C14.9446 30.9719 15.3898 31.4863 15.912 31.8403C16.4337 32.1943 16.9598 32.3709 17.4896 32.3709C18.0195 32.3709 18.4771 32.3298 18.8627 32.2479C19.2478 32.1655 19.6092 32.0418 19.9466 31.8773C20.0911 30.7739 20.4846 29.9263 21.1267 29.3338C20.2115 29.2352 19.3886 29.0867 18.6577 28.8892C17.9273 28.6915 17.1724 28.3707 16.3937 27.9258C15.6145 27.4815 14.9682 26.9298 14.4544 26.2717C13.9406 25.6132 13.5189 24.7487 13.19 23.6789C12.8609 22.6087 12.6963 21.3743 12.6963 19.9751C12.6963 17.9829 13.3307 16.2876 14.5994 14.8883C14.0051 13.3905 14.0612 11.7115 14.7679 9.85139C15.2336 9.70307 15.9242 9.81438 16.8395 10.1846C17.7549 10.555 18.4251 10.8724 18.8509 11.1354C19.2766 11.3984 19.6177 11.6213 19.8747 11.8021C21.3684 11.3742 22.91 11.1603 24.4997 11.1603C26.0894 11.1603 27.6312 11.3742 29.1251 11.8021L30.0404 11.2097C30.6663 10.8145 31.4055 10.4523 32.2561 10.123C33.1072 9.79397 33.7581 9.70333 34.2079 9.85165C34.9303 11.7119 34.9947 13.3908 34.4002 14.8886C35.6688 16.2879 36.3035 17.9836 36.3035 19.9754C36.3035 21.3745 36.1383 22.6129 35.8097 23.6913C35.4806 24.7698 35.0553 25.6335 34.5336 26.284C34.0112 26.9345 33.3608 27.4818 32.582 27.926C31.8031 28.3706 31.048 28.6914 30.3175 28.8891C29.5867 29.0868 28.7639 29.2354 27.8486 29.3342C28.6834 30.0747 29.1008 31.2435 29.1008 32.8402V38.0498C29.1008 38.3458 29.2013 38.5929 29.4022 38.7903C29.6029 38.9874 29.9199 39.0454 30.3536 38.9629C34.0796 37.6956 37.1188 35.4116 39.4712 32.111C41.8235 28.8106 43 25.0948 43 20.9625C42.9992 17.5229 42.1717 14.3504 40.5183 11.4449Z" fill="#37383C"/>
<defs>
<filter id="filter0_d_2467_57062" x="0" y="0" width="49" height="49" filterUnits="userSpaceOnUse" color-interpolation-filters="sRGB">
<feFlood flood-opacity="0" result="BackgroundImageFix"/>
<feColorMatrix in="SourceAlpha" type="matrix" values="0 0 0 0 0 0 0 0 0 0 0 0 0 0 0 0 0 0 127 0" result="hardAlpha"/>
<feOffset dy="4"/>
<feGaussianBlur stdDeviation="2"/>
<feComposite in2="hardAlpha" operator="out"/>
<feColorMatrix type="matrix" values="0 0 0 0 0 0 0 0 0 0 0 0 0 0 0 0 0 0 0.25 0"/>
<feBlend mode="normal" in2="BackgroundImageFix" result="effect1_dropShadow_2467_57062"/>
<feBlend mode="normal" in="SourceGraphic" in2="effect1_dropShadow_2467_57062" result="shape"/>
</filter>
</defs>
</svg>
