<svg width="196" height="196" viewBox="0 0 196 196" fill="none" xmlns="http://www.w3.org/2000/svg">
<rect width="196" height="196" rx="98" fill="white"/>
<g clip-path="url(#clip0_1922_45261)">
<path d="M53.0909 136.999H69.6364V96.3022L46 78.3477V129.817C46 133.791 49.1791 136.999 53.0909 136.999Z" fill="#4285F4"/>
<path d="M126.364 136.999H142.909C146.833 136.999 150 133.779 150 129.817V78.3477L126.364 96.3022" fill="#34A853"/>
<path d="M126.364 65.1827V96.3039L150 78.3493V68.7736C150 59.8921 139.99 54.8289 132.982 60.1554" fill="#FBBC04"/>
<path d="M69.6362 96.3029V65.1816L97.9999 86.7271L126.364 65.1816V96.3029L97.9999 117.848" fill="#EA4335"/>
<path d="M46 68.7736V78.3493L69.6364 96.3039V65.1827L63.0182 60.1554C55.9982 54.8289 46 59.8921 46 68.7736Z" fill="#C5221F"/>
</g>
<defs>
<clipPath id="clip0_1922_45261">
<rect width="104" height="79" fill="white" transform="translate(46 58)"/>
</clipPath>
</defs>
</svg>
