<svg width="196" height="196" viewBox="0 0 196 196" fill="none" xmlns="http://www.w3.org/2000/svg">
<rect width="196" height="196" rx="98" fill="white"/>
<g clip-path="url(#clip0_4201_51747)">
<path d="M111.5 47H71.126C67.3236 47 64 50.332 64 54.144V139.86C64 143.668 67.3236 147.004 71.126 147.004H132.874C136.672 147.004 140 143.672 140 139.86V75.572L123.374 63.668L111.5 47Z" fill="#673AB7"/>
<path d="M92.5 120.81H121V116.05H92.5V120.81ZM92.5 89.8576V94.6176H121V89.8576H92.5ZM88.2228 92.2416C88.2228 94.1456 86.7984 96.0496 84.4244 96.0496C82.0504 96.0496 80.626 94.6216 80.626 92.2416C80.626 89.8616 82.0504 88.4336 84.4244 88.4336C86.7984 88.4336 88.2228 90.3336 88.2228 92.2416ZM88.2228 105.574C88.2228 107.478 86.7984 109.382 84.4244 109.382C82.0504 109.382 80.626 107.954 80.626 105.574C80.626 103.194 82.0504 101.766 84.4244 101.766C86.7984 101.766 88.2228 103.67 88.2228 105.574ZM88.2228 118.43C88.2228 120.334 86.7984 122.238 84.4244 122.238C82.0504 122.238 80.626 120.81 80.626 118.43C80.626 116.05 82.0504 114.622 84.4244 114.622C86.7984 114.622 88.2228 116.526 88.2228 118.43ZM92.5 108.906H121V104.142H92.5V108.906Z" fill="#F1F1F1"/>
<path d="M113.399 73.668L140 99.86V75.572L113.399 73.668Z" fill="url(#paint0_linear_4201_51747)"/>
<path d="M111.5 47V68.428C111.5 72.236 114.824 75.572 118.626 75.572H140L111.5 47Z" fill="#B39DDB"/>
<path d="M71.126 47C67.3236 47 64 50.332 64 54.144V54.62C64 50.808 67.3236 47.476 71.126 47.476H111.5V47H71.126Z" fill="white" fill-opacity="0.2"/>
<path d="M132.874 146.523H71.126C67.3236 146.523 64 143.191 64 139.379V139.855C64 143.663 67.3236 146.999 71.126 146.999H132.874C136.672 146.999 140 143.667 140 139.855V139.379C140 143.191 136.672 146.523 132.874 146.523Z" fill="#311B92" fill-opacity="0.2"/>
<path d="M118.622 75.5737C114.824 75.5737 111.496 72.2417 111.496 68.4297V68.9057C111.496 72.7137 114.82 76.0497 118.622 76.0497H139.996V75.5737H118.622Z" fill="#311B92" fill-opacity="0.1"/>
<path d="M111.5 47H71.126C67.3236 47 64 50.332 64 54.144V139.86C64 143.668 67.3236 147.004 71.126 147.004H132.874C136.672 147.004 140 143.672 140 139.86V75.572L111.5 47Z" fill="url(#paint1_radial_4201_51747)"/>
</g>
<defs>
<linearGradient id="paint0_linear_4201_51747" x1="126.698" y1="75.7525" x2="126.698" y2="99.9601" gradientUnits="userSpaceOnUse">
<stop stop-color="#311B92" stop-opacity="0.2"/>
<stop offset="1" stop-color="#311B92" stop-opacity="0.02"/>
</linearGradient>
<radialGradient id="paint1_radial_4201_51747" cx="0" cy="0" r="1" gradientUnits="userSpaceOnUse" gradientTransform="translate(66.4044 49.6688) scale(980.306 982.775)">
<stop stop-color="white" stop-opacity="0.1"/>
<stop offset="1" stop-color="white" stop-opacity="0"/>
</radialGradient>
<clipPath id="clip0_4201_51747">
<rect width="76" height="100" fill="white" transform="translate(64 47)"/>
</clipPath>
</defs>
</svg>
