<svg width="196" height="196" viewBox="0 0 196 196" fill="none" xmlns="http://www.w3.org/2000/svg">
<rect width="196" height="196" rx="98" fill="white"/>
<g clip-path="url(#clip0_4201_51682)">
<path d="M123.079 70.9195L99.1585 68.2617L69.9215 70.9195L67.2632 97.4987L69.921 124.078L96.5002 127.4L123.079 124.078L125.737 96.8346L123.079 70.9195Z" fill="white"/>
<path d="M80.8251 112.16C78.8385 110.817 77.4628 108.858 76.7119 106.266L81.3236 104.366C81.7422 105.96 82.473 107.196 83.5163 108.073C84.553 108.95 85.8155 109.382 87.2907 109.382C88.7991 109.382 90.0949 108.924 91.1776 108.007C92.2604 107.09 92.8058 105.92 92.8058 104.505C92.8058 103.057 92.2341 101.873 91.0913 100.957C89.9485 100.04 88.5133 99.5812 86.7988 99.5812H84.1344V95.0165H86.5261C88.0012 95.0165 89.244 94.618 90.254 93.8206C91.264 93.0232 91.769 91.9334 91.769 90.5447C91.769 89.309 91.317 88.3252 90.4136 87.5879C89.5101 86.8506 88.3668 86.4784 86.9781 86.4784C85.6226 86.4784 84.546 86.8375 83.7486 87.5617C82.9512 88.2858 82.373 89.1761 82.0078 90.226L77.4432 88.3257C78.0476 86.6112 79.1576 85.0962 80.7852 83.7873C82.4134 82.4783 84.493 81.8203 87.018 81.8203C88.8849 81.8203 90.5661 82.1794 92.0548 82.9035C93.5431 83.6277 94.7126 84.6311 95.5565 85.9068C96.4003 87.189 96.819 88.6247 96.819 90.219C96.819 91.8471 96.4271 93.2222 95.6428 94.3519C94.8586 95.4816 93.895 96.3451 92.7522 96.9501V97.2223C94.2607 97.8536 95.4898 98.8171 96.4599 100.113C97.4235 101.409 97.9083 102.957 97.9083 104.764C97.9083 106.572 97.4497 108.186 96.5327 109.602C95.6156 111.017 94.3465 112.133 92.7386 112.944C91.1241 113.754 89.3101 114.167 87.2967 114.167C84.9646 114.173 82.8118 113.502 80.8251 112.16Z" fill="#1A73E8"/>
<path d="M109.125 89.2741L104.088 92.9354L101.557 89.0948L110.64 82.543H114.122V113.447H109.125V89.2741Z" fill="#1A73E8"/>
<path d="M123.079 147.998L147 124.077L135.04 118.762L123.079 124.077L117.764 136.038L123.079 147.998Z" fill="#EA4335"/>
<path d="M64.605 136.039L69.9206 147.999H123.078V124.078H69.9206L64.605 136.039Z" fill="#34A853"/>
<path d="M53.9734 47C49.5683 47 46 50.5683 46 54.9734V124.079L57.9604 129.394L69.9208 124.079V70.9208H123.079L128.394 58.9604L123.079 47H53.9734Z" fill="#4285F4"/>
<path d="M46 124.078V140.026C46 144.431 49.5683 147.999 53.9734 147.999H69.9208V124.078H46Z" fill="#188038"/>
<path d="M123.079 70.9211V124.079H147V70.9211L135.04 65.6055L123.079 70.9211Z" fill="#FBBC04"/>
<path d="M147 70.9208V54.9734C147 50.5678 143.432 47 139.026 47H123.079V70.9208H147Z" fill="#1967D2"/>
</g>
<defs>
<clipPath id="clip0_4201_51682">
<rect width="101" height="101" fill="white" transform="translate(46 47)"/>
</clipPath>
</defs>
</svg>
