<svg width="39" height="23" viewBox="0 0 39 23" fill="none" xmlns="http://www.w3.org/2000/svg">
<path d="M35.5771 0.750916C35.476 0.754135 35.3751 0.762814 35.275 0.777091H27.4173C26.6846 0.766873 25.9782 1.04473 25.4563 1.54824C24.9344 2.05188 24.6406 2.73914 24.6406 3.45639C24.6406 4.17365 24.9344 4.86091 25.4563 5.36441C25.9782 5.86805 26.6846 6.14577 27.4173 6.13566H29.0214L19.2039 15.7435L12.9262 9.59973L12.9263 9.59959C12.4129 9.09734 11.7166 8.81515 10.9906 8.81515C10.2646 8.81515 9.56841 9.09734 9.05493 9.59959L0.841848 17.6375H0.841705C0.310937 18.1362 0.00759884 18.8231 0.000139716 19.5431C-0.00728723 20.2633 0.281656 20.9559 0.801996 21.4652C1.32231 21.9744 2.03019 22.2572 2.7659 22.2499C3.50176 22.2426 4.20347 21.9457 4.7131 21.4263L10.9908 15.2825L17.2686 21.4263C17.782 21.9285 18.4783 22.2107 19.2043 22.2107C19.9303 22.2107 20.6265 21.9285 21.14 21.4263L32.8932 9.92428V11.4941L32.8934 11.4943C32.8829 12.2114 33.1667 12.9027 33.6814 13.4134C34.196 13.9241 34.8982 14.2116 35.6311 14.2116C36.364 14.2116 37.0663 13.9241 37.5809 13.4134C38.0953 12.9027 38.3791 12.2114 38.3689 11.4943V3.78352C38.4748 3.00485 38.2265 2.21984 37.6891 1.63614C37.152 1.05244 36.3799 0.728824 35.5775 0.751077L35.5771 0.750916Z" fill="#161616"/>
</svg>
