<?xml version="1.0" encoding="utf-8"?>
<!-- Uploaded to: SVG Repo, www.svgrepo.com, Generator: SVG Repo Mixer Tools -->
<svg fill="#000000" width="800px" height="800px" viewBox="0 0 32 32" version="1.1" xmlns="http://www.w3.org/2000/svg">
<title>messages</title>
<path d="M25 21.322c0.69-0.001 1.249-0.56 1.25-1.25v-18.072c-0-0.69-0.56-1.25-1.25-1.25h-23c-0.69 0-1.25 0.56-1.25 1.25v0 18.072c0 0.69 0.56 1.25 1.25 1.25h5.321v3.678c0 0.486 0.278 0.908 0.684 1.114l0.007 0.003c0.162 0.084 0.353 0.133 0.556 0.133 0.001 0 0.002 0 0.003 0h-0c0 0 0.001 0 0.002 0 0.282 0 0.543-0.094 0.752-0.252l-0.003 0.002 6.238-4.678zM14.393 19.072l-4.571 3.428v-2.428c-0-0.69-0.56-1.25-1.25-1.25h-5.321v-15.572h20.5v15.572h-8.607c-0.283 0-0.544 0.094-0.753 0.252l0.003-0.002zM30 8.75h-1c-0.69 0-1.249 0.56-1.249 1.25 0 0.602 0.425 1.104 0.991 1.223l0.008 0.001v13.24h-4.465c-0.69 0.001-1.249 0.56-1.25 1.25v1.785l-3.713-2.785c-0.206-0.156-0.467-0.25-0.75-0.25h-4.572c-0.69 0-1.25 0.56-1.25 1.25s0.56 1.25 1.25 1.25v0h4.156l5.379 4.035c0.206 0.156 0.466 0.25 0.748 0.25 0.001 0 0.001 0 0.002 0h-0c0.001 0 0.003 0 0.004 0 0.202 0 0.393-0.049 0.561-0.136l-0.007 0.003c0.413-0.209 0.691-0.631 0.691-1.117v0-3.035h4.465c0.69-0.001 1.249-0.56 1.25-1.25v-15.715c-0-0.69-0.56-1.25-1.25-1.25h-0z"></path>
</svg>