<?xml version="1.0" encoding="utf-8"?>
<!-- Uploaded to: SVG Repo, www.svgrepo.com, Generator: SVG Repo Mixer Tools -->
<svg fill="#000000" width="800px" height="800px" viewBox="0 0 32 32" version="1.1" xmlns="http://www.w3.org/2000/svg">
<title>messages</title>
<path d="M25 20.822c0.414-0 0.75-0.336 0.75-0.75v0-18.072c-0-0.414-0.336-0.75-0.75-0.75h-23c-0.414 0-0.75 0.336-0.75 0.75v0 18.072c0 0.414 0.336 0.75 0.75 0.75h5.821v4.178c0 0.292 0.167 0.545 0.411 0.668l0.004 0.002c0.096 0.050 0.21 0.080 0.331 0.080 0.001 0 0.002 0 0.004 0h-0c0.17-0 0.326-0.057 0.452-0.152l-0.002 0.001 6.371-4.777zM14.692 19.473l-5.371 4.027v-3.428c-0-0.414-0.336-0.75-0.75-0.75h-5.821v-16.572h21.5v16.572h-9.107c-0.17 0-0.326 0.057-0.452 0.152l0.002-0.001zM30 9.25h-1c-0.414 0-0.75 0.336-0.75 0.75s0.336 0.75 0.75 0.75v0h0.25v14.215h-4.965c-0.414 0-0.75 0.336-0.75 0.75v0 2.785l-4.514-3.385c-0.123-0.094-0.279-0.15-0.449-0.15-0 0-0 0-0.001 0h-4.572c-0.414 0-0.75 0.336-0.75 0.75s0.336 0.75 0.75 0.75v0h4.322l5.514 4.135c0.123 0.094 0.28 0.15 0.449 0.15 0.123 0 0.238-0.030 0.34-0.082l-0.004 0.002c0.247-0.126 0.414-0.378 0.414-0.67v0-3.535h4.965c0.414-0 0.75-0.336 0.75-0.75v0-15.715c-0-0.414-0.336-0.75-0.75-0.75v0z"></path>
</svg>