<svg width="196" height="196" viewBox="0 0 196 196" fill="none" xmlns="http://www.w3.org/2000/svg">
<rect width="196" height="196" rx="98" fill="white"/>
<g clip-path="url(#clip0_1922_45253)">
<path d="M143.425 64H52.5818L37 96.7919L52.5818 129.584H143.425L159.007 96.7919L143.425 64ZM138.218 124.127H56.0063L43.0166 96.7919L56.0063 69.4566H138.218L151.207 96.7919L138.218 124.127Z" fill="#008EC7"/>
<path d="M151.208 96.7956L138.218 124.131H56.0063L43.0166 96.7956L56.0063 69.457H138.218L151.208 96.7956Z" fill="#005B9B"/>
<path d="M78.8027 87.5742V107.095H74.3041V99.0875H65.4898V107.092H60.9814V87.5742H65.4768V95.2705H74.2911V87.5742H78.8027Z" fill="white"/>
<path d="M87.4377 91.2568H81.2188V87.5742H98.152V91.2568H91.9494V107.095H87.4377V91.2568Z" fill="white"/>
<path d="M104.87 91.2568H98.6514V87.5742H115.585V91.2568H109.366V107.095H104.87V91.2568Z" fill="white"/>
<path d="M130.896 88.439C132.092 88.9517 133.113 89.8042 133.834 90.8918C134.535 92.0186 134.892 93.3277 134.859 94.6563C134.888 95.9804 134.532 97.2843 133.834 98.4077C133.119 99.5005 132.096 100.354 130.896 100.861C129.476 101.457 127.948 101.746 126.41 101.71H122.493V107.094H118V87.5733H126.41C127.95 87.537 129.479 87.8322 130.896 88.439ZM129.244 97.1518C129.598 96.8452 129.878 96.4606 130.061 96.0278C130.244 95.595 130.325 95.1257 130.298 94.6563C130.298 93.5611 129.946 92.7183 129.244 92.1346C128.542 91.551 127.513 91.2558 126.162 91.2558H122.496V98.0306H126.162C127.513 98.0306 128.541 97.7377 129.244 97.1518Z" fill="white"/>
</g>
<defs>
<clipPath id="clip0_1922_45253">
<rect width="122" height="65.5838" fill="white" transform="translate(37 64)"/>
</clipPath>
</defs>
</svg>
