<svg width="196" height="196" viewBox="0 0 196 196" fill="none" xmlns="http://www.w3.org/2000/svg">
<rect width="196" height="196" rx="98" fill="white"/>
<path d="M133.005 58.6055H90.4385C90.4385 63.7016 92.4629 68.5891 96.0665 72.1926C99.67 75.7962 104.557 77.8206 109.654 77.8206H117.495V85.3915C117.502 95.9941 126.095 104.588 136.698 104.595V62.2981C136.698 60.2593 135.045 58.6055 133.005 58.6055Z" fill="#2684FF"/>
<path d="M111.943 79.8125H69.377C69.3835 90.4151 77.9767 99.0086 88.5796 99.0155H96.4209V106.611C96.4344 117.213 105.033 125.801 115.636 125.801V83.5058C115.636 81.4663 113.983 79.8125 111.943 79.8125Z" fill="url(#paint0_linear_4201_51712)"/>
<path d="M90.8692 101.012H48.3027C48.3027 111.624 56.906 120.227 67.5179 120.227H75.3837V127.797C75.3906 138.39 83.9689 146.98 94.5622 147V104.705C94.5622 102.665 92.9087 101.012 90.8692 101.012Z" fill="url(#paint1_linear_4201_51712)"/>
<defs>
<linearGradient id="paint0_linear_4201_51712" x1="11647.9" y1="100.985" x2="7055.82" y2="5467.47" gradientUnits="userSpaceOnUse">
<stop offset="0.18" stop-color="#0052CC"/>
<stop offset="1" stop-color="#2684FF"/>
</linearGradient>
<linearGradient id="paint1_linear_4201_51712" x1="11938" y1="160.847" x2="6626.17" y2="6014" gradientUnits="userSpaceOnUse">
<stop offset="0.18" stop-color="#0052CC"/>
<stop offset="1" stop-color="#2684FF"/>
</linearGradient>
</defs>
</svg>
