<svg width="52" height="51" viewBox="0 0 52 51" fill="none" xmlns="http://www.w3.org/2000/svg">
<path d="M51.1469 24.6486C51.1337 24.521 51.1205 24.3934 51.1073 24.2702C51.0193 23.6234 50.8696 22.9986 50.654 22.4046C50.6452 22.3738 50.6363 22.343 50.6231 22.3166C49.734 19.9054 47.8502 17.9783 45.4646 17.0323C45.4558 17.0279 45.447 17.0235 45.4382 17.0235C44.4126 16.6143 43.2903 16.3899 42.1151 16.3899C40.777 16.3899 39.5094 16.6803 38.3694 17.1995C37.2162 17.4459 36.0014 17.1115 35.1519 16.2623L34.9583 16.0731C34.056 15.1711 33.7346 13.8599 34.0691 12.6455C34.5445 11.5455 34.8086 10.3355 34.8086 9.06392C34.8086 7.99473 34.6238 6.96514 34.2804 6.01475C34.2716 5.98395 34.2628 5.95314 34.2496 5.92674C33.3605 3.51556 31.4767 1.5884 29.0911 0.642405C28.0567 0.228808 26.9256 0 25.7416 0C20.7327 0 16.6745 4.05676 16.6745 9.06392C16.6745 10.4279 16.9782 11.7215 17.5152 12.8787C17.7441 14.0271 17.4227 15.2283 16.5777 16.0731L16.3884 16.2623C15.3937 17.2523 13.9148 17.5427 12.6075 17.0367C12.6075 17.0367 12.5987 17.0323 12.5943 17.0323C12.5855 17.0279 12.5767 17.0235 12.5679 17.0235C12.5415 17.0147 12.5195 17.0059 12.4931 16.9971C12.3346 16.9399 12.1718 16.8827 12.0089 16.8343C11.9297 16.8079 11.8417 16.7903 11.7624 16.7639C11.7624 16.7639 11.7536 16.7639 11.7492 16.7639C10.957 16.5307 10.1207 16.3943 9.2448 16.3943C7.90675 16.3943 6.63912 16.6847 5.49914 17.2039C5.12501 17.3755 4.75968 17.5691 4.41636 17.7891C4.61003 17.6791 4.8081 17.5823 5.00177 17.4855C4.8081 17.5779 4.61003 17.6791 4.41636 17.7891C3.42163 18.4095 2.56336 19.219 1.88113 20.1694C1.56863 20.605 1.29131 21.0714 1.05803 21.5598C0.494641 22.739 0.177734 24.0634 0.177734 25.4582C0.177734 26.853 0.481452 28.1158 1.01843 29.273C1.03164 29.2994 1.04483 29.3258 1.05803 29.3522C1.97354 31.2794 3.54928 32.8281 5.49914 33.7125C5.50794 33.7125 5.51234 33.7126 5.52114 33.7214C6.65672 34.2361 7.91556 34.5221 9.2448 34.5221C10.4508 34.5221 11.604 34.2845 12.6515 33.8533C13.9544 33.3869 15.4069 33.6597 16.3884 34.6453L16.5777 34.8345C17.4668 35.7233 17.7925 36.9993 17.48 38.1961C16.9606 39.3357 16.6701 40.6029 16.6701 41.9361C16.6701 43.2693 16.9738 44.5937 17.5108 45.7508C17.524 45.7772 17.5372 45.8036 17.5504 45.83C17.7309 46.204 17.9333 46.5692 18.1622 46.9124C18.8004 47.8848 19.6235 48.7296 20.583 49.3896C20.583 49.394 20.5962 49.3984 20.605 49.4072C21.0408 49.7064 21.5029 49.966 21.9915 50.1904C22.0003 50.1904 22.0047 50.1948 22.0135 50.1992C23.1491 50.714 24.4079 51 25.7371 51C27.0664 51 28.2856 50.7228 29.4036 50.2256C31.0585 49.4908 32.4494 48.2764 33.4045 46.7585C33.5146 46.5869 33.6158 46.4108 33.717 46.2304C33.8183 46.0325 33.9151 45.8345 34.0075 45.6277C34.0252 45.5925 34.0472 45.5529 34.0648 45.5177C34.0736 45.5001 34.0824 45.4781 34.0868 45.4605C34.1396 45.3417 34.188 45.2229 34.232 45.0997C34.2628 45.0161 34.2936 44.9324 34.32 44.8445C34.3508 44.7697 34.3773 44.6905 34.3993 44.6113C34.5269 44.2021 34.6282 43.7753 34.6942 43.3397C34.6942 43.3265 34.6942 43.3133 34.6942 43.3045C34.7206 43.1549 34.7382 43.0053 34.7514 42.8557C34.7822 42.5521 34.7998 42.2485 34.7998 41.9361C34.7998 41.6633 34.7866 41.3949 34.7646 41.1309C34.7514 41.0033 34.7382 40.8757 34.725 40.7525C34.7162 40.6997 34.7118 40.6469 34.6986 40.5985C34.6854 40.4885 34.6678 40.3785 34.6458 40.2685C34.5797 39.9121 34.4917 39.5601 34.3861 39.2169C34.3288 39.0233 34.2628 38.8341 34.1924 38.6449C33.6906 37.3249 33.9547 35.8333 34.9583 34.8345L35.1431 34.6453C35.997 33.7917 37.2074 33.4705 38.365 33.7125C38.3738 33.7125 38.3782 33.7126 38.387 33.7214C39.5226 34.2361 40.7814 34.5221 42.1107 34.5221C43.4399 34.5221 44.6591 34.2449 45.7771 33.7477C47.4321 33.013 48.8273 31.7986 49.778 30.2806C49.8881 30.109 49.9893 29.933 50.0906 29.7526C50.1962 29.5546 50.293 29.3566 50.3854 29.1498C50.4031 29.1102 50.4251 29.075 50.4383 29.0398C50.4471 29.0222 50.4559 29.0002 50.4603 28.9826C50.5131 28.8638 50.5615 28.745 50.6055 28.6218C50.6363 28.5382 50.6671 28.4546 50.6936 28.3666C50.7244 28.2918 50.7508 28.2126 50.7728 28.1334C50.9004 27.7242 51.0017 27.2974 51.0677 26.8618C51.0721 26.8486 51.0721 26.8354 51.0721 26.8266C51.0985 26.677 51.1161 26.5274 51.1293 26.3778C51.1601 26.0742 51.1777 25.7706 51.1777 25.4582C51.1777 25.1854 51.1645 24.917 51.1425 24.653L51.1469 24.6486ZM11.7096 16.7507C11.626 16.7287 11.5424 16.7067 11.4587 16.6847C11.5424 16.7067 11.626 16.7243 11.7096 16.7507ZM5.14703 17.4151C5.29668 17.3447 5.44631 17.2787 5.60036 17.2171C5.45071 17.2787 5.30108 17.3447 5.14703 17.4151ZM5.75443 17.1511C5.91729 17.0851 6.08013 17.0279 6.23858 16.9707C6.07573 17.0279 5.91289 17.0851 5.75443 17.1511ZM7.63825 16.6055C7.7879 16.5791 7.93756 16.5527 8.08721 16.5307C7.93756 16.5527 7.7879 16.5747 7.63825 16.6055ZM8.22806 16.5131C8.39532 16.4911 8.56258 16.4779 8.72543 16.4647C8.55818 16.4779 8.39532 16.4911 8.22806 16.5131ZM9.63654 16.4471C9.69376 16.4471 9.74658 16.4471 9.8038 16.4515C9.7994 16.4515 9.79058 16.4515 9.78618 16.4515C9.73776 16.4515 9.68936 16.4515 9.63654 16.4515V16.4471ZM10.5917 16.5263C10.5917 16.5263 10.5741 16.5263 10.5697 16.5263C10.8161 16.5571 11.0582 16.6011 11.3003 16.6539C11.177 16.6275 11.0538 16.6011 10.9218 16.5791C10.8117 16.5571 10.7017 16.5395 10.5917 16.5263ZM32.9732 32.4673L32.7883 32.6565C31.7848 33.6553 30.2971 33.9237 28.9723 33.4178C27.9775 33.0394 26.8991 32.8281 25.7724 32.8281C24.6456 32.8281 23.5672 33.0394 22.5725 33.4178C21.252 33.9237 19.7599 33.6553 18.7608 32.6565L18.5715 32.4673C17.5724 31.4642 17.3039 29.977 17.8101 28.6526C18.1886 27.6626 18.3955 26.5846 18.3955 25.4538C18.3955 24.323 18.1886 23.2494 17.8101 22.255C17.3039 20.935 17.5724 19.4434 18.5715 18.4447L18.7608 18.2555C19.6235 17.3931 20.8515 17.0763 22.0223 17.3315C23.1579 17.8463 24.4167 18.1323 25.746 18.1323C27.0752 18.1323 28.2944 17.8551 29.4124 17.3579C30.6184 17.0543 31.8948 17.3667 32.7883 18.2555L32.9732 18.4447C33.8051 19.2718 34.1308 20.4334 33.9327 21.5598C33.3693 22.739 33.0524 24.0634 33.0524 25.4582C33.0524 26.853 33.3561 28.1158 33.8931 29.273C33.9063 29.2994 33.9195 29.3258 33.9327 29.3522C34.1308 30.4786 33.8007 31.6402 32.9732 32.4673Z" fill="#2C2D31"/>
</svg>
