<svg width="22" height="22" viewBox="0 0 22 22" fill="none" xmlns="http://www.w3.org/2000/svg">
<path d="M9.72899 1.87655C10.3749 1.23069 11.422 1.23069 12.0679 1.87655L13.9744 3.78302C14.6187 4.42739 14.6187 5.47211 13.9744 6.11647L10.8984 9.19239L7.82252 6.11647C7.17816 5.47211 7.17816 4.42739 7.82252 3.78302L9.72899 1.87655Z" stroke="white" stroke-linecap="round"/>
<path d="M15.7864 7.82696C16.4308 7.18259 17.4755 7.18259 18.1199 7.82696L20.0263 9.73343C20.6722 10.3793 20.6722 11.4265 20.0263 12.0723L18.1199 13.9788C17.4755 14.6232 16.4308 14.6232 15.7864 13.9788L12.7105 10.9029L15.7864 7.82696Z" stroke="white" stroke-linecap="round"/>
<path d="M3.7864 7.82696C4.43076 7.18259 5.47549 7.18259 6.11985 7.82696L9.19577 10.9029L6.11985 13.9788C5.47549 14.6232 4.43076 14.6232 3.7864 13.9788L1.87993 12.0723C1.23406 11.4265 1.23406 10.3793 1.87993 9.73343L3.7864 7.82696Z" stroke="white" stroke-linecap="round"/>
<path d="M10.8984 12.7071L13.9744 15.783C14.6187 16.4274 14.6187 17.4721 13.9744 18.1165L12.0679 20.0229C11.422 20.6688 10.3749 20.6688 9.72899 20.0229L7.82252 18.1165C7.17816 17.4721 7.17816 16.4274 7.82252 15.783L10.8984 12.7071Z" stroke="white" stroke-linecap="round"/>
</svg>
