<svg width="25" height="25" viewBox="0 0 25 25" fill="none" xmlns="http://www.w3.org/2000/svg">
<path d="M23.0078 10.4167H16.9048C15.6227 10.4167 14.5833 9.37733 14.5833 8.09525V1.99219C14.5833 0.891927 13.6523 0 12.5 0C11.3477 0 10.4167 0.891927 10.4167 1.99219V8.09525C10.4167 9.37733 9.37733 10.4167 8.09525 10.4167H1.99219C0.891927 10.4167 0 11.3477 0 12.5C0 13.6523 0.891927 14.5833 1.99219 14.5833H8.09525C9.37733 14.5833 10.4167 15.6227 10.4167 16.9048V23.0078C10.4167 24.1081 11.3477 25 12.5 25C13.6523 25 14.5833 24.1081 14.5833 23.0078V16.9048C14.5833 15.6227 15.6227 14.5833 16.9048 14.5833H23.0078C24.1081 14.5833 25 13.6523 25 12.5C25 11.3477 24.1081 10.4167 23.0078 10.4167Z" fill="white"/>
<path d="M23.0078 10.4167H16.9048C15.6227 10.4167 14.5833 9.37733 14.5833 8.09525V1.99219C14.5833 0.891927 13.6523 0 12.5 0C11.3477 0 10.4167 0.891927 10.4167 1.99219V8.09525C10.4167 9.37733 9.37733 10.4167 8.09525 10.4167H1.99219C0.891927 10.4167 0 11.3477 0 12.5C0 13.6523 0.891927 14.5833 1.99219 14.5833H8.09525C9.37733 14.5833 10.4167 15.6227 10.4167 16.9048V23.0078C10.4167 24.1081 11.3477 25 12.5 25C13.6523 25 14.5833 24.1081 14.5833 23.0078V16.9048C14.5833 15.6227 15.6227 14.5833 16.9048 14.5833H23.0078C24.1081 14.5833 25 13.6523 25 12.5C25 11.3477 24.1081 10.4167 23.0078 10.4167Z" stroke="white"/>
</svg>
