<svg width="15" height="16" viewBox="0 0 15 16" fill="none" xmlns="http://www.w3.org/2000/svg">
<path d="M13.8047 6.75H11.4428C9.95563 6.75 8.75 5.54437 8.75 4.05715V1.69531C8.75 1.03516 8.19141 0.5 7.5 0.5C6.80859 0.5 6.25 1.03516 6.25 1.69531V4.05715C6.25 5.54437 5.04437 6.75 3.55715 6.75H1.19531C0.535156 6.75 0 7.30859 0 8C0 8.69141 0.535156 9.25 1.19531 9.25H3.55715C5.04437 9.25 6.25 10.4556 6.25 11.9428V14.3047C6.25 14.9648 6.80859 15.5 7.5 15.5C8.19141 15.5 8.75 14.9648 8.75 14.3047V11.9428C8.75 10.4556 9.95563 9.25 11.4428 9.25H13.8047C14.4648 9.25 15 8.69141 15 8C15 7.30859 14.4648 6.75 13.8047 6.75Z"/>
</svg>
