<svg width="30" height="30" viewBox="0 0 30 30" fill="none" xmlns="http://www.w3.org/2000/svg">
<path fill-rule="evenodd" clip-rule="evenodd" d="M30 15C30 23.2843 23.2843 30 15 30C6.71573 30 0 23.2843 0 15C0 6.71573 6.71573 0 15 0C23.2843 0 30 6.71573 30 15ZM22.807 12.807C24.0176 12.807 25 13.7894 25 15C25 15.8947 24.4561 16.6666 23.7368 17.0175C23.7719 17.228 23.7895 17.4386 23.7895 17.6666C23.7895 21.0351 19.8772 23.7544 15.0351 23.7544C10.193 23.7544 6.28071 21.0351 6.28071 17.6666C6.28071 17.4386 6.29825 17.2105 6.33334 17C5.56141 16.6491 5.0351 15.8947 5.0351 15C5.0351 13.7894 6.01755 12.807 7.22808 12.807C7.80702 12.807 8.35088 13.0526 8.73685 13.421C10.2456 12.3158 12.3333 11.6315 14.6667 11.5614L15.7719 6.3333C15.807 6.22804 15.8597 6.14032 15.9474 6.08769C16.0351 6.03506 16.1404 6.01751 16.2456 6.03506L19.8772 6.80699C20.1228 6.28067 20.6491 5.92979 21.2632 5.92979C22.1228 5.92979 22.8246 6.63155 22.8246 7.4912C22.8246 8.35085 22.1228 9.0526 21.2632 9.0526C20.4211 9.0526 19.7368 8.38593 19.7018 7.56137L16.4561 6.87716L15.4561 11.5614C17.7369 11.6491 19.807 12.3508 21.2983 13.421C21.6842 13.0351 22.2105 12.807 22.807 12.807ZM11.5614 15C10.7018 15 10 15.7017 10 16.5614C10 17.421 10.7018 18.1228 11.5614 18.1228C12.4211 18.1228 13.1228 17.421 13.1228 16.5614C13.1228 15.7017 12.4211 15 11.5614 15ZM15.0176 21.8245C15.614 21.8245 17.6491 21.7544 18.7193 20.6842C18.8772 20.5263 18.8772 20.2807 18.7544 20.1052C18.5965 19.9473 18.3333 19.9473 18.1754 20.1052C17.4912 20.7719 16.0702 21.0175 15.0351 21.0175C14 21.0175 12.5614 20.7719 11.8947 20.1052C11.7368 19.9473 11.4737 19.9473 11.3158 20.1052C11.1579 20.2631 11.1579 20.5263 11.3158 20.6842C12.3684 21.7368 14.4211 21.8245 15.0176 21.8245ZM16.8772 16.5614C16.8772 17.421 17.579 18.1228 18.4386 18.1228C19.2983 18.1228 20 17.421 20 16.5614C20 15.7017 19.2983 15 18.4386 15C17.579 15 16.8772 15.7017 16.8772 16.5614Z"/>
</svg>
