<svg width="17" height="17" viewBox="0 0 17 17" fill="none" xmlns="http://www.w3.org/2000/svg">
<path d="M16.2778 0.00775617L14.6129 0.134892C11.722 0.357027 9.00236 1.60831 6.95196 3.65865L6.74722 3.86203L2.48439 3.86203C2.30636 3.86203 2.13641 3.93299 2.01058 4.0574L0.195738 5.87352C-0.0652461 6.13449 -0.0652461 6.55868 0.195738 6.81965L1.99185 8.61703L1.33206 9.27816C1.07108 9.53912 1.07108 9.96332 1.33206 10.2243L6.77803 15.6698C6.90922 15.801 7.08048 15.8652 7.25183 15.8652C7.42317 15.8652 7.59444 15.7996 7.72564 15.6698L8.38681 15.0087L10.1829 16.8046C10.3141 16.9358 10.4854 17 10.6567 17C10.8281 17 10.9993 16.9344 11.1305 16.8046L12.9454 14.9899C13.0712 14.8641 13.1408 14.6942 13.1408 14.5162V10.2551L13.3456 10.0503C15.396 8.00152 16.646 5.28072 16.8696 2.39006L16.9981 0.72523C17.0128 0.52986 16.9419 0.339772 16.804 0.200663C16.6634 0.0628626 16.4761 -0.028163 16.278 0.00793464L16.2778 0.00775617ZM1.61594 6.34724L2.76158 5.20169H5.4089L2.93949 7.67089L1.61594 6.34724ZM11.801 14.2389L10.6554 15.3845L9.33171 14.0622L11.8011 11.593L11.801 14.2389ZM15.5339 2.28817C15.3357 4.8589 14.2222 7.27867 12.3979 9.10408L7.25053 14.2511L2.75089 9.7518L7.8983 4.60481C9.72261 2.78065 12.1437 1.66739 14.716 1.46915L15.602 1.40091L15.5339 2.28817Z" fill="white"/>
</svg>
