<svg width="19" height="18" viewBox="0 0 19 18" fill="none" xmlns="http://www.w3.org/2000/svg"><!--!Font Awesome Free 6.5.2 by @fontawesome - https://fontawesome.com License - https://fontawesome.com/license/free Copyright 2024 Fonticons, Inc.--><path d="M17.6 0.893749C17.3613 0.893749 17.1324 0.98857 16.9636 1.15735C16.7948 1.32614 16.7 1.55505 16.7 1.79375V5.39375H13.1C12.8613 5.39375 12.6324 5.48857 12.4636 5.65735C12.2948 5.82614 12.2 6.05505 12.2 6.29375C12.2 6.53244 12.2948 6.76136 12.4636 6.93015C12.6324 7.09893 12.8613 7.19375 13.1 7.19375H17.6C17.8387 7.19375 18.0676 7.09893 18.2364 6.93015C18.4052 6.76136 18.5 6.53244 18.5 6.29375V1.79375C18.5 1.55505 18.4052 1.32614 18.2364 1.15735C18.0676 0.98857 17.8387 0.893749 17.6 0.893749ZM5.9 10.7937H1.4C1.16131 10.7937 0.932387 10.8886 0.763604 11.0574C0.594821 11.2261 0.5 11.4551 0.5 11.6937V16.1937C0.5 16.4324 0.594821 16.6614 0.763604 16.8301C0.932387 16.9989 1.16131 17.0938 1.4 17.0938C1.63869 17.0938 1.86761 16.9989 2.0364 16.8301C2.20518 16.6614 2.3 16.4324 2.3 16.1937V12.5937H5.9C6.13869 12.5937 6.36761 12.4989 6.5364 12.3301C6.70518 12.1614 6.8 11.9324 6.8 11.6937C6.8 11.4551 6.70518 11.2261 6.5364 11.0574C6.36761 10.8886 6.13869 10.7937 5.9 10.7937Z" fill="white"/>
<path d="M9.50026 -0.00610309C7.28601 -0.00650075 5.14932 0.809379 3.49887 2.28549C1.84841 3.7616 0.800038 5.79433 0.554257 7.9949C0.541256 8.11309 0.551662 8.23268 0.58488 8.34685C0.618098 8.46102 0.673477 8.56752 0.747857 8.66029C0.898074 8.84764 1.11656 8.96764 1.35526 8.9939C1.59395 9.02015 1.8333 8.95051 2.02065 8.8003C2.208 8.65008 2.328 8.43159 2.35426 8.1929C2.53215 6.57046 3.25601 5.05662 4.40716 3.89955C5.5583 2.74249 7.06842 2.01087 8.68992 1.82466C10.3114 1.63845 11.9481 2.00869 13.3315 2.87468C14.715 3.74068 15.7632 5.05103 16.3043 6.5909C16.338 6.70927 16.3957 6.81946 16.4737 6.91466C16.5517 7.00986 16.6484 7.08805 16.7579 7.14438C16.8673 7.20072 16.9871 7.23401 17.11 7.24219C17.2328 7.25037 17.356 7.23327 17.4719 7.19195C17.5879 7.15063 17.6941 7.08596 17.7841 7.00195C17.874 6.91794 17.9458 6.81637 17.9949 6.70352C18.0441 6.59067 18.0695 6.46893 18.0698 6.34585C18.07 6.22276 18.045 6.10093 17.9963 5.9879C17.3743 4.23258 16.2231 2.71344 14.7014 1.63988C13.1797 0.56633 11.3625 -0.00875972 9.50026 -0.00610309ZM17.5463 8.9939C17.3238 8.99255 17.1087 9.07366 16.9425 9.22158C16.7762 9.36951 16.6707 9.57375 16.6463 9.7949C16.4604 11.4096 15.7337 12.9138 14.5844 14.0631C13.435 15.2123 11.9307 15.9388 10.316 16.1245C8.70129 16.3101 7.07128 15.944 5.6911 15.0857C4.31091 14.2273 3.26174 12.9272 2.71426 11.3969C2.68051 11.2785 2.62285 11.1683 2.54483 11.0731C2.4668 10.9779 2.37008 10.8997 2.26064 10.8434C2.1512 10.7871 2.03137 10.7538 1.90855 10.7456C1.78574 10.7374 1.66255 10.7545 1.5466 10.7958C1.43066 10.8372 1.32442 10.9018 1.23446 10.9858C1.1445 11.0699 1.07273 11.1714 1.02358 11.2843C0.974439 11.3971 0.948965 11.5189 0.948736 11.642C0.948508 11.765 0.97353 11.8869 1.02226 11.9999C1.69989 13.9222 3.00999 15.5576 4.73813 16.6384C6.46627 17.7192 8.51009 18.1814 10.5351 17.9493C12.5601 17.7172 14.4464 16.8046 15.8852 15.3608C17.324 13.9171 18.2301 12.0277 18.4553 10.0019C18.4806 9.76577 18.4115 9.52921 18.2632 9.34377C18.1148 9.15833 17.8992 9.03904 17.6633 9.0119L17.5463 8.9939Z" fill="white"/>
</svg>
