<svg width="12" height="16" viewBox="0 0 12 16" fill="none" xmlns="http://www.w3.org/2000/svg">
<path d="M11.5 4.10084V9.17899C11.5 9.91993 11.3291 10.6114 11.0072 11.2165C10.6848 11.8225 10.2134 12.3376 9.61287 12.7255L6.17668 14.9458C6.0745 15.0145 5.93945 15.0205 5.82903 14.949L2.38713 12.7255C1.78599 12.3376 1.31506 11.8225 0.992775 11.2165C0.67073 10.6114 0.5 9.92006 0.5 9.17899V4.10084L0.501213 4.08477C0.509586 3.89565 0.662478 3.74912 0.84243 3.7583C0.849347 3.75881 3.27864 3.90891 5.76083 1.10929L5.77746 1.09182C5.90936 0.96289 6.11588 0.970669 6.23868 1.10929C8.58886 3.76021 10.891 3.76659 11.1356 3.75919C11.1479 3.75779 11.1601 3.7569 11.1727 3.7569C11.3535 3.7569 11.5 3.91069 11.5 4.10084Z" stroke-width="0.975177" stroke-linecap="round"/>
</svg>
