<svg width="17" height="19" viewBox="0 0 17 19" fill="none" xmlns="http://www.w3.org/2000/svg">
<path fill-rule="evenodd" clip-rule="evenodd" d="M1.48403 6.2141C1.7606 6.34062 1.88224 6.66738 1.75573 6.94394C1.33587 7.86178 1.1016 8.88276 1.1016 9.95995C1.1016 11.0371 1.33587 12.0581 1.75573 12.976C1.88224 13.2525 1.7606 13.5793 1.48403 13.7058C1.20746 13.8323 0.8807 13.7107 0.754188 13.4341C0.269886 12.3754 0.000244141 11.1984 0.000244141 9.95995C0.000244141 8.7215 0.269886 7.54453 0.754189 6.4858C0.880701 6.20923 1.20746 6.08759 1.48403 6.2141ZM15.237 6.2141C15.5135 6.08759 15.8403 6.20924 15.9668 6.4858C16.4511 7.54453 16.7208 8.7215 16.7208 9.95995C16.7208 11.1984 16.4511 12.3754 15.9668 13.4341C15.8403 13.7107 15.5135 13.8323 15.237 13.7058C14.9604 13.5793 14.8388 13.2525 14.9653 12.976C15.3851 12.0581 15.6194 11.0371 15.6194 9.95995C15.6194 8.88276 15.3851 7.86179 14.9653 6.94394C14.8388 6.66738 14.9604 6.34062 15.237 6.2141ZM4.61465 16.8364C4.74117 16.5599 5.06793 16.4382 5.3445 16.5647C6.26234 16.9846 7.28331 17.2189 8.3605 17.2189C9.43769 17.2189 10.4587 16.9846 11.3765 16.5647C11.6531 16.4382 11.9798 16.5599 12.1063 16.8364C12.2329 17.113 12.1112 17.4397 11.8346 17.5663C10.7759 18.0506 9.59895 18.3202 8.3605 18.3202C7.12205 18.3202 5.94508 18.0506 4.88635 17.5663C4.60979 17.4397 4.48814 17.113 4.61465 16.8364Z" fill="#AFAFB6"/>
<path d="M10.7156 9.90635C10.7156 11.2612 9.61727 12.3596 8.26237 12.3596C6.90748 12.3596 5.80914 11.2613 5.80914 9.90635C5.80914 8.55144 6.90746 7.45312 8.26237 7.45312C9.61726 7.45312 10.7156 8.55144 10.7156 9.90635Z" fill="#AFAFB6"/>
<path d="M1.58719 13.8491C0.92759 12.7036 0.550293 11.3748 0.550293 9.95802C0.550293 5.64491 4.04676 2.14844 8.35987 2.14844H11.7447" stroke="#AFAFB6" stroke-width="1.10135" stroke-linecap="round"/>
<path d="M11.0075 0.679687L12.482 2.15422L11.0075 3.62876" stroke="#AFAFB6" stroke-width="0.810995" stroke-linecap="round" stroke-linejoin="round"/>
</svg>
