<svg width="196" height="196" viewBox="0 0 196 196" fill="none" xmlns="http://www.w3.org/2000/svg">
<rect width="196" height="196" rx="98" fill="white"/>
<mask id="mask0_1922_45286" style="mask-type:luminance" maskUnits="userSpaceOnUse" x="63" y="49" width="71" height="98">
<path d="M107.314 49.4297H69.8522C66.2161 49.4297 63.2412 52.4101 63.2412 56.0528V139.946C63.2412 143.589 66.2161 146.569 69.8522 146.569H127.147C130.783 146.569 133.758 143.589 133.758 139.946V75.9222L107.314 49.4297Z" fill="white"/>
</mask>
<g mask="url(#mask0_1922_45286)">
<path d="M107.314 49.4297H69.8522C66.2161 49.4297 63.2412 52.4101 63.2412 56.0528V139.946C63.2412 143.589 66.2161 146.569 69.8522 146.569H127.147C130.783 146.569 133.758 143.589 133.758 139.946V75.9222L118.333 64.8837L107.314 49.4297Z" fill="#0F9D58"/>
</g>
<mask id="mask1_1922_45286" style="mask-type:luminance" maskUnits="userSpaceOnUse" x="63" y="49" width="71" height="98">
<path d="M107.314 49.4297H69.8522C66.2161 49.4297 63.2412 52.4101 63.2412 56.0528V139.946C63.2412 143.589 66.2161 146.569 69.8522 146.569H127.147C130.783 146.569 133.758 143.589 133.758 139.946V75.9222L107.314 49.4297Z" fill="white"/>
</mask>
<g mask="url(#mask1_1922_45286)">
</g>
<mask id="mask2_1922_45286" style="mask-type:luminance" maskUnits="userSpaceOnUse" x="63" y="49" width="71" height="98">
<path d="M107.314 49.4297H69.8522C66.2161 49.4297 63.2412 52.4101 63.2412 56.0528V139.946C63.2412 143.589 66.2161 146.569 69.8522 146.569H127.147C130.783 146.569 133.758 143.589 133.758 139.946V75.9222L107.314 49.4297Z" fill="white"/>
</mask>
<g mask="url(#mask2_1922_45286)">
<path d="M109.248 73.9844L133.758 98.5341V75.9216L109.248 73.9844Z" fill="url(#paint0_linear_1922_45286)"/>
</g>
<mask id="mask3_1922_45286" style="mask-type:luminance" maskUnits="userSpaceOnUse" x="63" y="49" width="71" height="98">
<path d="M107.314 49.4297H69.8522C66.2161 49.4297 63.2412 52.4101 63.2412 56.0528V139.946C63.2412 143.589 66.2161 146.569 69.8522 146.569H127.147C130.783 146.569 133.758 143.589 133.758 139.946V75.9222L107.314 49.4297Z" fill="white"/>
</mask>
<g mask="url(#mask3_1922_45286)">
<path d="M107.314 49.4297V69.2991C107.314 72.9584 110.273 75.9222 113.925 75.9222H133.758L107.314 49.4297Z" fill="#87CEAC"/>
</g>
<mask id="mask4_1922_45286" style="mask-type:luminance" maskUnits="userSpaceOnUse" x="63" y="49" width="71" height="98">
<path d="M107.314 49.4297H69.8522C66.2161 49.4297 63.2412 52.4101 63.2412 56.0528V139.946C63.2412 143.589 66.2161 146.569 69.8522 146.569H127.147C130.783 146.569 133.758 143.589 133.758 139.946V75.9222L107.314 49.4297Z" fill="white"/>
</mask>
<g mask="url(#mask4_1922_45286)">
<path d="M69.8522 49.4297C66.2161 49.4297 63.2412 52.4101 63.2412 56.0528V56.6047C63.2412 52.962 66.2161 49.9816 69.8522 49.9816H107.314V49.4297H69.8522Z" fill="white" fill-opacity="0.2"/>
</g>
<mask id="mask5_1922_45286" style="mask-type:luminance" maskUnits="userSpaceOnUse" x="63" y="49" width="71" height="98">
<path d="M107.314 49.4297H69.8522C66.2161 49.4297 63.2412 52.4101 63.2412 56.0528V139.946C63.2412 143.589 66.2161 146.569 69.8522 146.569H127.147C130.783 146.569 133.758 143.589 133.758 139.946V75.9222L107.314 49.4297Z" fill="white"/>
</mask>
<g mask="url(#mask5_1922_45286)">
<path d="M127.147 146.018H69.8522C66.2161 146.018 63.2412 143.037 63.2412 139.395V139.946C63.2412 143.589 66.2161 146.57 69.8522 146.57H127.147C130.783 146.57 133.758 143.589 133.758 139.946V139.395C133.758 143.037 130.783 146.018 127.147 146.018Z" fill="#263238" fill-opacity="0.2"/>
</g>
<mask id="mask6_1922_45286" style="mask-type:luminance" maskUnits="userSpaceOnUse" x="63" y="49" width="71" height="98">
<path d="M107.314 49.4297H69.8522C66.2161 49.4297 63.2412 52.4101 63.2412 56.0528V139.946C63.2412 143.589 66.2161 146.569 69.8522 146.569H127.147C130.783 146.569 133.758 143.589 133.758 139.946V75.9222L107.314 49.4297Z" fill="white"/>
</mask>
<g mask="url(#mask6_1922_45286)">
<path d="M113.925 75.9239C110.273 75.9239 107.314 72.9601 107.314 69.3008V69.8527C107.314 73.512 110.273 76.4758 113.925 76.4758H133.758V75.9239H113.925Z" fill="#263238" fill-opacity="0.1"/>
<path d="M107.073 49H69.611C65.9749 49 63 51.9804 63 55.6231V139.516C63 143.159 65.9749 146.139 69.611 146.139H126.906C130.542 146.139 133.517 143.159 133.517 139.516V75.4925L107.073 49Z" fill="url(#paint1_radial_1922_45286)"/>
</g>
<path d="M80.8701 96.8945V128.906H116.129V96.8945H80.8701ZM96.2957 124.491H85.2774V118.972H96.2957V124.491ZM96.2957 115.66H85.2774V110.141H96.2957V115.66ZM96.2957 106.829H85.2774V101.31H96.2957V106.829ZM111.721 124.491H100.703V118.972H111.721V124.491ZM111.721 115.66H100.703V110.141H111.721V115.66ZM111.721 106.829H100.703V101.31H111.721V106.829Z" fill="#F1F1F1"/>
<defs>
<linearGradient id="paint0_linear_1922_45286" x1="1334.89" y1="284.771" x2="1334.89" y2="2529.3" gradientUnits="userSpaceOnUse">
<stop stop-color="#263238" stop-opacity="0.2"/>
<stop offset="1" stop-color="#263238" stop-opacity="0.02"/>
</linearGradient>
<radialGradient id="paint1_radial_1922_45286" cx="0" cy="0" r="1" gradientUnits="userSpaceOnUse" gradientTransform="translate(286.401 240.99) scale(11370.8 11391.7)">
<stop stop-color="white" stop-opacity="0.1"/>
<stop offset="1" stop-color="white" stop-opacity="0"/>
</radialGradient>
</defs>
</svg>
