<svg width="196" height="196" viewBox="0 0 196 196" fill="none" xmlns="http://www.w3.org/2000/svg">
<rect width="196" height="196" rx="98" fill="white"/>
<path fill-rule="evenodd" clip-rule="evenodd" d="M58.6059 121.641C61.3826 121.634 64.0433 120.527 66.0061 118.563C67.9689 116.599 69.074 113.937 69.0796 111.161V100.687H58.6059C55.8304 100.692 53.1699 101.797 51.206 103.758C49.2421 105.719 48.1344 108.378 48.125 111.153C48.1321 116.932 52.8204 121.62 58.5987 121.627L58.6059 121.641ZM84.8401 100.68C82.0634 100.687 79.4026 101.794 77.4399 103.758C75.4771 105.722 74.372 108.384 74.3664 111.161V137.402C74.3806 143.18 79.0689 147.861 84.8401 147.876C87.6156 147.868 90.2753 146.762 92.2379 144.8C94.2005 142.837 95.3064 140.177 95.3139 137.402V111.153C95.3064 108.378 94.2005 105.718 92.2379 103.756C90.2753 101.793 87.6156 100.687 84.8401 100.68Z" fill="#E01E5A"/>
<path fill-rule="evenodd" clip-rule="evenodd" d="M74.3664 58.6059C74.3735 64.3842 79.0618 69.0725 84.8401 69.0796H95.3139V58.6059C95.3082 55.8304 94.2042 53.1699 92.2429 51.206C90.2817 49.2421 87.6227 48.1344 84.8473 48.125C82.0718 48.1325 79.4121 49.2384 77.4495 51.201C75.4869 53.1636 74.381 55.8233 74.3735 58.5987L74.3664 58.6059ZM95.3139 84.8401C95.3064 82.0646 94.2005 79.405 92.2379 77.4424C90.2753 75.4798 87.6156 74.3739 84.8401 74.3664H58.5988C55.8233 74.3739 53.1636 75.4798 51.201 77.4424C49.2384 79.405 48.1325 82.0646 48.125 84.8401C48.1393 90.6256 52.8275 95.3067 58.5988 95.3139H84.8473C87.6227 95.3064 90.2824 94.2005 92.245 92.2379C94.2076 90.2753 95.3064 87.6156 95.3139 84.8401Z" fill="#36C5F0"/>
<path fill-rule="evenodd" clip-rule="evenodd" d="M111.16 95.321C113.935 95.3135 116.595 94.2076 118.558 92.245C120.52 90.2824 121.626 87.6227 121.634 84.8473V58.5988C121.626 55.8245 120.521 53.1659 118.56 51.2035C116.599 49.2411 113.941 48.1344 111.167 48.125C108.392 48.1325 105.732 49.2384 103.769 51.201C101.807 53.1636 100.701 55.8233 100.693 58.5988V84.8473C100.708 90.6185 105.382 95.3068 111.16 95.321ZM137.394 74.3664C134.619 74.3739 131.959 75.4798 129.996 77.4424C128.034 79.405 126.928 82.0646 126.92 84.8401V95.3139H137.394C140.17 95.3082 142.83 94.2042 144.794 92.2429C146.758 90.2817 147.866 87.6227 147.875 84.8473C147.868 82.0718 146.762 79.4121 144.799 77.4495C142.837 75.4869 140.177 74.381 137.401 74.3735L137.394 74.3664Z" fill="#2EB67D"/>
<path fill-rule="evenodd" clip-rule="evenodd" d="M100.686 111.158C100.7 116.936 105.381 121.625 111.16 121.632H137.401C140.175 121.624 142.834 120.519 144.796 118.558C146.759 116.597 147.866 113.939 147.875 111.165C147.867 108.39 146.761 105.73 144.799 103.767C142.836 101.805 140.177 100.699 137.401 100.691H111.16C108.384 100.699 105.725 101.805 103.762 103.767C101.799 105.73 100.694 108.383 100.686 111.158ZM121.634 137.392C121.626 134.617 120.52 131.957 118.558 129.995C116.595 128.032 113.935 126.926 111.16 126.919H100.686V137.392C100.7 143.178 105.381 147.859 111.16 147.866C113.935 147.859 116.595 146.753 118.558 144.79C120.52 142.827 121.626 140.168 121.634 137.392Z" fill="#ECB22E"/>
</svg>
