<svg width="31" height="32" viewBox="0 0 31 32" fill="none" xmlns="http://www.w3.org/2000/svg">
<path d="M26.7984 7.14453H9.99844C9.04366 7.14453 8.12798 7.52382 7.45285 8.19895C6.77772 8.87408 6.39844 9.78975 6.39844 10.7445V27.5445C6.39844 28.4993 6.77772 29.415 7.45285 30.0901C8.12798 30.7652 9.04366 31.1445 9.99844 31.1445H26.7984C27.7532 31.1445 28.6689 30.7652 29.344 30.0901C30.0192 29.415 30.3984 28.4993 30.3984 27.5445V10.7445C30.3984 9.78975 30.0192 8.87408 29.344 8.19895C28.6689 7.52382 27.7532 7.14453 26.7984 7.14453ZM26.7984 9.54453C27.1167 9.54453 27.4219 9.67096 27.647 9.896C27.872 10.121 27.9984 10.4263 27.9984 10.7445V17.9445H19.5984V9.54453H26.7984ZM9.99844 28.7445C9.68018 28.7445 9.37495 28.6181 9.14991 28.3931C8.92487 28.168 8.79844 27.8628 8.79844 27.5445V10.7445C8.79844 10.4263 8.92487 10.121 9.14991 9.896C9.37495 9.67096 9.68018 9.54453 9.99844 9.54453H17.1984V28.7445H9.99844ZM27.9984 27.5445C27.9984 27.8628 27.872 28.168 27.647 28.3931C27.4219 28.6181 27.1167 28.7445 26.7984 28.7445H19.5984V20.3445H27.9984V27.5445Z" fill="white"/>
<path d="M20.4 0.746094H3.6C2.64522 0.746094 1.72955 1.12538 1.05442 1.80051C0.379285 2.47564 0 3.39131 0 4.34609V21.1461C0 22.1009 0.379285 23.0165 1.05442 23.6917C1.72955 24.3668 2.64522 24.7461 3.6 24.7461H4.8V22.3461H3.6C3.28174 22.3461 2.97652 22.2197 2.75147 21.9946C2.52643 21.7696 2.4 21.4644 2.4 21.1461V4.34609C2.4 4.02783 2.52643 3.72261 2.75147 3.49757C2.97652 3.27252 3.28174 3.14609 3.6 3.14609H10.8V5.54609H13.2V3.14609H20.4C20.7183 3.14609 21.0235 3.27252 21.2485 3.49757C21.4736 3.72261 21.6 4.02783 21.6 4.34609V5.54609H24V4.34609C24 3.39131 23.6207 2.47564 22.9456 1.80051C22.2705 1.12538 21.3548 0.746094 20.4 0.746094Z" fill="white"/>
</svg>
