<svg width="17" height="22" viewBox="0 0 17 22" fill="none" xmlns="http://www.w3.org/2000/svg">
<path d="M8.5 16.5C9.03043 16.5 9.53914 16.2893 9.91421 15.9142C10.2893 15.5391 10.5 15.0304 10.5 14.5C10.5 13.39 9.6 12.5 8.5 12.5C7.96957 12.5 7.46086 12.7107 7.08579 13.0858C6.71071 13.4609 6.5 13.9696 6.5 14.5C6.5 15.0304 6.71071 15.5391 7.08579 15.9142C7.46086 16.2893 7.96957 16.5 8.5 16.5ZM14.5 7.5C15.0304 7.5 15.5391 7.71071 15.9142 8.08579C16.2893 8.46086 16.5 8.96957 16.5 9.5V19.5C16.5 20.0304 16.2893 20.5391 15.9142 20.9142C15.5391 21.2893 15.0304 21.5 14.5 21.5H2.5C1.96957 21.5 1.46086 21.2893 1.08579 20.9142C0.710714 20.5391 0.5 20.0304 0.5 19.5V9.5C0.5 8.39 1.4 7.5 2.5 7.5H3.5V5.5C3.5 4.17392 4.02678 2.90215 4.96447 1.96447C5.90215 1.02678 7.17392 0.5 8.5 0.5C9.15661 0.5 9.80679 0.629329 10.4134 0.880602C11.02 1.13188 11.5712 1.50017 12.0355 1.96447C12.4998 2.42876 12.8681 2.97995 13.1194 3.58658C13.3707 4.19321 13.5 4.84339 13.5 5.5V7.5H14.5ZM8.5 2.5C7.70435 2.5 6.94129 2.81607 6.37868 3.37868C5.81607 3.94129 5.5 4.70435 5.5 5.5V7.5H11.5V5.5C11.5 4.70435 11.1839 3.94129 10.6213 3.37868C10.0587 2.81607 9.29565 2.5 8.5 2.5Z" fill="white"/>
</svg>
