<svg width="12" height="14" viewBox="0 0 12 14" fill="none" xmlns="http://www.w3.org/2000/svg">
<path d="M6.00054 8.8622C4.87039 8.8622 3.78659 8.41326 2.98743 7.61413C2.18826 6.81501 1.73936 5.73119 1.73936 4.60102C1.73936 3.47085 2.1883 2.38707 2.98743 1.58791C3.78655 0.788743 4.87037 0.339844 6.00054 0.339844C7.13071 0.339844 8.21449 0.788783 9.01365 1.58791C9.81282 2.38703 10.2617 3.47085 10.2617 4.60102C10.2604 5.73076 9.811 6.81377 9.01218 7.61266C8.21331 8.41148 7.13031 8.86089 6.00054 8.8622ZM6.00054 1.34245C5.1363 1.34245 4.30756 1.68575 3.69636 2.29689C3.08522 2.90798 2.74191 3.73681 2.74191 4.60108C2.74191 5.46534 3.08522 6.29405 3.69636 6.90526C4.30744 7.5164 5.13627 7.8597 6.00054 7.8597C6.86481 7.8597 7.69352 7.5164 8.30473 6.90526C8.91586 6.29418 9.25917 5.46534 9.25917 4.60108C9.25786 3.73725 8.9141 2.90917 8.30327 2.29836C7.69249 1.68754 6.86442 1.34377 6.00055 1.34246L6.00054 1.34245Z" />
<path d="M0.219296 12.8774C1.08287 11.6235 2.33071 10.6844 3.77463 10.2018C5.21856 9.71919 6.78026 9.71919 8.22419 10.2018C9.66811 10.6844 10.9161 11.6234 11.7795 12.8774C11.8546 12.9871 11.8831 13.1221 11.8586 13.2528C11.8342 13.3834 11.7588 13.4991 11.6492 13.5742C11.5662 13.63 11.4684 13.6596 11.3684 13.6594C11.2027 13.6608 11.0469 13.5801 10.9524 13.4439C10.2122 12.3685 9.1424 11.5632 7.90435 11.1492C6.66631 10.7352 5.32731 10.7352 4.08926 11.1492C2.85122 11.5631 1.78147 12.3685 1.04126 13.4439C0.96611 13.5535 0.850488 13.6289 0.719838 13.6533C0.58913 13.6778 0.454141 13.6493 0.344425 13.5742C0.235546 13.4983 0.161238 13.3823 0.137736 13.2517C0.114237 13.1211 0.14348 12.9865 0.219095 12.8774H0.219296Z" />
</svg>
