<svg width="26" height="26" viewBox="0 0 26 26" fill="none" xmlns="http://www.w3.org/2000/svg">
<path fill-rule="evenodd" clip-rule="evenodd" d="M14.737 1.3954C14.737 0.624471 14.1127 0 13.3429 0C12.5721 0 11.9477 0.624471 11.9477 1.3954V2.79794V2.79692C11.9477 3.56785 12.5721 4.19232 13.3429 4.19232C14.1127 4.19232 14.737 3.56785 14.737 2.79692V1.3954ZM12.2488 5.41397C12.9159 5.02951 13.769 5.25836 14.1534 5.92555L21.3277 18.3512C21.706 19.0174 21.4761 19.8646 20.8121 20.248C20.1481 20.6315 19.299 20.4067 18.9116 19.7456L18.8088 19.5666L13.0594 20.902H13.0604C13.4062 22.1733 13.1103 23.533 12.2673 24.545C11.4253 25.557 10.143 26.095 8.83017 25.9862C7.51839 25.8763 6.34193 25.1349 5.6779 23.9968L5.67383 23.9917L4.97421 22.7814L2.27034 23.4079L2.27136 23.4069C1.87274 23.4994 1.46091 23.3215 1.25651 22.9665L0.123703 21.0046C-0.079673 20.6506 -0.0288278 20.2041 0.250814 19.9051L11.8442 7.49988L11.7385 7.31986C11.5534 6.99948 11.5026 6.6191 11.5992 6.26109C11.6948 5.90309 11.9286 5.59898 12.249 5.41388L12.2488 5.41397ZM7.81422 22.1203L10.3372 21.5345H10.3382C10.566 22.1426 10.2894 22.8251 9.70161 23.1017C9.11385 23.3784 8.41219 23.1577 8.08781 22.5942L7.81422 22.1203ZM25.999 12.6574H26C26 13.0276 25.8526 13.3826 25.5912 13.644C25.3299 13.9054 24.975 14.0528 24.6048 14.0528H23.2025H23.2036C22.4328 14.0528 21.8084 13.4284 21.8084 12.6574C21.8084 11.8875 22.4328 11.263 23.2036 11.263H24.6038H24.6028C25.3736 11.263 25.9979 11.8875 25.9979 12.6574L25.999 12.6574ZM3.4855 14.0518V14.0528C4.25629 14.0528 4.88065 13.4284 4.88065 12.6574C4.88065 11.8875 4.25629 11.263 3.4855 11.263H2.08321H2.08423C1.31344 11.263 0.689079 11.8875 0.689079 12.6574C0.689079 13.4284 1.31344 14.0528 2.08423 14.0528H3.48652L3.4855 14.0518ZM7.54283 6.85806V6.85907C6.9988 7.4032 6.11614 7.4032 5.57211 6.85907L4.39355 5.6803C4.11593 5.42197 3.95629 5.06192 3.94918 4.68357C3.94308 4.30521 4.09052 3.9411 4.35797 3.6726C4.62541 3.40511 4.99046 3.25764 5.36875 3.26475C5.74704 3.27187 6.10598 3.43155 6.36429 3.70821L7.54489 4.88494V4.88596C7.80725 5.14734 7.95368 5.50229 7.95368 5.87251C7.95368 6.24273 7.80725 6.59768 7.54489 6.85907L7.54283 6.85806ZM22.2916 5.67928L22.2926 5.6803C22.8041 5.13008 22.7888 4.2737 22.258 3.74279C21.7272 3.21188 20.871 3.19663 20.3209 3.70821L19.127 4.89818V4.8992C18.583 5.44332 18.583 6.32714 19.127 6.87231C19.6721 7.41644 20.5557 7.41644 21.0998 6.87231L22.2916 5.68234L22.2916 5.67928Z" fill="#2D2D2D"/>
</svg>
