<svg width="21" height="22" viewBox="0 0 21 22" fill="none" xmlns="http://www.w3.org/2000/svg">
<circle cx="10.5" cy="11" r="10.5" fill="#2D2D2D"/>
<path d="M7 6.47656C7.36979 6.02344 7.84375 5.66406 8.42188 5.39844C9 5.13281 9.61719 5 10.2734 5C10.7266 5 11.1536 5.06771 11.5547 5.20312C11.9609 5.33333 12.3229 5.52344 12.6406 5.77344C12.9583 6.02344 13.2083 6.35156 13.3906 6.75781C13.5781 7.16406 13.6719 7.61979 13.6719 8.125C13.6719 8.6875 13.5443 9.1849 13.2891 9.61719C13.0339 10.0443 12.6849 10.4688 12.2422 10.8906C12.1745 10.9531 12.0521 11.0677 11.875 11.2344C11.6979 11.3958 11.5729 11.513 11.5 11.5859C11.4271 11.6589 11.3359 11.7578 11.2266 11.8828C11.1224 12.0026 11.0469 12.1146 11 12.2188C10.9583 12.3229 10.9349 12.4297 10.9297 12.5391L10.8672 13.2266H9.01562V12.4297C9.01042 12.2057 9.03906 11.9922 9.10156 11.7891C9.16927 11.5859 9.26823 11.3906 9.39844 11.2031C9.53385 11.0104 9.65885 10.849 9.77344 10.7188C9.89323 10.5833 10.0495 10.4193 10.2422 10.2266C10.2995 10.1693 10.3438 10.125 10.375 10.0938C10.5938 9.84896 10.7604 9.65625 10.875 9.51562C10.9896 9.375 11.1016 9.1849 11.2109 8.94531C11.3255 8.70573 11.3828 8.47396 11.3828 8.25C11.3828 7.85938 11.2656 7.55469 11.0312 7.33594C10.8021 7.11198 10.4974 7 10.1172 7C9.8151 7 9.52083 7.07812 9.23438 7.23438C8.94792 7.39062 8.70833 7.60156 8.51562 7.86719L7 6.47656ZM8.66406 15.7734C8.66406 15.4193 8.79427 15.1172 9.05469 14.8672C9.3151 14.6172 9.6276 14.4922 9.99219 14.4922C10.3464 14.4922 10.6484 14.6198 10.8984 14.875C11.1536 15.125 11.2812 15.4245 11.2812 15.7734C11.2812 16.1328 11.1536 16.4375 10.8984 16.6875C10.6484 16.9375 10.3464 17.0625 9.99219 17.0625C9.6224 17.0625 9.30729 16.9375 9.04688 16.6875C8.79167 16.4375 8.66406 16.1328 8.66406 15.7734Z" fill="white"/>
</svg>
