<svg width="21" height="22" viewBox="0 0 21 22" fill="none" xmlns="http://www.w3.org/2000/svg">
<circle cx="10.5" cy="11" r="10.5" fill="#2D2D2D"/>
<path d="M7 7.47656C7.36979 7.02344 7.84375 6.66406 8.42188 6.39844C9 6.13281 9.61719 6 10.2734 6C10.7266 6 11.1536 6.06771 11.5547 6.20312C11.9609 6.33333 12.3229 6.52344 12.6406 6.77344C12.9583 7.02344 13.2083 7.35156 13.3906 7.75781C13.5781 8.16406 13.6719 8.61979 13.6719 9.125C13.6719 9.6875 13.5443 10.1849 13.2891 10.6172C13.0339 11.0443 12.6849 11.4688 12.2422 11.8906C12.1745 11.9531 12.0521 12.0677 11.875 12.2344C11.6979 12.3958 11.5729 12.513 11.5 12.5859C11.4271 12.6589 11.3359 12.7578 11.2266 12.8828C11.1224 13.0026 11.0469 13.1146 11 13.2188C10.9583 13.3229 10.9349 13.4297 10.9297 13.5391L10.8672 14.2266H9.01562V13.4297C9.01042 13.2057 9.03906 12.9922 9.10156 12.7891C9.16927 12.5859 9.26823 12.3906 9.39844 12.2031C9.53385 12.0104 9.65885 11.849 9.77344 11.7188C9.89323 11.5833 10.0495 11.4193 10.2422 11.2266C10.2995 11.1693 10.3438 11.125 10.375 11.0938C10.5938 10.849 10.7604 10.6562 10.875 10.5156C10.9896 10.375 11.1016 10.1849 11.2109 9.94531C11.3255 9.70573 11.3828 9.47396 11.3828 9.25C11.3828 8.85938 11.2656 8.55469 11.0312 8.33594C10.8021 8.11198 10.4974 8 10.1172 8C9.8151 8 9.52083 8.07812 9.23438 8.23438C8.94792 8.39062 8.70833 8.60156 8.51562 8.86719L7 7.47656ZM8.66406 16.7734C8.66406 16.4193 8.79427 16.1172 9.05469 15.8672C9.3151 15.6172 9.6276 15.4922 9.99219 15.4922C10.3464 15.4922 10.6484 15.6198 10.8984 15.875C11.1536 16.125 11.2812 16.4245 11.2812 16.7734C11.2812 17.1328 11.1536 17.4375 10.8984 17.6875C10.6484 17.9375 10.3464 18.0625 9.99219 18.0625C9.6224 18.0625 9.30729 17.9375 9.04688 17.6875C8.79167 17.4375 8.66406 17.1328 8.66406 16.7734Z" fill="white"/>
</svg>
