<svg width="28" height="24" viewBox="0 0 28 24" fill="white" xmlns="http://www.w3.org/2000/svg">
<path fill-rule="evenodd" clip-rule="evenodd" d="M26.509 10.9972C27.4703 9.86373 28.0004 8.40505 28 6.89452L28 6.89443C27.9992 5.59559 27.6058 4.32972 26.8754 3.27515C26.145 2.22059 25.1143 1.43051 23.9285 1.01632C22.743 0.602142 21.4619 0.584722 20.2661 0.96642C19.0702 1.34812 18.0199 2.1097 17.263 3.14401C16.5062 4.17816 16.0809 5.43285 16.0472 6.73142C16.0135 8.03 16.3731 9.30673 17.0751 10.3818L13.4746 14.1257C12.8226 13.7991 12.0866 13.6154 11.3077 13.6154C10.6808 13.6154 10.0816 13.7344 9.5317 13.9511L7.63913 11.8888C8.47708 10.7464 8.72795 9.2525 8.31187 7.88303C7.89571 6.51358 6.86448 5.43971 5.54683 5.00348C4.22929 4.56726 2.78973 4.82329 1.68697 5.68985C0.584207 6.55652 -0.0440307 7.92535 0.00240526 9.36045C0.048836 10.7956 0.76426 12.1177 1.92055 12.9055C3.07677 13.6932 4.5297 13.8482 5.81605 13.3211L7.63394 15.3009C6.90326 16.1494 6.46154 17.2539 6.46154 18.4615C6.46154 21.138 8.63123 23.3077 11.3077 23.3077C13.9841 23.3077 16.1538 21.138 16.1538 18.4615C16.1538 17.401 15.8132 16.4201 15.2354 15.6222L18.6701 12.0345C19.8745 12.8816 21.3351 13.2436 22.7782 13.0526C24.2213 12.8617 25.5478 12.1309 26.509 10.9972Z"/>
</svg>
