<svg width="22" height="22" viewBox="0 0 22 22" fill="none" xmlns="http://www.w3.org/2000/svg">
<path d="M0.916667 1.83301C0.673559 1.83301 0.440391 1.92964 0.268498 2.10151C0.0966043 2.27337 0 2.50655 0 2.74967V10.083C0 10.3261 0.0966312 10.5593 0.268498 10.7312C0.440364 10.9031 0.673542 10.9997 0.916667 10.9997H8.25C8.49311 10.9997 8.72628 10.903 8.89817 10.7312C9.07006 10.5593 9.16667 10.3261 9.16667 10.083V2.74967C9.16667 2.50657 9.07004 2.2734 8.89817 2.10151C8.7263 1.92961 8.49312 1.83301 8.25 1.83301H0.916667Z"/>
<path d="M2.7487 12.833C2.50559 12.833 2.27242 12.9296 2.10053 13.1015C1.92864 13.2734 1.83203 13.5066 1.83203 13.7497V19.2497C1.83203 19.4928 1.92866 19.726 2.10053 19.8978C2.2724 20.0697 2.50557 20.1663 2.7487 20.1663H8.2487C8.49181 20.1663 8.72497 20.0697 8.89687 19.8978C9.06876 19.726 9.16537 19.4928 9.16537 19.2497V13.7497C9.16537 13.5066 9.06873 13.2734 8.89687 13.1015C8.725 12.9296 8.49182 12.833 8.2487 12.833H2.7487Z"/>
<path d="M11.9167 12.833C11.6736 12.833 11.4404 12.9296 11.2685 13.1015C11.0966 13.2734 11 13.5066 11 13.7497V21.083C11 21.3261 11.0966 21.5593 11.2685 21.7312C11.4404 21.9031 11.6735 21.9997 11.9167 21.9997H19.25C19.4931 21.9997 19.7263 21.903 19.8982 21.7312C20.0701 21.5593 20.1667 21.3261 20.1667 21.083V13.7497C20.1667 13.5066 20.07 13.2734 19.8982 13.1015C19.7263 12.9296 19.4931 12.833 19.25 12.833H11.9167Z"/>
<path d="M11.9167 0.000976562C11.6736 0.000976562 11.4404 0.0976077 11.2685 0.269474C11.0966 0.441341 11 0.674519 11 0.917643V10.0843C11 10.3274 11.0966 10.5606 11.2685 10.7325C11.4404 10.9044 11.6735 11.001 11.9167 11.001H21.0833C21.3264 11.001 21.5596 10.9043 21.7315 10.7325C21.9034 10.5606 22 10.3274 22 10.0843V0.917643C22 0.674536 21.9034 0.441368 21.7315 0.269474C21.5596 0.0975808 21.3265 0.000976562 21.0833 0.000976562H11.9167Z"/>
</svg>
