<svg width="17" height="16" viewBox="0 0 17 16" fill="none" xmlns="http://www.w3.org/2000/svg">
<path d="M3.40026 2.05169C3.40026 2.99062 2.63906 3.75182 1.70013 3.75182C0.761199 3.75182 0 2.99062 0 2.05169C0 1.11276 0.761199 0.351562 1.70013 0.351562C2.63906 0.351562 3.40026 1.11276 3.40026 2.05169Z" fill="#2D2D2D"/>
<path d="M6.80169 3.75182H15.3023C16.2374 3.75182 17.0025 2.98676 17.0025 2.05169C17.0025 1.11662 16.2374 0.351562 15.3023 0.351562H6.80169C5.86662 0.351562 5.10156 1.11662 5.10156 2.05169C5.10156 2.98676 5.86662 3.75182 6.80169 3.75182Z" fill="#2D2D2D"/>
<path d="M3.40026 8.00482C3.40026 8.94375 2.63906 9.70495 1.70013 9.70495C0.761199 9.70495 0 8.94375 0 8.00482C0 7.06589 0.761199 6.30469 1.70013 6.30469C2.63906 6.30469 3.40026 7.06589 3.40026 8.00482Z" fill="#2D2D2D"/>
<path d="M15.3023 6.30469H6.80169C5.86662 6.30469 5.10156 7.06975 5.10156 8.00482C5.10156 8.93989 5.86662 9.70495 6.80169 9.70495H15.3023C16.2374 9.70495 17.0025 8.93989 17.0025 8.00482C17.0025 7.06975 16.2374 6.30469 15.3023 6.30469Z" fill="#2D2D2D"/>
<path d="M3.40026 13.9501C3.40026 14.8891 2.63906 15.6503 1.70013 15.6503C0.761199 15.6503 0 14.8891 0 13.9501C0 13.0112 0.761199 12.25 1.70013 12.25C2.63906 12.25 3.40026 13.0112 3.40026 13.9501Z" fill="#2D2D2D"/>
<path d="M15.3023 12.25H6.80169C5.86662 12.25 5.10156 13.0151 5.10156 13.9501C5.10156 14.8852 5.86662 15.6503 6.80169 15.6503H15.3023C16.2374 15.6503 17.0025 14.8852 17.0025 13.9501C17.0025 13.0151 16.2374 12.25 15.3023 12.25Z" fill="#2D2D2D"/>
</svg>
