<svg width="17" height="22" viewBox="0 0 17 22" fill="none" xmlns="http://www.w3.org/2000/svg">
<path d="M16.1898 5.90856L11.6172 1.33594V5.11119C11.6172 5.55189 11.9761 5.90866 12.4147 5.90866L16.1898 5.90856Z"/>
<path d="M12.4157 7.04096C11.3521 7.04096 10.4872 6.17613 10.4872 5.11248V0.860075C10.3712 0.834672 10.2498 0.820312 10.1283 0.820312H1.9703C1.05135 0.820312 0.304688 1.56697 0.304688 2.48593V19.5132C0.304688 20.4322 1.05135 21.1788 1.9703 21.1788H15.039C15.958 21.1788 16.7046 20.4322 16.7046 19.5132V7.39668C16.7046 7.27519 16.6903 7.15589 16.6649 7.03772H12.4125L12.4157 7.04096Z"/>
<path d="M4.60156 17H12.6016" stroke="white" stroke-width="1.5" stroke-linecap="round"/>
<path d="M4.60156 13.5L12.6016 13.5" stroke="white" stroke-width="1.5" stroke-linecap="round"/>
<path d="M4.60156 10H7.60156" stroke="white" stroke-width="1.5" stroke-linecap="round"/>
</svg>
