<svg width="19" height="20" viewBox="0 0 19 20" fill="none" xmlns="http://www.w3.org/2000/svg">
<path fill-rule="evenodd" clip-rule="evenodd" d="M2.49998 1.82788e-05C1.18201 1.82788e-05 0.102253 1.01988 0.00683594 2.31336L0 2.49997V17.5C0 18.818 1.01986 19.8977 2.31335 19.9932L2.49995 20H7.49998C8.81795 20 9.8977 18.9801 9.99312 17.6867L9.99996 17.5001V12.625C9.99996 11.9347 9.44031 11.375 8.74995 11.375H4.62492C4.14169 11.375 3.74992 10.9833 3.74992 10.5C3.74992 10.0168 4.14169 9.62502 4.62492 9.62502H16.0137L13.7562 11.8813C13.4487 12.1888 13.4179 12.6683 13.6639 13.0103L13.7562 13.1187C14.0638 13.4263 14.5433 13.457 14.8852 13.211L14.9937 13.1187L18.7437 9.36873C19.0513 9.06118 19.082 8.5817 18.836 8.23974L18.7437 8.13126L14.9937 4.38125C14.652 4.03954 14.0979 4.03954 13.7562 4.38125C13.4487 4.68879 13.4179 5.16827 13.6639 5.51023L13.7562 5.61871L16.0137 7.87497L11.25 7.87399C10.5597 7.87359 10.0002 7.31393 9.99996 6.62374V2.49997C9.99996 1.18201 8.98009 0.102253 7.68661 0.00683597L7.5 0L2.49998 1.82788e-05Z" fill="#2D2D2D"/>
</svg>
