<svg width="18" height="21" viewBox="0 0 18 21" fill="none" xmlns="http://www.w3.org/2000/svg">
<path d="M11.2715 0.518033L16.1598 1.59735C16.9338 1.7432 17.5156 2.66938 17.5156 3.77057V17.2329C17.5156 18.3341 16.9338 19.2602 16.1598 19.4061L11.2715 20.4854C11.2039 20.5 11.1364 20.5 11.0741 20.5C10.6948 20.5 10.3312 20.3104 10.0455 19.9603C9.70783 19.5447 9.51562 18.9467 9.51562 18.3122V2.69125C9.51562 2.05679 9.70783 1.45879 10.0455 1.04311C10.378 0.627423 10.8299 0.437814 11.2715 0.518033Z" />
<path d="M2.65398 2.78906H8.01562V9.64966H5.68802L6.43029 8.98667C6.72575 8.72002 6.74737 8.26601 6.48794 7.97055C6.2213 7.67508 5.76729 7.64625 5.46461 7.91289L3.32418 9.82983C3.18005 9.96675 3.08637 10.1613 3.08637 10.3703C3.08637 10.5793 3.18005 10.7739 3.32418 10.9108L5.46461 12.8277C5.60154 12.9502 5.77449 13.0079 5.94745 13.0079C6.14923 13.0079 6.34381 12.9286 6.48794 12.7701C6.74737 12.4746 6.72575 12.0206 6.43029 11.754L5.68802 11.091H8.01562V17.9804H2.65398C1.4577 17.9804 0.492023 17.0075 0.492023 15.8184V4.95102C0.492023 3.76194 1.4577 2.78906 2.65398 2.78906Z" />
</svg>
