<svg width="28" height="28" viewBox="0 0 28 28"  xmlns="http://www.w3.org/2000/svg">
<path d="M27.9831 13.5326C27.9758 13.4625 27.9686 13.3925 27.9613 13.3248C27.913 12.9697 27.8308 12.6267 27.7124 12.3006C27.7076 12.2837 27.7028 12.2668 27.6955 12.2523C27.2074 10.9285 26.1731 9.87042 24.8634 9.35106C24.8585 9.34864 24.8537 9.34622 24.8489 9.34622C24.2858 9.12156 23.6696 8.99836 23.0244 8.99836C22.2898 8.99836 21.5938 9.15779 20.968 9.44284C20.3349 9.57812 19.6679 9.39454 19.2015 8.92831L19.0952 8.82443C18.5998 8.32922 18.4234 7.60935 18.6071 6.94263C18.868 6.33871 19.013 5.6744 19.013 4.97627C19.013 4.38926 18.9115 3.824 18.7231 3.30221C18.7182 3.2853 18.7134 3.26839 18.7061 3.2539C18.218 1.93011 17.1837 0.872061 15.874 0.352693C15.3061 0.12562 14.6851 0 14.035 0C11.2851 0 9.05705 2.22724 9.05705 4.97627C9.05705 5.72513 9.22378 6.43534 9.5186 7.07066C9.64426 7.70115 9.46785 8.36062 9.00388 8.82443L8.89997 8.92831C8.35384 9.47184 7.54191 9.63126 6.82421 9.35346C6.82421 9.35346 6.81937 9.35106 6.81695 9.35106C6.81212 9.34864 6.80729 9.34622 6.80245 9.34622C6.78795 9.34139 6.77588 9.33656 6.76138 9.33173C6.67438 9.30032 6.58496 9.26892 6.49555 9.24235C6.45206 9.22785 6.40373 9.21818 6.36023 9.20369C6.36023 9.20369 6.3554 9.20369 6.35299 9.20369C5.91802 9.07566 5.45888 9.00078 4.978 9.00078C4.24338 9.00078 3.54743 9.16021 2.92156 9.44526C2.71615 9.53947 2.51558 9.64576 2.32709 9.76654C2.43342 9.70615 2.54216 9.65301 2.64849 9.59986C2.54216 9.65059 2.43342 9.70615 2.32709 9.76654C1.78096 10.1072 1.30976 10.5516 0.935199 11.0734C0.763628 11.3126 0.611374 11.5686 0.4833 11.8368C0.173988 12.4842 0 13.2113 0 13.9771C0 14.7428 0.166747 15.4361 0.46156 16.0714C0.468809 16.0859 0.476051 16.1004 0.4833 16.1149C0.985932 17.173 1.85105 18.0233 2.92156 18.5088C2.92639 18.5088 2.9288 18.5089 2.93363 18.5137C3.55709 18.7963 4.24822 18.9533 4.978 18.9533C5.64012 18.9533 6.27324 18.8229 6.84837 18.5861C7.56365 18.3301 8.36109 18.4799 8.89997 19.021L9.00388 19.1248C9.49201 19.6128 9.67085 20.3134 9.49928 20.9704C9.21413 21.5961 9.05463 22.2918 9.05463 23.0237C9.05463 23.7557 9.22137 24.4828 9.51618 25.1181C9.52343 25.1326 9.53068 25.1471 9.53793 25.1616C9.63701 25.3669 9.74817 25.5674 9.87383 25.7558C10.2242 26.2897 10.6761 26.7535 11.2029 27.1159C11.2029 27.1183 11.2102 27.1207 11.215 27.1255C11.4542 27.2898 11.708 27.4323 11.9762 27.5555C11.981 27.5555 11.9834 27.5579 11.9883 27.5603C12.6117 27.843 13.3028 28 14.0326 28C14.7624 28 15.4318 27.8478 16.0456 27.5748C16.9542 27.1714 17.7178 26.5047 18.2422 25.6713C18.3026 25.5771 18.3582 25.4805 18.4137 25.3814C18.4693 25.2727 18.5225 25.164 18.5732 25.0505C18.5829 25.0312 18.595 25.0094 18.6046 24.9901C18.6095 24.9804 18.6143 24.9683 18.6167 24.9587C18.6457 24.8935 18.6723 24.8282 18.6965 24.7606C18.7134 24.7147 18.7303 24.6688 18.7448 24.6205C18.7617 24.5794 18.7762 24.5359 18.7883 24.4925C18.8584 24.2678 18.914 24.0335 18.9502 23.7943C18.9502 23.7871 18.9502 23.7798 18.9502 23.775C18.9647 23.6929 18.9744 23.6107 18.9816 23.5286C18.9985 23.3619 19.0082 23.1952 19.0082 23.0237C19.0082 22.874 19.0009 22.7266 18.9889 22.5817C18.9816 22.5116 18.9744 22.4416 18.9671 22.3739C18.9623 22.3449 18.9599 22.3159 18.9526 22.2894C18.9454 22.229 18.9357 22.1686 18.9236 22.1082C18.8874 21.9125 18.839 21.7193 18.781 21.5308C18.7496 21.4246 18.7134 21.3207 18.6747 21.2168C18.3992 20.4921 18.5442 19.6732 19.0952 19.1248L19.1967 19.021C19.6655 18.5523 20.33 18.376 20.9656 18.5088C20.9704 18.5088 20.9728 18.5089 20.9777 18.5137C21.6011 18.7963 22.2922 18.9533 23.022 18.9533C23.7518 18.9533 24.4212 18.8011 25.035 18.5282C25.9436 18.1248 26.7096 17.458 27.2315 16.6246C27.292 16.5304 27.3475 16.4338 27.4031 16.3347C27.4611 16.226 27.5143 16.1173 27.565 16.0038C27.5747 15.9821 27.5868 15.9627 27.594 15.9434C27.5988 15.9337 27.6037 15.9217 27.6061 15.912C27.6351 15.8468 27.6617 15.7816 27.6858 15.7139C27.7028 15.668 27.7197 15.6221 27.7342 15.5738C27.7511 15.5327 27.7656 15.4893 27.7777 15.4458C27.8477 15.2211 27.9033 14.9868 27.9396 14.7477C27.942 14.7404 27.942 14.7332 27.942 14.7283C27.9565 14.6462 27.9662 14.5641 27.9734 14.4819C27.9903 14.3153 28 14.1486 28 13.9771C28 13.8273 27.9927 13.6799 27.9807 13.535L27.9831 13.5326ZM6.33123 9.19645C6.28532 9.18437 6.2394 9.17229 6.19349 9.16021C6.2394 9.17229 6.28532 9.18196 6.33123 9.19645ZM2.72824 9.56122C2.8104 9.52257 2.89255 9.48633 2.97713 9.45251C2.89497 9.48633 2.81282 9.52257 2.72824 9.56122ZM3.06172 9.41627C3.15113 9.38003 3.24053 9.34864 3.32753 9.31723C3.23811 9.34864 3.14871 9.38003 3.06172 9.41627ZM4.09597 9.11673C4.17813 9.10223 4.2603 9.08774 4.34246 9.07567C4.2603 9.08774 4.17813 9.09982 4.09597 9.11673ZM4.41979 9.06599C4.51162 9.05392 4.60344 9.04667 4.69285 9.03942C4.60103 9.04667 4.51162 9.05392 4.41979 9.06599ZM5.19307 9.02977C5.22449 9.02977 5.25348 9.02977 5.2849 9.03219C5.28248 9.03219 5.27764 9.03219 5.27522 9.03219C5.24864 9.03219 5.22207 9.03219 5.19307 9.03219V9.02977ZM5.71745 9.07325C5.71745 9.07325 5.70778 9.07325 5.70537 9.07325C5.84069 9.09016 5.97359 9.11431 6.1065 9.1433C6.03884 9.1288 5.97118 9.11431 5.89868 9.10223C5.83827 9.09016 5.77786 9.08049 5.71745 9.07325ZM18.0053 17.8252L17.9039 17.9291C17.3529 18.4774 16.5361 18.6248 15.8088 18.347C15.2626 18.1393 14.6706 18.0233 14.052 18.0233C13.4333 18.0233 12.8413 18.1393 12.2952 18.347C11.5702 18.6248 10.751 18.4774 10.2025 17.9291L10.0986 17.8252C9.55002 17.2744 9.40262 16.4579 9.68051 15.7308C9.88833 15.1873 10.0019 14.5955 10.0019 13.9746C10.0019 13.3538 9.88833 12.7644 9.68051 12.2185C9.40262 11.4938 9.55002 10.6748 10.0986 10.1265L10.2025 10.0226C10.6761 9.54913 11.3503 9.37521 11.9931 9.51532C12.6165 9.79795 13.3077 9.95497 14.0375 9.95497C14.7672 9.95497 15.4366 9.80278 16.0504 9.52981C16.7125 9.36313 17.4133 9.53464 17.9039 10.0226L18.0053 10.1265C18.4621 10.5806 18.6409 11.2184 18.5321 11.8368C18.2228 12.4842 18.0488 13.2113 18.0488 13.9771C18.0488 14.7428 18.2156 15.4361 18.5104 16.0714C18.5177 16.0859 18.5249 16.1004 18.5321 16.1149C18.6409 16.7333 18.4596 17.3711 18.0053 17.8252Z" />
</svg>
