<svg width="122" height="74" viewBox="0 0 122 74" fill="none" xmlns="http://www.w3.org/2000/svg">
<g clip-path="url(#clip0_4204_40988)">
<path d="M34.3804 26.8754C34.3804 28.3982 34.5427 29.6329 34.8268 30.5384C35.1514 31.4438 35.5571 32.4316 36.1252 33.5017C36.3281 33.8309 36.4092 34.1602 36.4092 34.4483C36.4092 34.8598 36.1658 35.2714 35.6383 35.683L33.082 37.4116C32.7168 37.6585 32.3516 37.782 32.027 37.782C31.6213 37.782 31.2155 37.5762 30.8097 37.2058C30.2417 36.5884 29.7548 35.9299 29.349 35.2714C28.9432 34.5717 28.5375 33.7898 28.0911 32.8432C24.9262 36.6296 20.9498 38.5228 16.1618 38.5228C12.7534 38.5228 10.0348 37.535 8.04657 35.5595C6.05835 33.584 5.04395 30.9499 5.04395 27.6574C5.04395 24.1591 6.26123 21.3192 8.73637 19.1791C11.2115 17.0389 14.4982 15.9689 18.6775 15.9689C20.0571 15.9689 21.4772 16.0923 22.9786 16.2981C24.4799 16.5039 26.0218 16.8331 27.6448 17.2036V14.1991C27.6448 11.0712 26.9956 8.88988 25.7377 7.61402C24.4393 6.33815 22.2482 5.7208 19.1238 5.7208C17.7037 5.7208 16.2429 5.88543 14.7416 6.25584C13.2403 6.62625 11.7796 7.07898 10.3594 7.65517C9.71019 7.94327 9.22328 8.1079 8.93925 8.19021C8.65521 8.27253 8.45233 8.31368 8.29003 8.31368C7.72196 8.31368 7.43793 7.90211 7.43793 7.03782V5.02113C7.43793 4.36263 7.51908 3.86874 7.72196 3.58065C7.92484 3.29255 8.29003 3.00445 8.85809 2.71635C10.2783 1.97553 11.9824 1.35818 13.9707 0.864294C15.9589 0.329255 18.0689 0.0823137 20.3005 0.0823137C25.1291 0.0823137 28.6592 1.19355 30.9315 3.41602C33.1631 5.63849 34.2993 9.01335 34.2993 13.5406V26.8754H34.3804ZM17.9066 33.1313C19.2456 33.1313 20.6251 32.8843 22.0859 32.3904C23.5466 31.8966 24.8451 30.9911 25.9406 29.7564C26.5898 28.9744 27.0767 28.1101 27.3202 27.1224C27.5637 26.1346 27.726 24.941 27.726 23.5417V21.8131C26.5492 21.525 25.2914 21.2781 23.993 21.1135C22.6945 20.9488 21.4367 20.8665 20.1788 20.8665C17.4602 20.8665 15.472 21.4016 14.133 22.5128C12.794 23.624 12.1448 25.188 12.1448 27.2458C12.1448 29.1802 12.6317 30.6207 13.6461 31.6085C14.6199 32.6374 16.0401 33.1313 17.9066 33.1313ZM50.4891 37.5762C49.7587 37.5762 49.2718 37.4527 48.9472 37.1646C48.6226 36.9177 48.3386 36.3415 48.0951 35.5595L38.5598 3.74527C38.3163 2.92214 38.1946 2.3871 38.1946 2.099C38.1946 1.44049 38.5192 1.07008 39.1684 1.07008H43.1449C43.9158 1.07008 44.4433 1.19355 44.7273 1.48165C45.0519 1.72859 45.2954 2.30478 45.5388 3.08676L52.3556 30.3326L58.6855 3.08676C58.8884 2.26363 59.1318 1.72859 59.4564 1.48165C59.781 1.23471 60.3491 1.07008 61.0795 1.07008H64.3255C65.0965 1.07008 65.624 1.19355 65.9486 1.48165C66.2732 1.72859 66.5572 2.30478 66.7195 3.08676L73.1305 30.6618L80.1502 3.08676C80.3937 2.26363 80.6777 1.72859 80.9617 1.48165C81.2863 1.23471 81.8138 1.07008 82.5442 1.07008H86.3178C86.967 1.07008 87.3322 1.39933 87.3322 2.099C87.3322 2.30478 87.2916 2.51057 87.251 2.75751C87.2104 3.00445 87.1293 3.3337 86.967 3.78643L77.1881 35.6007C76.9447 36.4238 76.6607 36.9588 76.3361 37.2058C76.0115 37.4527 75.484 37.6174 74.7942 37.6174H71.3046C70.5337 37.6174 70.0062 37.4939 69.6816 37.2058C69.357 36.9177 69.0729 36.3826 68.9106 35.5595L62.6213 9.01335L56.3726 35.5184C56.1698 36.3415 55.9263 36.8765 55.6017 37.1646C55.2771 37.4527 54.709 37.5762 53.9787 37.5762H50.4891ZM102.629 38.6874C100.519 38.6874 98.4094 38.4405 96.3806 37.9466C94.3518 37.4527 92.7694 36.9177 91.7144 36.3003C91.0652 35.9299 90.6188 35.5184 90.4565 35.1479C90.2942 34.7775 90.2131 34.366 90.2131 33.9956V31.8966C90.2131 31.0323 90.5377 30.6207 91.1463 30.6207C91.3898 30.6207 91.6332 30.6618 91.8767 30.7442C92.1201 30.8265 92.4853 30.9911 92.8911 31.1557C94.2707 31.7731 95.772 32.267 97.3544 32.5962C98.9775 32.9255 100.56 33.0901 102.183 33.0901C104.739 33.0901 106.728 32.6374 108.107 31.7319C109.487 30.8265 110.217 29.5095 110.217 27.822C110.217 26.6696 109.852 25.723 109.121 24.941C108.391 24.1591 107.012 23.4594 105.023 22.8009L99.1398 20.9488C96.1777 20.0022 93.9866 18.6029 92.6476 16.7508C91.3086 14.9399 90.6188 12.9232 90.6188 10.7831C90.6188 9.05451 90.984 7.5317 91.7144 6.21468C92.4447 4.89766 93.4186 3.74527 94.6358 2.83982C95.8531 1.89321 97.2327 1.19355 98.8558 0.699666C100.479 0.205784 102.183 0 103.968 0C104.861 0 105.794 0.0411568 106.687 0.164627C107.62 0.288098 108.472 0.452725 109.324 0.617353C110.136 0.823137 110.907 1.02892 111.637 1.27586C112.368 1.5228 112.936 1.76974 113.341 2.01669C113.909 2.34594 114.315 2.67519 114.559 3.04561C114.802 3.37486 114.924 3.82759 114.924 4.40378V6.33815C114.924 7.20245 114.599 7.65517 113.991 7.65517C113.666 7.65517 113.139 7.49055 112.449 7.16129C110.136 6.09121 107.539 5.55617 104.658 5.55617C102.345 5.55617 100.519 5.92659 99.2615 6.70857C98.0037 7.49055 97.3544 8.68409 97.3544 10.3715C97.3544 11.5239 97.7602 12.5117 98.5717 13.2937C99.3832 14.0756 100.885 14.8576 103.035 15.5573L108.797 17.4093C111.718 18.356 113.828 19.673 115.086 21.3604C116.344 23.0478 116.953 24.9822 116.953 27.1224C116.953 28.8921 116.587 30.4972 115.898 31.8966C115.167 33.2959 114.193 34.5306 112.936 35.5184C111.678 36.5473 110.176 37.2881 108.432 37.8231C106.606 38.3993 104.699 38.6874 102.629 38.6874Z" fill="#252F3E"/>
<path d="M110.298 58.6888C96.9482 68.69 77.5528 73.9992 60.8761 73.9992C37.5043 73.9992 16.4453 65.2328 0.539503 50.6633C-0.718354 49.5109 0.417775 47.9469 1.91909 48.8524C19.1233 58.9769 40.3446 65.1093 62.2962 65.1093C77.1065 65.1093 93.3775 61.9814 108.35 55.5609C110.582 54.532 112.489 57.0426 110.298 58.6888ZM115.857 52.2684C114.152 50.0459 104.576 51.1983 100.235 51.7333C98.9364 51.898 98.7335 50.7456 99.9102 49.8813C107.539 44.4486 120.077 46.0125 121.537 47.8234C122.998 49.6755 121.132 62.393 113.99 68.4842C112.895 69.4308 111.84 68.9369 112.326 67.7022C113.95 63.6277 117.561 54.4497 115.857 52.2684Z" fill="#FF9900"/>
</g>
<defs>
<clipPath id="clip0_4204_40988">
<rect width="122" height="74" fill="white"/>
</clipPath>
</defs>
</svg>
