<svg width="107" height="103" viewBox="0 0 107 103" fill="none" xmlns="http://www.w3.org/2000/svg">
<g clip-path="url(#clip0_4201_51769)">
<path d="M3.8384 78.6308C2.73577 80.4317 1.48696 82.5424 0.501278 84.2134C0.284094 84.5862 0.146265 85.0008 0.0836156 85.428C0.0241458 85.8569 0.0468266 86.2933 0.150442 86.7137C0.250681 87.1367 0.434452 87.5303 0.68505 87.8821C0.935648 88.2339 1.25307 88.5355 1.61644 88.77L23.7651 102.461C24.1452 102.699 24.5754 102.858 25.0223 102.93C25.465 103.001 25.9244 102.984 26.363 102.875C26.8015 102.766 27.215 102.574 27.5784 102.306C27.9417 102.038 28.2466 101.698 28.4763 101.309C29.3701 99.818 30.502 97.8873 31.7174 95.8268C40.4967 81.3907 49.3929 83.1581 65.285 90.7342L87.254 101.179C87.6653 101.377 88.1121 101.49 88.5678 101.51C89.0234 101.531 89.4786 101.46 89.9062 101.301C90.3322 101.141 90.7248 100.898 91.0548 100.584C91.3889 100.27 91.652 99.8934 91.8358 99.4745L102.382 75.6322C102.561 75.2301 102.662 74.7988 102.674 74.359C102.691 73.9235 102.62 73.4837 102.469 73.0733C102.319 72.6629 102.094 72.2818 101.801 71.9551C101.509 71.6285 101.158 71.3646 100.761 71.1678C96.1294 68.9816 86.9115 64.6805 78.6502 60.6265C48.5993 46.09 23.243 47.049 3.8384 78.6308Z" fill="url(#paint0_linear_4201_51769)"/>
<path d="M103.146 24.4347C104.261 22.6338 105.51 20.5273 106.483 18.8562C106.704 18.4751 106.851 18.0522 106.913 17.6124C106.976 17.1769 106.951 16.7287 106.842 16.3016C106.731 15.8733 106.538 15.4708 106.274 15.1164C106.011 14.7608 105.68 14.4606 105.301 14.2327L83.1858 0.542065C82.8016 0.303348 82.3755 0.144204 81.9286 0.0730077C81.4818 0.0018115 81.0265 0.0227516 80.588 0.127452C80.1494 0.23634 79.7359 0.428989 79.3726 0.697022C79.0092 0.965055 78.7043 1.30428 78.4704 1.69377C77.5975 3.1847 76.4447 5.11538 75.2293 7.17588C66.4166 21.679 57.604 19.9116 41.6952 12.3355L19.747 1.88642C19.3377 1.68958 18.895 1.57232 18.4439 1.54719C17.9928 1.51787 17.5376 1.58488 17.1116 1.73565C16.6855 1.88642 16.2929 2.12095 15.9588 2.42667C15.6205 2.7324 15.3532 3.10094 15.1611 3.51137L4.61508 27.4207C4.25264 28.2317 4.2182 29.1521 4.51902 29.988C4.66938 30.4026 4.89909 30.7837 5.19145 31.1104C5.48382 31.437 5.83883 31.7051 6.23561 31.8977C10.8842 34.0881 20.102 38.385 28.3467 42.4431C58.3182 56.9755 83.7538 56.0207 103.146 24.4347Z" fill="url(#paint1_linear_4201_51769)"/>
</g>
<defs>
<linearGradient id="paint0_linear_4201_51769" x1="101.672" y1="109.55" x2="34.6714" y2="71.149" gradientUnits="userSpaceOnUse">
<stop stop-color="#0052CC"/>
<stop offset="0.92" stop-color="#2380FB"/>
<stop offset="1" stop-color="#2684FF"/>
</linearGradient>
<linearGradient id="paint1_linear_4201_51769" x1="5.30965" y1="-6.49799" x2="72.3263" y2="31.903" gradientUnits="userSpaceOnUse">
<stop stop-color="#0052CC"/>
<stop offset="0.92" stop-color="#2380FB"/>
<stop offset="1" stop-color="#2684FF"/>
</linearGradient>
<clipPath id="clip0_4201_51769">
<rect width="107" height="103" fill="white"/>
</clipPath>
</defs>
</svg>
