<svg width="104" height="79" viewBox="0 0 104 79" fill="none" xmlns="http://www.w3.org/2000/svg">
<g clip-path="url(#clip0_4204_3021)">
<path d="M7.09091 78.9992H23.6364V38.3022L0 20.3477V71.8173C0 75.7913 3.17909 78.9992 7.09091 78.9992Z" fill="#4285F4"/>
<path d="M80.3638 78.9992H96.9092C100.833 78.9992 104 75.7793 104 71.8173V20.3477L80.3638 38.3022" fill="#34A853"/>
<path d="M80.3638 7.18266V38.3039L104 20.3493V10.7736C104 1.89205 93.9901 -3.17113 86.9819 2.15539" fill="#FBBC04"/>
<path d="M23.6362 38.3029V7.18164L51.9999 28.7271L80.3635 7.18164V38.3029L51.9999 59.8483" fill="#EA4335"/>
<path d="M0 10.7736V20.3493L23.6364 38.3039V7.18266L17.0182 2.15539C9.99818 -3.17113 0 1.89205 0 10.7736Z" fill="#C5221F"/>
</g>
<defs>
<clipPath id="clip0_4204_3021">
<rect width="104" height="79" fill="white"/>
</clipPath>
</defs>
</svg>
