<svg width="101" height="101" viewBox="0 0 101 101" fill="none" xmlns="http://www.w3.org/2000/svg">
<g clip-path="url(#clip0_4201_51670)">
<path d="M77.0793 23.9195L53.1585 21.2617L23.9215 23.9195L21.2632 50.4987L23.921 77.0779L50.5002 80.4003L77.0793 77.0779L79.7371 49.8346L77.0793 23.9195Z" fill="white"/>
<path d="M34.8251 65.1597C32.8385 63.8174 31.4628 61.8575 30.7119 59.2659L35.3236 57.3655C35.7422 58.9603 36.473 60.1961 37.5163 61.0732C38.553 61.9504 39.8155 62.3822 41.2907 62.3822C42.7991 62.3822 44.0949 61.9237 45.1776 61.0066C46.2604 60.0895 46.8058 58.9199 46.8058 57.5049C46.8058 56.0566 46.2341 54.8734 45.0913 53.9568C43.9485 53.0402 42.5133 52.5812 40.7988 52.5812H38.1344V48.0165H40.5261C42.0012 48.0165 43.244 47.618 44.254 46.8206C45.264 46.0232 45.769 44.9334 45.769 43.5447C45.769 42.309 45.317 41.3252 44.4136 40.5879C43.5101 39.8506 42.3668 39.4784 40.9781 39.4784C39.6226 39.4784 38.546 39.8375 37.7486 40.5617C36.9512 41.2858 36.373 42.1761 36.0078 43.226L31.4432 41.3257C32.0476 39.6112 33.1576 38.0962 34.7852 36.7873C36.4134 35.4783 38.493 34.8203 41.018 34.8203C42.8849 34.8203 44.5661 35.1794 46.0548 35.9035C47.5431 36.6277 48.7126 37.6311 49.5565 38.9068C50.4004 40.189 50.819 41.6247 50.819 43.219C50.819 44.8471 50.4271 46.2222 49.6428 47.3519C48.8586 48.4816 47.895 49.3451 46.7522 49.9501V50.2223C48.2607 50.8536 49.4898 51.8171 50.4599 53.1129C51.4235 54.4088 51.9083 55.9571 51.9083 57.7645C51.9083 59.5719 51.4497 61.1864 50.5327 62.6019C49.6156 64.0174 48.3465 65.1334 46.7386 65.944C45.1241 66.7545 43.3101 67.1666 41.2967 67.1666C38.9646 67.1731 36.8118 66.502 34.8251 65.1597Z" fill="#1A73E8"/>
<path d="M63.1251 42.2741L58.0882 45.9354L55.5566 42.0948L64.6401 35.543H68.1221V66.4475H63.1251V42.2741Z" fill="#1A73E8"/>
<path d="M77.0793 100.998L101 77.0773L89.0397 71.7617L77.0793 77.0773L71.7637 89.0378L77.0793 100.998Z" fill="#EA4335"/>
<path d="M18.605 89.0385L23.9206 100.999H77.0784V77.0781H23.9206L18.605 89.0385Z" fill="#34A853"/>
<path d="M7.97344 0C3.56833 0 0 3.56833 0 7.97344V77.0787L11.9604 82.3943L23.9208 77.0787V23.9208H77.0787L82.3943 11.9604L77.0792 0H7.97344Z" fill="#4285F4"/>
<path d="M0 77.0781V93.0255C0 97.4311 3.56833 100.999 7.97345 100.999H23.9208V77.0781H0Z" fill="#188038"/>
<path d="M77.0791 23.9211V77.0789H101V23.9211L89.0395 18.6055L77.0791 23.9211Z" fill="#FBBC04"/>
<path d="M101 23.9208V7.97345C101 3.56783 97.4316 0 93.0265 0H77.0791V23.9208H101Z" fill="#1967D2"/>
</g>
<defs>
<clipPath id="clip0_4201_51670">
<rect width="101" height="101" fill="white"/>
</clipPath>
</defs>
</svg>
