<svg width="122" height="66" viewBox="0 0 122 66" fill="none" xmlns="http://www.w3.org/2000/svg">
<g clip-path="url(#clip0_4204_43941)">
<path d="M106.425 0H15.5818L0 32.7919L15.5818 65.5838H106.425L122.007 32.7919L106.425 0ZM101.218 60.1272H19.0063L6.01659 32.7919L19.0063 5.45657H101.218L114.207 32.7919L101.218 60.1272Z" fill="#008EC7"/>
<path d="M114.208 32.7956L101.218 60.131H19.0063L6.0166 32.7956L19.0063 5.45703H101.218L114.208 32.7956Z" fill="#005B9B"/>
<path d="M41.8027 23.5742V43.0952H37.3041V35.0875H28.4898V43.092H23.9814V23.5742H28.4768V31.2705H37.2911V23.5742H41.8027Z" fill="white"/>
<path d="M50.4377 27.2568H44.2188V23.5742H61.152V27.2568H54.9494V43.0952H50.4377V27.2568Z" fill="white"/>
<path d="M67.8704 27.2568H61.6514V23.5742H78.5847V27.2568H72.3657V43.0952H67.8704V27.2568Z" fill="white"/>
<path d="M93.8955 24.439C95.0918 24.9517 96.113 25.8042 96.8336 26.8918C97.5354 28.0186 97.8918 29.3277 97.8587 30.6563C97.8881 31.9804 97.5318 33.2843 96.8336 34.4077C96.1187 35.5005 95.0958 36.3545 93.8955 36.8606C92.4763 37.457 90.948 37.7463 89.41 37.7099H85.4925V43.0943H81.0005V23.5733H89.41C90.9495 23.537 92.479 23.8322 93.8955 24.439ZM92.2436 33.1518C92.5985 32.8452 92.8782 32.4606 93.0611 32.0278C93.2439 31.595 93.325 31.1257 93.2981 30.6563C93.2981 29.5611 92.9455 28.7183 92.2436 28.1346C91.5418 27.551 90.5134 27.2558 89.1619 27.2558H85.4958V34.0306H89.1619C90.5134 34.0306 91.5407 33.7377 92.2436 33.1518Z" fill="white"/>
</g>
<defs>
<clipPath id="clip0_4204_43941">
<rect width="122" height="65.5838" fill="white"/>
</clipPath>
</defs>
</svg>
