<svg xmlns="http://www.w3.org/2000/svg" xmlns:xlink="http://www.w3.org/1999/xlink" version="1.1" width="256" height="256" viewBox="0 0 256 256" xml:space="preserve">
<g style="stroke: none; stroke-width: 0; stroke-dasharray: none; stroke-linecap: butt; stroke-linejoin: miter; stroke-miterlimit: 10; fill: none; fill-rule: nonzero; opacity: 1;" transform="translate(1.4065934065934016 1.4065934065934016) scale(2.81 2.81)">
	<path d="M 45 0 C 28.967 0 14.902 8.392 6.932 21.015 c 2.729 1.97 6.069 3.145 9.693 3.145 h 32.399 c 17.08 0 32.123 8.704 40.948 21.915 C 89.981 45.716 90 45.36 90 45 C 90 20.147 69.853 0 45 0 z" style="stroke: none; stroke-width: 1; stroke-dasharray: none; stroke-linecap: butt; stroke-linejoin: miter; stroke-miterlimit: 10; fill: rgb(255,69,0); fill-rule: nonzero; opacity: 1;" transform=" matrix(1 0 0 1 0 0) " stroke-linecap="round"/>
	<path d="M 90 45 c 0 -1.207 -0.062 -2.399 -0.155 -3.583 C 81.002 27.735 66.02 20.885 49.024 20.885 H 16.625 c -3.159 0 -6.101 -0.494 -8.614 -1.504 C 3.387 26.046 0.51 34.014 0.063 42.629 c 9.023 11.127 22.794 18.247 38.236 18.247 h 0.744 c 9.038 0 13.101 3.942 13.329 12.925 c 0.004 -0.143 0.022 -0.282 0.022 -0.426 c 0 8.417 -3.516 15.355 -11.172 16.456 C 42.469 89.934 43.726 90 45 90 C 69.853 90 90 69.853 90 45 z" style="stroke: none; stroke-width: 1; stroke-dasharray: none; stroke-linecap: butt; stroke-linejoin: miter; stroke-miterlimit: 10; fill: rgb(241,65,0); fill-rule: nonzero; opacity: 1;" transform=" matrix(1 0 0 1 0 0) " stroke-linecap="round"/>
	<path d="M 41.27 89.834 c 7.988 -1.072 14.169 -7.802 14.378 -16.034 c -0.228 -8.983 -7.566 -16.2 -16.604 -16.2 h -0.744 c -15.296 0 -28.947 -6.992 -37.973 -17.938 C 0.119 41.414 0 43.193 0 45 C 0 68.595 18.164 87.936 41.27 89.834 z" style="stroke: none; stroke-width: 1; stroke-dasharray: none; stroke-linecap: butt; stroke-linejoin: miter; stroke-miterlimit: 10; fill: rgb(228,62,0); fill-rule: nonzero; opacity: 1;" transform=" matrix(1 0 0 1 0 0) " stroke-linecap="round"/>
	<path d="M 69.999 45.336 c -0.112 -3.023 -2.65 -5.384 -5.683 -5.281 c -1.344 0.047 -2.622 0.597 -3.592 1.521 c -4.274 -2.911 -9.294 -4.507 -14.454 -4.619 l 2.435 -11.71 l 8.034 1.689 c 0.224 2.062 2.071 3.555 4.133 3.331 c 2.062 -0.224 3.555 -2.071 3.331 -4.133 s -2.071 -3.555 -4.133 -3.331 c -1.185 0.121 -2.249 0.812 -2.836 1.839 l -9.2 -1.839 c -0.625 -0.14 -1.25 0.252 -1.391 0.887 c 0 0.009 0 0.009 0 0.018 l -2.771 13.026 c -5.225 0.084 -10.311 1.689 -14.64 4.619 c -2.202 -2.071 -5.673 -1.969 -7.745 0.243 c -2.071 2.202 -1.969 5.673 0.243 7.745 c 0.43 0.401 0.923 0.747 1.474 0.989 c -0.038 0.551 -0.038 1.101 0 1.652 c 0 8.407 9.798 15.247 21.881 15.247 s 21.881 -6.83 21.881 -15.247 c 0.038 -0.551 0.038 -1.101 0 -1.652 C 68.851 49.386 70.037 47.445 69.999 45.336 z M 32.46 49.096 c 0 -2.071 1.689 -3.761 3.761 -3.761 s 3.761 1.689 3.761 3.761 s -1.689 3.761 -3.761 3.761 C 34.14 52.838 32.46 51.168 32.46 49.096 z M 54.267 59.565 v -0.149 c -2.669 2.006 -5.934 3.032 -9.275 2.893 c -3.341 0.14 -6.606 -0.887 -9.275 -2.893 c -0.355 -0.43 -0.289 -1.073 0.14 -1.427 c 0.373 -0.308 0.905 -0.308 1.288 0 c 2.258 1.652 5.011 2.492 7.81 2.361 c 2.8 0.149 5.562 -0.653 7.847 -2.286 c 0.41 -0.401 1.082 -0.392 1.484 0.018 C 54.687 58.493 54.677 59.164 54.267 59.565 z M 53.754 53.127 c -0.065 0 -0.121 0 -0.187 0 l 0.028 -0.14 c -2.071 0 -3.761 -1.689 -3.761 -3.761 s 1.689 -3.761 3.761 -3.761 s 3.761 1.689 3.761 3.761 C 57.439 51.299 55.825 53.043 53.754 53.127 z" style="stroke: none; stroke-width: 1; stroke-dasharray: none; stroke-linecap: butt; stroke-linejoin: miter; stroke-miterlimit: 10; fill: rgb(255,255,255); fill-rule: nonzero; opacity: 1;" transform=" matrix(1 0 0 1 0 0) " stroke-linecap="round"/>
</g>
</svg>