<svg width="114" height="114" viewBox="0 0 114 114" fill="none" xmlns="http://www.w3.org/2000/svg">
<path d="M109.534 83.2496C103.45 86.4206 71.934 99.3788 65.2245 102.877C58.5149 106.375 54.7877 106.341 49.4871 103.807C44.187 101.274 10.6488 87.7263 4.6072 84.8384C1.58798 83.3956 0 82.1773 0 81.0266V69.5037C0 69.5037 43.6629 59.9985 50.7117 57.4695C57.7601 54.9406 60.2058 54.8493 66.2042 57.0465C72.2034 59.2445 108.072 65.7158 114 67.8872L113.997 79.2471C113.998 80.3862 112.63 81.6357 109.534 83.2496Z" fill="#912626"/>
<path d="M109.531 71.7915C103.448 74.9613 71.933 87.9199 65.2235 91.4174C58.5144 94.9162 54.7871 94.8819 49.487 92.3481C44.1865 89.816 10.6495 76.2665 4.60844 73.3804C-1.43267 70.4926 -1.55914 68.5051 4.3751 66.1815C10.3093 63.857 43.6623 50.7715 50.7121 48.2425C57.7605 45.7145 60.2057 45.6223 66.2041 47.8204C72.2029 50.0175 103.53 62.4867 109.457 64.6576C115.387 66.8312 115.615 68.6209 109.531 71.7915Z" fill="#C6302B"/>
<path d="M109.534 64.6048C103.45 67.7763 71.934 80.734 65.2245 84.2332C58.5149 87.7303 54.7877 87.6964 49.4871 85.1626C44.1866 82.6301 10.6488 69.0815 4.6072 66.1936C1.58798 64.7508 0 63.5342 0 62.3831V50.8589C0 50.8589 43.6629 41.3541 50.7117 38.8252C57.7601 36.2962 60.2058 36.2045 66.2042 38.4021C72.2039 40.5997 108.072 47.0697 114 49.2415L113.997 60.6027C113.998 61.7414 112.63 62.9909 109.534 64.6048Z" fill="#912626"/>
<path d="M109.531 53.1468C103.448 56.3174 71.933 69.2751 65.2235 72.7739C58.5144 76.2714 54.7871 76.2371 49.487 73.7033C44.1865 71.1713 10.6495 57.6222 4.60844 54.7357C-1.43267 51.8487 -1.55914 49.8608 4.3751 47.5363C10.3093 45.2131 43.6628 32.1267 50.7121 29.5982C57.7605 27.0697 60.2057 26.978 66.2041 29.1756C72.2029 31.3728 103.53 43.8411 109.457 46.0129C115.387 48.186 115.615 49.9762 109.531 53.1468Z" fill="#C6302B"/>
<path d="M109.534 45.2679C103.45 48.4385 71.934 61.3971 65.2245 64.8964C58.5149 68.3939 54.7877 68.3596 49.4871 65.8258C44.1866 63.2933 10.6488 49.7442 4.6072 46.8577C1.58798 45.4135 0 44.1965 0 43.0467V31.522C0 31.522 43.6629 22.0177 50.7117 19.4892C57.7601 16.9598 60.2058 16.869 66.2042 19.0662C72.2039 21.2638 108.072 27.7337 114 29.9055L113.997 41.2663C113.998 42.4041 112.63 43.6537 109.534 45.2679Z" fill="#912626"/>
<path d="M109.531 33.8142C103.448 36.9848 71.9328 49.9434 65.2233 53.4409C58.5142 56.9384 54.7869 56.9041 49.4868 54.3716C44.1867 51.8378 10.6493 38.2896 4.60866 35.4027C-1.43289 32.5161 -1.55892 30.5278 4.37487 28.2037C10.3091 25.8801 43.6626 12.7955 50.7119 10.2661C57.7603 7.73717 60.2055 7.64633 66.2038 9.84394C72.2027 12.0416 103.529 24.5099 109.457 26.6817C115.387 28.853 115.614 30.6436 109.531 33.8142Z" fill="#C6302B"/>
<path d="M70.9311 22.6013L61.1297 23.6189L58.9357 28.8985L55.3919 23.007L44.0743 21.9899L52.5192 18.9444L49.9854 14.2695L57.8919 17.3618L65.3455 14.9215L63.3309 19.7553L70.9311 22.6013ZM58.3505 48.2148L40.0584 40.628L66.2695 36.6046L58.3505 48.2148ZM32.99 25.5359C40.7273 25.5359 46.9995 27.9673 46.9995 30.9661C46.9995 33.9657 40.7273 36.3967 32.99 36.3967C25.2527 36.3967 18.9805 33.9653 18.9805 30.9661C18.9805 27.9673 25.2527 25.5359 32.99 25.5359Z" fill="white"/>
<path d="M82.5146 24.0473L98.0276 30.1775L82.528 36.3019L82.5146 24.0473Z" fill="#621B1C"/>
<path d="M65.3516 30.8357L82.5139 24.0469L82.5273 36.3014L80.8444 36.9596L65.3516 30.8357Z" fill="#9A2928"/>
</svg>
