<svg width="124" height="124" viewBox="0 0 124 124" fill="none" xmlns="http://www.w3.org/2000/svg">
<g clip-path="url(#clip0_4204_41970)">
<path d="M62 0C96.224 0 124 27.776 124 62C124 96.224 96.224 124 62 124C27.776 124 0 96.224 0 62C0 27.776 27.776 0 62 0ZM62 16.368C36.704 16.368 16.368 36.704 16.368 62C16.368 87.296 36.704 107.632 62 107.632C87.296 107.632 107.632 87.296 107.632 62C107.632 36.704 87.296 16.368 62 16.368ZM77.376 64.48C84.4983 64.48 90.272 70.2537 90.272 77.376C90.272 84.4983 84.4983 90.272 77.376 90.272C70.2537 90.272 64.48 84.4983 64.48 77.376C64.48 70.2537 70.2537 64.48 77.376 64.48ZM46.624 64.48C53.7463 64.48 59.52 70.2537 59.52 77.376C59.52 84.4983 53.7463 90.272 46.624 90.272C39.5017 90.272 33.728 84.4983 33.728 77.376C33.728 70.2537 39.5017 64.48 46.624 64.48ZM77.376 33.728C84.4983 33.728 90.272 39.5017 90.272 46.624C90.272 53.7463 84.4983 59.52 77.376 59.52C70.2537 59.52 64.48 53.7463 64.48 46.624C64.48 39.5017 70.2537 33.728 77.376 33.728ZM46.624 33.728C53.7463 33.728 59.52 39.5017 59.52 46.624C59.52 53.7463 53.7463 59.52 46.624 59.52C39.5017 59.52 33.728 53.7463 33.728 46.624C33.728 39.5017 39.5017 33.728 46.624 33.728Z" fill="#F12E45"/>
</g>
<defs>
<clipPath id="clip0_4204_41970">
<rect width="124" height="124" fill="white"/>
</clipPath>
</defs>
</svg>
