<svg width="30" height="30" viewBox="0 0 30 30" fill="none" xmlns="http://www.w3.org/2000/svg">
<g clip-path="url(#clip0_2907_69759)">
<path fill-rule="evenodd" clip-rule="evenodd" d="M15.0005 0.625C11.4396 0.626848 7.99538 1.88807 5.2838 4.18315C2.57222 6.47823 0.770093 9.65751 0.199644 13.1525C-0.370804 16.6475 0.327622 20.2303 2.17005 23.2602C4.01248 26.2902 6.87876 28.5697 10.2564 29.6912C11.0015 29.8295 11.2822 29.3677 11.2822 28.975C11.2822 28.5823 11.2673 27.4438 11.2623 26.199C7.08946 27.1005 6.2077 24.4381 6.2077 24.4381C5.52712 22.7093 4.54351 22.2549 4.54351 22.2549C3.18236 21.3312 4.64536 21.3485 4.64536 21.3485C6.15306 21.4547 6.94541 22.8871 6.94541 22.8871C8.28172 25.1667 10.4551 24.5073 11.3095 24.122C11.4437 23.1563 11.8336 22.4994 12.2633 22.1264C8.93 21.751 5.42776 20.4717 5.42776 14.7568C5.4071 13.2746 5.96024 11.8413 6.97273 10.7534C6.81873 10.378 6.30456 8.86154 7.11927 6.80179C7.11927 6.80179 8.37859 6.40169 11.245 8.33055C13.7035 7.66203 16.2975 7.66203 18.7561 8.33055C21.62 6.40169 22.8768 6.80179 22.8768 6.80179C23.694 8.8566 23.1799 10.373 23.0259 10.7534C24.0416 11.8415 24.5959 13.2773 24.5733 14.7617C24.5733 20.489 21.0636 21.751 17.7253 22.119C18.2618 22.5833 18.7412 23.4897 18.7412 24.8827C18.7412 26.8782 18.7238 28.4835 18.7238 28.975C18.7238 29.3726 18.9946 29.8369 19.7546 29.6912C23.1326 28.5696 25.9992 26.2896 27.8416 23.2592C29.684 20.2287 30.3821 16.6454 29.811 13.1501C29.2399 9.65475 27.4368 6.47544 24.7244 4.18076C22.0119 1.88607 18.5669 0.625676 15.0055 0.625H15.0005Z" fill="#D2D2D7"/>
<path d="M10.0349 24.9691C10.0349 25.0901 9.89582 25.1938 9.71699 25.1963C9.53815 25.1988 9.3916 25.1 9.3916 24.979C9.3916 24.858 9.53069 24.7542 9.70953 24.7518C9.88837 24.7493 10.0349 24.8456 10.0349 24.9691Z" fill="#D2D2D7"/>
<path d="M11.177 24.7789C11.1994 24.8999 11.0752 25.0259 10.8963 25.0555C10.7175 25.0851 10.561 25.0135 10.5387 24.895C10.5163 24.7764 10.6455 24.648 10.8193 24.6159C10.9932 24.5838 11.1546 24.6579 11.177 24.7789Z" fill="#D2D2D7"/>
<path d="M8.80772 24.8852C8.77046 25.0013 8.60156 25.0532 8.43265 25.0038C8.26375 24.9544 8.15198 24.8161 8.18427 24.6975C8.21656 24.579 8.38795 24.5247 8.55933 24.579C8.73072 24.6333 8.84001 24.7642 8.80772 24.8852Z" fill="#D2D2D7"/>
<path d="M7.68252 24.4011C7.60056 24.4924 7.43414 24.4677 7.29753 24.3443C7.16092 24.2208 7.12862 24.0528 7.21058 23.9639C7.29255 23.875 7.45897 23.8997 7.60055 24.0207C7.74213 24.1417 7.76946 24.3121 7.68252 24.4011Z" fill="#D2D2D7"/>
<path d="M6.88009 23.5712C6.78819 23.6354 6.6317 23.5712 6.54476 23.4428C6.52072 23.4198 6.50161 23.3921 6.48855 23.3616C6.47549 23.331 6.46875 23.2982 6.46875 23.265C6.46875 23.2318 6.47549 23.1989 6.48855 23.1684C6.50161 23.1378 6.52072 23.1102 6.54476 23.0872C6.63667 23.0254 6.79316 23.0872 6.88009 23.2131C6.96703 23.3391 6.96951 23.507 6.88009 23.5712Z" fill="#D2D2D7"/>
<path d="M6.28904 22.7142C6.2376 22.7399 6.17875 22.7471 6.12256 22.7345C6.06638 22.7219 6.01635 22.6903 5.98104 22.645C5.88417 22.5413 5.86429 22.398 5.9388 22.3338C6.01332 22.2696 6.14746 22.2993 6.24433 22.403C6.3412 22.5067 6.36355 22.65 6.28904 22.7142Z" fill="#D2D2D7"/>
<path d="M5.68045 22.04C5.64816 22.1141 5.52894 22.1364 5.43207 22.0845C5.3352 22.0326 5.26317 21.9363 5.29795 21.8597C5.33272 21.7832 5.44946 21.7634 5.54633 21.8153C5.6432 21.8672 5.71771 21.9659 5.68045 22.04Z" fill="#D2D2D7"/>
</g>
<defs>
<clipPath id="clip0_2907_69759">
<rect width="30" height="30" fill="white"/>
</clipPath>
</defs>
</svg>
