<svg width="24" height="24" viewBox="0 0 24 24" fill="none" xmlns="http://www.w3.org/2000/svg">
<path d="M20.8224 8.42979C21.1233 8.45688 21.4217 8.35572 21.644 8.15119C21.8698 7.94923 21.9996 7.6611 22.0012 7.3582V5.92944C22.0012 4.8874 21.5873 3.88804 20.8504 3.1511C20.1135 2.41427 19.1141 2.00035 18.0721 2.00035H16.704C16.4298 1.99349 16.1624 2.08802 15.9535 2.26603C15.7445 2.44405 15.6086 2.69276 15.5718 2.96473C15.5414 3.26703 15.6407 3.56796 15.8451 3.79269C16.0494 4.01757 16.3395 4.145 16.6433 4.14348H18.0721C18.5458 4.14348 19.0001 4.33161 19.3349 4.66659C19.6699 5.00146 19.858 5.45574 19.858 5.92944V7.2975C19.8512 7.57179 19.9457 7.83909 20.1237 8.04805C20.3017 8.25701 20.5504 8.39294 20.8224 8.42979Z" fill="white"/>
<path d="M4.14313 7.29766V5.92959C4.14313 5.45589 4.33126 5.00161 4.66624 4.66674C5.0011 4.33176 5.45539 4.14364 5.92908 4.14364H7.29715C7.57144 4.1505 7.83874 4.05597 8.0477 3.87795C8.25665 3.69994 8.39256 3.45123 8.42941 3.17926C8.45976 2.87696 8.36046 2.57602 8.15606 2.35129C7.95176 2.12642 7.66167 1.99898 7.35785 2.0005H5.92909C4.88705 2.0005 3.88769 2.41443 3.15075 3.15125C2.41392 3.88819 2 4.88755 2 5.92959V7.35836C2.00163 7.66125 2.13139 7.94936 2.35719 8.15135C2.57951 8.35587 2.87785 8.45704 3.17879 8.42994C3.45075 8.39308 3.69945 8.25716 3.87748 8.04822C4.05551 7.83929 4.15002 7.57197 4.14317 7.29767L4.14313 7.29766Z" fill="white"/>
<path d="M2 18.0741C2 19.1161 2.41392 20.1155 3.15075 20.8524C3.88769 21.5892 4.88705 22.0031 5.92909 22.0031H7.29716C7.57145 22.01 7.83875 21.9155 8.04771 21.7375C8.25666 21.5595 8.39257 21.3107 8.42942 21.0388C8.45977 20.7365 8.36048 20.4355 8.15607 20.2108C7.95178 19.9859 7.66169 19.8585 7.35787 19.86H5.9291C5.45541 19.86 5.00112 19.6719 4.66626 19.3369C4.33127 19.002 4.14315 18.5478 4.14315 18.0741V16.706C4.15001 16.4317 4.05548 16.1644 3.87747 15.9554C3.69945 15.7465 3.45075 15.6106 3.17878 15.5737H3.07157C2.80728 15.5754 2.55275 15.6745 2.35719 15.8523C2.13139 16.0543 2.00164 16.3424 2 16.6453V18.0741Z" fill="white"/>
<path d="M15.8532 21.6459C16.0552 21.8717 16.3433 22.0015 16.6462 22.0031H18.075C19.117 22.0031 20.1164 21.5892 20.8533 20.8524C21.5901 20.1154 22.0041 19.1161 22.0041 18.074V16.6453C22.0056 16.3415 21.8781 16.0514 21.6533 15.8471C21.4285 15.6427 21.1276 15.5434 20.8253 15.5737C20.5533 15.6106 20.3046 15.7465 20.1266 15.9554C19.9486 16.1644 19.8541 16.4317 19.8609 16.706V18.0741C19.8609 18.5478 19.6728 19.002 19.3378 19.3369C19.0029 19.6719 18.5487 19.86 18.075 19.86H16.7069C16.4326 19.8531 16.1653 19.9477 15.9564 20.1257C15.7474 20.3037 15.6115 20.5524 15.5746 20.8244C15.5475 21.1253 15.6487 21.4237 15.8532 21.646L15.8532 21.6459Z" fill="white"/>
</svg>
