<svg width="196" height="196" viewBox="0 0 196 196" fill="none" xmlns="http://www.w3.org/2000/svg">
<rect width="196" height="196" rx="98" fill="white"/>
<g clip-path="url(#clip0_1922_45300)">
<path fill-rule="evenodd" clip-rule="evenodd" d="M98 48C70.375 48 48 70.375 48 98C48 120.125 62.3125 138.812 82.1875 145.437C84.6875 145.875 85.625 144.375 85.625 143.062C85.625 141.875 85.5625 137.937 85.5625 133.75C73 136.062 69.75 130.687 68.75 127.875C68.1875 126.437 65.75 122 63.625 120.812C61.875 119.875 59.375 117.562 63.5625 117.5C67.5 117.437 70.3125 121.125 71.25 122.625C75.75 130.187 82.9375 128.062 85.8125 126.75C86.25 123.5 87.5625 121.312 89 120.062C77.875 118.812 66.25 114.5 66.25 95.375C66.25 89.9375 68.1875 85.4375 71.375 81.9375C70.875 80.6875 69.125 75.5625 71.875 68.6875C71.875 68.6875 76.0625 67.375 85.625 73.8125C89.625 72.6875 93.875 72.125 98.125 72.125C102.375 72.125 106.625 72.6875 110.625 73.8125C120.188 67.3125 124.375 68.6875 124.375 68.6875C127.125 75.5625 125.375 80.6875 124.875 81.9375C128.062 85.4375 130 89.875 130 95.375C130 114.562 118.312 118.812 107.188 120.062C109 121.625 110.562 124.625 110.562 129.312C110.562 136 110.5 141.375 110.5 143.062C110.5 144.375 111.438 145.937 113.938 145.437C133.688 138.812 148 120.062 148 98C148 70.375 125.625 48 98 48Z" fill="#1B1F23"/>
</g>
<defs>
<clipPath id="clip0_1922_45300">
<rect width="100" height="100" fill="white" transform="translate(48 48)"/>
</clipPath>
</defs>
</svg>
