<svg width="22" height="22" viewBox="0 0 22 22" fill="none" xmlns="http://www.w3.org/2000/svg">
<path d="M5.21484 6.41213C5.21484 5.97148 5.57206 5.61426 6.01272 5.61426H10.8V11.1994H5.21484V6.41213Z" stroke-width="1.75532"/>
<path d="M5.21484 11.1997H10.8V16.7848H6.01271C5.57206 16.7848 5.21484 16.4276 5.21484 15.9869V11.1997Z" stroke-width="1.75532"/>
<path d="M10.8008 11.1997H16.3859V15.9869C16.3859 16.4276 16.0287 16.7848 15.588 16.7848H10.8008V11.1997Z"  stroke-width="1.75532"/>
<rect x="14.7891" y="1.625" width="5.58511" height="5.58511" rx="0.797872"  stroke-width="1.75532"/>
<path d="M11.1995 2.02393H4.01862C2.69666 2.02393 1.625 3.09558 1.625 4.41754V17.9814C1.625 19.3033 2.69666 20.375 4.01862 20.375H17.1835C18.9461 20.375 20.375 18.9461 20.375 17.1835V11.1995"  stroke-width="1.75532"/>
</svg>
